<?xml version="1.0" encoding="utf-8" standalone="no"?>
<!DOCTYPE svg PUBLIC "-//W3C//DTD SVG 1.1//EN"
  "http://www.w3.org/Graphics/SVG/1.1/DTD/svg11.dtd">
<svg xmlns:xlink="http://www.w3.org/1999/xlink" width="489.476278pt" height="181.321594pt" viewBox="0 0 489.476278 181.321594" xmlns="http://www.w3.org/2000/svg" version="1.1">
 <metadata>
  <rdf:RDF xmlns:dc="http://purl.org/dc/elements/1.1/" xmlns:cc="http://creativecommons.org/ns#" xmlns:rdf="http://www.w3.org/1999/02/22-rdf-syntax-ns#">
   <cc:Work>
    <dc:type rdf:resource="http://purl.org/dc/dcmitype/StillImage"/>
    <dc:date>2026-06-02T21:57:01.867215</dc:date>
    <dc:format>image/svg+xml</dc:format>
    <dc:creator>
     <cc:Agent>
      <dc:title>Matplotlib v3.10.1, https://matplotlib.org/</dc:title>
     </cc:Agent>
    </dc:creator>
   </cc:Work>
  </rdf:RDF>
 </metadata>
 <defs>
  <style type="text/css">*{stroke-linejoin: round; stroke-linecap: butt}</style>
 </defs>
 <g id="figure_1">
  <g id="patch_1">
   <path d="M 0 181.321594 
L 489.476278 181.321594 
L 489.476278 0 
L 0 0 
z
" style="fill: #ffffff"/>
  </g>
  <g id="axes_1">
   <g id="patch_2">
    <path d="M 35.240158 75.576994 
L 110.279998 75.576994 
Q 113.025358 75.576994 113.025358 73.082194 
L 113.025358 42.312994 
Q 113.025358 39.818194 110.279998 39.818194 
L 35.240158 39.818194 
Q 32.494798 39.818194 32.494798 42.312994 
L 32.494798 73.082194 
Q 32.494798 75.576994 35.240158 75.576994 
z
" clip-path="url(#pbe9da60848)" style="fill: #3b6fb6; fill-opacity: 0.094118; stroke: #3b6fb6; stroke-width: 1.2; stroke-linejoin: miter"/>
   </g>
   <g id="patch_3">
    <path d="M 35.240158 142.104994 
L 110.279998 142.104994 
Q 113.025358 142.104994 113.025358 139.610194 
L 113.025358 108.840994 
Q 113.025358 106.346194 110.279998 106.346194 
L 35.240158 106.346194 
Q 32.494798 106.346194 32.494798 108.840994 
L 32.494798 139.610194 
Q 32.494798 142.104994 35.240158 142.104994 
z
" clip-path="url(#pbe9da60848)" style="fill: #e69f00; fill-opacity: 0.094118; stroke: #e69f00; stroke-width: 1.2; stroke-linejoin: miter"/>
   </g>
   <g id="patch_4">
    <path d="M 145.054558 75.576994 
L 224.669998 75.576994 
Q 227.415358 75.576994 227.415358 73.082194 
L 227.415358 42.312994 
Q 227.415358 39.818194 224.669998 39.818194 
L 145.054558 39.818194 
Q 142.309198 39.818194 142.309198 42.312994 
L 142.309198 73.082194 
Q 142.309198 75.576994 145.054558 75.576994 
z
" clip-path="url(#pbe9da60848)" style="fill: #3b6fb6; fill-opacity: 0.094118; stroke: #3b6fb6; stroke-width: 1.2; stroke-linejoin: miter"/>
   </g>
   <g id="patch_5">
    <path d="M 254.868958 108.840994 
L 334.484398 108.840994 
Q 337.229758 108.840994 337.229758 106.346194 
L 337.229758 75.576994 
Q 337.229758 73.082194 334.484398 73.082194 
L 254.868958 73.082194 
Q 252.123598 73.082194 252.123598 75.576994 
L 252.123598 106.346194 
Q 252.123598 108.840994 254.868958 108.840994 
z
" clip-path="url(#pbe9da60848)" style="fill: #009e73; fill-opacity: 0.094118; stroke: #009e73; stroke-width: 1.2; stroke-linejoin: miter"/>
   </g>
   <g id="patch_6">
    <path d="M 364.683358 108.840994 
L 453.449998 108.840994 
Q 456.195358 108.840994 456.195358 106.346194 
L 456.195358 75.576994 
Q 456.195358 73.082194 453.449998 73.082194 
L 364.683358 73.082194 
Q 361.937998 73.082194 361.937998 75.576994 
L 361.937998 106.346194 
Q 361.937998 108.840994 364.683358 108.840994 
z
" clip-path="url(#pbe9da60848)" style="fill: #7b4fa3; fill-opacity: 0.094118; stroke: #7b4fa3; stroke-width: 1.2; stroke-linejoin: miter"/>
   </g>
   <g id="text_1">
    <!-- Non-financial -->
    <g style="fill: #111827" transform="translate(39.097969 55.142016) scale(0.09 -0.09)">
     <defs>
      <path id="DejaVuSans-Bold-4e" d="M 588 4666 
L 1931 4666 
L 3628 1466 
L 3628 4666 
L 4769 4666 
L 4769 0 
L 3425 0 
L 1728 3200 
L 1728 0 
L 588 0 
L 588 4666 
z
" transform="scale(0.015625)"/>
      <path id="DejaVuSans-Bold-6f" d="M 2203 2784 
Q 1831 2784 1636 2517 
Q 1441 2250 1441 1747 
Q 1441 1244 1636 976 
Q 1831 709 2203 709 
Q 2569 709 2762 976 
Q 2956 1244 2956 1747 
Q 2956 2250 2762 2517 
Q 2569 2784 2203 2784 
z
M 2203 3584 
Q 3106 3584 3614 3096 
Q 4122 2609 4122 1747 
Q 4122 884 3614 396 
Q 3106 -91 2203 -91 
Q 1297 -91 786 396 
Q 275 884 275 1747 
Q 275 2609 786 3096 
Q 1297 3584 2203 3584 
z
" transform="scale(0.015625)"/>
      <path id="DejaVuSans-Bold-6e" d="M 4056 2131 
L 4056 0 
L 2931 0 
L 2931 347 
L 2931 1631 
Q 2931 2084 2911 2256 
Q 2891 2428 2841 2509 
Q 2775 2619 2662 2680 
Q 2550 2741 2406 2741 
Q 2056 2741 1856 2470 
Q 1656 2200 1656 1722 
L 1656 0 
L 538 0 
L 538 3500 
L 1656 3500 
L 1656 2988 
Q 1909 3294 2193 3439 
Q 2478 3584 2822 3584 
Q 3428 3584 3742 3212 
Q 4056 2841 4056 2131 
z
" transform="scale(0.015625)"/>
      <path id="DejaVuSans-Bold-2d" d="M 347 2297 
L 2309 2297 
L 2309 1388 
L 347 1388 
L 347 2297 
z
" transform="scale(0.015625)"/>
      <path id="DejaVuSans-Bold-66" d="M 2841 4863 
L 2841 4128 
L 2222 4128 
Q 1984 4128 1890 4042 
Q 1797 3956 1797 3744 
L 1797 3500 
L 2753 3500 
L 2753 2700 
L 1797 2700 
L 1797 0 
L 678 0 
L 678 2700 
L 122 2700 
L 122 3500 
L 678 3500 
L 678 3744 
Q 678 4316 997 4589 
Q 1316 4863 1984 4863 
L 2841 4863 
z
" transform="scale(0.015625)"/>
      <path id="DejaVuSans-Bold-69" d="M 538 3500 
L 1656 3500 
L 1656 0 
L 538 0 
L 538 3500 
z
M 538 4863 
L 1656 4863 
L 1656 3950 
L 538 3950 
L 538 4863 
z
" transform="scale(0.015625)"/>
      <path id="DejaVuSans-Bold-61" d="M 2106 1575 
Q 1756 1575 1579 1456 
Q 1403 1338 1403 1106 
Q 1403 894 1545 773 
Q 1688 653 1941 653 
Q 2256 653 2472 879 
Q 2688 1106 2688 1447 
L 2688 1575 
L 2106 1575 
z
M 3816 1997 
L 3816 0 
L 2688 0 
L 2688 519 
Q 2463 200 2181 54 
Q 1900 -91 1497 -91 
Q 953 -91 614 226 
Q 275 544 275 1050 
Q 275 1666 698 1953 
Q 1122 2241 2028 2241 
L 2688 2241 
L 2688 2328 
Q 2688 2594 2478 2717 
Q 2269 2841 1825 2841 
Q 1466 2841 1156 2769 
Q 847 2697 581 2553 
L 581 3406 
Q 941 3494 1303 3539 
Q 1666 3584 2028 3584 
Q 2975 3584 3395 3211 
Q 3816 2838 3816 1997 
z
" transform="scale(0.015625)"/>
      <path id="DejaVuSans-Bold-63" d="M 3366 3391 
L 3366 2478 
Q 3138 2634 2908 2709 
Q 2678 2784 2431 2784 
Q 1963 2784 1702 2511 
Q 1441 2238 1441 1747 
Q 1441 1256 1702 982 
Q 1963 709 2431 709 
Q 2694 709 2930 787 
Q 3166 866 3366 1019 
L 3366 103 
Q 3103 6 2833 -42 
Q 2563 -91 2291 -91 
Q 1344 -91 809 395 
Q 275 881 275 1747 
Q 275 2613 809 3098 
Q 1344 3584 2291 3584 
Q 2566 3584 2833 3536 
Q 3100 3488 3366 3391 
z
" transform="scale(0.015625)"/>
      <path id="DejaVuSans-Bold-6c" d="M 538 4863 
L 1656 4863 
L 1656 0 
L 538 0 
L 538 4863 
z
" transform="scale(0.015625)"/>
     </defs>
     <use xlink:href="#DejaVuSans-Bold-4e"/>
     <use xlink:href="#DejaVuSans-Bold-6f" transform="translate(83.691406 0)"/>
     <use xlink:href="#DejaVuSans-Bold-6e" transform="translate(152.392578 0)"/>
     <use xlink:href="#DejaVuSans-Bold-2d" transform="translate(223.583984 0)"/>
     <use xlink:href="#DejaVuSans-Bold-66" transform="translate(265.087891 0)"/>
     <use xlink:href="#DejaVuSans-Bold-69" transform="translate(308.59375 0)"/>
     <use xlink:href="#DejaVuSans-Bold-6e" transform="translate(342.871094 0)"/>
     <use xlink:href="#DejaVuSans-Bold-61" transform="translate(414.0625 0)"/>
     <use xlink:href="#DejaVuSans-Bold-6e" transform="translate(481.542969 0)"/>
     <use xlink:href="#DejaVuSans-Bold-63" transform="translate(552.734375 0)"/>
     <use xlink:href="#DejaVuSans-Bold-69" transform="translate(612.011719 0)"/>
     <use xlink:href="#DejaVuSans-Bold-61" transform="translate(646.289062 0)"/>
     <use xlink:href="#DejaVuSans-Bold-6c" transform="translate(713.769531 0)"/>
    </g>
    <!-- sources -->
    <g style="fill: #111827" transform="translate(53.169609 65.220047) scale(0.09 -0.09)">
     <defs>
      <path id="DejaVuSans-Bold-73" d="M 3272 3391 
L 3272 2541 
Q 2913 2691 2578 2766 
Q 2244 2841 1947 2841 
Q 1628 2841 1473 2761 
Q 1319 2681 1319 2516 
Q 1319 2381 1436 2309 
Q 1553 2238 1856 2203 
L 2053 2175 
Q 2913 2066 3209 1816 
Q 3506 1566 3506 1031 
Q 3506 472 3093 190 
Q 2681 -91 1863 -91 
Q 1516 -91 1145 -36 
Q 775 19 384 128 
L 384 978 
Q 719 816 1070 734 
Q 1422 653 1784 653 
Q 2113 653 2278 743 
Q 2444 834 2444 1013 
Q 2444 1163 2330 1236 
Q 2216 1309 1875 1350 
L 1678 1375 
Q 931 1469 631 1722 
Q 331 1975 331 2491 
Q 331 3047 712 3315 
Q 1094 3584 1881 3584 
Q 2191 3584 2531 3537 
Q 2872 3491 3272 3391 
z
" transform="scale(0.015625)"/>
      <path id="DejaVuSans-Bold-75" d="M 500 1363 
L 500 3500 
L 1625 3500 
L 1625 3150 
Q 1625 2866 1622 2436 
Q 1619 2006 1619 1863 
Q 1619 1441 1641 1255 
Q 1663 1069 1716 984 
Q 1784 875 1895 815 
Q 2006 756 2150 756 
Q 2500 756 2700 1025 
Q 2900 1294 2900 1772 
L 2900 3500 
L 4019 3500 
L 4019 0 
L 2900 0 
L 2900 506 
Q 2647 200 2364 54 
Q 2081 -91 1741 -91 
Q 1134 -91 817 281 
Q 500 653 500 1363 
z
" transform="scale(0.015625)"/>
      <path id="DejaVuSans-Bold-72" d="M 3138 2547 
Q 2991 2616 2845 2648 
Q 2700 2681 2553 2681 
Q 2122 2681 1889 2404 
Q 1656 2128 1656 1613 
L 1656 0 
L 538 0 
L 538 3500 
L 1656 3500 
L 1656 2925 
Q 1872 3269 2151 3426 
Q 2431 3584 2822 3584 
Q 2878 3584 2943 3579 
Q 3009 3575 3134 3559 
L 3138 2547 
z
" transform="scale(0.015625)"/>
      <path id="DejaVuSans-Bold-65" d="M 4031 1759 
L 4031 1441 
L 1416 1441 
Q 1456 1047 1700 850 
Q 1944 653 2381 653 
Q 2734 653 3104 758 
Q 3475 863 3866 1075 
L 3866 213 
Q 3469 63 3072 -14 
Q 2675 -91 2278 -91 
Q 1328 -91 801 392 
Q 275 875 275 1747 
Q 275 2603 792 3093 
Q 1309 3584 2216 3584 
Q 3041 3584 3536 3087 
Q 4031 2591 4031 1759 
z
M 2881 2131 
Q 2881 2450 2695 2645 
Q 2509 2841 2209 2841 
Q 1884 2841 1681 2658 
Q 1478 2475 1428 2131 
L 2881 2131 
z
" transform="scale(0.015625)"/>
     </defs>
     <use xlink:href="#DejaVuSans-Bold-73"/>
     <use xlink:href="#DejaVuSans-Bold-6f" transform="translate(59.521484 0)"/>
     <use xlink:href="#DejaVuSans-Bold-75" transform="translate(128.222656 0)"/>
     <use xlink:href="#DejaVuSans-Bold-72" transform="translate(199.414062 0)"/>
     <use xlink:href="#DejaVuSans-Bold-63" transform="translate(248.730469 0)"/>
     <use xlink:href="#DejaVuSans-Bold-65" transform="translate(308.007812 0)"/>
     <use xlink:href="#DejaVuSans-Bold-73" transform="translate(375.830078 0)"/>
    </g>
   </g>
   <g id="text_2">
    <!-- HS300 -->
    <g style="fill: #111827" transform="translate(56.360391 121.670016) scale(0.09 -0.09)">
     <defs>
      <path id="DejaVuSans-Bold-48" d="M 588 4666 
L 1791 4666 
L 1791 2888 
L 3566 2888 
L 3566 4666 
L 4769 4666 
L 4769 0 
L 3566 0 
L 3566 1978 
L 1791 1978 
L 1791 0 
L 588 0 
L 588 4666 
z
" transform="scale(0.015625)"/>
      <path id="DejaVuSans-Bold-53" d="M 3834 4519 
L 3834 3531 
Q 3450 3703 3084 3790 
Q 2719 3878 2394 3878 
Q 1963 3878 1756 3759 
Q 1550 3641 1550 3391 
Q 1550 3203 1689 3098 
Q 1828 2994 2194 2919 
L 2706 2816 
Q 3484 2659 3812 2340 
Q 4141 2022 4141 1434 
Q 4141 663 3683 286 
Q 3225 -91 2284 -91 
Q 1841 -91 1394 -6 
Q 947 78 500 244 
L 500 1259 
Q 947 1022 1364 901 
Q 1781 781 2169 781 
Q 2563 781 2772 912 
Q 2981 1044 2981 1288 
Q 2981 1506 2839 1625 
Q 2697 1744 2272 1838 
L 1806 1941 
Q 1106 2091 782 2419 
Q 459 2747 459 3303 
Q 459 4000 909 4375 
Q 1359 4750 2203 4750 
Q 2588 4750 2994 4692 
Q 3400 4634 3834 4519 
z
" transform="scale(0.015625)"/>
      <path id="DejaVuSans-Bold-33" d="M 2981 2516 
Q 3453 2394 3698 2092 
Q 3944 1791 3944 1325 
Q 3944 631 3412 270 
Q 2881 -91 1863 -91 
Q 1503 -91 1142 -33 
Q 781 25 428 141 
L 428 1069 
Q 766 900 1098 814 
Q 1431 728 1753 728 
Q 2231 728 2486 893 
Q 2741 1059 2741 1369 
Q 2741 1688 2480 1852 
Q 2219 2016 1709 2016 
L 1228 2016 
L 1228 2791 
L 1734 2791 
Q 2188 2791 2409 2933 
Q 2631 3075 2631 3366 
Q 2631 3634 2415 3781 
Q 2200 3928 1806 3928 
Q 1516 3928 1219 3862 
Q 922 3797 628 3669 
L 628 4550 
Q 984 4650 1334 4700 
Q 1684 4750 2022 4750 
Q 2931 4750 3382 4451 
Q 3834 4153 3834 3553 
Q 3834 3144 3618 2883 
Q 3403 2622 2981 2516 
z
" transform="scale(0.015625)"/>
      <path id="DejaVuSans-Bold-30" d="M 2944 2338 
Q 2944 3213 2780 3570 
Q 2616 3928 2228 3928 
Q 1841 3928 1675 3570 
Q 1509 3213 1509 2338 
Q 1509 1453 1675 1090 
Q 1841 728 2228 728 
Q 2613 728 2778 1090 
Q 2944 1453 2944 2338 
z
M 4147 2328 
Q 4147 1169 3647 539 
Q 3147 -91 2228 -91 
Q 1306 -91 806 539 
Q 306 1169 306 2328 
Q 306 3491 806 4120 
Q 1306 4750 2228 4750 
Q 3147 4750 3647 4120 
Q 4147 3491 4147 2328 
z
" transform="scale(0.015625)"/>
     </defs>
     <use xlink:href="#DejaVuSans-Bold-48"/>
     <use xlink:href="#DejaVuSans-Bold-53" transform="translate(83.691406 0)"/>
     <use xlink:href="#DejaVuSans-Bold-33" transform="translate(155.712891 0)"/>
     <use xlink:href="#DejaVuSans-Bold-30" transform="translate(225.292969 0)"/>
     <use xlink:href="#DejaVuSans-Bold-30" transform="translate(294.873047 0)"/>
    </g>
    <!-- financial data -->
    <g style="fill: #111827" transform="translate(38.014453 131.748047) scale(0.09 -0.09)">
     <defs>
      <path id="DejaVuSans-Bold-20" transform="scale(0.015625)"/>
      <path id="DejaVuSans-Bold-64" d="M 2919 2988 
L 2919 4863 
L 4044 4863 
L 4044 0 
L 2919 0 
L 2919 506 
Q 2688 197 2409 53 
Q 2131 -91 1766 -91 
Q 1119 -91 703 423 
Q 288 938 288 1747 
Q 288 2556 703 3070 
Q 1119 3584 1766 3584 
Q 2128 3584 2408 3439 
Q 2688 3294 2919 2988 
z
M 2181 722 
Q 2541 722 2730 984 
Q 2919 1247 2919 1747 
Q 2919 2247 2730 2509 
Q 2541 2772 2181 2772 
Q 1825 2772 1636 2509 
Q 1447 2247 1447 1747 
Q 1447 1247 1636 984 
Q 1825 722 2181 722 
z
" transform="scale(0.015625)"/>
      <path id="DejaVuSans-Bold-74" d="M 1759 4494 
L 1759 3500 
L 2913 3500 
L 2913 2700 
L 1759 2700 
L 1759 1216 
Q 1759 972 1856 886 
Q 1953 800 2241 800 
L 2816 800 
L 2816 0 
L 1856 0 
Q 1194 0 917 276 
Q 641 553 641 1216 
L 641 2700 
L 84 2700 
L 84 3500 
L 641 3500 
L 641 4494 
L 1759 4494 
z
" transform="scale(0.015625)"/>
     </defs>
     <use xlink:href="#DejaVuSans-Bold-66"/>
     <use xlink:href="#DejaVuSans-Bold-69" transform="translate(43.505859 0)"/>
     <use xlink:href="#DejaVuSans-Bold-6e" transform="translate(77.783203 0)"/>
     <use xlink:href="#DejaVuSans-Bold-61" transform="translate(148.974609 0)"/>
     <use xlink:href="#DejaVuSans-Bold-6e" transform="translate(216.455078 0)"/>
     <use xlink:href="#DejaVuSans-Bold-63" transform="translate(287.646484 0)"/>
     <use xlink:href="#DejaVuSans-Bold-69" transform="translate(346.923828 0)"/>
     <use xlink:href="#DejaVuSans-Bold-61" transform="translate(381.201172 0)"/>
     <use xlink:href="#DejaVuSans-Bold-6c" transform="translate(448.681641 0)"/>
     <use xlink:href="#DejaVuSans-Bold-20" transform="translate(482.958984 0)"/>
     <use xlink:href="#DejaVuSans-Bold-64" transform="translate(517.773438 0)"/>
     <use xlink:href="#DejaVuSans-Bold-61" transform="translate(589.355469 0)"/>
     <use xlink:href="#DejaVuSans-Bold-74" transform="translate(656.835938 0)"/>
     <use xlink:href="#DejaVuSans-Bold-61" transform="translate(704.638672 0)"/>
    </g>
   </g>
   <g id="text_3">
    <!-- P-sLSTM -->
    <g style="fill: #111827" transform="translate(163.440872 55.106859) scale(0.09 -0.09)">
     <defs>
      <path id="DejaVuSans-Bold-50" d="M 588 4666 
L 2584 4666 
Q 3475 4666 3951 4270 
Q 4428 3875 4428 3144 
Q 4428 2409 3951 2014 
Q 3475 1619 2584 1619 
L 1791 1619 
L 1791 0 
L 588 0 
L 588 4666 
z
M 1791 3794 
L 1791 2491 
L 2456 2491 
Q 2806 2491 2997 2661 
Q 3188 2831 3188 3144 
Q 3188 3456 2997 3625 
Q 2806 3794 2456 3794 
L 1791 3794 
z
" transform="scale(0.015625)"/>
      <path id="DejaVuSans-Bold-4c" d="M 588 4666 
L 1791 4666 
L 1791 909 
L 3903 909 
L 3903 0 
L 588 0 
L 588 4666 
z
" transform="scale(0.015625)"/>
      <path id="DejaVuSans-Bold-54" d="M 31 4666 
L 4331 4666 
L 4331 3756 
L 2784 3756 
L 2784 0 
L 1581 0 
L 1581 3756 
L 31 3756 
L 31 4666 
z
" transform="scale(0.015625)"/>
      <path id="DejaVuSans-Bold-4d" d="M 588 4666 
L 2119 4666 
L 3181 2169 
L 4250 4666 
L 5778 4666 
L 5778 0 
L 4641 0 
L 4641 3413 
L 3566 897 
L 2803 897 
L 1728 3413 
L 1728 0 
L 588 0 
L 588 4666 
z
" transform="scale(0.015625)"/>
     </defs>
     <use xlink:href="#DejaVuSans-Bold-50"/>
     <use xlink:href="#DejaVuSans-Bold-2d" transform="translate(71.541016 0)"/>
     <use xlink:href="#DejaVuSans-Bold-73" transform="translate(113.044922 0)"/>
     <use xlink:href="#DejaVuSans-Bold-4c" transform="translate(172.566406 0)"/>
     <use xlink:href="#DejaVuSans-Bold-53" transform="translate(236.287109 0)"/>
     <use xlink:href="#DejaVuSans-Bold-54" transform="translate(308.308594 0)"/>
     <use xlink:href="#DejaVuSans-Bold-4d" transform="translate(376.521484 0)"/>
    </g>
    <!-- pretraining -->
    <g style="fill: #111827" transform="translate(156.250013 65.184891) scale(0.09 -0.09)">
     <defs>
      <path id="DejaVuSans-Bold-70" d="M 1656 506 
L 1656 -1331 
L 538 -1331 
L 538 3500 
L 1656 3500 
L 1656 2988 
Q 1888 3294 2169 3439 
Q 2450 3584 2816 3584 
Q 3463 3584 3878 3070 
Q 4294 2556 4294 1747 
Q 4294 938 3878 423 
Q 3463 -91 2816 -91 
Q 2450 -91 2169 54 
Q 1888 200 1656 506 
z
M 2400 2772 
Q 2041 2772 1848 2508 
Q 1656 2244 1656 1747 
Q 1656 1250 1848 986 
Q 2041 722 2400 722 
Q 2759 722 2948 984 
Q 3138 1247 3138 1747 
Q 3138 2247 2948 2509 
Q 2759 2772 2400 2772 
z
" transform="scale(0.015625)"/>
      <path id="DejaVuSans-Bold-67" d="M 2919 594 
Q 2688 288 2409 144 
Q 2131 0 1766 0 
Q 1125 0 706 504 
Q 288 1009 288 1791 
Q 288 2575 706 3076 
Q 1125 3578 1766 3578 
Q 2131 3578 2409 3434 
Q 2688 3291 2919 2981 
L 2919 3500 
L 4044 3500 
L 4044 353 
Q 4044 -491 3511 -936 
Q 2978 -1381 1966 -1381 
Q 1638 -1381 1331 -1331 
Q 1025 -1281 716 -1178 
L 716 -306 
Q 1009 -475 1290 -558 
Q 1572 -641 1856 -641 
Q 2406 -641 2662 -400 
Q 2919 -159 2919 353 
L 2919 594 
z
M 2181 2772 
Q 1834 2772 1640 2515 
Q 1447 2259 1447 1791 
Q 1447 1309 1634 1061 
Q 1822 813 2181 813 
Q 2531 813 2725 1069 
Q 2919 1325 2919 1791 
Q 2919 2259 2725 2515 
Q 2531 2772 2181 2772 
z
" transform="scale(0.015625)"/>
     </defs>
     <use xlink:href="#DejaVuSans-Bold-70"/>
     <use xlink:href="#DejaVuSans-Bold-72" transform="translate(71.582031 0)"/>
     <use xlink:href="#DejaVuSans-Bold-65" transform="translate(120.898438 0)"/>
     <use xlink:href="#DejaVuSans-Bold-74" transform="translate(188.720703 0)"/>
     <use xlink:href="#DejaVuSans-Bold-72" transform="translate(236.523438 0)"/>
     <use xlink:href="#DejaVuSans-Bold-61" transform="translate(285.839844 0)"/>
     <use xlink:href="#DejaVuSans-Bold-69" transform="translate(353.320312 0)"/>
     <use xlink:href="#DejaVuSans-Bold-6e" transform="translate(387.597656 0)"/>
     <use xlink:href="#DejaVuSans-Bold-69" transform="translate(458.789062 0)"/>
     <use xlink:href="#DejaVuSans-Bold-6e" transform="translate(493.066406 0)"/>
     <use xlink:href="#DejaVuSans-Bold-67" transform="translate(564.257812 0)"/>
    </g>
   </g>
   <g id="text_4">
    <!-- Target -->
    <g style="fill: #111827" transform="translate(278.506209 88.300547) scale(0.09 -0.09)">
     <use xlink:href="#DejaVuSans-Bold-54"/>
     <use xlink:href="#DejaVuSans-Bold-61" transform="translate(55.337891 0)"/>
     <use xlink:href="#DejaVuSans-Bold-72" transform="translate(122.818359 0)"/>
     <use xlink:href="#DejaVuSans-Bold-67" transform="translate(172.134766 0)"/>
     <use xlink:href="#DejaVuSans-Bold-65" transform="translate(243.716797 0)"/>
     <use xlink:href="#DejaVuSans-Bold-74" transform="translate(311.539062 0)"/>
    </g>
    <!-- fine-tuning -->
    <g style="fill: #111827" transform="translate(266.528475 98.448891) scale(0.09 -0.09)">
     <use xlink:href="#DejaVuSans-Bold-66"/>
     <use xlink:href="#DejaVuSans-Bold-69" transform="translate(43.505859 0)"/>
     <use xlink:href="#DejaVuSans-Bold-6e" transform="translate(77.783203 0)"/>
     <use xlink:href="#DejaVuSans-Bold-65" transform="translate(148.974609 0)"/>
     <use xlink:href="#DejaVuSans-Bold-2d" transform="translate(216.796875 0)"/>
     <use xlink:href="#DejaVuSans-Bold-74" transform="translate(258.300781 0)"/>
     <use xlink:href="#DejaVuSans-Bold-75" transform="translate(306.103516 0)"/>
     <use xlink:href="#DejaVuSans-Bold-6e" transform="translate(377.294922 0)"/>
     <use xlink:href="#DejaVuSans-Bold-69" transform="translate(448.486328 0)"/>
     <use xlink:href="#DejaVuSans-Bold-6e" transform="translate(482.763672 0)"/>
     <use xlink:href="#DejaVuSans-Bold-67" transform="translate(553.955078 0)"/>
    </g>
   </g>
   <g id="text_5">
    <!-- Prediction &amp; -->
    <g style="fill: #111827" transform="translate(377.586366 88.406016) scale(0.09 -0.09)">
     <defs>
      <path id="DejaVuSans-Bold-26" d="M 2497 3097 
L 3775 1691 
Q 3941 1909 4027 2181 
Q 4113 2453 4128 2797 
L 5100 2797 
Q 5053 2228 4879 1784 
Q 4706 1341 4397 1006 
L 5313 0 
L 3988 0 
L 3681 341 
Q 3353 122 2990 15 
Q 2628 -91 2222 -91 
Q 1400 -91 892 342 
Q 384 775 384 1459 
Q 384 1916 607 2267 
Q 831 2619 1338 2950 
Q 1206 3116 1143 3281 
Q 1081 3447 1081 3628 
Q 1081 4138 1478 4444 
Q 1875 4750 2534 4750 
Q 2819 4750 3126 4704 
Q 3434 4659 3769 4569 
L 3769 3700 
Q 3475 3850 3212 3922 
Q 2950 3994 2700 3994 
Q 2459 3994 2326 3901 
Q 2194 3809 2194 3641 
Q 2194 3534 2270 3398 
Q 2347 3263 2497 3097 
z
M 1875 2322 
Q 1672 2175 1569 1989 
Q 1466 1803 1466 1581 
Q 1466 1222 1731 969 
Q 1997 716 2369 716 
Q 2578 716 2759 780 
Q 2941 844 3097 972 
L 1875 2322 
z
" transform="scale(0.015625)"/>
     </defs>
     <use xlink:href="#DejaVuSans-Bold-50"/>
     <use xlink:href="#DejaVuSans-Bold-72" transform="translate(73.291016 0)"/>
     <use xlink:href="#DejaVuSans-Bold-65" transform="translate(122.607422 0)"/>
     <use xlink:href="#DejaVuSans-Bold-64" transform="translate(190.429688 0)"/>
     <use xlink:href="#DejaVuSans-Bold-69" transform="translate(262.011719 0)"/>
     <use xlink:href="#DejaVuSans-Bold-63" transform="translate(296.289062 0)"/>
     <use xlink:href="#DejaVuSans-Bold-74" transform="translate(355.566406 0)"/>
     <use xlink:href="#DejaVuSans-Bold-69" transform="translate(403.369141 0)"/>
     <use xlink:href="#DejaVuSans-Bold-6f" transform="translate(437.646484 0)"/>
     <use xlink:href="#DejaVuSans-Bold-6e" transform="translate(506.347656 0)"/>
     <use xlink:href="#DejaVuSans-Bold-20" transform="translate(577.539062 0)"/>
     <use xlink:href="#DejaVuSans-Bold-26" transform="translate(612.353516 0)"/>
    </g>
    <!-- evaluation -->
    <g style="fill: #111827" transform="translate(382.272694 98.484047) scale(0.09 -0.09)">
     <defs>
      <path id="DejaVuSans-Bold-76" d="M 97 3500 
L 1216 3500 
L 2088 1081 
L 2956 3500 
L 4078 3500 
L 2700 0 
L 1472 0 
L 97 3500 
z
" transform="scale(0.015625)"/>
     </defs>
     <use xlink:href="#DejaVuSans-Bold-65"/>
     <use xlink:href="#DejaVuSans-Bold-76" transform="translate(67.822266 0)"/>
     <use xlink:href="#DejaVuSans-Bold-61" transform="translate(133.007812 0)"/>
     <use xlink:href="#DejaVuSans-Bold-6c" transform="translate(200.488281 0)"/>
     <use xlink:href="#DejaVuSans-Bold-75" transform="translate(234.765625 0)"/>
     <use xlink:href="#DejaVuSans-Bold-61" transform="translate(305.957031 0)"/>
     <use xlink:href="#DejaVuSans-Bold-74" transform="translate(373.4375 0)"/>
     <use xlink:href="#DejaVuSans-Bold-69" transform="translate(421.240234 0)"/>
     <use xlink:href="#DejaVuSans-Bold-6f" transform="translate(455.517578 0)"/>
     <use xlink:href="#DejaVuSans-Bold-6e" transform="translate(524.21875 0)"/>
    </g>
   </g>
   <g id="patch_7">
    <path d="M 115.941186 57.697594 
Q 127.668718 57.697594 137.719199 57.697594 
" style="fill: none; stroke: #374151; stroke-width: 1.5; stroke-linecap: round"/>
    <path d="M 132.919199 55.297594 
L 137.719199 57.697594 
L 132.919199 60.097594 
" style="fill: none; stroke: #374151; stroke-width: 1.5; stroke-linecap: round"/>
   </g>
   <g id="patch_8">
    <path d="M 229.536237 59.291358 
Q 240.912284 74.328148 251.276505 88.027512 
" style="fill: none; stroke: #374151; stroke-width: 1.5; stroke-linecap: round"/>
    <path d="M 250.294458 82.751568 
L 251.276505 88.027512 
L 246.466522 85.647584 
" style="fill: none; stroke: #374151; stroke-width: 1.5; stroke-linecap: round"/>
   </g>
   <g id="patch_9">
    <path d="M 115.886798 123.761676 
Q 183.719352 107.593362 249.920556 91.813889 
" style="fill: none; stroke: #374151; stroke-width: 1.5; stroke-linecap: round"/>
    <path d="M 244.694895 90.592224 
L 249.920556 91.813889 
L 245.807827 95.261419 
" style="fill: none; stroke: #374151; stroke-width: 1.5; stroke-linecap: round"/>
   </g>
   <g id="patch_10">
    <path d="M 340.147262 90.961594 
Q 349.584865 90.961594 357.345417 90.961594 
" style="fill: none; stroke: #374151; stroke-width: 1.5; stroke-linecap: round"/>
    <path d="M 352.545417 88.561594 
L 357.345417 90.961594 
L 352.545417 93.361594 
" style="fill: none; stroke: #374151; stroke-width: 1.5; stroke-linecap: round"/>
   </g>
   <g id="text_6">
    <!-- Weather / ETTm1 / Electricity -->
    <g style="fill: #3b6fb6" transform="translate(7.2 30.670594) scale(0.09 -0.09)">
     <defs>
      <path id="DejaVuSans-57" d="M 213 4666 
L 850 4666 
L 1831 722 
L 2809 4666 
L 3519 4666 
L 4500 722 
L 5478 4666 
L 6119 4666 
L 4947 0 
L 4153 0 
L 3169 4050 
L 2175 0 
L 1381 0 
L 213 4666 
z
" transform="scale(0.015625)"/>
      <path id="DejaVuSans-65" d="M 3597 1894 
L 3597 1613 
L 953 1613 
Q 991 1019 1311 708 
Q 1631 397 2203 397 
Q 2534 397 2845 478 
Q 3156 559 3463 722 
L 3463 178 
Q 3153 47 2828 -22 
Q 2503 -91 2169 -91 
Q 1331 -91 842 396 
Q 353 884 353 1716 
Q 353 2575 817 3079 
Q 1281 3584 2069 3584 
Q 2775 3584 3186 3129 
Q 3597 2675 3597 1894 
z
M 3022 2063 
Q 3016 2534 2758 2815 
Q 2500 3097 2075 3097 
Q 1594 3097 1305 2825 
Q 1016 2553 972 2059 
L 3022 2063 
z
" transform="scale(0.015625)"/>
      <path id="DejaVuSans-61" d="M 2194 1759 
Q 1497 1759 1228 1600 
Q 959 1441 959 1056 
Q 959 750 1161 570 
Q 1363 391 1709 391 
Q 2188 391 2477 730 
Q 2766 1069 2766 1631 
L 2766 1759 
L 2194 1759 
z
M 3341 1997 
L 3341 0 
L 2766 0 
L 2766 531 
Q 2569 213 2275 61 
Q 1981 -91 1556 -91 
Q 1019 -91 701 211 
Q 384 513 384 1019 
Q 384 1609 779 1909 
Q 1175 2209 1959 2209 
L 2766 2209 
L 2766 2266 
Q 2766 2663 2505 2880 
Q 2244 3097 1772 3097 
Q 1472 3097 1187 3025 
Q 903 2953 641 2809 
L 641 3341 
Q 956 3463 1253 3523 
Q 1550 3584 1831 3584 
Q 2591 3584 2966 3190 
Q 3341 2797 3341 1997 
z
" transform="scale(0.015625)"/>
      <path id="DejaVuSans-74" d="M 1172 4494 
L 1172 3500 
L 2356 3500 
L 2356 3053 
L 1172 3053 
L 1172 1153 
Q 1172 725 1289 603 
Q 1406 481 1766 481 
L 2356 481 
L 2356 0 
L 1766 0 
Q 1100 0 847 248 
Q 594 497 594 1153 
L 594 3053 
L 172 3053 
L 172 3500 
L 594 3500 
L 594 4494 
L 1172 4494 
z
" transform="scale(0.015625)"/>
      <path id="DejaVuSans-68" d="M 3513 2113 
L 3513 0 
L 2938 0 
L 2938 2094 
Q 2938 2591 2744 2837 
Q 2550 3084 2163 3084 
Q 1697 3084 1428 2787 
Q 1159 2491 1159 1978 
L 1159 0 
L 581 0 
L 581 4863 
L 1159 4863 
L 1159 2956 
Q 1366 3272 1645 3428 
Q 1925 3584 2291 3584 
Q 2894 3584 3203 3211 
Q 3513 2838 3513 2113 
z
" transform="scale(0.015625)"/>
      <path id="DejaVuSans-72" d="M 2631 2963 
Q 2534 3019 2420 3045 
Q 2306 3072 2169 3072 
Q 1681 3072 1420 2755 
Q 1159 2438 1159 1844 
L 1159 0 
L 581 0 
L 581 3500 
L 1159 3500 
L 1159 2956 
Q 1341 3275 1631 3429 
Q 1922 3584 2338 3584 
Q 2397 3584 2469 3576 
Q 2541 3569 2628 3553 
L 2631 2963 
z
" transform="scale(0.015625)"/>
      <path id="DejaVuSans-20" transform="scale(0.015625)"/>
      <path id="DejaVuSans-2f" d="M 1625 4666 
L 2156 4666 
L 531 -594 
L 0 -594 
L 1625 4666 
z
" transform="scale(0.015625)"/>
      <path id="DejaVuSans-45" d="M 628 4666 
L 3578 4666 
L 3578 4134 
L 1259 4134 
L 1259 2753 
L 3481 2753 
L 3481 2222 
L 1259 2222 
L 1259 531 
L 3634 531 
L 3634 0 
L 628 0 
L 628 4666 
z
" transform="scale(0.015625)"/>
      <path id="DejaVuSans-54" d="M -19 4666 
L 3928 4666 
L 3928 4134 
L 2272 4134 
L 2272 0 
L 1638 0 
L 1638 4134 
L -19 4134 
L -19 4666 
z
" transform="scale(0.015625)"/>
      <path id="DejaVuSans-6d" d="M 3328 2828 
Q 3544 3216 3844 3400 
Q 4144 3584 4550 3584 
Q 5097 3584 5394 3201 
Q 5691 2819 5691 2113 
L 5691 0 
L 5113 0 
L 5113 2094 
Q 5113 2597 4934 2840 
Q 4756 3084 4391 3084 
Q 3944 3084 3684 2787 
Q 3425 2491 3425 1978 
L 3425 0 
L 2847 0 
L 2847 2094 
Q 2847 2600 2669 2842 
Q 2491 3084 2119 3084 
Q 1678 3084 1418 2786 
Q 1159 2488 1159 1978 
L 1159 0 
L 581 0 
L 581 3500 
L 1159 3500 
L 1159 2956 
Q 1356 3278 1631 3431 
Q 1906 3584 2284 3584 
Q 2666 3584 2933 3390 
Q 3200 3197 3328 2828 
z
" transform="scale(0.015625)"/>
      <path id="DejaVuSans-31" d="M 794 531 
L 1825 531 
L 1825 4091 
L 703 3866 
L 703 4441 
L 1819 4666 
L 2450 4666 
L 2450 531 
L 3481 531 
L 3481 0 
L 794 0 
L 794 531 
z
" transform="scale(0.015625)"/>
      <path id="DejaVuSans-6c" d="M 603 4863 
L 1178 4863 
L 1178 0 
L 603 0 
L 603 4863 
z
" transform="scale(0.015625)"/>
      <path id="DejaVuSans-63" d="M 3122 3366 
L 3122 2828 
Q 2878 2963 2633 3030 
Q 2388 3097 2138 3097 
Q 1578 3097 1268 2742 
Q 959 2388 959 1747 
Q 959 1106 1268 751 
Q 1578 397 2138 397 
Q 2388 397 2633 464 
Q 2878 531 3122 666 
L 3122 134 
Q 2881 22 2623 -34 
Q 2366 -91 2075 -91 
Q 1284 -91 818 406 
Q 353 903 353 1747 
Q 353 2603 823 3093 
Q 1294 3584 2113 3584 
Q 2378 3584 2631 3529 
Q 2884 3475 3122 3366 
z
" transform="scale(0.015625)"/>
      <path id="DejaVuSans-69" d="M 603 3500 
L 1178 3500 
L 1178 0 
L 603 0 
L 603 3500 
z
M 603 4863 
L 1178 4863 
L 1178 4134 
L 603 4134 
L 603 4863 
z
" transform="scale(0.015625)"/>
      <path id="DejaVuSans-79" d="M 2059 -325 
Q 1816 -950 1584 -1140 
Q 1353 -1331 966 -1331 
L 506 -1331 
L 506 -850 
L 844 -850 
Q 1081 -850 1212 -737 
Q 1344 -625 1503 -206 
L 1606 56 
L 191 3500 
L 800 3500 
L 1894 763 
L 2988 3500 
L 3597 3500 
L 2059 -325 
z
" transform="scale(0.015625)"/>
     </defs>
     <use xlink:href="#DejaVuSans-57"/>
     <use xlink:href="#DejaVuSans-65" transform="translate(93.001953 0)"/>
     <use xlink:href="#DejaVuSans-61" transform="translate(154.525391 0)"/>
     <use xlink:href="#DejaVuSans-74" transform="translate(215.804688 0)"/>
     <use xlink:href="#DejaVuSans-68" transform="translate(255.013672 0)"/>
     <use xlink:href="#DejaVuSans-65" transform="translate(318.392578 0)"/>
     <use xlink:href="#DejaVuSans-72" transform="translate(379.916016 0)"/>
     <use xlink:href="#DejaVuSans-20" transform="translate(421.029297 0)"/>
     <use xlink:href="#DejaVuSans-2f" transform="translate(452.816406 0)"/>
     <use xlink:href="#DejaVuSans-20" transform="translate(486.507812 0)"/>
     <use xlink:href="#DejaVuSans-45" transform="translate(518.294922 0)"/>
     <use xlink:href="#DejaVuSans-54" transform="translate(581.478516 0)"/>
     <use xlink:href="#DejaVuSans-54" transform="translate(640.8125 0)"/>
     <use xlink:href="#DejaVuSans-6d" transform="translate(701.896484 0)"/>
     <use xlink:href="#DejaVuSans-31" transform="translate(799.308594 0)"/>
     <use xlink:href="#DejaVuSans-20" transform="translate(862.931641 0)"/>
     <use xlink:href="#DejaVuSans-2f" transform="translate(894.71875 0)"/>
     <use xlink:href="#DejaVuSans-20" transform="translate(928.410156 0)"/>
     <use xlink:href="#DejaVuSans-45" transform="translate(960.197266 0)"/>
     <use xlink:href="#DejaVuSans-6c" transform="translate(1023.380859 0)"/>
     <use xlink:href="#DejaVuSans-65" transform="translate(1051.164062 0)"/>
     <use xlink:href="#DejaVuSans-63" transform="translate(1112.6875 0)"/>
     <use xlink:href="#DejaVuSans-74" transform="translate(1167.667969 0)"/>
     <use xlink:href="#DejaVuSans-72" transform="translate(1206.876953 0)"/>
     <use xlink:href="#DejaVuSans-69" transform="translate(1247.990234 0)"/>
     <use xlink:href="#DejaVuSans-63" transform="translate(1275.773438 0)"/>
     <use xlink:href="#DejaVuSans-69" transform="translate(1330.753906 0)"/>
     <use xlink:href="#DejaVuSans-74" transform="translate(1358.537109 0)"/>
     <use xlink:href="#DejaVuSans-79" transform="translate(1397.746094 0)"/>
    </g>
   </g>
   <g id="text_7">
    <!-- Metrics: MAE, RMSE, directional accuracy, -->
    <g style="fill: #6b7280" transform="translate(200.2716 130.779563) scale(0.09 -0.09)">
     <defs>
      <path id="DejaVuSans-4d" d="M 628 4666 
L 1569 4666 
L 2759 1491 
L 3956 4666 
L 4897 4666 
L 4897 0 
L 4281 0 
L 4281 4097 
L 3078 897 
L 2444 897 
L 1241 4097 
L 1241 0 
L 628 0 
L 628 4666 
z
" transform="scale(0.015625)"/>
      <path id="DejaVuSans-73" d="M 2834 3397 
L 2834 2853 
Q 2591 2978 2328 3040 
Q 2066 3103 1784 3103 
Q 1356 3103 1142 2972 
Q 928 2841 928 2578 
Q 928 2378 1081 2264 
Q 1234 2150 1697 2047 
L 1894 2003 
Q 2506 1872 2764 1633 
Q 3022 1394 3022 966 
Q 3022 478 2636 193 
Q 2250 -91 1575 -91 
Q 1294 -91 989 -36 
Q 684 19 347 128 
L 347 722 
Q 666 556 975 473 
Q 1284 391 1588 391 
Q 1994 391 2212 530 
Q 2431 669 2431 922 
Q 2431 1156 2273 1281 
Q 2116 1406 1581 1522 
L 1381 1569 
Q 847 1681 609 1914 
Q 372 2147 372 2553 
Q 372 3047 722 3315 
Q 1072 3584 1716 3584 
Q 2034 3584 2315 3537 
Q 2597 3491 2834 3397 
z
" transform="scale(0.015625)"/>
      <path id="DejaVuSans-3a" d="M 750 794 
L 1409 794 
L 1409 0 
L 750 0 
L 750 794 
z
M 750 3309 
L 1409 3309 
L 1409 2516 
L 750 2516 
L 750 3309 
z
" transform="scale(0.015625)"/>
      <path id="DejaVuSans-41" d="M 2188 4044 
L 1331 1722 
L 3047 1722 
L 2188 4044 
z
M 1831 4666 
L 2547 4666 
L 4325 0 
L 3669 0 
L 3244 1197 
L 1141 1197 
L 716 0 
L 50 0 
L 1831 4666 
z
" transform="scale(0.015625)"/>
      <path id="DejaVuSans-2c" d="M 750 794 
L 1409 794 
L 1409 256 
L 897 -744 
L 494 -744 
L 750 256 
L 750 794 
z
" transform="scale(0.015625)"/>
      <path id="DejaVuSans-52" d="M 2841 2188 
Q 3044 2119 3236 1894 
Q 3428 1669 3622 1275 
L 4263 0 
L 3584 0 
L 2988 1197 
Q 2756 1666 2539 1819 
Q 2322 1972 1947 1972 
L 1259 1972 
L 1259 0 
L 628 0 
L 628 4666 
L 2053 4666 
Q 2853 4666 3247 4331 
Q 3641 3997 3641 3322 
Q 3641 2881 3436 2590 
Q 3231 2300 2841 2188 
z
M 1259 4147 
L 1259 2491 
L 2053 2491 
Q 2509 2491 2742 2702 
Q 2975 2913 2975 3322 
Q 2975 3731 2742 3939 
Q 2509 4147 2053 4147 
L 1259 4147 
z
" transform="scale(0.015625)"/>
      <path id="DejaVuSans-53" d="M 3425 4513 
L 3425 3897 
Q 3066 4069 2747 4153 
Q 2428 4238 2131 4238 
Q 1616 4238 1336 4038 
Q 1056 3838 1056 3469 
Q 1056 3159 1242 3001 
Q 1428 2844 1947 2747 
L 2328 2669 
Q 3034 2534 3370 2195 
Q 3706 1856 3706 1288 
Q 3706 609 3251 259 
Q 2797 -91 1919 -91 
Q 1588 -91 1214 -16 
Q 841 59 441 206 
L 441 856 
Q 825 641 1194 531 
Q 1563 422 1919 422 
Q 2459 422 2753 634 
Q 3047 847 3047 1241 
Q 3047 1584 2836 1778 
Q 2625 1972 2144 2069 
L 1759 2144 
Q 1053 2284 737 2584 
Q 422 2884 422 3419 
Q 422 4038 858 4394 
Q 1294 4750 2059 4750 
Q 2388 4750 2728 4690 
Q 3069 4631 3425 4513 
z
" transform="scale(0.015625)"/>
      <path id="DejaVuSans-64" d="M 2906 2969 
L 2906 4863 
L 3481 4863 
L 3481 0 
L 2906 0 
L 2906 525 
Q 2725 213 2448 61 
Q 2172 -91 1784 -91 
Q 1150 -91 751 415 
Q 353 922 353 1747 
Q 353 2572 751 3078 
Q 1150 3584 1784 3584 
Q 2172 3584 2448 3432 
Q 2725 3281 2906 2969 
z
M 947 1747 
Q 947 1113 1208 752 
Q 1469 391 1925 391 
Q 2381 391 2643 752 
Q 2906 1113 2906 1747 
Q 2906 2381 2643 2742 
Q 2381 3103 1925 3103 
Q 1469 3103 1208 2742 
Q 947 2381 947 1747 
z
" transform="scale(0.015625)"/>
      <path id="DejaVuSans-6f" d="M 1959 3097 
Q 1497 3097 1228 2736 
Q 959 2375 959 1747 
Q 959 1119 1226 758 
Q 1494 397 1959 397 
Q 2419 397 2687 759 
Q 2956 1122 2956 1747 
Q 2956 2369 2687 2733 
Q 2419 3097 1959 3097 
z
M 1959 3584 
Q 2709 3584 3137 3096 
Q 3566 2609 3566 1747 
Q 3566 888 3137 398 
Q 2709 -91 1959 -91 
Q 1206 -91 779 398 
Q 353 888 353 1747 
Q 353 2609 779 3096 
Q 1206 3584 1959 3584 
z
" transform="scale(0.015625)"/>
      <path id="DejaVuSans-6e" d="M 3513 2113 
L 3513 0 
L 2938 0 
L 2938 2094 
Q 2938 2591 2744 2837 
Q 2550 3084 2163 3084 
Q 1697 3084 1428 2787 
Q 1159 2491 1159 1978 
L 1159 0 
L 581 0 
L 581 3500 
L 1159 3500 
L 1159 2956 
Q 1366 3272 1645 3428 
Q 1925 3584 2291 3584 
Q 2894 3584 3203 3211 
Q 3513 2838 3513 2113 
z
" transform="scale(0.015625)"/>
      <path id="DejaVuSans-75" d="M 544 1381 
L 544 3500 
L 1119 3500 
L 1119 1403 
Q 1119 906 1312 657 
Q 1506 409 1894 409 
Q 2359 409 2629 706 
Q 2900 1003 2900 1516 
L 2900 3500 
L 3475 3500 
L 3475 0 
L 2900 0 
L 2900 538 
Q 2691 219 2414 64 
Q 2138 -91 1772 -91 
Q 1169 -91 856 284 
Q 544 659 544 1381 
z
M 1991 3584 
L 1991 3584 
z
" transform="scale(0.015625)"/>
     </defs>
     <use xlink:href="#DejaVuSans-4d"/>
     <use xlink:href="#DejaVuSans-65" transform="translate(86.279297 0)"/>
     <use xlink:href="#DejaVuSans-74" transform="translate(147.802734 0)"/>
     <use xlink:href="#DejaVuSans-72" transform="translate(187.011719 0)"/>
     <use xlink:href="#DejaVuSans-69" transform="translate(228.125 0)"/>
     <use xlink:href="#DejaVuSans-63" transform="translate(255.908203 0)"/>
     <use xlink:href="#DejaVuSans-73" transform="translate(310.888672 0)"/>
     <use xlink:href="#DejaVuSans-3a" transform="translate(362.988281 0)"/>
     <use xlink:href="#DejaVuSans-20" transform="translate(396.679688 0)"/>
     <use xlink:href="#DejaVuSans-4d" transform="translate(428.466797 0)"/>
     <use xlink:href="#DejaVuSans-41" transform="translate(514.746094 0)"/>
     <use xlink:href="#DejaVuSans-45" transform="translate(583.154297 0)"/>
     <use xlink:href="#DejaVuSans-2c" transform="translate(646.337891 0)"/>
     <use xlink:href="#DejaVuSans-20" transform="translate(678.125 0)"/>
     <use xlink:href="#DejaVuSans-52" transform="translate(709.912109 0)"/>
     <use xlink:href="#DejaVuSans-4d" transform="translate(779.394531 0)"/>
     <use xlink:href="#DejaVuSans-53" transform="translate(865.673828 0)"/>
     <use xlink:href="#DejaVuSans-45" transform="translate(929.150391 0)"/>
     <use xlink:href="#DejaVuSans-2c" transform="translate(992.333984 0)"/>
     <use xlink:href="#DejaVuSans-20" transform="translate(1024.121094 0)"/>
     <use xlink:href="#DejaVuSans-64" transform="translate(1055.908203 0)"/>
     <use xlink:href="#DejaVuSans-69" transform="translate(1119.384766 0)"/>
     <use xlink:href="#DejaVuSans-72" transform="translate(1147.167969 0)"/>
     <use xlink:href="#DejaVuSans-65" transform="translate(1186.03125 0)"/>
     <use xlink:href="#DejaVuSans-63" transform="translate(1247.554688 0)"/>
     <use xlink:href="#DejaVuSans-74" transform="translate(1302.535156 0)"/>
     <use xlink:href="#DejaVuSans-69" transform="translate(1341.744141 0)"/>
     <use xlink:href="#DejaVuSans-6f" transform="translate(1369.527344 0)"/>
     <use xlink:href="#DejaVuSans-6e" transform="translate(1430.708984 0)"/>
     <use xlink:href="#DejaVuSans-61" transform="translate(1494.087891 0)"/>
     <use xlink:href="#DejaVuSans-6c" transform="translate(1555.367188 0)"/>
     <use xlink:href="#DejaVuSans-20" transform="translate(1583.150391 0)"/>
     <use xlink:href="#DejaVuSans-61" transform="translate(1614.9375 0)"/>
     <use xlink:href="#DejaVuSans-63" transform="translate(1676.216797 0)"/>
     <use xlink:href="#DejaVuSans-63" transform="translate(1731.197266 0)"/>
     <use xlink:href="#DejaVuSans-75" transform="translate(1786.177734 0)"/>
     <use xlink:href="#DejaVuSans-72" transform="translate(1849.556641 0)"/>
     <use xlink:href="#DejaVuSans-61" transform="translate(1890.669922 0)"/>
     <use xlink:href="#DejaVuSans-63" transform="translate(1951.949219 0)"/>
     <use xlink:href="#DejaVuSans-79" transform="translate(2006.929688 0)"/>
     <use xlink:href="#DejaVuSans-2c" transform="translate(2066.109375 0)"/>
    </g>
    <!-- 6-class accuracy, macro F1 -->
    <g style="fill: #6b7280" transform="translate(233.426756 140.857594) scale(0.09 -0.09)">
     <defs>
      <path id="DejaVuSans-36" d="M 2113 2584 
Q 1688 2584 1439 2293 
Q 1191 2003 1191 1497 
Q 1191 994 1439 701 
Q 1688 409 2113 409 
Q 2538 409 2786 701 
Q 3034 994 3034 1497 
Q 3034 2003 2786 2293 
Q 2538 2584 2113 2584 
z
M 3366 4563 
L 3366 3988 
Q 3128 4100 2886 4159 
Q 2644 4219 2406 4219 
Q 1781 4219 1451 3797 
Q 1122 3375 1075 2522 
Q 1259 2794 1537 2939 
Q 1816 3084 2150 3084 
Q 2853 3084 3261 2657 
Q 3669 2231 3669 1497 
Q 3669 778 3244 343 
Q 2819 -91 2113 -91 
Q 1303 -91 875 529 
Q 447 1150 447 2328 
Q 447 3434 972 4092 
Q 1497 4750 2381 4750 
Q 2619 4750 2861 4703 
Q 3103 4656 3366 4563 
z
" transform="scale(0.015625)"/>
      <path id="DejaVuSans-2d" d="M 313 2009 
L 1997 2009 
L 1997 1497 
L 313 1497 
L 313 2009 
z
" transform="scale(0.015625)"/>
      <path id="DejaVuSans-46" d="M 628 4666 
L 3309 4666 
L 3309 4134 
L 1259 4134 
L 1259 2759 
L 3109 2759 
L 3109 2228 
L 1259 2228 
L 1259 0 
L 628 0 
L 628 4666 
z
" transform="scale(0.015625)"/>
     </defs>
     <use xlink:href="#DejaVuSans-36"/>
     <use xlink:href="#DejaVuSans-2d" transform="translate(63.623047 0)"/>
     <use xlink:href="#DejaVuSans-63" transform="translate(99.707031 0)"/>
     <use xlink:href="#DejaVuSans-6c" transform="translate(154.6875 0)"/>
     <use xlink:href="#DejaVuSans-61" transform="translate(182.470703 0)"/>
     <use xlink:href="#DejaVuSans-73" transform="translate(243.75 0)"/>
     <use xlink:href="#DejaVuSans-73" transform="translate(295.849609 0)"/>
     <use xlink:href="#DejaVuSans-20" transform="translate(347.949219 0)"/>
     <use xlink:href="#DejaVuSans-61" transform="translate(379.736328 0)"/>
     <use xlink:href="#DejaVuSans-63" transform="translate(441.015625 0)"/>
     <use xlink:href="#DejaVuSans-63" transform="translate(495.996094 0)"/>
     <use xlink:href="#DejaVuSans-75" transform="translate(550.976562 0)"/>
     <use xlink:href="#DejaVuSans-72" transform="translate(614.355469 0)"/>
     <use xlink:href="#DejaVuSans-61" transform="translate(655.46875 0)"/>
     <use xlink:href="#DejaVuSans-63" transform="translate(716.748047 0)"/>
     <use xlink:href="#DejaVuSans-79" transform="translate(771.728516 0)"/>
     <use xlink:href="#DejaVuSans-2c" transform="translate(830.908203 0)"/>
     <use xlink:href="#DejaVuSans-20" transform="translate(862.695312 0)"/>
     <use xlink:href="#DejaVuSans-6d" transform="translate(894.482422 0)"/>
     <use xlink:href="#DejaVuSans-61" transform="translate(991.894531 0)"/>
     <use xlink:href="#DejaVuSans-63" transform="translate(1053.173828 0)"/>
     <use xlink:href="#DejaVuSans-72" transform="translate(1108.154297 0)"/>
     <use xlink:href="#DejaVuSans-6f" transform="translate(1147.017578 0)"/>
     <use xlink:href="#DejaVuSans-20" transform="translate(1208.199219 0)"/>
     <use xlink:href="#DejaVuSans-46" transform="translate(1239.986328 0)"/>
     <use xlink:href="#DejaVuSans-31" transform="translate(1297.505859 0)"/>
    </g>
   </g>
   <g id="text_8">
    <!-- (a) Experimental framework -->
    <g transform="translate(24.716278 14.038594) scale(0.09 -0.09)">
     <defs>
      <path id="DejaVuSans-Bold-28" d="M 2413 -844 
L 1484 -844 
Q 1006 -72 778 623 
Q 550 1319 550 2003 
Q 550 2688 779 3389 
Q 1009 4091 1484 4856 
L 2413 4856 
Q 2013 4116 1813 3408 
Q 1613 2700 1613 2009 
Q 1613 1319 1811 609 
Q 2009 -100 2413 -844 
z
" transform="scale(0.015625)"/>
      <path id="DejaVuSans-Bold-29" d="M 513 -844 
Q 913 -100 1113 609 
Q 1313 1319 1313 2009 
Q 1313 2700 1113 3408 
Q 913 4116 513 4856 
L 1441 4856 
Q 1916 4091 2145 3389 
Q 2375 2688 2375 2003 
Q 2375 1319 2147 623 
Q 1919 -72 1441 -844 
L 513 -844 
z
" transform="scale(0.015625)"/>
      <path id="DejaVuSans-Bold-45" d="M 588 4666 
L 3834 4666 
L 3834 3756 
L 1791 3756 
L 1791 2888 
L 3713 2888 
L 3713 1978 
L 1791 1978 
L 1791 909 
L 3903 909 
L 3903 0 
L 588 0 
L 588 4666 
z
" transform="scale(0.015625)"/>
      <path id="DejaVuSans-Bold-78" d="M 1422 1791 
L 159 3500 
L 1344 3500 
L 2059 2463 
L 2784 3500 
L 3969 3500 
L 2706 1797 
L 4031 0 
L 2847 0 
L 2059 1106 
L 1281 0 
L 97 0 
L 1422 1791 
z
" transform="scale(0.015625)"/>
      <path id="DejaVuSans-Bold-6d" d="M 3781 2919 
Q 3994 3244 4286 3414 
Q 4578 3584 4928 3584 
Q 5531 3584 5847 3212 
Q 6163 2841 6163 2131 
L 6163 0 
L 5038 0 
L 5038 1825 
Q 5041 1866 5042 1909 
Q 5044 1953 5044 2034 
Q 5044 2406 4934 2573 
Q 4825 2741 4581 2741 
Q 4263 2741 4089 2478 
Q 3916 2216 3909 1719 
L 3909 0 
L 2784 0 
L 2784 1825 
Q 2784 2406 2684 2573 
Q 2584 2741 2328 2741 
Q 2006 2741 1831 2477 
Q 1656 2213 1656 1722 
L 1656 0 
L 531 0 
L 531 3500 
L 1656 3500 
L 1656 2988 
Q 1863 3284 2130 3434 
Q 2397 3584 2719 3584 
Q 3081 3584 3359 3409 
Q 3638 3234 3781 2919 
z
" transform="scale(0.015625)"/>
      <path id="DejaVuSans-Bold-77" d="M 225 3500 
L 1313 3500 
L 1900 1088 
L 2491 3500 
L 3425 3500 
L 4013 1113 
L 4603 3500 
L 5691 3500 
L 4769 0 
L 3547 0 
L 2956 2406 
L 2369 0 
L 1147 0 
L 225 3500 
z
" transform="scale(0.015625)"/>
      <path id="DejaVuSans-Bold-6b" d="M 538 4863 
L 1656 4863 
L 1656 2216 
L 2944 3500 
L 4244 3500 
L 2534 1894 
L 4378 0 
L 3022 0 
L 1656 1459 
L 1656 0 
L 538 0 
L 538 4863 
z
" transform="scale(0.015625)"/>
     </defs>
     <use xlink:href="#DejaVuSans-Bold-28"/>
     <use xlink:href="#DejaVuSans-Bold-61" transform="translate(45.703125 0)"/>
     <use xlink:href="#DejaVuSans-Bold-29" transform="translate(113.183594 0)"/>
     <use xlink:href="#DejaVuSans-Bold-20" transform="translate(158.886719 0)"/>
     <use xlink:href="#DejaVuSans-Bold-45" transform="translate(193.701172 0)"/>
     <use xlink:href="#DejaVuSans-Bold-78" transform="translate(262.011719 0)"/>
     <use xlink:href="#DejaVuSans-Bold-70" transform="translate(326.513672 0)"/>
     <use xlink:href="#DejaVuSans-Bold-65" transform="translate(398.095703 0)"/>
     <use xlink:href="#DejaVuSans-Bold-72" transform="translate(465.917969 0)"/>
     <use xlink:href="#DejaVuSans-Bold-69" transform="translate(515.234375 0)"/>
     <use xlink:href="#DejaVuSans-Bold-6d" transform="translate(549.511719 0)"/>
     <use xlink:href="#DejaVuSans-Bold-65" transform="translate(653.710938 0)"/>
     <use xlink:href="#DejaVuSans-Bold-6e" transform="translate(721.533203 0)"/>
     <use xlink:href="#DejaVuSans-Bold-74" transform="translate(792.724609 0)"/>
     <use xlink:href="#DejaVuSans-Bold-61" transform="translate(840.527344 0)"/>
     <use xlink:href="#DejaVuSans-Bold-6c" transform="translate(908.007812 0)"/>
     <use xlink:href="#DejaVuSans-Bold-20" transform="translate(942.285156 0)"/>
     <use xlink:href="#DejaVuSans-Bold-66" transform="translate(977.099609 0)"/>
     <use xlink:href="#DejaVuSans-Bold-72" transform="translate(1020.605469 0)"/>
     <use xlink:href="#DejaVuSans-Bold-61" transform="translate(1069.921875 0)"/>
     <use xlink:href="#DejaVuSans-Bold-6d" transform="translate(1137.402344 0)"/>
     <use xlink:href="#DejaVuSans-Bold-65" transform="translate(1241.601562 0)"/>
     <use xlink:href="#DejaVuSans-Bold-77" transform="translate(1309.423828 0)"/>
     <use xlink:href="#DejaVuSans-Bold-6f" transform="translate(1401.806641 0)"/>
     <use xlink:href="#DejaVuSans-Bold-72" transform="translate(1470.507812 0)"/>
     <use xlink:href="#DejaVuSans-Bold-6b" transform="translate(1519.824219 0)"/>
    </g>
   </g>
  </g>
 </g>
 <defs>
  <clipPath id="pbe9da60848">
   <rect x="24.716278" y="7.801594" width="457.56" height="166.32"/>
  </clipPath>
 </defs>
</svg>
