<?xml version="1.0" encoding="utf-8" standalone="no"?>
<!DOCTYPE svg PUBLIC "-//W3C//DTD SVG 1.1//EN"
  "http://www.w3.org/Graphics/SVG/1.1/DTD/svg11.dtd">
<svg xmlns:xlink="http://www.w3.org/1999/xlink" width="556.814062pt" height="239.96125pt" viewBox="0 0 556.814062 239.96125" xmlns="http://www.w3.org/2000/svg" version="1.1">
 <metadata>
  <rdf:RDF xmlns:dc="http://purl.org/dc/elements/1.1/" xmlns:cc="http://creativecommons.org/ns#" xmlns:rdf="http://www.w3.org/1999/02/22-rdf-syntax-ns#">
   <cc:Work>
    <dc:type rdf:resource="http://purl.org/dc/dcmitype/StillImage"/>
    <dc:date>2026-06-02T18:44:09.087387</dc:date>
    <dc:format>image/svg+xml</dc:format>
    <dc:creator>
     <cc:Agent>
      <dc:title>Matplotlib v3.10.1, https://matplotlib.org/</dc:title>
     </cc:Agent>
    </dc:creator>
   </cc:Work>
  </rdf:RDF>
 </metadata>
 <defs>
  <style type="text/css">*{stroke-linejoin: round; stroke-linecap: butt}</style>
 </defs>
 <g id="figure_1">
  <g id="patch_1">
   <path d="M 0 239.96125 
L 556.814062 239.96125 
L 556.814062 0 
L 0 0 
z
" style="fill: #ffffff"/>
  </g>
  <g id="axes_1">
   <g id="patch_2">
    <path d="M 44.722813 205.308437 
L 549.614062 205.308437 
L 549.614062 20.798437 
L 44.722813 20.798437 
z
" style="fill: #ffffff"/>
   </g>
   <g id="matplotlib.axis_1">
    <g id="xtick_1">
     <g id="line2d_1">
      <path d="M 67.672415 205.308437 
L 67.672415 20.798437 
" clip-path="url(#p9484b5524d)" style="fill: none; stroke: #e5e7eb; stroke-width: 0.7; stroke-linecap: square"/>
     </g>
     <g id="line2d_2">
      <defs>
       <path id="m999216da47" d="M 0 0 
L 0 3.5 
" style="stroke: #000000; stroke-width: 0.8"/>
      </defs>
      <g>
       <use xlink:href="#m999216da47" x="67.672415" y="205.308437" style="stroke: #000000; stroke-width: 0.8"/>
      </g>
     </g>
     <g id="text_1">
      <!-- 1 -->
      <g transform="translate(65.127415 218.387187) scale(0.08 -0.08)">
       <defs>
        <path id="DejaVuSans-31" d="M 794 531 
L 1825 531 
L 1825 4091 
L 703 3866 
L 703 4441 
L 1819 4666 
L 2450 4666 
L 2450 531 
L 3481 531 
L 3481 0 
L 794 0 
L 794 531 
z
" transform="scale(0.015625)"/>
       </defs>
       <use xlink:href="#DejaVuSans-31"/>
      </g>
     </g>
    </g>
    <g id="xtick_2">
     <g id="line2d_3">
      <path d="M 118.671531 205.308437 
L 118.671531 20.798437 
" clip-path="url(#p9484b5524d)" style="fill: none; stroke: #e5e7eb; stroke-width: 0.7; stroke-linecap: square"/>
     </g>
     <g id="line2d_4">
      <g>
       <use xlink:href="#m999216da47" x="118.671531" y="205.308437" style="stroke: #000000; stroke-width: 0.8"/>
      </g>
     </g>
     <g id="text_2">
      <!-- 2 -->
      <g transform="translate(116.126531 218.387187) scale(0.08 -0.08)">
       <defs>
        <path id="DejaVuSans-32" d="M 1228 531 
L 3431 531 
L 3431 0 
L 469 0 
L 469 531 
Q 828 903 1448 1529 
Q 2069 2156 2228 2338 
Q 2531 2678 2651 2914 
Q 2772 3150 2772 3378 
Q 2772 3750 2511 3984 
Q 2250 4219 1831 4219 
Q 1534 4219 1204 4116 
Q 875 4013 500 3803 
L 500 4441 
Q 881 4594 1212 4672 
Q 1544 4750 1819 4750 
Q 2544 4750 2975 4387 
Q 3406 4025 3406 3419 
Q 3406 3131 3298 2873 
Q 3191 2616 2906 2266 
Q 2828 2175 2409 1742 
Q 1991 1309 1228 531 
z
" transform="scale(0.015625)"/>
       </defs>
       <use xlink:href="#DejaVuSans-32"/>
      </g>
     </g>
    </g>
    <g id="xtick_3">
     <g id="line2d_5">
      <path d="M 169.670647 205.308437 
L 169.670647 20.798437 
" clip-path="url(#p9484b5524d)" style="fill: none; stroke: #e5e7eb; stroke-width: 0.7; stroke-linecap: square"/>
     </g>
     <g id="line2d_6">
      <g>
       <use xlink:href="#m999216da47" x="169.670647" y="205.308437" style="stroke: #000000; stroke-width: 0.8"/>
      </g>
     </g>
     <g id="text_3">
      <!-- 3 -->
      <g transform="translate(167.125647 218.387187) scale(0.08 -0.08)">
       <defs>
        <path id="DejaVuSans-33" d="M 2597 2516 
Q 3050 2419 3304 2112 
Q 3559 1806 3559 1356 
Q 3559 666 3084 287 
Q 2609 -91 1734 -91 
Q 1441 -91 1130 -33 
Q 819 25 488 141 
L 488 750 
Q 750 597 1062 519 
Q 1375 441 1716 441 
Q 2309 441 2620 675 
Q 2931 909 2931 1356 
Q 2931 1769 2642 2001 
Q 2353 2234 1838 2234 
L 1294 2234 
L 1294 2753 
L 1863 2753 
Q 2328 2753 2575 2939 
Q 2822 3125 2822 3475 
Q 2822 3834 2567 4026 
Q 2313 4219 1838 4219 
Q 1578 4219 1281 4162 
Q 984 4106 628 3988 
L 628 4550 
Q 988 4650 1302 4700 
Q 1616 4750 1894 4750 
Q 2613 4750 3031 4423 
Q 3450 4097 3450 3541 
Q 3450 3153 3228 2886 
Q 3006 2619 2597 2516 
z
" transform="scale(0.015625)"/>
       </defs>
       <use xlink:href="#DejaVuSans-33"/>
      </g>
     </g>
    </g>
    <g id="xtick_4">
     <g id="line2d_7">
      <path d="M 220.669763 205.308437 
L 220.669763 20.798437 
" clip-path="url(#p9484b5524d)" style="fill: none; stroke: #e5e7eb; stroke-width: 0.7; stroke-linecap: square"/>
     </g>
     <g id="line2d_8">
      <g>
       <use xlink:href="#m999216da47" x="220.669763" y="205.308437" style="stroke: #000000; stroke-width: 0.8"/>
      </g>
     </g>
     <g id="text_4">
      <!-- 4 -->
      <g transform="translate(218.124763 218.387187) scale(0.08 -0.08)">
       <defs>
        <path id="DejaVuSans-34" d="M 2419 4116 
L 825 1625 
L 2419 1625 
L 2419 4116 
z
M 2253 4666 
L 3047 4666 
L 3047 1625 
L 3713 1625 
L 3713 1100 
L 3047 1100 
L 3047 0 
L 2419 0 
L 2419 1100 
L 313 1100 
L 313 1709 
L 2253 4666 
z
" transform="scale(0.015625)"/>
       </defs>
       <use xlink:href="#DejaVuSans-34"/>
      </g>
     </g>
    </g>
    <g id="xtick_5">
     <g id="line2d_9">
      <path d="M 271.668879 205.308437 
L 271.668879 20.798437 
" clip-path="url(#p9484b5524d)" style="fill: none; stroke: #e5e7eb; stroke-width: 0.7; stroke-linecap: square"/>
     </g>
     <g id="line2d_10">
      <g>
       <use xlink:href="#m999216da47" x="271.668879" y="205.308437" style="stroke: #000000; stroke-width: 0.8"/>
      </g>
     </g>
     <g id="text_5">
      <!-- 5 -->
      <g transform="translate(269.123879 218.387187) scale(0.08 -0.08)">
       <defs>
        <path id="DejaVuSans-35" d="M 691 4666 
L 3169 4666 
L 3169 4134 
L 1269 4134 
L 1269 2991 
Q 1406 3038 1543 3061 
Q 1681 3084 1819 3084 
Q 2600 3084 3056 2656 
Q 3513 2228 3513 1497 
Q 3513 744 3044 326 
Q 2575 -91 1722 -91 
Q 1428 -91 1123 -41 
Q 819 9 494 109 
L 494 744 
Q 775 591 1075 516 
Q 1375 441 1709 441 
Q 2250 441 2565 725 
Q 2881 1009 2881 1497 
Q 2881 1984 2565 2268 
Q 2250 2553 1709 2553 
Q 1456 2553 1204 2497 
Q 953 2441 691 2322 
L 691 4666 
z
" transform="scale(0.015625)"/>
       </defs>
       <use xlink:href="#DejaVuSans-35"/>
      </g>
     </g>
    </g>
    <g id="xtick_6">
     <g id="line2d_11">
      <path d="M 322.667996 205.308437 
L 322.667996 20.798437 
" clip-path="url(#p9484b5524d)" style="fill: none; stroke: #e5e7eb; stroke-width: 0.7; stroke-linecap: square"/>
     </g>
     <g id="line2d_12">
      <g>
       <use xlink:href="#m999216da47" x="322.667996" y="205.308437" style="stroke: #000000; stroke-width: 0.8"/>
      </g>
     </g>
     <g id="text_6">
      <!-- 6 -->
      <g transform="translate(320.122996 218.387187) scale(0.08 -0.08)">
       <defs>
        <path id="DejaVuSans-36" d="M 2113 2584 
Q 1688 2584 1439 2293 
Q 1191 2003 1191 1497 
Q 1191 994 1439 701 
Q 1688 409 2113 409 
Q 2538 409 2786 701 
Q 3034 994 3034 1497 
Q 3034 2003 2786 2293 
Q 2538 2584 2113 2584 
z
M 3366 4563 
L 3366 3988 
Q 3128 4100 2886 4159 
Q 2644 4219 2406 4219 
Q 1781 4219 1451 3797 
Q 1122 3375 1075 2522 
Q 1259 2794 1537 2939 
Q 1816 3084 2150 3084 
Q 2853 3084 3261 2657 
Q 3669 2231 3669 1497 
Q 3669 778 3244 343 
Q 2819 -91 2113 -91 
Q 1303 -91 875 529 
Q 447 1150 447 2328 
Q 447 3434 972 4092 
Q 1497 4750 2381 4750 
Q 2619 4750 2861 4703 
Q 3103 4656 3366 4563 
z
" transform="scale(0.015625)"/>
       </defs>
       <use xlink:href="#DejaVuSans-36"/>
      </g>
     </g>
    </g>
    <g id="xtick_7">
     <g id="line2d_13">
      <path d="M 373.667112 205.308437 
L 373.667112 20.798437 
" clip-path="url(#p9484b5524d)" style="fill: none; stroke: #e5e7eb; stroke-width: 0.7; stroke-linecap: square"/>
     </g>
     <g id="line2d_14">
      <g>
       <use xlink:href="#m999216da47" x="373.667112" y="205.308437" style="stroke: #000000; stroke-width: 0.8"/>
      </g>
     </g>
     <g id="text_7">
      <!-- 7 -->
      <g transform="translate(371.122112 218.387187) scale(0.08 -0.08)">
       <defs>
        <path id="DejaVuSans-37" d="M 525 4666 
L 3525 4666 
L 3525 4397 
L 1831 0 
L 1172 0 
L 2766 4134 
L 525 4134 
L 525 4666 
z
" transform="scale(0.015625)"/>
       </defs>
       <use xlink:href="#DejaVuSans-37"/>
      </g>
     </g>
    </g>
    <g id="xtick_8">
     <g id="line2d_15">
      <path d="M 424.666228 205.308437 
L 424.666228 20.798437 
" clip-path="url(#p9484b5524d)" style="fill: none; stroke: #e5e7eb; stroke-width: 0.7; stroke-linecap: square"/>
     </g>
     <g id="line2d_16">
      <g>
       <use xlink:href="#m999216da47" x="424.666228" y="205.308437" style="stroke: #000000; stroke-width: 0.8"/>
      </g>
     </g>
     <g id="text_8">
      <!-- 8 -->
      <g transform="translate(422.121228 218.387187) scale(0.08 -0.08)">
       <defs>
        <path id="DejaVuSans-38" d="M 2034 2216 
Q 1584 2216 1326 1975 
Q 1069 1734 1069 1313 
Q 1069 891 1326 650 
Q 1584 409 2034 409 
Q 2484 409 2743 651 
Q 3003 894 3003 1313 
Q 3003 1734 2745 1975 
Q 2488 2216 2034 2216 
z
M 1403 2484 
Q 997 2584 770 2862 
Q 544 3141 544 3541 
Q 544 4100 942 4425 
Q 1341 4750 2034 4750 
Q 2731 4750 3128 4425 
Q 3525 4100 3525 3541 
Q 3525 3141 3298 2862 
Q 3072 2584 2669 2484 
Q 3125 2378 3379 2068 
Q 3634 1759 3634 1313 
Q 3634 634 3220 271 
Q 2806 -91 2034 -91 
Q 1263 -91 848 271 
Q 434 634 434 1313 
Q 434 1759 690 2068 
Q 947 2378 1403 2484 
z
M 1172 3481 
Q 1172 3119 1398 2916 
Q 1625 2713 2034 2713 
Q 2441 2713 2670 2916 
Q 2900 3119 2900 3481 
Q 2900 3844 2670 4047 
Q 2441 4250 2034 4250 
Q 1625 4250 1398 4047 
Q 1172 3844 1172 3481 
z
" transform="scale(0.015625)"/>
       </defs>
       <use xlink:href="#DejaVuSans-38"/>
      </g>
     </g>
    </g>
    <g id="xtick_9">
     <g id="line2d_17">
      <path d="M 475.665344 205.308437 
L 475.665344 20.798437 
" clip-path="url(#p9484b5524d)" style="fill: none; stroke: #e5e7eb; stroke-width: 0.7; stroke-linecap: square"/>
     </g>
     <g id="line2d_18">
      <g>
       <use xlink:href="#m999216da47" x="475.665344" y="205.308437" style="stroke: #000000; stroke-width: 0.8"/>
      </g>
     </g>
     <g id="text_9">
      <!-- 9 -->
      <g transform="translate(473.120344 218.387187) scale(0.08 -0.08)">
       <defs>
        <path id="DejaVuSans-39" d="M 703 97 
L 703 672 
Q 941 559 1184 500 
Q 1428 441 1663 441 
Q 2288 441 2617 861 
Q 2947 1281 2994 2138 
Q 2813 1869 2534 1725 
Q 2256 1581 1919 1581 
Q 1219 1581 811 2004 
Q 403 2428 403 3163 
Q 403 3881 828 4315 
Q 1253 4750 1959 4750 
Q 2769 4750 3195 4129 
Q 3622 3509 3622 2328 
Q 3622 1225 3098 567 
Q 2575 -91 1691 -91 
Q 1453 -91 1209 -44 
Q 966 3 703 97 
z
M 1959 2075 
Q 2384 2075 2632 2365 
Q 2881 2656 2881 3163 
Q 2881 3666 2632 3958 
Q 2384 4250 1959 4250 
Q 1534 4250 1286 3958 
Q 1038 3666 1038 3163 
Q 1038 2656 1286 2365 
Q 1534 2075 1959 2075 
z
" transform="scale(0.015625)"/>
       </defs>
       <use xlink:href="#DejaVuSans-39"/>
      </g>
     </g>
    </g>
    <g id="xtick_10">
     <g id="line2d_19">
      <path d="M 526.66446 205.308437 
L 526.66446 20.798437 
" clip-path="url(#p9484b5524d)" style="fill: none; stroke: #e5e7eb; stroke-width: 0.7; stroke-linecap: square"/>
     </g>
     <g id="line2d_20">
      <g>
       <use xlink:href="#m999216da47" x="526.66446" y="205.308437" style="stroke: #000000; stroke-width: 0.8"/>
      </g>
     </g>
     <g id="text_10">
      <!-- 10 -->
      <g transform="translate(521.57446 218.387187) scale(0.08 -0.08)">
       <defs>
        <path id="DejaVuSans-30" d="M 2034 4250 
Q 1547 4250 1301 3770 
Q 1056 3291 1056 2328 
Q 1056 1369 1301 889 
Q 1547 409 2034 409 
Q 2525 409 2770 889 
Q 3016 1369 3016 2328 
Q 3016 3291 2770 3770 
Q 2525 4250 2034 4250 
z
M 2034 4750 
Q 2819 4750 3233 4129 
Q 3647 3509 3647 2328 
Q 3647 1150 3233 529 
Q 2819 -91 2034 -91 
Q 1250 -91 836 529 
Q 422 1150 422 2328 
Q 422 3509 836 4129 
Q 1250 4750 2034 4750 
z
" transform="scale(0.015625)"/>
       </defs>
       <use xlink:href="#DejaVuSans-31"/>
       <use xlink:href="#DejaVuSans-30" transform="translate(63.623047 0)"/>
      </g>
     </g>
    </g>
    <g id="text_11">
     <!-- Prediction decile, low to high -->
     <g transform="translate(232.283359 230.889531) scale(0.09 -0.09)">
      <defs>
       <path id="DejaVuSans-50" d="M 1259 4147 
L 1259 2394 
L 2053 2394 
Q 2494 2394 2734 2622 
Q 2975 2850 2975 3272 
Q 2975 3691 2734 3919 
Q 2494 4147 2053 4147 
L 1259 4147 
z
M 628 4666 
L 2053 4666 
Q 2838 4666 3239 4311 
Q 3641 3956 3641 3272 
Q 3641 2581 3239 2228 
Q 2838 1875 2053 1875 
L 1259 1875 
L 1259 0 
L 628 0 
L 628 4666 
z
" transform="scale(0.015625)"/>
       <path id="DejaVuSans-72" d="M 2631 2963 
Q 2534 3019 2420 3045 
Q 2306 3072 2169 3072 
Q 1681 3072 1420 2755 
Q 1159 2438 1159 1844 
L 1159 0 
L 581 0 
L 581 3500 
L 1159 3500 
L 1159 2956 
Q 1341 3275 1631 3429 
Q 1922 3584 2338 3584 
Q 2397 3584 2469 3576 
Q 2541 3569 2628 3553 
L 2631 2963 
z
" transform="scale(0.015625)"/>
       <path id="DejaVuSans-65" d="M 3597 1894 
L 3597 1613 
L 953 1613 
Q 991 1019 1311 708 
Q 1631 397 2203 397 
Q 2534 397 2845 478 
Q 3156 559 3463 722 
L 3463 178 
Q 3153 47 2828 -22 
Q 2503 -91 2169 -91 
Q 1331 -91 842 396 
Q 353 884 353 1716 
Q 353 2575 817 3079 
Q 1281 3584 2069 3584 
Q 2775 3584 3186 3129 
Q 3597 2675 3597 1894 
z
M 3022 2063 
Q 3016 2534 2758 2815 
Q 2500 3097 2075 3097 
Q 1594 3097 1305 2825 
Q 1016 2553 972 2059 
L 3022 2063 
z
" transform="scale(0.015625)"/>
       <path id="DejaVuSans-64" d="M 2906 2969 
L 2906 4863 
L 3481 4863 
L 3481 0 
L 2906 0 
L 2906 525 
Q 2725 213 2448 61 
Q 2172 -91 1784 -91 
Q 1150 -91 751 415 
Q 353 922 353 1747 
Q 353 2572 751 3078 
Q 1150 3584 1784 3584 
Q 2172 3584 2448 3432 
Q 2725 3281 2906 2969 
z
M 947 1747 
Q 947 1113 1208 752 
Q 1469 391 1925 391 
Q 2381 391 2643 752 
Q 2906 1113 2906 1747 
Q 2906 2381 2643 2742 
Q 2381 3103 1925 3103 
Q 1469 3103 1208 2742 
Q 947 2381 947 1747 
z
" transform="scale(0.015625)"/>
       <path id="DejaVuSans-69" d="M 603 3500 
L 1178 3500 
L 1178 0 
L 603 0 
L 603 3500 
z
M 603 4863 
L 1178 4863 
L 1178 4134 
L 603 4134 
L 603 4863 
z
" transform="scale(0.015625)"/>
       <path id="DejaVuSans-63" d="M 3122 3366 
L 3122 2828 
Q 2878 2963 2633 3030 
Q 2388 3097 2138 3097 
Q 1578 3097 1268 2742 
Q 959 2388 959 1747 
Q 959 1106 1268 751 
Q 1578 397 2138 397 
Q 2388 397 2633 464 
Q 2878 531 3122 666 
L 3122 134 
Q 2881 22 2623 -34 
Q 2366 -91 2075 -91 
Q 1284 -91 818 406 
Q 353 903 353 1747 
Q 353 2603 823 3093 
Q 1294 3584 2113 3584 
Q 2378 3584 2631 3529 
Q 2884 3475 3122 3366 
z
" transform="scale(0.015625)"/>
       <path id="DejaVuSans-74" d="M 1172 4494 
L 1172 3500 
L 2356 3500 
L 2356 3053 
L 1172 3053 
L 1172 1153 
Q 1172 725 1289 603 
Q 1406 481 1766 481 
L 2356 481 
L 2356 0 
L 1766 0 
Q 1100 0 847 248 
Q 594 497 594 1153 
L 594 3053 
L 172 3053 
L 172 3500 
L 594 3500 
L 594 4494 
L 1172 4494 
z
" transform="scale(0.015625)"/>
       <path id="DejaVuSans-6f" d="M 1959 3097 
Q 1497 3097 1228 2736 
Q 959 2375 959 1747 
Q 959 1119 1226 758 
Q 1494 397 1959 397 
Q 2419 397 2687 759 
Q 2956 1122 2956 1747 
Q 2956 2369 2687 2733 
Q 2419 3097 1959 3097 
z
M 1959 3584 
Q 2709 3584 3137 3096 
Q 3566 2609 3566 1747 
Q 3566 888 3137 398 
Q 2709 -91 1959 -91 
Q 1206 -91 779 398 
Q 353 888 353 1747 
Q 353 2609 779 3096 
Q 1206 3584 1959 3584 
z
" transform="scale(0.015625)"/>
       <path id="DejaVuSans-6e" d="M 3513 2113 
L 3513 0 
L 2938 0 
L 2938 2094 
Q 2938 2591 2744 2837 
Q 2550 3084 2163 3084 
Q 1697 3084 1428 2787 
Q 1159 2491 1159 1978 
L 1159 0 
L 581 0 
L 581 3500 
L 1159 3500 
L 1159 2956 
Q 1366 3272 1645 3428 
Q 1925 3584 2291 3584 
Q 2894 3584 3203 3211 
Q 3513 2838 3513 2113 
z
" transform="scale(0.015625)"/>
       <path id="DejaVuSans-20" transform="scale(0.015625)"/>
       <path id="DejaVuSans-6c" d="M 603 4863 
L 1178 4863 
L 1178 0 
L 603 0 
L 603 4863 
z
" transform="scale(0.015625)"/>
       <path id="DejaVuSans-2c" d="M 750 794 
L 1409 794 
L 1409 256 
L 897 -744 
L 494 -744 
L 750 256 
L 750 794 
z
" transform="scale(0.015625)"/>
       <path id="DejaVuSans-77" d="M 269 3500 
L 844 3500 
L 1563 769 
L 2278 3500 
L 2956 3500 
L 3675 769 
L 4391 3500 
L 4966 3500 
L 4050 0 
L 3372 0 
L 2619 2869 
L 1863 0 
L 1184 0 
L 269 3500 
z
" transform="scale(0.015625)"/>
       <path id="DejaVuSans-68" d="M 3513 2113 
L 3513 0 
L 2938 0 
L 2938 2094 
Q 2938 2591 2744 2837 
Q 2550 3084 2163 3084 
Q 1697 3084 1428 2787 
Q 1159 2491 1159 1978 
L 1159 0 
L 581 0 
L 581 4863 
L 1159 4863 
L 1159 2956 
Q 1366 3272 1645 3428 
Q 1925 3584 2291 3584 
Q 2894 3584 3203 3211 
Q 3513 2838 3513 2113 
z
" transform="scale(0.015625)"/>
       <path id="DejaVuSans-67" d="M 2906 1791 
Q 2906 2416 2648 2759 
Q 2391 3103 1925 3103 
Q 1463 3103 1205 2759 
Q 947 2416 947 1791 
Q 947 1169 1205 825 
Q 1463 481 1925 481 
Q 2391 481 2648 825 
Q 2906 1169 2906 1791 
z
M 3481 434 
Q 3481 -459 3084 -895 
Q 2688 -1331 1869 -1331 
Q 1566 -1331 1297 -1286 
Q 1028 -1241 775 -1147 
L 775 -588 
Q 1028 -725 1275 -790 
Q 1522 -856 1778 -856 
Q 2344 -856 2625 -561 
Q 2906 -266 2906 331 
L 2906 616 
Q 2728 306 2450 153 
Q 2172 0 1784 0 
Q 1141 0 747 490 
Q 353 981 353 1791 
Q 353 2603 747 3093 
Q 1141 3584 1784 3584 
Q 2172 3584 2450 3431 
Q 2728 3278 2906 2969 
L 2906 3500 
L 3481 3500 
L 3481 434 
z
" transform="scale(0.015625)"/>
      </defs>
      <use xlink:href="#DejaVuSans-50"/>
      <use xlink:href="#DejaVuSans-72" transform="translate(58.552734 0)"/>
      <use xlink:href="#DejaVuSans-65" transform="translate(97.416016 0)"/>
      <use xlink:href="#DejaVuSans-64" transform="translate(158.939453 0)"/>
      <use xlink:href="#DejaVuSans-69" transform="translate(222.416016 0)"/>
      <use xlink:href="#DejaVuSans-63" transform="translate(250.199219 0)"/>
      <use xlink:href="#DejaVuSans-74" transform="translate(305.179688 0)"/>
      <use xlink:href="#DejaVuSans-69" transform="translate(344.388672 0)"/>
      <use xlink:href="#DejaVuSans-6f" transform="translate(372.171875 0)"/>
      <use xlink:href="#DejaVuSans-6e" transform="translate(433.353516 0)"/>
      <use xlink:href="#DejaVuSans-20" transform="translate(496.732422 0)"/>
      <use xlink:href="#DejaVuSans-64" transform="translate(528.519531 0)"/>
      <use xlink:href="#DejaVuSans-65" transform="translate(591.996094 0)"/>
      <use xlink:href="#DejaVuSans-63" transform="translate(653.519531 0)"/>
      <use xlink:href="#DejaVuSans-69" transform="translate(708.5 0)"/>
      <use xlink:href="#DejaVuSans-6c" transform="translate(736.283203 0)"/>
      <use xlink:href="#DejaVuSans-65" transform="translate(764.066406 0)"/>
      <use xlink:href="#DejaVuSans-2c" transform="translate(825.589844 0)"/>
      <use xlink:href="#DejaVuSans-20" transform="translate(857.376953 0)"/>
      <use xlink:href="#DejaVuSans-6c" transform="translate(889.164062 0)"/>
      <use xlink:href="#DejaVuSans-6f" transform="translate(916.947266 0)"/>
      <use xlink:href="#DejaVuSans-77" transform="translate(978.128906 0)"/>
      <use xlink:href="#DejaVuSans-20" transform="translate(1059.916016 0)"/>
      <use xlink:href="#DejaVuSans-74" transform="translate(1091.703125 0)"/>
      <use xlink:href="#DejaVuSans-6f" transform="translate(1130.912109 0)"/>
      <use xlink:href="#DejaVuSans-20" transform="translate(1192.09375 0)"/>
      <use xlink:href="#DejaVuSans-68" transform="translate(1223.880859 0)"/>
      <use xlink:href="#DejaVuSans-69" transform="translate(1287.259766 0)"/>
      <use xlink:href="#DejaVuSans-67" transform="translate(1315.042969 0)"/>
      <use xlink:href="#DejaVuSans-68" transform="translate(1378.519531 0)"/>
     </g>
    </g>
   </g>
   <g id="matplotlib.axis_2">
    <g id="ytick_1">
     <g id="line2d_21">
      <path d="M 44.722813 193.007771 
L 549.614062 193.007771 
" clip-path="url(#p9484b5524d)" style="fill: none; stroke: #e5e7eb; stroke-width: 0.7; stroke-linecap: square"/>
     </g>
     <g id="line2d_22">
      <defs>
       <path id="mf2bde68cd7" d="M 0 0 
L -3.5 0 
" style="stroke: #000000; stroke-width: 0.8"/>
      </defs>
      <g>
       <use xlink:href="#mf2bde68cd7" x="44.722813" y="193.007771" style="stroke: #000000; stroke-width: 0.8"/>
      </g>
     </g>
     <g id="text_12">
      <!-- 0.46 -->
      <g transform="translate(19.910313 196.047146) scale(0.08 -0.08)">
       <defs>
        <path id="DejaVuSans-2e" d="M 684 794 
L 1344 794 
L 1344 0 
L 684 0 
L 684 794 
z
" transform="scale(0.015625)"/>
       </defs>
       <use xlink:href="#DejaVuSans-30"/>
       <use xlink:href="#DejaVuSans-2e" transform="translate(63.623047 0)"/>
       <use xlink:href="#DejaVuSans-34" transform="translate(95.410156 0)"/>
       <use xlink:href="#DejaVuSans-36" transform="translate(159.033203 0)"/>
      </g>
     </g>
    </g>
    <g id="ytick_2">
     <g id="line2d_23">
      <path d="M 44.722813 168.406438 
L 549.614062 168.406438 
" clip-path="url(#p9484b5524d)" style="fill: none; stroke: #e5e7eb; stroke-width: 0.7; stroke-linecap: square"/>
     </g>
     <g id="line2d_24">
      <g>
       <use xlink:href="#mf2bde68cd7" x="44.722813" y="168.406438" style="stroke: #000000; stroke-width: 0.8"/>
      </g>
     </g>
     <g id="text_13">
      <!-- 0.48 -->
      <g transform="translate(19.910313 171.445813) scale(0.08 -0.08)">
       <use xlink:href="#DejaVuSans-30"/>
       <use xlink:href="#DejaVuSans-2e" transform="translate(63.623047 0)"/>
       <use xlink:href="#DejaVuSans-34" transform="translate(95.410156 0)"/>
       <use xlink:href="#DejaVuSans-38" transform="translate(159.033203 0)"/>
      </g>
     </g>
    </g>
    <g id="ytick_3">
     <g id="line2d_25">
      <path d="M 44.722813 143.805104 
L 549.614062 143.805104 
" clip-path="url(#p9484b5524d)" style="fill: none; stroke: #e5e7eb; stroke-width: 0.7; stroke-linecap: square"/>
     </g>
     <g id="line2d_26">
      <g>
       <use xlink:href="#mf2bde68cd7" x="44.722813" y="143.805104" style="stroke: #000000; stroke-width: 0.8"/>
      </g>
     </g>
     <g id="text_14">
      <!-- 0.50 -->
      <g transform="translate(19.910313 146.844479) scale(0.08 -0.08)">
       <use xlink:href="#DejaVuSans-30"/>
       <use xlink:href="#DejaVuSans-2e" transform="translate(63.623047 0)"/>
       <use xlink:href="#DejaVuSans-35" transform="translate(95.410156 0)"/>
       <use xlink:href="#DejaVuSans-30" transform="translate(159.033203 0)"/>
      </g>
     </g>
    </g>
    <g id="ytick_4">
     <g id="line2d_27">
      <path d="M 44.722813 119.203771 
L 549.614062 119.203771 
" clip-path="url(#p9484b5524d)" style="fill: none; stroke: #e5e7eb; stroke-width: 0.7; stroke-linecap: square"/>
     </g>
     <g id="line2d_28">
      <g>
       <use xlink:href="#mf2bde68cd7" x="44.722813" y="119.203771" style="stroke: #000000; stroke-width: 0.8"/>
      </g>
     </g>
     <g id="text_15">
      <!-- 0.52 -->
      <g transform="translate(19.910313 122.243146) scale(0.08 -0.08)">
       <use xlink:href="#DejaVuSans-30"/>
       <use xlink:href="#DejaVuSans-2e" transform="translate(63.623047 0)"/>
       <use xlink:href="#DejaVuSans-35" transform="translate(95.410156 0)"/>
       <use xlink:href="#DejaVuSans-32" transform="translate(159.033203 0)"/>
      </g>
     </g>
    </g>
    <g id="ytick_5">
     <g id="line2d_29">
      <path d="M 44.722813 94.602437 
L 549.614062 94.602437 
" clip-path="url(#p9484b5524d)" style="fill: none; stroke: #e5e7eb; stroke-width: 0.7; stroke-linecap: square"/>
     </g>
     <g id="line2d_30">
      <g>
       <use xlink:href="#mf2bde68cd7" x="44.722813" y="94.602437" style="stroke: #000000; stroke-width: 0.8"/>
      </g>
     </g>
     <g id="text_16">
      <!-- 0.54 -->
      <g transform="translate(19.910313 97.641812) scale(0.08 -0.08)">
       <use xlink:href="#DejaVuSans-30"/>
       <use xlink:href="#DejaVuSans-2e" transform="translate(63.623047 0)"/>
       <use xlink:href="#DejaVuSans-35" transform="translate(95.410156 0)"/>
       <use xlink:href="#DejaVuSans-34" transform="translate(159.033203 0)"/>
      </g>
     </g>
    </g>
    <g id="ytick_6">
     <g id="line2d_31">
      <path d="M 44.722813 70.001104 
L 549.614062 70.001104 
" clip-path="url(#p9484b5524d)" style="fill: none; stroke: #e5e7eb; stroke-width: 0.7; stroke-linecap: square"/>
     </g>
     <g id="line2d_32">
      <g>
       <use xlink:href="#mf2bde68cd7" x="44.722813" y="70.001104" style="stroke: #000000; stroke-width: 0.8"/>
      </g>
     </g>
     <g id="text_17">
      <!-- 0.56 -->
      <g transform="translate(19.910313 73.040479) scale(0.08 -0.08)">
       <use xlink:href="#DejaVuSans-30"/>
       <use xlink:href="#DejaVuSans-2e" transform="translate(63.623047 0)"/>
       <use xlink:href="#DejaVuSans-35" transform="translate(95.410156 0)"/>
       <use xlink:href="#DejaVuSans-36" transform="translate(159.033203 0)"/>
      </g>
     </g>
    </g>
    <g id="ytick_7">
     <g id="line2d_33">
      <path d="M 44.722813 45.399771 
L 549.614062 45.399771 
" clip-path="url(#p9484b5524d)" style="fill: none; stroke: #e5e7eb; stroke-width: 0.7; stroke-linecap: square"/>
     </g>
     <g id="line2d_34">
      <g>
       <use xlink:href="#mf2bde68cd7" x="44.722813" y="45.399771" style="stroke: #000000; stroke-width: 0.8"/>
      </g>
     </g>
     <g id="text_18">
      <!-- 0.58 -->
      <g transform="translate(19.910313 48.439146) scale(0.08 -0.08)">
       <use xlink:href="#DejaVuSans-30"/>
       <use xlink:href="#DejaVuSans-2e" transform="translate(63.623047 0)"/>
       <use xlink:href="#DejaVuSans-35" transform="translate(95.410156 0)"/>
       <use xlink:href="#DejaVuSans-38" transform="translate(159.033203 0)"/>
      </g>
     </g>
    </g>
    <g id="ytick_8">
     <g id="line2d_35">
      <path d="M 44.722813 20.798437 
L 549.614062 20.798437 
" clip-path="url(#p9484b5524d)" style="fill: none; stroke: #e5e7eb; stroke-width: 0.7; stroke-linecap: square"/>
     </g>
     <g id="line2d_36">
      <g>
       <use xlink:href="#mf2bde68cd7" x="44.722813" y="20.798437" style="stroke: #000000; stroke-width: 0.8"/>
      </g>
     </g>
     <g id="text_19">
      <!-- 0.60 -->
      <g transform="translate(19.910313 23.837812) scale(0.08 -0.08)">
       <use xlink:href="#DejaVuSans-30"/>
       <use xlink:href="#DejaVuSans-2e" transform="translate(63.623047 0)"/>
       <use xlink:href="#DejaVuSans-36" transform="translate(95.410156 0)"/>
       <use xlink:href="#DejaVuSans-30" transform="translate(159.033203 0)"/>
      </g>
     </g>
    </g>
    <g id="text_20">
     <!-- Actual up-day ratio -->
     <g transform="translate(14.038594 155.996797) rotate(-90) scale(0.09 -0.09)">
      <defs>
       <path id="DejaVuSans-41" d="M 2188 4044 
L 1331 1722 
L 3047 1722 
L 2188 4044 
z
M 1831 4666 
L 2547 4666 
L 4325 0 
L 3669 0 
L 3244 1197 
L 1141 1197 
L 716 0 
L 50 0 
L 1831 4666 
z
" transform="scale(0.015625)"/>
       <path id="DejaVuSans-75" d="M 544 1381 
L 544 3500 
L 1119 3500 
L 1119 1403 
Q 1119 906 1312 657 
Q 1506 409 1894 409 
Q 2359 409 2629 706 
Q 2900 1003 2900 1516 
L 2900 3500 
L 3475 3500 
L 3475 0 
L 2900 0 
L 2900 538 
Q 2691 219 2414 64 
Q 2138 -91 1772 -91 
Q 1169 -91 856 284 
Q 544 659 544 1381 
z
M 1991 3584 
L 1991 3584 
z
" transform="scale(0.015625)"/>
       <path id="DejaVuSans-61" d="M 2194 1759 
Q 1497 1759 1228 1600 
Q 959 1441 959 1056 
Q 959 750 1161 570 
Q 1363 391 1709 391 
Q 2188 391 2477 730 
Q 2766 1069 2766 1631 
L 2766 1759 
L 2194 1759 
z
M 3341 1997 
L 3341 0 
L 2766 0 
L 2766 531 
Q 2569 213 2275 61 
Q 1981 -91 1556 -91 
Q 1019 -91 701 211 
Q 384 513 384 1019 
Q 384 1609 779 1909 
Q 1175 2209 1959 2209 
L 2766 2209 
L 2766 2266 
Q 2766 2663 2505 2880 
Q 2244 3097 1772 3097 
Q 1472 3097 1187 3025 
Q 903 2953 641 2809 
L 641 3341 
Q 956 3463 1253 3523 
Q 1550 3584 1831 3584 
Q 2591 3584 2966 3190 
Q 3341 2797 3341 1997 
z
" transform="scale(0.015625)"/>
       <path id="DejaVuSans-70" d="M 1159 525 
L 1159 -1331 
L 581 -1331 
L 581 3500 
L 1159 3500 
L 1159 2969 
Q 1341 3281 1617 3432 
Q 1894 3584 2278 3584 
Q 2916 3584 3314 3078 
Q 3713 2572 3713 1747 
Q 3713 922 3314 415 
Q 2916 -91 2278 -91 
Q 1894 -91 1617 61 
Q 1341 213 1159 525 
z
M 3116 1747 
Q 3116 2381 2855 2742 
Q 2594 3103 2138 3103 
Q 1681 3103 1420 2742 
Q 1159 2381 1159 1747 
Q 1159 1113 1420 752 
Q 1681 391 2138 391 
Q 2594 391 2855 752 
Q 3116 1113 3116 1747 
z
" transform="scale(0.015625)"/>
       <path id="DejaVuSans-2d" d="M 313 2009 
L 1997 2009 
L 1997 1497 
L 313 1497 
L 313 2009 
z
" transform="scale(0.015625)"/>
       <path id="DejaVuSans-79" d="M 2059 -325 
Q 1816 -950 1584 -1140 
Q 1353 -1331 966 -1331 
L 506 -1331 
L 506 -850 
L 844 -850 
Q 1081 -850 1212 -737 
Q 1344 -625 1503 -206 
L 1606 56 
L 191 3500 
L 800 3500 
L 1894 763 
L 2988 3500 
L 3597 3500 
L 2059 -325 
z
" transform="scale(0.015625)"/>
      </defs>
      <use xlink:href="#DejaVuSans-41"/>
      <use xlink:href="#DejaVuSans-63" transform="translate(66.658203 0)"/>
      <use xlink:href="#DejaVuSans-74" transform="translate(121.638672 0)"/>
      <use xlink:href="#DejaVuSans-75" transform="translate(160.847656 0)"/>
      <use xlink:href="#DejaVuSans-61" transform="translate(224.226562 0)"/>
      <use xlink:href="#DejaVuSans-6c" transform="translate(285.505859 0)"/>
      <use xlink:href="#DejaVuSans-20" transform="translate(313.289062 0)"/>
      <use xlink:href="#DejaVuSans-75" transform="translate(345.076172 0)"/>
      <use xlink:href="#DejaVuSans-70" transform="translate(408.455078 0)"/>
      <use xlink:href="#DejaVuSans-2d" transform="translate(471.931641 0)"/>
      <use xlink:href="#DejaVuSans-64" transform="translate(508.015625 0)"/>
      <use xlink:href="#DejaVuSans-61" transform="translate(571.492188 0)"/>
      <use xlink:href="#DejaVuSans-79" transform="translate(632.771484 0)"/>
      <use xlink:href="#DejaVuSans-20" transform="translate(691.951172 0)"/>
      <use xlink:href="#DejaVuSans-72" transform="translate(723.738281 0)"/>
      <use xlink:href="#DejaVuSans-61" transform="translate(764.851562 0)"/>
      <use xlink:href="#DejaVuSans-74" transform="translate(826.130859 0)"/>
      <use xlink:href="#DejaVuSans-69" transform="translate(865.339844 0)"/>
      <use xlink:href="#DejaVuSans-6f" transform="translate(893.123047 0)"/>
     </g>
    </g>
   </g>
   <g id="line2d_37">
    <path d="M 67.672415 163.621853 
L 118.671531 137.234846 
L 169.670647 110.168237 
L 220.669763 111.525138 
L 271.668879 117.132831 
L 322.667996 109.025583 
L 373.667112 104.169305 
L 424.666228 106.740276 
L 475.665344 101.812582 
L 526.66446 77.35651 
" clip-path="url(#p9484b5524d)" style="fill: none; stroke: #6b7280; stroke-width: 1.8; stroke-linecap: square"/>
    <defs>
     <path id="m530caec0cb" d="M 0 3 
C 0.795609 3 1.55874 2.683901 2.12132 2.12132 
C 2.683901 1.55874 3 0.795609 3 0 
C 3 -0.795609 2.683901 -1.55874 2.12132 -2.12132 
C 1.55874 -2.683901 0.795609 -3 0 -3 
C -0.795609 -3 -1.55874 -2.683901 -2.12132 -2.12132 
C -2.683901 -1.55874 -3 -0.795609 -3 0 
C -3 0.795609 -2.683901 1.55874 -2.12132 2.12132 
C -1.55874 2.683901 -0.795609 3 0 3 
z
" style="stroke: #6b7280"/>
    </defs>
    <g clip-path="url(#p9484b5524d)">
     <use xlink:href="#m530caec0cb" x="67.672415" y="163.621853" style="fill: #6b7280; stroke: #6b7280"/>
     <use xlink:href="#m530caec0cb" x="118.671531" y="137.234846" style="fill: #6b7280; stroke: #6b7280"/>
     <use xlink:href="#m530caec0cb" x="169.670647" y="110.168237" style="fill: #6b7280; stroke: #6b7280"/>
     <use xlink:href="#m530caec0cb" x="220.669763" y="111.525138" style="fill: #6b7280; stroke: #6b7280"/>
     <use xlink:href="#m530caec0cb" x="271.668879" y="117.132831" style="fill: #6b7280; stroke: #6b7280"/>
     <use xlink:href="#m530caec0cb" x="322.667996" y="109.025583" style="fill: #6b7280; stroke: #6b7280"/>
     <use xlink:href="#m530caec0cb" x="373.667112" y="104.169305" style="fill: #6b7280; stroke: #6b7280"/>
     <use xlink:href="#m530caec0cb" x="424.666228" y="106.740276" style="fill: #6b7280; stroke: #6b7280"/>
     <use xlink:href="#m530caec0cb" x="475.665344" y="101.812582" style="fill: #6b7280; stroke: #6b7280"/>
     <use xlink:href="#m530caec0cb" x="526.66446" y="77.35651" style="fill: #6b7280; stroke: #6b7280"/>
    </g>
   </g>
   <g id="line2d_38">
    <path d="M 67.672415 133.129054 
L 118.671531 112.596376 
L 169.670647 116.238585 
L 220.669763 110.525316 
L 271.668879 121.346122 
L 322.667996 121.451942 
L 373.667112 117.381238 
L 424.666228 119.59513 
L 475.665344 97.099136 
L 526.66446 89.425089 
" clip-path="url(#p9484b5524d)" style="fill: none; stroke: #7b4fa3; stroke-width: 1.8; stroke-linecap: square"/>
    <defs>
     <path id="m66a9a7fab4" d="M 0 3 
C 0.795609 3 1.55874 2.683901 2.12132 2.12132 
C 2.683901 1.55874 3 0.795609 3 0 
C 3 -0.795609 2.683901 -1.55874 2.12132 -2.12132 
C 1.55874 -2.683901 0.795609 -3 0 -3 
C -0.795609 -3 -1.55874 -2.683901 -2.12132 -2.12132 
C -2.683901 -1.55874 -3 -0.795609 -3 0 
C -3 0.795609 -2.683901 1.55874 -2.12132 2.12132 
C -1.55874 2.683901 -0.795609 3 0 3 
z
" style="stroke: #7b4fa3"/>
    </defs>
    <g clip-path="url(#p9484b5524d)">
     <use xlink:href="#m66a9a7fab4" x="67.672415" y="133.129054" style="fill: #7b4fa3; stroke: #7b4fa3"/>
     <use xlink:href="#m66a9a7fab4" x="118.671531" y="112.596376" style="fill: #7b4fa3; stroke: #7b4fa3"/>
     <use xlink:href="#m66a9a7fab4" x="169.670647" y="116.238585" style="fill: #7b4fa3; stroke: #7b4fa3"/>
     <use xlink:href="#m66a9a7fab4" x="220.669763" y="110.525316" style="fill: #7b4fa3; stroke: #7b4fa3"/>
     <use xlink:href="#m66a9a7fab4" x="271.668879" y="121.346122" style="fill: #7b4fa3; stroke: #7b4fa3"/>
     <use xlink:href="#m66a9a7fab4" x="322.667996" y="121.451942" style="fill: #7b4fa3; stroke: #7b4fa3"/>
     <use xlink:href="#m66a9a7fab4" x="373.667112" y="117.381238" style="fill: #7b4fa3; stroke: #7b4fa3"/>
     <use xlink:href="#m66a9a7fab4" x="424.666228" y="119.59513" style="fill: #7b4fa3; stroke: #7b4fa3"/>
     <use xlink:href="#m66a9a7fab4" x="475.665344" y="97.099136" style="fill: #7b4fa3; stroke: #7b4fa3"/>
     <use xlink:href="#m66a9a7fab4" x="526.66446" y="89.425089" style="fill: #7b4fa3; stroke: #7b4fa3"/>
    </g>
   </g>
   <g id="line2d_39">
    <path d="M 67.672415 127.701764 
L 118.671531 115.524426 
L 169.670647 115.952921 
L 220.669763 115.952921 
L 271.668879 115.847421 
L 322.667996 112.953455 
L 373.667112 109.739742 
L 424.666228 119.59513 
L 475.665344 119.523714 
L 526.66446 85.997327 
" clip-path="url(#p9484b5524d)" style="fill: none; stroke: #d55e00; stroke-width: 1.8; stroke-linecap: square"/>
    <defs>
     <path id="m9105f46ff3" d="M 0 3 
C 0.795609 3 1.55874 2.683901 2.12132 2.12132 
C 2.683901 1.55874 3 0.795609 3 0 
C 3 -0.795609 2.683901 -1.55874 2.12132 -2.12132 
C 1.55874 -2.683901 0.795609 -3 0 -3 
C -0.795609 -3 -1.55874 -2.683901 -2.12132 -2.12132 
C -2.683901 -1.55874 -3 -0.795609 -3 0 
C -3 0.795609 -2.683901 1.55874 -2.12132 2.12132 
C -1.55874 2.683901 -0.795609 3 0 3 
z
" style="stroke: #d55e00"/>
    </defs>
    <g clip-path="url(#p9484b5524d)">
     <use xlink:href="#m9105f46ff3" x="67.672415" y="127.701764" style="fill: #d55e00; stroke: #d55e00"/>
     <use xlink:href="#m9105f46ff3" x="118.671531" y="115.524426" style="fill: #d55e00; stroke: #d55e00"/>
     <use xlink:href="#m9105f46ff3" x="169.670647" y="115.952921" style="fill: #d55e00; stroke: #d55e00"/>
     <use xlink:href="#m9105f46ff3" x="220.669763" y="115.952921" style="fill: #d55e00; stroke: #d55e00"/>
     <use xlink:href="#m9105f46ff3" x="271.668879" y="115.847421" style="fill: #d55e00; stroke: #d55e00"/>
     <use xlink:href="#m9105f46ff3" x="322.667996" y="112.953455" style="fill: #d55e00; stroke: #d55e00"/>
     <use xlink:href="#m9105f46ff3" x="373.667112" y="109.739742" style="fill: #d55e00; stroke: #d55e00"/>
     <use xlink:href="#m9105f46ff3" x="424.666228" y="119.59513" style="fill: #d55e00; stroke: #d55e00"/>
     <use xlink:href="#m9105f46ff3" x="475.665344" y="119.523714" style="fill: #d55e00; stroke: #d55e00"/>
     <use xlink:href="#m9105f46ff3" x="526.66446" y="85.997327" style="fill: #d55e00; stroke: #d55e00"/>
    </g>
   </g>
   <g id="line2d_40">
    <path d="M 67.672415 123.631297 
L 118.671531 111.66797 
L 169.670647 107.88293 
L 220.669763 109.239831 
L 271.668879 118.132595 
L 322.667996 120.523536 
L 373.667112 119.523714 
L 424.666228 122.52318 
L 475.665344 119.737961 
L 526.66446 85.925915 
" clip-path="url(#p9484b5524d)" style="fill: none; stroke: #e69f00; stroke-width: 1.8; stroke-linecap: square"/>
    <defs>
     <path id="m056c9bbefb" d="M 0 3 
C 0.795609 3 1.55874 2.683901 2.12132 2.12132 
C 2.683901 1.55874 3 0.795609 3 0 
C 3 -0.795609 2.683901 -1.55874 2.12132 -2.12132 
C 1.55874 -2.683901 0.795609 -3 0 -3 
C -0.795609 -3 -1.55874 -2.683901 -2.12132 -2.12132 
C -2.683901 -1.55874 -3 -0.795609 -3 0 
C -3 0.795609 -2.683901 1.55874 -2.12132 2.12132 
C -1.55874 2.683901 -0.795609 3 0 3 
z
" style="stroke: #e69f00"/>
    </defs>
    <g clip-path="url(#p9484b5524d)">
     <use xlink:href="#m056c9bbefb" x="67.672415" y="123.631297" style="fill: #e69f00; stroke: #e69f00"/>
     <use xlink:href="#m056c9bbefb" x="118.671531" y="111.66797" style="fill: #e69f00; stroke: #e69f00"/>
     <use xlink:href="#m056c9bbefb" x="169.670647" y="107.88293" style="fill: #e69f00; stroke: #e69f00"/>
     <use xlink:href="#m056c9bbefb" x="220.669763" y="109.239831" style="fill: #e69f00; stroke: #e69f00"/>
     <use xlink:href="#m056c9bbefb" x="271.668879" y="118.132595" style="fill: #e69f00; stroke: #e69f00"/>
     <use xlink:href="#m056c9bbefb" x="322.667996" y="120.523536" style="fill: #e69f00; stroke: #e69f00"/>
     <use xlink:href="#m056c9bbefb" x="373.667112" y="119.523714" style="fill: #e69f00; stroke: #e69f00"/>
     <use xlink:href="#m056c9bbefb" x="424.666228" y="122.52318" style="fill: #e69f00; stroke: #e69f00"/>
     <use xlink:href="#m056c9bbefb" x="475.665344" y="119.737961" style="fill: #e69f00; stroke: #e69f00"/>
     <use xlink:href="#m056c9bbefb" x="526.66446" y="85.925915" style="fill: #e69f00; stroke: #e69f00"/>
    </g>
   </g>
   <g id="line2d_41">
    <path d="M 67.672415 122.488709 
L 118.671531 119.809377 
L 169.670647 119.880793 
L 220.669763 114.738852 
L 271.668879 119.275183 
L 322.667996 117.738318 
L 373.667112 122.094685 
L 424.666228 112.453544 
L 475.665344 107.454435 
L 526.66446 82.855212 
" clip-path="url(#p9484b5524d)" style="fill: none; stroke: #3b6fb6; stroke-width: 1.8; stroke-linecap: square"/>
    <defs>
     <path id="m462c0e020b" d="M 0 3 
C 0.795609 3 1.55874 2.683901 2.12132 2.12132 
C 2.683901 1.55874 3 0.795609 3 0 
C 3 -0.795609 2.683901 -1.55874 2.12132 -2.12132 
C 1.55874 -2.683901 0.795609 -3 0 -3 
C -0.795609 -3 -1.55874 -2.683901 -2.12132 -2.12132 
C -2.683901 -1.55874 -3 -0.795609 -3 0 
C -3 0.795609 -2.683901 1.55874 -2.12132 2.12132 
C -1.55874 2.683901 -0.795609 3 0 3 
z
" style="stroke: #3b6fb6"/>
    </defs>
    <g clip-path="url(#p9484b5524d)">
     <use xlink:href="#m462c0e020b" x="67.672415" y="122.488709" style="fill: #3b6fb6; stroke: #3b6fb6"/>
     <use xlink:href="#m462c0e020b" x="118.671531" y="119.809377" style="fill: #3b6fb6; stroke: #3b6fb6"/>
     <use xlink:href="#m462c0e020b" x="169.670647" y="119.880793" style="fill: #3b6fb6; stroke: #3b6fb6"/>
     <use xlink:href="#m462c0e020b" x="220.669763" y="114.738852" style="fill: #3b6fb6; stroke: #3b6fb6"/>
     <use xlink:href="#m462c0e020b" x="271.668879" y="119.275183" style="fill: #3b6fb6; stroke: #3b6fb6"/>
     <use xlink:href="#m462c0e020b" x="322.667996" y="117.738318" style="fill: #3b6fb6; stroke: #3b6fb6"/>
     <use xlink:href="#m462c0e020b" x="373.667112" y="122.094685" style="fill: #3b6fb6; stroke: #3b6fb6"/>
     <use xlink:href="#m462c0e020b" x="424.666228" y="112.453544" style="fill: #3b6fb6; stroke: #3b6fb6"/>
     <use xlink:href="#m462c0e020b" x="475.665344" y="107.454435" style="fill: #3b6fb6; stroke: #3b6fb6"/>
     <use xlink:href="#m462c0e020b" x="526.66446" y="82.855212" style="fill: #3b6fb6; stroke: #3b6fb6"/>
    </g>
   </g>
   <g id="line2d_42">
    <path d="M 67.672415 142.055517 
L 118.671531 120.380704 
L 169.670647 117.738318 
L 220.669763 112.810624 
L 271.668879 116.204479 
L 322.667996 109.311247 
L 373.667112 105.240543 
L 424.666228 121.451942 
L 475.665344 111.239475 
L 526.66446 82.35533 
" clip-path="url(#p9484b5524d)" style="fill: none; stroke: #009e73; stroke-width: 1.8; stroke-linecap: square"/>
    <defs>
     <path id="m3d4bc8ba61" d="M 0 3 
C 0.795609 3 1.55874 2.683901 2.12132 2.12132 
C 2.683901 1.55874 3 0.795609 3 0 
C 3 -0.795609 2.683901 -1.55874 2.12132 -2.12132 
C 1.55874 -2.683901 0.795609 -3 0 -3 
C -0.795609 -3 -1.55874 -2.683901 -2.12132 -2.12132 
C -2.683901 -1.55874 -3 -0.795609 -3 0 
C -3 0.795609 -2.683901 1.55874 -2.12132 2.12132 
C -1.55874 2.683901 -0.795609 3 0 3 
z
" style="stroke: #009e73"/>
    </defs>
    <g clip-path="url(#p9484b5524d)">
     <use xlink:href="#m3d4bc8ba61" x="67.672415" y="142.055517" style="fill: #009e73; stroke: #009e73"/>
     <use xlink:href="#m3d4bc8ba61" x="118.671531" y="120.380704" style="fill: #009e73; stroke: #009e73"/>
     <use xlink:href="#m3d4bc8ba61" x="169.670647" y="117.738318" style="fill: #009e73; stroke: #009e73"/>
     <use xlink:href="#m3d4bc8ba61" x="220.669763" y="112.810624" style="fill: #009e73; stroke: #009e73"/>
     <use xlink:href="#m3d4bc8ba61" x="271.668879" y="116.204479" style="fill: #009e73; stroke: #009e73"/>
     <use xlink:href="#m3d4bc8ba61" x="322.667996" y="109.311247" style="fill: #009e73; stroke: #009e73"/>
     <use xlink:href="#m3d4bc8ba61" x="373.667112" y="105.240543" style="fill: #009e73; stroke: #009e73"/>
     <use xlink:href="#m3d4bc8ba61" x="424.666228" y="121.451942" style="fill: #009e73; stroke: #009e73"/>
     <use xlink:href="#m3d4bc8ba61" x="475.665344" y="111.239475" style="fill: #009e73; stroke: #009e73"/>
     <use xlink:href="#m3d4bc8ba61" x="526.66446" y="82.35533" style="fill: #009e73; stroke: #009e73"/>
    </g>
   </g>
   <g id="line2d_43">
    <path d="M 44.722813 143.805104 
L 549.614062 143.805104 
" clip-path="url(#p9484b5524d)" style="fill: none; stroke-dasharray: 3.33,1.44; stroke-dashoffset: 0; stroke: #111827; stroke-width: 0.9"/>
   </g>
   <g id="patch_3">
    <path d="M 44.722813 205.308437 
L 44.722813 20.798437 
" style="fill: none; stroke: #000000; stroke-width: 0.8; stroke-linejoin: miter; stroke-linecap: square"/>
   </g>
   <g id="patch_4">
    <path d="M 44.722813 205.308437 
L 549.614062 205.308437 
" style="fill: none; stroke: #000000; stroke-width: 0.8; stroke-linejoin: miter; stroke-linecap: square"/>
   </g>
   <g id="text_21">
    <!-- Directional signal across prediction deciles -->
    <g transform="translate(190.416094 14.798437) scale(0.1 -0.1)">
     <defs>
      <path id="DejaVuSans-44" d="M 1259 4147 
L 1259 519 
L 2022 519 
Q 2988 519 3436 956 
Q 3884 1394 3884 2338 
Q 3884 3275 3436 3711 
Q 2988 4147 2022 4147 
L 1259 4147 
z
M 628 4666 
L 1925 4666 
Q 3281 4666 3915 4102 
Q 4550 3538 4550 2338 
Q 4550 1131 3912 565 
Q 3275 0 1925 0 
L 628 0 
L 628 4666 
z
" transform="scale(0.015625)"/>
      <path id="DejaVuSans-73" d="M 2834 3397 
L 2834 2853 
Q 2591 2978 2328 3040 
Q 2066 3103 1784 3103 
Q 1356 3103 1142 2972 
Q 928 2841 928 2578 
Q 928 2378 1081 2264 
Q 1234 2150 1697 2047 
L 1894 2003 
Q 2506 1872 2764 1633 
Q 3022 1394 3022 966 
Q 3022 478 2636 193 
Q 2250 -91 1575 -91 
Q 1294 -91 989 -36 
Q 684 19 347 128 
L 347 722 
Q 666 556 975 473 
Q 1284 391 1588 391 
Q 1994 391 2212 530 
Q 2431 669 2431 922 
Q 2431 1156 2273 1281 
Q 2116 1406 1581 1522 
L 1381 1569 
Q 847 1681 609 1914 
Q 372 2147 372 2553 
Q 372 3047 722 3315 
Q 1072 3584 1716 3584 
Q 2034 3584 2315 3537 
Q 2597 3491 2834 3397 
z
" transform="scale(0.015625)"/>
     </defs>
     <use xlink:href="#DejaVuSans-44"/>
     <use xlink:href="#DejaVuSans-69" transform="translate(77.001953 0)"/>
     <use xlink:href="#DejaVuSans-72" transform="translate(104.785156 0)"/>
     <use xlink:href="#DejaVuSans-65" transform="translate(143.648438 0)"/>
     <use xlink:href="#DejaVuSans-63" transform="translate(205.171875 0)"/>
     <use xlink:href="#DejaVuSans-74" transform="translate(260.152344 0)"/>
     <use xlink:href="#DejaVuSans-69" transform="translate(299.361328 0)"/>
     <use xlink:href="#DejaVuSans-6f" transform="translate(327.144531 0)"/>
     <use xlink:href="#DejaVuSans-6e" transform="translate(388.326172 0)"/>
     <use xlink:href="#DejaVuSans-61" transform="translate(451.705078 0)"/>
     <use xlink:href="#DejaVuSans-6c" transform="translate(512.984375 0)"/>
     <use xlink:href="#DejaVuSans-20" transform="translate(540.767578 0)"/>
     <use xlink:href="#DejaVuSans-73" transform="translate(572.554688 0)"/>
     <use xlink:href="#DejaVuSans-69" transform="translate(624.654297 0)"/>
     <use xlink:href="#DejaVuSans-67" transform="translate(652.4375 0)"/>
     <use xlink:href="#DejaVuSans-6e" transform="translate(715.914062 0)"/>
     <use xlink:href="#DejaVuSans-61" transform="translate(779.292969 0)"/>
     <use xlink:href="#DejaVuSans-6c" transform="translate(840.572266 0)"/>
     <use xlink:href="#DejaVuSans-20" transform="translate(868.355469 0)"/>
     <use xlink:href="#DejaVuSans-61" transform="translate(900.142578 0)"/>
     <use xlink:href="#DejaVuSans-63" transform="translate(961.421875 0)"/>
     <use xlink:href="#DejaVuSans-72" transform="translate(1016.402344 0)"/>
     <use xlink:href="#DejaVuSans-6f" transform="translate(1055.265625 0)"/>
     <use xlink:href="#DejaVuSans-73" transform="translate(1116.447266 0)"/>
     <use xlink:href="#DejaVuSans-73" transform="translate(1168.546875 0)"/>
     <use xlink:href="#DejaVuSans-20" transform="translate(1220.646484 0)"/>
     <use xlink:href="#DejaVuSans-70" transform="translate(1252.433594 0)"/>
     <use xlink:href="#DejaVuSans-72" transform="translate(1315.910156 0)"/>
     <use xlink:href="#DejaVuSans-65" transform="translate(1354.773438 0)"/>
     <use xlink:href="#DejaVuSans-64" transform="translate(1416.296875 0)"/>
     <use xlink:href="#DejaVuSans-69" transform="translate(1479.773438 0)"/>
     <use xlink:href="#DejaVuSans-63" transform="translate(1507.556641 0)"/>
     <use xlink:href="#DejaVuSans-74" transform="translate(1562.537109 0)"/>
     <use xlink:href="#DejaVuSans-69" transform="translate(1601.746094 0)"/>
     <use xlink:href="#DejaVuSans-6f" transform="translate(1629.529297 0)"/>
     <use xlink:href="#DejaVuSans-6e" transform="translate(1690.710938 0)"/>
     <use xlink:href="#DejaVuSans-20" transform="translate(1754.089844 0)"/>
     <use xlink:href="#DejaVuSans-64" transform="translate(1785.876953 0)"/>
     <use xlink:href="#DejaVuSans-65" transform="translate(1849.353516 0)"/>
     <use xlink:href="#DejaVuSans-63" transform="translate(1910.876953 0)"/>
     <use xlink:href="#DejaVuSans-69" transform="translate(1965.857422 0)"/>
     <use xlink:href="#DejaVuSans-6c" transform="translate(1993.640625 0)"/>
     <use xlink:href="#DejaVuSans-65" transform="translate(2021.423828 0)"/>
     <use xlink:href="#DejaVuSans-73" transform="translate(2082.947266 0)"/>
    </g>
   </g>
   <g id="legend_1">
    <g id="line2d_44">
     <path d="M 51.922813 31.277187 
L 59.922813 31.277187 
L 67.922813 31.277187 
" style="fill: none; stroke: #6b7280; stroke-width: 1.8; stroke-linecap: square"/>
     <g>
      <use xlink:href="#m530caec0cb" x="59.922813" y="31.277187" style="fill: #6b7280; stroke: #6b7280"/>
     </g>
    </g>
    <g id="text_22">
     <!-- LSTM target-only -->
     <g transform="translate(74.322812 34.077187) scale(0.08 -0.08)">
      <defs>
       <path id="DejaVuSans-4c" d="M 628 4666 
L 1259 4666 
L 1259 531 
L 3531 531 
L 3531 0 
L 628 0 
L 628 4666 
z
" transform="scale(0.015625)"/>
       <path id="DejaVuSans-53" d="M 3425 4513 
L 3425 3897 
Q 3066 4069 2747 4153 
Q 2428 4238 2131 4238 
Q 1616 4238 1336 4038 
Q 1056 3838 1056 3469 
Q 1056 3159 1242 3001 
Q 1428 2844 1947 2747 
L 2328 2669 
Q 3034 2534 3370 2195 
Q 3706 1856 3706 1288 
Q 3706 609 3251 259 
Q 2797 -91 1919 -91 
Q 1588 -91 1214 -16 
Q 841 59 441 206 
L 441 856 
Q 825 641 1194 531 
Q 1563 422 1919 422 
Q 2459 422 2753 634 
Q 3047 847 3047 1241 
Q 3047 1584 2836 1778 
Q 2625 1972 2144 2069 
L 1759 2144 
Q 1053 2284 737 2584 
Q 422 2884 422 3419 
Q 422 4038 858 4394 
Q 1294 4750 2059 4750 
Q 2388 4750 2728 4690 
Q 3069 4631 3425 4513 
z
" transform="scale(0.015625)"/>
       <path id="DejaVuSans-54" d="M -19 4666 
L 3928 4666 
L 3928 4134 
L 2272 4134 
L 2272 0 
L 1638 0 
L 1638 4134 
L -19 4134 
L -19 4666 
z
" transform="scale(0.015625)"/>
       <path id="DejaVuSans-4d" d="M 628 4666 
L 1569 4666 
L 2759 1491 
L 3956 4666 
L 4897 4666 
L 4897 0 
L 4281 0 
L 4281 4097 
L 3078 897 
L 2444 897 
L 1241 4097 
L 1241 0 
L 628 0 
L 628 4666 
z
" transform="scale(0.015625)"/>
      </defs>
      <use xlink:href="#DejaVuSans-4c"/>
      <use xlink:href="#DejaVuSans-53" transform="translate(55.712891 0)"/>
      <use xlink:href="#DejaVuSans-54" transform="translate(119.189453 0)"/>
      <use xlink:href="#DejaVuSans-4d" transform="translate(180.273438 0)"/>
      <use xlink:href="#DejaVuSans-20" transform="translate(266.552734 0)"/>
      <use xlink:href="#DejaVuSans-74" transform="translate(298.339844 0)"/>
      <use xlink:href="#DejaVuSans-61" transform="translate(337.548828 0)"/>
      <use xlink:href="#DejaVuSans-72" transform="translate(398.828125 0)"/>
      <use xlink:href="#DejaVuSans-67" transform="translate(438.191406 0)"/>
      <use xlink:href="#DejaVuSans-65" transform="translate(501.667969 0)"/>
      <use xlink:href="#DejaVuSans-74" transform="translate(563.191406 0)"/>
      <use xlink:href="#DejaVuSans-2d" transform="translate(602.400391 0)"/>
      <use xlink:href="#DejaVuSans-6f" transform="translate(640.359375 0)"/>
      <use xlink:href="#DejaVuSans-6e" transform="translate(701.541016 0)"/>
      <use xlink:href="#DejaVuSans-6c" transform="translate(764.919922 0)"/>
      <use xlink:href="#DejaVuSans-79" transform="translate(792.703125 0)"/>
     </g>
    </g>
    <g id="line2d_45">
     <path d="M 51.922813 43.019687 
L 59.922813 43.019687 
L 67.922813 43.019687 
" style="fill: none; stroke: #7b4fa3; stroke-width: 1.8; stroke-linecap: square"/>
     <g>
      <use xlink:href="#m66a9a7fab4" x="59.922813" y="43.019687" style="fill: #7b4fa3; stroke: #7b4fa3"/>
     </g>
    </g>
    <g id="text_23">
     <!-- P-sLSTM-DA BCE -->
     <g transform="translate(74.322812 45.819687) scale(0.08 -0.08)">
      <defs>
       <path id="DejaVuSans-42" d="M 1259 2228 
L 1259 519 
L 2272 519 
Q 2781 519 3026 730 
Q 3272 941 3272 1375 
Q 3272 1813 3026 2020 
Q 2781 2228 2272 2228 
L 1259 2228 
z
M 1259 4147 
L 1259 2741 
L 2194 2741 
Q 2656 2741 2882 2914 
Q 3109 3088 3109 3444 
Q 3109 3797 2882 3972 
Q 2656 4147 2194 4147 
L 1259 4147 
z
M 628 4666 
L 2241 4666 
Q 2963 4666 3353 4366 
Q 3744 4066 3744 3513 
Q 3744 3084 3544 2831 
Q 3344 2578 2956 2516 
Q 3422 2416 3680 2098 
Q 3938 1781 3938 1306 
Q 3938 681 3513 340 
Q 3088 0 2303 0 
L 628 0 
L 628 4666 
z
" transform="scale(0.015625)"/>
       <path id="DejaVuSans-43" d="M 4122 4306 
L 4122 3641 
Q 3803 3938 3442 4084 
Q 3081 4231 2675 4231 
Q 1875 4231 1450 3742 
Q 1025 3253 1025 2328 
Q 1025 1406 1450 917 
Q 1875 428 2675 428 
Q 3081 428 3442 575 
Q 3803 722 4122 1019 
L 4122 359 
Q 3791 134 3420 21 
Q 3050 -91 2638 -91 
Q 1578 -91 968 557 
Q 359 1206 359 2328 
Q 359 3453 968 4101 
Q 1578 4750 2638 4750 
Q 3056 4750 3426 4639 
Q 3797 4528 4122 4306 
z
" transform="scale(0.015625)"/>
       <path id="DejaVuSans-45" d="M 628 4666 
L 3578 4666 
L 3578 4134 
L 1259 4134 
L 1259 2753 
L 3481 2753 
L 3481 2222 
L 1259 2222 
L 1259 531 
L 3634 531 
L 3634 0 
L 628 0 
L 628 4666 
z
" transform="scale(0.015625)"/>
      </defs>
      <use xlink:href="#DejaVuSans-50"/>
      <use xlink:href="#DejaVuSans-2d" transform="translate(58.052734 0)"/>
      <use xlink:href="#DejaVuSans-73" transform="translate(94.136719 0)"/>
      <use xlink:href="#DejaVuSans-4c" transform="translate(146.236328 0)"/>
      <use xlink:href="#DejaVuSans-53" transform="translate(201.949219 0)"/>
      <use xlink:href="#DejaVuSans-54" transform="translate(265.425781 0)"/>
      <use xlink:href="#DejaVuSans-4d" transform="translate(326.509766 0)"/>
      <use xlink:href="#DejaVuSans-2d" transform="translate(412.789062 0)"/>
      <use xlink:href="#DejaVuSans-44" transform="translate(448.873047 0)"/>
      <use xlink:href="#DejaVuSans-41" transform="translate(524.125 0)"/>
      <use xlink:href="#DejaVuSans-20" transform="translate(592.533203 0)"/>
      <use xlink:href="#DejaVuSans-42" transform="translate(624.320312 0)"/>
      <use xlink:href="#DejaVuSans-43" transform="translate(691.173828 0)"/>
      <use xlink:href="#DejaVuSans-45" transform="translate(760.998047 0)"/>
     </g>
    </g>
    <g id="line2d_46">
     <path d="M 51.922813 54.762187 
L 59.922813 54.762187 
L 67.922813 54.762187 
" style="fill: none; stroke: #d55e00; stroke-width: 1.8; stroke-linecap: square"/>
     <g>
      <use xlink:href="#m9105f46ff3" x="59.922813" y="54.762187" style="fill: #d55e00; stroke: #d55e00"/>
     </g>
    </g>
    <g id="text_24">
     <!-- P-sLSTM-DA focal -->
     <g transform="translate(74.322812 57.562187) scale(0.08 -0.08)">
      <defs>
       <path id="DejaVuSans-66" d="M 2375 4863 
L 2375 4384 
L 1825 4384 
Q 1516 4384 1395 4259 
Q 1275 4134 1275 3809 
L 1275 3500 
L 2222 3500 
L 2222 3053 
L 1275 3053 
L 1275 0 
L 697 0 
L 697 3053 
L 147 3053 
L 147 3500 
L 697 3500 
L 697 3744 
Q 697 4328 969 4595 
Q 1241 4863 1831 4863 
L 2375 4863 
z
" transform="scale(0.015625)"/>
      </defs>
      <use xlink:href="#DejaVuSans-50"/>
      <use xlink:href="#DejaVuSans-2d" transform="translate(58.052734 0)"/>
      <use xlink:href="#DejaVuSans-73" transform="translate(94.136719 0)"/>
      <use xlink:href="#DejaVuSans-4c" transform="translate(146.236328 0)"/>
      <use xlink:href="#DejaVuSans-53" transform="translate(201.949219 0)"/>
      <use xlink:href="#DejaVuSans-54" transform="translate(265.425781 0)"/>
      <use xlink:href="#DejaVuSans-4d" transform="translate(326.509766 0)"/>
      <use xlink:href="#DejaVuSans-2d" transform="translate(412.789062 0)"/>
      <use xlink:href="#DejaVuSans-44" transform="translate(448.873047 0)"/>
      <use xlink:href="#DejaVuSans-41" transform="translate(524.125 0)"/>
      <use xlink:href="#DejaVuSans-20" transform="translate(592.533203 0)"/>
      <use xlink:href="#DejaVuSans-66" transform="translate(624.320312 0)"/>
      <use xlink:href="#DejaVuSans-6f" transform="translate(659.525391 0)"/>
      <use xlink:href="#DejaVuSans-63" transform="translate(720.707031 0)"/>
      <use xlink:href="#DejaVuSans-61" transform="translate(775.6875 0)"/>
      <use xlink:href="#DejaVuSans-6c" transform="translate(836.966797 0)"/>
     </g>
    </g>
    <g id="line2d_47">
     <path d="M 51.922813 66.504687 
L 59.922813 66.504687 
L 67.922813 66.504687 
" style="fill: none; stroke: #e69f00; stroke-width: 1.8; stroke-linecap: square"/>
     <g>
      <use xlink:href="#m056c9bbefb" x="59.922813" y="66.504687" style="fill: #e69f00; stroke: #e69f00"/>
     </g>
    </g>
    <g id="text_25">
     <!-- P-sLSTM direction head -->
     <g transform="translate(74.322812 69.304687) scale(0.08 -0.08)">
      <use xlink:href="#DejaVuSans-50"/>
      <use xlink:href="#DejaVuSans-2d" transform="translate(58.052734 0)"/>
      <use xlink:href="#DejaVuSans-73" transform="translate(94.136719 0)"/>
      <use xlink:href="#DejaVuSans-4c" transform="translate(146.236328 0)"/>
      <use xlink:href="#DejaVuSans-53" transform="translate(201.949219 0)"/>
      <use xlink:href="#DejaVuSans-54" transform="translate(265.425781 0)"/>
      <use xlink:href="#DejaVuSans-4d" transform="translate(326.509766 0)"/>
      <use xlink:href="#DejaVuSans-20" transform="translate(412.789062 0)"/>
      <use xlink:href="#DejaVuSans-64" transform="translate(444.576172 0)"/>
      <use xlink:href="#DejaVuSans-69" transform="translate(508.052734 0)"/>
      <use xlink:href="#DejaVuSans-72" transform="translate(535.835938 0)"/>
      <use xlink:href="#DejaVuSans-65" transform="translate(574.699219 0)"/>
      <use xlink:href="#DejaVuSans-63" transform="translate(636.222656 0)"/>
      <use xlink:href="#DejaVuSans-74" transform="translate(691.203125 0)"/>
      <use xlink:href="#DejaVuSans-69" transform="translate(730.412109 0)"/>
      <use xlink:href="#DejaVuSans-6f" transform="translate(758.195312 0)"/>
      <use xlink:href="#DejaVuSans-6e" transform="translate(819.376953 0)"/>
      <use xlink:href="#DejaVuSans-20" transform="translate(882.755859 0)"/>
      <use xlink:href="#DejaVuSans-68" transform="translate(914.542969 0)"/>
      <use xlink:href="#DejaVuSans-65" transform="translate(977.921875 0)"/>
      <use xlink:href="#DejaVuSans-61" transform="translate(1039.445312 0)"/>
      <use xlink:href="#DejaVuSans-64" transform="translate(1100.724609 0)"/>
     </g>
    </g>
    <g id="line2d_48">
     <path d="M 51.922813 78.247187 
L 59.922813 78.247187 
L 67.922813 78.247187 
" style="fill: none; stroke: #3b6fb6; stroke-width: 1.8; stroke-linecap: square"/>
     <g>
      <use xlink:href="#m462c0e020b" x="59.922813" y="78.247187" style="fill: #3b6fb6; stroke: #3b6fb6"/>
     </g>
    </g>
    <g id="text_26">
     <!-- P-sLSTM target-only -->
     <g transform="translate(74.322812 81.047187) scale(0.08 -0.08)">
      <use xlink:href="#DejaVuSans-50"/>
      <use xlink:href="#DejaVuSans-2d" transform="translate(58.052734 0)"/>
      <use xlink:href="#DejaVuSans-73" transform="translate(94.136719 0)"/>
      <use xlink:href="#DejaVuSans-4c" transform="translate(146.236328 0)"/>
      <use xlink:href="#DejaVuSans-53" transform="translate(201.949219 0)"/>
      <use xlink:href="#DejaVuSans-54" transform="translate(265.425781 0)"/>
      <use xlink:href="#DejaVuSans-4d" transform="translate(326.509766 0)"/>
      <use xlink:href="#DejaVuSans-20" transform="translate(412.789062 0)"/>
      <use xlink:href="#DejaVuSans-74" transform="translate(444.576172 0)"/>
      <use xlink:href="#DejaVuSans-61" transform="translate(483.785156 0)"/>
      <use xlink:href="#DejaVuSans-72" transform="translate(545.064453 0)"/>
      <use xlink:href="#DejaVuSans-67" transform="translate(584.427734 0)"/>
      <use xlink:href="#DejaVuSans-65" transform="translate(647.904297 0)"/>
      <use xlink:href="#DejaVuSans-74" transform="translate(709.427734 0)"/>
      <use xlink:href="#DejaVuSans-2d" transform="translate(748.636719 0)"/>
      <use xlink:href="#DejaVuSans-6f" transform="translate(786.595703 0)"/>
      <use xlink:href="#DejaVuSans-6e" transform="translate(847.777344 0)"/>
      <use xlink:href="#DejaVuSans-6c" transform="translate(911.15625 0)"/>
      <use xlink:href="#DejaVuSans-79" transform="translate(938.939453 0)"/>
     </g>
    </g>
    <g id="line2d_49">
     <path d="M 51.922813 89.989687 
L 59.922813 89.989687 
L 67.922813 89.989687 
" style="fill: none; stroke: #009e73; stroke-width: 1.8; stroke-linecap: square"/>
     <g>
      <use xlink:href="#m3d4bc8ba61" x="59.922813" y="89.989687" style="fill: #009e73; stroke: #009e73"/>
     </g>
    </g>
    <g id="text_27">
     <!-- Weather -&gt; P-sLSTM -->
     <g transform="translate(74.322812 92.789687) scale(0.08 -0.08)">
      <defs>
       <path id="DejaVuSans-57" d="M 213 4666 
L 850 4666 
L 1831 722 
L 2809 4666 
L 3519 4666 
L 4500 722 
L 5478 4666 
L 6119 4666 
L 4947 0 
L 4153 0 
L 3169 4050 
L 2175 0 
L 1381 0 
L 213 4666 
z
" transform="scale(0.015625)"/>
       <path id="DejaVuSans-3e" d="M 678 3150 
L 678 3719 
L 4684 2266 
L 4684 1747 
L 678 294 
L 678 863 
L 3897 2003 
L 678 3150 
z
" transform="scale(0.015625)"/>
      </defs>
      <use xlink:href="#DejaVuSans-57"/>
      <use xlink:href="#DejaVuSans-65" transform="translate(93.001953 0)"/>
      <use xlink:href="#DejaVuSans-61" transform="translate(154.525391 0)"/>
      <use xlink:href="#DejaVuSans-74" transform="translate(215.804688 0)"/>
      <use xlink:href="#DejaVuSans-68" transform="translate(255.013672 0)"/>
      <use xlink:href="#DejaVuSans-65" transform="translate(318.392578 0)"/>
      <use xlink:href="#DejaVuSans-72" transform="translate(379.916016 0)"/>
      <use xlink:href="#DejaVuSans-20" transform="translate(421.029297 0)"/>
      <use xlink:href="#DejaVuSans-2d" transform="translate(452.816406 0)"/>
      <use xlink:href="#DejaVuSans-3e" transform="translate(488.900391 0)"/>
      <use xlink:href="#DejaVuSans-20" transform="translate(572.689453 0)"/>
      <use xlink:href="#DejaVuSans-50" transform="translate(604.476562 0)"/>
      <use xlink:href="#DejaVuSans-2d" transform="translate(662.529297 0)"/>
      <use xlink:href="#DejaVuSans-73" transform="translate(698.613281 0)"/>
      <use xlink:href="#DejaVuSans-4c" transform="translate(750.712891 0)"/>
      <use xlink:href="#DejaVuSans-53" transform="translate(806.425781 0)"/>
      <use xlink:href="#DejaVuSans-54" transform="translate(869.902344 0)"/>
      <use xlink:href="#DejaVuSans-4d" transform="translate(930.986328 0)"/>
     </g>
    </g>
   </g>
  </g>
 </g>
 <defs>
  <clipPath id="p9484b5524d">
   <rect x="44.722813" y="20.798437" width="504.89125" height="184.51"/>
  </clipPath>
 </defs>
</svg>
