<?xml version="1.0" encoding="utf-8" standalone="no"?>
<!DOCTYPE svg PUBLIC "-//W3C//DTD SVG 1.1//EN"
  "http://www.w3.org/Graphics/SVG/1.1/DTD/svg11.dtd">
<svg xmlns:xlink="http://www.w3.org/1999/xlink" width="623.198081pt" height="180.72pt" viewBox="0 0 623.198081 180.72" xmlns="http://www.w3.org/2000/svg" version="1.1">
 <metadata>
  <rdf:RDF xmlns:dc="http://purl.org/dc/elements/1.1/" xmlns:cc="http://creativecommons.org/ns#" xmlns:rdf="http://www.w3.org/1999/02/22-rdf-syntax-ns#">
   <cc:Work>
    <dc:type rdf:resource="http://purl.org/dc/dcmitype/StillImage"/>
    <dc:date>2026-06-02T18:43:59.484257</dc:date>
    <dc:format>image/svg+xml</dc:format>
    <dc:creator>
     <cc:Agent>
      <dc:title>Matplotlib v3.10.1, https://matplotlib.org/</dc:title>
     </cc:Agent>
    </dc:creator>
   </cc:Work>
  </rdf:RDF>
 </metadata>
 <defs>
  <style type="text/css">*{stroke-linejoin: round; stroke-linecap: butt}</style>
 </defs>
 <g id="figure_1">
  <g id="patch_1">
   <path d="M 0 180.72 
L 623.198081 180.72 
L 623.198081 0 
L 0 0 
z
" style="fill: #ffffff"/>
  </g>
  <g id="axes_1">
   <g id="patch_2">
    <path d="M 19.476 92.736 
L 107.8632 92.736 
L 107.8632 54.72 
L 19.476 54.72 
z
" clip-path="url(#p34aa54b4c0)" style="fill: #3b6fb6; fill-opacity: 0.12549; stroke: #3b6fb6; stroke-width: 1.2; stroke-linejoin: miter"/>
   </g>
   <g id="patch_3">
    <path d="M 137.3256 92.736 
L 225.7128 92.736 
L 225.7128 54.72 
L 137.3256 54.72 
z
" clip-path="url(#p34aa54b4c0)" style="fill: #009e73; fill-opacity: 0.12549; stroke: #009e73; stroke-width: 1.2; stroke-linejoin: miter"/>
   </g>
   <g id="patch_4">
    <path d="M 255.1752 92.736 
L 343.5624 92.736 
L 343.5624 54.72 
L 255.1752 54.72 
z
" clip-path="url(#p34aa54b4c0)" style="fill: #7b4fa3; fill-opacity: 0.12549; stroke: #7b4fa3; stroke-width: 1.2; stroke-linejoin: miter"/>
   </g>
   <g id="patch_5">
    <path d="M 373.0248 92.736 
L 476.1432 92.736 
L 476.1432 54.72 
L 373.0248 54.72 
z
" clip-path="url(#p34aa54b4c0)" style="fill: #e69f00; fill-opacity: 0.12549; stroke: #e69f00; stroke-width: 1.2; stroke-linejoin: miter"/>
   </g>
   <g id="patch_6">
    <path d="M 255.1752 156.888 
L 343.5624 156.888 
L 343.5624 126 
L 255.1752 126 
z
" clip-path="url(#p34aa54b4c0)" style="fill: #6b7280; fill-opacity: 0.12549; stroke: #6b7280; stroke-width: 1.2; stroke-linejoin: miter"/>
   </g>
   <g id="text_1">
    <!-- S&amp;P500 panel -->
    <g transform="translate(28.190616 71.172422) scale(0.09 -0.09)">
     <defs>
      <path id="DejaVuSans-Bold-53" d="M 3834 4519 
L 3834 3531 
Q 3450 3703 3084 3790 
Q 2719 3878 2394 3878 
Q 1963 3878 1756 3759 
Q 1550 3641 1550 3391 
Q 1550 3203 1689 3098 
Q 1828 2994 2194 2919 
L 2706 2816 
Q 3484 2659 3812 2340 
Q 4141 2022 4141 1434 
Q 4141 663 3683 286 
Q 3225 -91 2284 -91 
Q 1841 -91 1394 -6 
Q 947 78 500 244 
L 500 1259 
Q 947 1022 1364 901 
Q 1781 781 2169 781 
Q 2563 781 2772 912 
Q 2981 1044 2981 1288 
Q 2981 1506 2839 1625 
Q 2697 1744 2272 1838 
L 1806 1941 
Q 1106 2091 782 2419 
Q 459 2747 459 3303 
Q 459 4000 909 4375 
Q 1359 4750 2203 4750 
Q 2588 4750 2994 4692 
Q 3400 4634 3834 4519 
z
" transform="scale(0.015625)"/>
      <path id="DejaVuSans-Bold-26" d="M 2497 3097 
L 3775 1691 
Q 3941 1909 4027 2181 
Q 4113 2453 4128 2797 
L 5100 2797 
Q 5053 2228 4879 1784 
Q 4706 1341 4397 1006 
L 5313 0 
L 3988 0 
L 3681 341 
Q 3353 122 2990 15 
Q 2628 -91 2222 -91 
Q 1400 -91 892 342 
Q 384 775 384 1459 
Q 384 1916 607 2267 
Q 831 2619 1338 2950 
Q 1206 3116 1143 3281 
Q 1081 3447 1081 3628 
Q 1081 4138 1478 4444 
Q 1875 4750 2534 4750 
Q 2819 4750 3126 4704 
Q 3434 4659 3769 4569 
L 3769 3700 
Q 3475 3850 3212 3922 
Q 2950 3994 2700 3994 
Q 2459 3994 2326 3901 
Q 2194 3809 2194 3641 
Q 2194 3534 2270 3398 
Q 2347 3263 2497 3097 
z
M 1875 2322 
Q 1672 2175 1569 1989 
Q 1466 1803 1466 1581 
Q 1466 1222 1731 969 
Q 1997 716 2369 716 
Q 2578 716 2759 780 
Q 2941 844 3097 972 
L 1875 2322 
z
" transform="scale(0.015625)"/>
      <path id="DejaVuSans-Bold-50" d="M 588 4666 
L 2584 4666 
Q 3475 4666 3951 4270 
Q 4428 3875 4428 3144 
Q 4428 2409 3951 2014 
Q 3475 1619 2584 1619 
L 1791 1619 
L 1791 0 
L 588 0 
L 588 4666 
z
M 1791 3794 
L 1791 2491 
L 2456 2491 
Q 2806 2491 2997 2661 
Q 3188 2831 3188 3144 
Q 3188 3456 2997 3625 
Q 2806 3794 2456 3794 
L 1791 3794 
z
" transform="scale(0.015625)"/>
      <path id="DejaVuSans-Bold-35" d="M 678 4666 
L 3669 4666 
L 3669 3781 
L 1638 3781 
L 1638 3059 
Q 1775 3097 1914 3117 
Q 2053 3138 2203 3138 
Q 3056 3138 3531 2711 
Q 4006 2284 4006 1522 
Q 4006 766 3489 337 
Q 2972 -91 2053 -91 
Q 1656 -91 1267 -14 
Q 878 63 494 219 
L 494 1166 
Q 875 947 1217 837 
Q 1559 728 1863 728 
Q 2300 728 2551 942 
Q 2803 1156 2803 1522 
Q 2803 1891 2551 2103 
Q 2300 2316 1863 2316 
Q 1603 2316 1309 2248 
Q 1016 2181 678 2041 
L 678 4666 
z
" transform="scale(0.015625)"/>
      <path id="DejaVuSans-Bold-30" d="M 2944 2338 
Q 2944 3213 2780 3570 
Q 2616 3928 2228 3928 
Q 1841 3928 1675 3570 
Q 1509 3213 1509 2338 
Q 1509 1453 1675 1090 
Q 1841 728 2228 728 
Q 2613 728 2778 1090 
Q 2944 1453 2944 2338 
z
M 4147 2328 
Q 4147 1169 3647 539 
Q 3147 -91 2228 -91 
Q 1306 -91 806 539 
Q 306 1169 306 2328 
Q 306 3491 806 4120 
Q 1306 4750 2228 4750 
Q 3147 4750 3647 4120 
Q 4147 3491 4147 2328 
z
" transform="scale(0.015625)"/>
      <path id="DejaVuSans-Bold-20" transform="scale(0.015625)"/>
      <path id="DejaVuSans-Bold-70" d="M 1656 506 
L 1656 -1331 
L 538 -1331 
L 538 3500 
L 1656 3500 
L 1656 2988 
Q 1888 3294 2169 3439 
Q 2450 3584 2816 3584 
Q 3463 3584 3878 3070 
Q 4294 2556 4294 1747 
Q 4294 938 3878 423 
Q 3463 -91 2816 -91 
Q 2450 -91 2169 54 
Q 1888 200 1656 506 
z
M 2400 2772 
Q 2041 2772 1848 2508 
Q 1656 2244 1656 1747 
Q 1656 1250 1848 986 
Q 2041 722 2400 722 
Q 2759 722 2948 984 
Q 3138 1247 3138 1747 
Q 3138 2247 2948 2509 
Q 2759 2772 2400 2772 
z
" transform="scale(0.015625)"/>
      <path id="DejaVuSans-Bold-61" d="M 2106 1575 
Q 1756 1575 1579 1456 
Q 1403 1338 1403 1106 
Q 1403 894 1545 773 
Q 1688 653 1941 653 
Q 2256 653 2472 879 
Q 2688 1106 2688 1447 
L 2688 1575 
L 2106 1575 
z
M 3816 1997 
L 3816 0 
L 2688 0 
L 2688 519 
Q 2463 200 2181 54 
Q 1900 -91 1497 -91 
Q 953 -91 614 226 
Q 275 544 275 1050 
Q 275 1666 698 1953 
Q 1122 2241 2028 2241 
L 2688 2241 
L 2688 2328 
Q 2688 2594 2478 2717 
Q 2269 2841 1825 2841 
Q 1466 2841 1156 2769 
Q 847 2697 581 2553 
L 581 3406 
Q 941 3494 1303 3539 
Q 1666 3584 2028 3584 
Q 2975 3584 3395 3211 
Q 3816 2838 3816 1997 
z
" transform="scale(0.015625)"/>
      <path id="DejaVuSans-Bold-6e" d="M 4056 2131 
L 4056 0 
L 2931 0 
L 2931 347 
L 2931 1631 
Q 2931 2084 2911 2256 
Q 2891 2428 2841 2509 
Q 2775 2619 2662 2680 
Q 2550 2741 2406 2741 
Q 2056 2741 1856 2470 
Q 1656 2200 1656 1722 
L 1656 0 
L 538 0 
L 538 3500 
L 1656 3500 
L 1656 2988 
Q 1909 3294 2193 3439 
Q 2478 3584 2822 3584 
Q 3428 3584 3742 3212 
Q 4056 2841 4056 2131 
z
" transform="scale(0.015625)"/>
      <path id="DejaVuSans-Bold-65" d="M 4031 1759 
L 4031 1441 
L 1416 1441 
Q 1456 1047 1700 850 
Q 1944 653 2381 653 
Q 2734 653 3104 758 
Q 3475 863 3866 1075 
L 3866 213 
Q 3469 63 3072 -14 
Q 2675 -91 2278 -91 
Q 1328 -91 801 392 
Q 275 875 275 1747 
Q 275 2603 792 3093 
Q 1309 3584 2216 3584 
Q 3041 3584 3536 3087 
Q 4031 2591 4031 1759 
z
M 2881 2131 
Q 2881 2450 2695 2645 
Q 2509 2841 2209 2841 
Q 1884 2841 1681 2658 
Q 1478 2475 1428 2131 
L 2881 2131 
z
" transform="scale(0.015625)"/>
      <path id="DejaVuSans-Bold-6c" d="M 538 4863 
L 1656 4863 
L 1656 0 
L 538 0 
L 538 4863 
z
" transform="scale(0.015625)"/>
     </defs>
     <use xlink:href="#DejaVuSans-Bold-53"/>
     <use xlink:href="#DejaVuSans-Bold-26" transform="translate(72.021484 0)"/>
     <use xlink:href="#DejaVuSans-Bold-50" transform="translate(159.228516 0)"/>
     <use xlink:href="#DejaVuSans-Bold-35" transform="translate(232.519531 0)"/>
     <use xlink:href="#DejaVuSans-Bold-30" transform="translate(302.099609 0)"/>
     <use xlink:href="#DejaVuSans-Bold-30" transform="translate(371.679688 0)"/>
     <use xlink:href="#DejaVuSans-Bold-20" transform="translate(441.259766 0)"/>
     <use xlink:href="#DejaVuSans-Bold-70" transform="translate(476.074219 0)"/>
     <use xlink:href="#DejaVuSans-Bold-61" transform="translate(547.65625 0)"/>
     <use xlink:href="#DejaVuSans-Bold-6e" transform="translate(615.136719 0)"/>
     <use xlink:href="#DejaVuSans-Bold-65" transform="translate(686.328125 0)"/>
     <use xlink:href="#DejaVuSans-Bold-6c" transform="translate(754.150391 0)"/>
    </g>
    <!-- 503 tickers -->
    <g transform="translate(35.524912 81.250453) scale(0.09 -0.09)">
     <defs>
      <path id="DejaVuSans-Bold-33" d="M 2981 2516 
Q 3453 2394 3698 2092 
Q 3944 1791 3944 1325 
Q 3944 631 3412 270 
Q 2881 -91 1863 -91 
Q 1503 -91 1142 -33 
Q 781 25 428 141 
L 428 1069 
Q 766 900 1098 814 
Q 1431 728 1753 728 
Q 2231 728 2486 893 
Q 2741 1059 2741 1369 
Q 2741 1688 2480 1852 
Q 2219 2016 1709 2016 
L 1228 2016 
L 1228 2791 
L 1734 2791 
Q 2188 2791 2409 2933 
Q 2631 3075 2631 3366 
Q 2631 3634 2415 3781 
Q 2200 3928 1806 3928 
Q 1516 3928 1219 3862 
Q 922 3797 628 3669 
L 628 4550 
Q 984 4650 1334 4700 
Q 1684 4750 2022 4750 
Q 2931 4750 3382 4451 
Q 3834 4153 3834 3553 
Q 3834 3144 3618 2883 
Q 3403 2622 2981 2516 
z
" transform="scale(0.015625)"/>
      <path id="DejaVuSans-Bold-74" d="M 1759 4494 
L 1759 3500 
L 2913 3500 
L 2913 2700 
L 1759 2700 
L 1759 1216 
Q 1759 972 1856 886 
Q 1953 800 2241 800 
L 2816 800 
L 2816 0 
L 1856 0 
Q 1194 0 917 276 
Q 641 553 641 1216 
L 641 2700 
L 84 2700 
L 84 3500 
L 641 3500 
L 641 4494 
L 1759 4494 
z
" transform="scale(0.015625)"/>
      <path id="DejaVuSans-Bold-69" d="M 538 3500 
L 1656 3500 
L 1656 0 
L 538 0 
L 538 3500 
z
M 538 4863 
L 1656 4863 
L 1656 3950 
L 538 3950 
L 538 4863 
z
" transform="scale(0.015625)"/>
      <path id="DejaVuSans-Bold-63" d="M 3366 3391 
L 3366 2478 
Q 3138 2634 2908 2709 
Q 2678 2784 2431 2784 
Q 1963 2784 1702 2511 
Q 1441 2238 1441 1747 
Q 1441 1256 1702 982 
Q 1963 709 2431 709 
Q 2694 709 2930 787 
Q 3166 866 3366 1019 
L 3366 103 
Q 3103 6 2833 -42 
Q 2563 -91 2291 -91 
Q 1344 -91 809 395 
Q 275 881 275 1747 
Q 275 2613 809 3098 
Q 1344 3584 2291 3584 
Q 2566 3584 2833 3536 
Q 3100 3488 3366 3391 
z
" transform="scale(0.015625)"/>
      <path id="DejaVuSans-Bold-6b" d="M 538 4863 
L 1656 4863 
L 1656 2216 
L 2944 3500 
L 4244 3500 
L 2534 1894 
L 4378 0 
L 3022 0 
L 1656 1459 
L 1656 0 
L 538 0 
L 538 4863 
z
" transform="scale(0.015625)"/>
      <path id="DejaVuSans-Bold-72" d="M 3138 2547 
Q 2991 2616 2845 2648 
Q 2700 2681 2553 2681 
Q 2122 2681 1889 2404 
Q 1656 2128 1656 1613 
L 1656 0 
L 538 0 
L 538 3500 
L 1656 3500 
L 1656 2925 
Q 1872 3269 2151 3426 
Q 2431 3584 2822 3584 
Q 2878 3584 2943 3579 
Q 3009 3575 3134 3559 
L 3138 2547 
z
" transform="scale(0.015625)"/>
      <path id="DejaVuSans-Bold-73" d="M 3272 3391 
L 3272 2541 
Q 2913 2691 2578 2766 
Q 2244 2841 1947 2841 
Q 1628 2841 1473 2761 
Q 1319 2681 1319 2516 
Q 1319 2381 1436 2309 
Q 1553 2238 1856 2203 
L 2053 2175 
Q 2913 2066 3209 1816 
Q 3506 1566 3506 1031 
Q 3506 472 3093 190 
Q 2681 -91 1863 -91 
Q 1516 -91 1145 -36 
Q 775 19 384 128 
L 384 978 
Q 719 816 1070 734 
Q 1422 653 1784 653 
Q 2113 653 2278 743 
Q 2444 834 2444 1013 
Q 2444 1163 2330 1236 
Q 2216 1309 1875 1350 
L 1678 1375 
Q 931 1469 631 1722 
Q 331 1975 331 2491 
Q 331 3047 712 3315 
Q 1094 3584 1881 3584 
Q 2191 3584 2531 3537 
Q 2872 3491 3272 3391 
z
" transform="scale(0.015625)"/>
     </defs>
     <use xlink:href="#DejaVuSans-Bold-35"/>
     <use xlink:href="#DejaVuSans-Bold-30" transform="translate(69.580078 0)"/>
     <use xlink:href="#DejaVuSans-Bold-33" transform="translate(139.160156 0)"/>
     <use xlink:href="#DejaVuSans-Bold-20" transform="translate(208.740234 0)"/>
     <use xlink:href="#DejaVuSans-Bold-74" transform="translate(243.554688 0)"/>
     <use xlink:href="#DejaVuSans-Bold-69" transform="translate(291.357422 0)"/>
     <use xlink:href="#DejaVuSans-Bold-63" transform="translate(325.634766 0)"/>
     <use xlink:href="#DejaVuSans-Bold-6b" transform="translate(384.912109 0)"/>
     <use xlink:href="#DejaVuSans-Bold-65" transform="translate(448.791016 0)"/>
     <use xlink:href="#DejaVuSans-Bold-72" transform="translate(516.613281 0)"/>
     <use xlink:href="#DejaVuSans-Bold-73" transform="translate(565.929688 0)"/>
    </g>
   </g>
   <g id="text_2">
    <!-- 33 features -->
    <g transform="translate(152.340216 71.137266) scale(0.09 -0.09)">
     <defs>
      <path id="DejaVuSans-Bold-66" d="M 2841 4863 
L 2841 4128 
L 2222 4128 
Q 1984 4128 1890 4042 
Q 1797 3956 1797 3744 
L 1797 3500 
L 2753 3500 
L 2753 2700 
L 1797 2700 
L 1797 0 
L 678 0 
L 678 2700 
L 122 2700 
L 122 3500 
L 678 3500 
L 678 3744 
Q 678 4316 997 4589 
Q 1316 4863 1984 4863 
L 2841 4863 
z
" transform="scale(0.015625)"/>
      <path id="DejaVuSans-Bold-75" d="M 500 1363 
L 500 3500 
L 1625 3500 
L 1625 3150 
Q 1625 2866 1622 2436 
Q 1619 2006 1619 1863 
Q 1619 1441 1641 1255 
Q 1663 1069 1716 984 
Q 1784 875 1895 815 
Q 2006 756 2150 756 
Q 2500 756 2700 1025 
Q 2900 1294 2900 1772 
L 2900 3500 
L 4019 3500 
L 4019 0 
L 2900 0 
L 2900 506 
Q 2647 200 2364 54 
Q 2081 -91 1741 -91 
Q 1134 -91 817 281 
Q 500 653 500 1363 
z
" transform="scale(0.015625)"/>
     </defs>
     <use xlink:href="#DejaVuSans-Bold-33"/>
     <use xlink:href="#DejaVuSans-Bold-33" transform="translate(69.580078 0)"/>
     <use xlink:href="#DejaVuSans-Bold-20" transform="translate(139.160156 0)"/>
     <use xlink:href="#DejaVuSans-Bold-66" transform="translate(173.974609 0)"/>
     <use xlink:href="#DejaVuSans-Bold-65" transform="translate(217.480469 0)"/>
     <use xlink:href="#DejaVuSans-Bold-61" transform="translate(285.302734 0)"/>
     <use xlink:href="#DejaVuSans-Bold-74" transform="translate(352.783203 0)"/>
     <use xlink:href="#DejaVuSans-Bold-75" transform="translate(400.585938 0)"/>
     <use xlink:href="#DejaVuSans-Bold-72" transform="translate(471.777344 0)"/>
     <use xlink:href="#DejaVuSans-Bold-65" transform="translate(521.09375 0)"/>
     <use xlink:href="#DejaVuSans-Bold-73" transform="translate(588.916016 0)"/>
    </g>
    <!-- per day -->
    <g transform="translate(162.409669 81.215297) scale(0.09 -0.09)">
     <defs>
      <path id="DejaVuSans-Bold-64" d="M 2919 2988 
L 2919 4863 
L 4044 4863 
L 4044 0 
L 2919 0 
L 2919 506 
Q 2688 197 2409 53 
Q 2131 -91 1766 -91 
Q 1119 -91 703 423 
Q 288 938 288 1747 
Q 288 2556 703 3070 
Q 1119 3584 1766 3584 
Q 2128 3584 2408 3439 
Q 2688 3294 2919 2988 
z
M 2181 722 
Q 2541 722 2730 984 
Q 2919 1247 2919 1747 
Q 2919 2247 2730 2509 
Q 2541 2772 2181 2772 
Q 1825 2772 1636 2509 
Q 1447 2247 1447 1747 
Q 1447 1247 1636 984 
Q 1825 722 2181 722 
z
" transform="scale(0.015625)"/>
      <path id="DejaVuSans-Bold-79" d="M 78 3500 
L 1197 3500 
L 2138 1125 
L 2938 3500 
L 4056 3500 
L 2584 -331 
Q 2363 -916 2067 -1148 
Q 1772 -1381 1288 -1381 
L 641 -1381 
L 641 -647 
L 991 -647 
Q 1275 -647 1404 -556 
Q 1534 -466 1606 -231 
L 1638 -134 
L 78 3500 
z
" transform="scale(0.015625)"/>
     </defs>
     <use xlink:href="#DejaVuSans-Bold-70"/>
     <use xlink:href="#DejaVuSans-Bold-65" transform="translate(71.582031 0)"/>
     <use xlink:href="#DejaVuSans-Bold-72" transform="translate(139.404297 0)"/>
     <use xlink:href="#DejaVuSans-Bold-20" transform="translate(188.720703 0)"/>
     <use xlink:href="#DejaVuSans-Bold-64" transform="translate(223.535156 0)"/>
     <use xlink:href="#DejaVuSans-Bold-61" transform="translate(295.117188 0)"/>
     <use xlink:href="#DejaVuSans-Bold-79" transform="translate(359.472656 0)"/>
    </g>
   </g>
   <g id="text_3">
    <!-- P-sLSTM -->
    <g transform="translate(277.947394 71.172422) scale(0.09 -0.09)">
     <defs>
      <path id="DejaVuSans-Bold-2d" d="M 347 2297 
L 2309 2297 
L 2309 1388 
L 347 1388 
L 347 2297 
z
" transform="scale(0.015625)"/>
      <path id="DejaVuSans-Bold-4c" d="M 588 4666 
L 1791 4666 
L 1791 909 
L 3903 909 
L 3903 0 
L 588 0 
L 588 4666 
z
" transform="scale(0.015625)"/>
      <path id="DejaVuSans-Bold-54" d="M 31 4666 
L 4331 4666 
L 4331 3756 
L 2784 3756 
L 2784 0 
L 1581 0 
L 1581 3756 
L 31 3756 
L 31 4666 
z
" transform="scale(0.015625)"/>
      <path id="DejaVuSans-Bold-4d" d="M 588 4666 
L 2119 4666 
L 3181 2169 
L 4250 4666 
L 5778 4666 
L 5778 0 
L 4641 0 
L 4641 3413 
L 3566 897 
L 2803 897 
L 1728 3413 
L 1728 0 
L 588 0 
L 588 4666 
z
" transform="scale(0.015625)"/>
     </defs>
     <use xlink:href="#DejaVuSans-Bold-50"/>
     <use xlink:href="#DejaVuSans-Bold-2d" transform="translate(71.541016 0)"/>
     <use xlink:href="#DejaVuSans-Bold-73" transform="translate(113.044922 0)"/>
     <use xlink:href="#DejaVuSans-Bold-4c" transform="translate(172.566406 0)"/>
     <use xlink:href="#DejaVuSans-Bold-53" transform="translate(236.287109 0)"/>
     <use xlink:href="#DejaVuSans-Bold-54" transform="translate(308.308594 0)"/>
     <use xlink:href="#DejaVuSans-Bold-4d" transform="translate(376.521484 0)"/>
    </g>
    <!-- encoder -->
    <g transform="translate(278.861456 81.250453) scale(0.09 -0.09)">
     <defs>
      <path id="DejaVuSans-Bold-6f" d="M 2203 2784 
Q 1831 2784 1636 2517 
Q 1441 2250 1441 1747 
Q 1441 1244 1636 976 
Q 1831 709 2203 709 
Q 2569 709 2762 976 
Q 2956 1244 2956 1747 
Q 2956 2250 2762 2517 
Q 2569 2784 2203 2784 
z
M 2203 3584 
Q 3106 3584 3614 3096 
Q 4122 2609 4122 1747 
Q 4122 884 3614 396 
Q 3106 -91 2203 -91 
Q 1297 -91 786 396 
Q 275 884 275 1747 
Q 275 2609 786 3096 
Q 1297 3584 2203 3584 
z
" transform="scale(0.015625)"/>
     </defs>
     <use xlink:href="#DejaVuSans-Bold-65"/>
     <use xlink:href="#DejaVuSans-Bold-6e" transform="translate(67.822266 0)"/>
     <use xlink:href="#DejaVuSans-Bold-63" transform="translate(139.013672 0)"/>
     <use xlink:href="#DejaVuSans-Bold-6f" transform="translate(198.291016 0)"/>
     <use xlink:href="#DejaVuSans-Bold-64" transform="translate(266.992188 0)"/>
     <use xlink:href="#DejaVuSans-Bold-65" transform="translate(338.574219 0)"/>
     <use xlink:href="#DejaVuSans-Bold-72" transform="translate(406.396484 0)"/>
    </g>
   </g>
   <g id="text_4">
    <!-- 1-day return -->
    <g transform="translate(392.920172 71.102109) scale(0.09 -0.09)">
     <defs>
      <path id="DejaVuSans-Bold-31" d="M 750 831 
L 1813 831 
L 1813 3847 
L 722 3622 
L 722 4441 
L 1806 4666 
L 2950 4666 
L 2950 831 
L 4013 831 
L 4013 0 
L 750 0 
L 750 831 
z
" transform="scale(0.015625)"/>
     </defs>
     <use xlink:href="#DejaVuSans-Bold-31"/>
     <use xlink:href="#DejaVuSans-Bold-2d" transform="translate(69.580078 0)"/>
     <use xlink:href="#DejaVuSans-Bold-64" transform="translate(111.083984 0)"/>
     <use xlink:href="#DejaVuSans-Bold-61" transform="translate(182.666016 0)"/>
     <use xlink:href="#DejaVuSans-Bold-79" transform="translate(247.021484 0)"/>
     <use xlink:href="#DejaVuSans-Bold-20" transform="translate(312.207031 0)"/>
     <use xlink:href="#DejaVuSans-Bold-72" transform="translate(347.021484 0)"/>
     <use xlink:href="#DejaVuSans-Bold-65" transform="translate(396.337891 0)"/>
     <use xlink:href="#DejaVuSans-Bold-74" transform="translate(464.160156 0)"/>
     <use xlink:href="#DejaVuSans-Bold-75" transform="translate(511.962891 0)"/>
     <use xlink:href="#DejaVuSans-Bold-72" transform="translate(583.154297 0)"/>
     <use xlink:href="#DejaVuSans-Bold-6e" transform="translate(632.470703 0)"/>
    </g>
    <!-- sign prediction -->
    <g transform="translate(386.459859 81.250453) scale(0.09 -0.09)">
     <defs>
      <path id="DejaVuSans-Bold-67" d="M 2919 594 
Q 2688 288 2409 144 
Q 2131 0 1766 0 
Q 1125 0 706 504 
Q 288 1009 288 1791 
Q 288 2575 706 3076 
Q 1125 3578 1766 3578 
Q 2131 3578 2409 3434 
Q 2688 3291 2919 2981 
L 2919 3500 
L 4044 3500 
L 4044 353 
Q 4044 -491 3511 -936 
Q 2978 -1381 1966 -1381 
Q 1638 -1381 1331 -1331 
Q 1025 -1281 716 -1178 
L 716 -306 
Q 1009 -475 1290 -558 
Q 1572 -641 1856 -641 
Q 2406 -641 2662 -400 
Q 2919 -159 2919 353 
L 2919 594 
z
M 2181 2772 
Q 1834 2772 1640 2515 
Q 1447 2259 1447 1791 
Q 1447 1309 1634 1061 
Q 1822 813 2181 813 
Q 2531 813 2725 1069 
Q 2919 1325 2919 1791 
Q 2919 2259 2725 2515 
Q 2531 2772 2181 2772 
z
" transform="scale(0.015625)"/>
     </defs>
     <use xlink:href="#DejaVuSans-Bold-73"/>
     <use xlink:href="#DejaVuSans-Bold-69" transform="translate(59.521484 0)"/>
     <use xlink:href="#DejaVuSans-Bold-67" transform="translate(93.798828 0)"/>
     <use xlink:href="#DejaVuSans-Bold-6e" transform="translate(165.380859 0)"/>
     <use xlink:href="#DejaVuSans-Bold-20" transform="translate(236.572266 0)"/>
     <use xlink:href="#DejaVuSans-Bold-70" transform="translate(271.386719 0)"/>
     <use xlink:href="#DejaVuSans-Bold-72" transform="translate(342.96875 0)"/>
     <use xlink:href="#DejaVuSans-Bold-65" transform="translate(392.285156 0)"/>
     <use xlink:href="#DejaVuSans-Bold-64" transform="translate(460.107422 0)"/>
     <use xlink:href="#DejaVuSans-Bold-69" transform="translate(531.689453 0)"/>
     <use xlink:href="#DejaVuSans-Bold-63" transform="translate(565.966797 0)"/>
     <use xlink:href="#DejaVuSans-Bold-74" transform="translate(625.244141 0)"/>
     <use xlink:href="#DejaVuSans-Bold-69" transform="translate(673.046875 0)"/>
     <use xlink:href="#DejaVuSans-Bold-6f" transform="translate(707.324219 0)"/>
     <use xlink:href="#DejaVuSans-Bold-6e" transform="translate(776.025391 0)"/>
    </g>
   </g>
   <g id="text_5">
    <!-- Optional: -->
    <g transform="translate(275.954738 138.853266) scale(0.09 -0.09)">
     <defs>
      <path id="DejaVuSans-Bold-4f" d="M 2719 3878 
Q 2169 3878 1866 3472 
Q 1563 3066 1563 2328 
Q 1563 1594 1866 1187 
Q 2169 781 2719 781 
Q 3272 781 3575 1187 
Q 3878 1594 3878 2328 
Q 3878 3066 3575 3472 
Q 3272 3878 2719 3878 
z
M 2719 4750 
Q 3844 4750 4481 4106 
Q 5119 3463 5119 2328 
Q 5119 1197 4481 553 
Q 3844 -91 2719 -91 
Q 1597 -91 958 553 
Q 319 1197 319 2328 
Q 319 3463 958 4106 
Q 1597 4750 2719 4750 
z
" transform="scale(0.015625)"/>
      <path id="DejaVuSans-Bold-3a" d="M 716 3500 
L 1844 3500 
L 1844 2291 
L 716 2291 
L 716 3500 
z
M 716 1209 
L 1844 1209 
L 1844 0 
L 716 0 
L 716 1209 
z
" transform="scale(0.015625)"/>
     </defs>
     <use xlink:href="#DejaVuSans-Bold-4f"/>
     <use xlink:href="#DejaVuSans-Bold-70" transform="translate(85.009766 0)"/>
     <use xlink:href="#DejaVuSans-Bold-74" transform="translate(156.591797 0)"/>
     <use xlink:href="#DejaVuSans-Bold-69" transform="translate(204.394531 0)"/>
     <use xlink:href="#DejaVuSans-Bold-6f" transform="translate(238.671875 0)"/>
     <use xlink:href="#DejaVuSans-Bold-6e" transform="translate(307.373047 0)"/>
     <use xlink:href="#DejaVuSans-Bold-61" transform="translate(378.564453 0)"/>
     <use xlink:href="#DejaVuSans-Bold-6c" transform="translate(446.044922 0)"/>
     <use xlink:href="#DejaVuSans-Bold-3a" transform="translate(480.322266 0)"/>
    </g>
    <!-- Weather/ETT/Electricity pretrain -->
    <g transform="translate(217.495519 148.931297) scale(0.09 -0.09)">
     <defs>
      <path id="DejaVuSans-Bold-57" d="M 191 4666 
L 1344 4666 
L 2150 1275 
L 2950 4666 
L 4109 4666 
L 4909 1275 
L 5716 4666 
L 6859 4666 
L 5759 0 
L 4372 0 
L 3525 3547 
L 2688 0 
L 1300 0 
L 191 4666 
z
" transform="scale(0.015625)"/>
      <path id="DejaVuSans-Bold-68" d="M 4056 2131 
L 4056 0 
L 2931 0 
L 2931 347 
L 2931 1625 
Q 2931 2084 2911 2256 
Q 2891 2428 2841 2509 
Q 2775 2619 2662 2680 
Q 2550 2741 2406 2741 
Q 2056 2741 1856 2470 
Q 1656 2200 1656 1722 
L 1656 0 
L 538 0 
L 538 4863 
L 1656 4863 
L 1656 2988 
Q 1909 3294 2193 3439 
Q 2478 3584 2822 3584 
Q 3428 3584 3742 3212 
Q 4056 2841 4056 2131 
z
" transform="scale(0.015625)"/>
      <path id="DejaVuSans-Bold-2f" d="M 1644 4666 
L 2338 4666 
L 691 -594 
L 0 -594 
L 1644 4666 
z
" transform="scale(0.015625)"/>
      <path id="DejaVuSans-Bold-45" d="M 588 4666 
L 3834 4666 
L 3834 3756 
L 1791 3756 
L 1791 2888 
L 3713 2888 
L 3713 1978 
L 1791 1978 
L 1791 909 
L 3903 909 
L 3903 0 
L 588 0 
L 588 4666 
z
" transform="scale(0.015625)"/>
     </defs>
     <use xlink:href="#DejaVuSans-Bold-57"/>
     <use xlink:href="#DejaVuSans-Bold-65" transform="translate(106.677734 0)"/>
     <use xlink:href="#DejaVuSans-Bold-61" transform="translate(174.5 0)"/>
     <use xlink:href="#DejaVuSans-Bold-74" transform="translate(241.980469 0)"/>
     <use xlink:href="#DejaVuSans-Bold-68" transform="translate(289.783203 0)"/>
     <use xlink:href="#DejaVuSans-Bold-65" transform="translate(360.974609 0)"/>
     <use xlink:href="#DejaVuSans-Bold-72" transform="translate(428.796875 0)"/>
     <use xlink:href="#DejaVuSans-Bold-2f" transform="translate(478.113281 0)"/>
     <use xlink:href="#DejaVuSans-Bold-45" transform="translate(514.636719 0)"/>
     <use xlink:href="#DejaVuSans-Bold-54" transform="translate(582.947266 0)"/>
     <use xlink:href="#DejaVuSans-Bold-54" transform="translate(653.410156 0)"/>
     <use xlink:href="#DejaVuSans-Bold-2f" transform="translate(721.623047 0)"/>
     <use xlink:href="#DejaVuSans-Bold-45" transform="translate(758.146484 0)"/>
     <use xlink:href="#DejaVuSans-Bold-6c" transform="translate(826.457031 0)"/>
     <use xlink:href="#DejaVuSans-Bold-65" transform="translate(860.734375 0)"/>
     <use xlink:href="#DejaVuSans-Bold-63" transform="translate(928.556641 0)"/>
     <use xlink:href="#DejaVuSans-Bold-74" transform="translate(987.833984 0)"/>
     <use xlink:href="#DejaVuSans-Bold-72" transform="translate(1035.636719 0)"/>
     <use xlink:href="#DejaVuSans-Bold-69" transform="translate(1084.953125 0)"/>
     <use xlink:href="#DejaVuSans-Bold-63" transform="translate(1119.230469 0)"/>
     <use xlink:href="#DejaVuSans-Bold-69" transform="translate(1178.507812 0)"/>
     <use xlink:href="#DejaVuSans-Bold-74" transform="translate(1212.785156 0)"/>
     <use xlink:href="#DejaVuSans-Bold-79" transform="translate(1260.587891 0)"/>
     <use xlink:href="#DejaVuSans-Bold-20" transform="translate(1325.773438 0)"/>
     <use xlink:href="#DejaVuSans-Bold-70" transform="translate(1360.587891 0)"/>
     <use xlink:href="#DejaVuSans-Bold-72" transform="translate(1432.169922 0)"/>
     <use xlink:href="#DejaVuSans-Bold-65" transform="translate(1481.486328 0)"/>
     <use xlink:href="#DejaVuSans-Bold-74" transform="translate(1549.308594 0)"/>
     <use xlink:href="#DejaVuSans-Bold-72" transform="translate(1597.111328 0)"/>
     <use xlink:href="#DejaVuSans-Bold-61" transform="translate(1646.427734 0)"/>
     <use xlink:href="#DejaVuSans-Bold-69" transform="translate(1713.908203 0)"/>
     <use xlink:href="#DejaVuSans-Bold-6e" transform="translate(1748.185547 0)"/>
    </g>
   </g>
   <g id="patch_7">
    <path d="M 112.317446 73.728 
Q 122.593191 73.728 131.191884 73.728 
" style="fill: none; stroke: #374151; stroke-width: 1.5; stroke-linecap: round"/>
    <path d="M 126.391884 71.328 
L 131.191884 73.728 
L 126.391884 76.128 
" style="fill: none; stroke: #374151; stroke-width: 1.5; stroke-linecap: round"/>
   </g>
   <g id="patch_8">
    <path d="M 230.167046 73.728 
Q 240.442791 73.728 249.041484 73.728 
" style="fill: none; stroke: #374151; stroke-width: 1.5; stroke-linecap: round"/>
    <path d="M 244.241484 71.328 
L 249.041484 73.728 
L 244.241484 76.128 
" style="fill: none; stroke: #374151; stroke-width: 1.5; stroke-linecap: round"/>
   </g>
   <g id="patch_9">
    <path d="M 348.016646 73.728 
Q 358.292391 73.728 366.891084 73.728 
" style="fill: none; stroke: #374151; stroke-width: 1.5; stroke-linecap: round"/>
    <path d="M 362.091084 71.328 
L 366.891084 73.728 
L 362.091084 76.128 
" style="fill: none; stroke: #374151; stroke-width: 1.5; stroke-linecap: round"/>
   </g>
   <g id="patch_10">
    <path d="M 299.3688 121.62273 
Q 299.3688 109.368961 299.3688 98.792242 
" style="fill: none; stroke: #374151; stroke-width: 1.5; stroke-linecap: round"/>
    <path d="M 296.9688 103.592242 
L 299.3688 98.792242 
L 301.7688 103.592242 
" style="fill: none; stroke: #374151; stroke-width: 1.5; stroke-linecap: round"/>
   </g>
   <g id="text_6">
    <!-- Direction prediction setting for larger-data experiments -->
    <g transform="translate(17.0208 19.08) scale(0.11 -0.11)">
     <defs>
      <path id="DejaVuSans-Bold-44" d="M 1791 3756 
L 1791 909 
L 2222 909 
Q 2959 909 3348 1275 
Q 3738 1641 3738 2338 
Q 3738 3031 3350 3393 
Q 2963 3756 2222 3756 
L 1791 3756 
z
M 588 4666 
L 1856 4666 
Q 2919 4666 3439 4514 
Q 3959 4363 4331 4000 
Q 4659 3684 4818 3271 
Q 4978 2859 4978 2338 
Q 4978 1809 4818 1395 
Q 4659 981 4331 666 
Q 3956 303 3431 151 
Q 2906 0 1856 0 
L 588 0 
L 588 4666 
z
" transform="scale(0.015625)"/>
      <path id="DejaVuSans-Bold-78" d="M 1422 1791 
L 159 3500 
L 1344 3500 
L 2059 2463 
L 2784 3500 
L 3969 3500 
L 2706 1797 
L 4031 0 
L 2847 0 
L 2059 1106 
L 1281 0 
L 97 0 
L 1422 1791 
z
" transform="scale(0.015625)"/>
      <path id="DejaVuSans-Bold-6d" d="M 3781 2919 
Q 3994 3244 4286 3414 
Q 4578 3584 4928 3584 
Q 5531 3584 5847 3212 
Q 6163 2841 6163 2131 
L 6163 0 
L 5038 0 
L 5038 1825 
Q 5041 1866 5042 1909 
Q 5044 1953 5044 2034 
Q 5044 2406 4934 2573 
Q 4825 2741 4581 2741 
Q 4263 2741 4089 2478 
Q 3916 2216 3909 1719 
L 3909 0 
L 2784 0 
L 2784 1825 
Q 2784 2406 2684 2573 
Q 2584 2741 2328 2741 
Q 2006 2741 1831 2477 
Q 1656 2213 1656 1722 
L 1656 0 
L 531 0 
L 531 3500 
L 1656 3500 
L 1656 2988 
Q 1863 3284 2130 3434 
Q 2397 3584 2719 3584 
Q 3081 3584 3359 3409 
Q 3638 3234 3781 2919 
z
" transform="scale(0.015625)"/>
     </defs>
     <use xlink:href="#DejaVuSans-Bold-44"/>
     <use xlink:href="#DejaVuSans-Bold-69" transform="translate(83.007812 0)"/>
     <use xlink:href="#DejaVuSans-Bold-72" transform="translate(117.285156 0)"/>
     <use xlink:href="#DejaVuSans-Bold-65" transform="translate(166.601562 0)"/>
     <use xlink:href="#DejaVuSans-Bold-63" transform="translate(234.423828 0)"/>
     <use xlink:href="#DejaVuSans-Bold-74" transform="translate(293.701172 0)"/>
     <use xlink:href="#DejaVuSans-Bold-69" transform="translate(341.503906 0)"/>
     <use xlink:href="#DejaVuSans-Bold-6f" transform="translate(375.78125 0)"/>
     <use xlink:href="#DejaVuSans-Bold-6e" transform="translate(444.482422 0)"/>
     <use xlink:href="#DejaVuSans-Bold-20" transform="translate(515.673828 0)"/>
     <use xlink:href="#DejaVuSans-Bold-70" transform="translate(550.488281 0)"/>
     <use xlink:href="#DejaVuSans-Bold-72" transform="translate(622.070312 0)"/>
     <use xlink:href="#DejaVuSans-Bold-65" transform="translate(671.386719 0)"/>
     <use xlink:href="#DejaVuSans-Bold-64" transform="translate(739.208984 0)"/>
     <use xlink:href="#DejaVuSans-Bold-69" transform="translate(810.791016 0)"/>
     <use xlink:href="#DejaVuSans-Bold-63" transform="translate(845.068359 0)"/>
     <use xlink:href="#DejaVuSans-Bold-74" transform="translate(904.345703 0)"/>
     <use xlink:href="#DejaVuSans-Bold-69" transform="translate(952.148438 0)"/>
     <use xlink:href="#DejaVuSans-Bold-6f" transform="translate(986.425781 0)"/>
     <use xlink:href="#DejaVuSans-Bold-6e" transform="translate(1055.126953 0)"/>
     <use xlink:href="#DejaVuSans-Bold-20" transform="translate(1126.318359 0)"/>
     <use xlink:href="#DejaVuSans-Bold-73" transform="translate(1161.132812 0)"/>
     <use xlink:href="#DejaVuSans-Bold-65" transform="translate(1220.654297 0)"/>
     <use xlink:href="#DejaVuSans-Bold-74" transform="translate(1288.476562 0)"/>
     <use xlink:href="#DejaVuSans-Bold-74" transform="translate(1336.279297 0)"/>
     <use xlink:href="#DejaVuSans-Bold-69" transform="translate(1384.082031 0)"/>
     <use xlink:href="#DejaVuSans-Bold-6e" transform="translate(1418.359375 0)"/>
     <use xlink:href="#DejaVuSans-Bold-67" transform="translate(1489.550781 0)"/>
     <use xlink:href="#DejaVuSans-Bold-20" transform="translate(1561.132812 0)"/>
     <use xlink:href="#DejaVuSans-Bold-66" transform="translate(1595.947266 0)"/>
     <use xlink:href="#DejaVuSans-Bold-6f" transform="translate(1639.453125 0)"/>
     <use xlink:href="#DejaVuSans-Bold-72" transform="translate(1708.154297 0)"/>
     <use xlink:href="#DejaVuSans-Bold-20" transform="translate(1757.470703 0)"/>
     <use xlink:href="#DejaVuSans-Bold-6c" transform="translate(1792.285156 0)"/>
     <use xlink:href="#DejaVuSans-Bold-61" transform="translate(1826.5625 0)"/>
     <use xlink:href="#DejaVuSans-Bold-72" transform="translate(1894.042969 0)"/>
     <use xlink:href="#DejaVuSans-Bold-67" transform="translate(1943.359375 0)"/>
     <use xlink:href="#DejaVuSans-Bold-65" transform="translate(2014.941406 0)"/>
     <use xlink:href="#DejaVuSans-Bold-72" transform="translate(2082.763672 0)"/>
     <use xlink:href="#DejaVuSans-Bold-2d" transform="translate(2132.080078 0)"/>
     <use xlink:href="#DejaVuSans-Bold-64" transform="translate(2173.583984 0)"/>
     <use xlink:href="#DejaVuSans-Bold-61" transform="translate(2245.166016 0)"/>
     <use xlink:href="#DejaVuSans-Bold-74" transform="translate(2312.646484 0)"/>
     <use xlink:href="#DejaVuSans-Bold-61" transform="translate(2360.449219 0)"/>
     <use xlink:href="#DejaVuSans-Bold-20" transform="translate(2427.929688 0)"/>
     <use xlink:href="#DejaVuSans-Bold-65" transform="translate(2462.744141 0)"/>
     <use xlink:href="#DejaVuSans-Bold-78" transform="translate(2530.566406 0)"/>
     <use xlink:href="#DejaVuSans-Bold-70" transform="translate(2595.068359 0)"/>
     <use xlink:href="#DejaVuSans-Bold-65" transform="translate(2666.650391 0)"/>
     <use xlink:href="#DejaVuSans-Bold-72" transform="translate(2734.472656 0)"/>
     <use xlink:href="#DejaVuSans-Bold-69" transform="translate(2783.789062 0)"/>
     <use xlink:href="#DejaVuSans-Bold-6d" transform="translate(2818.066406 0)"/>
     <use xlink:href="#DejaVuSans-Bold-65" transform="translate(2922.265625 0)"/>
     <use xlink:href="#DejaVuSans-Bold-6e" transform="translate(2990.087891 0)"/>
     <use xlink:href="#DejaVuSans-Bold-74" transform="translate(3061.279297 0)"/>
     <use xlink:href="#DejaVuSans-Bold-73" transform="translate(3109.082031 0)"/>
    </g>
   </g>
   <g id="text_7">
    <!-- Primary metrics: Directional Accuracy, Binary F1, AUC -->
    <g style="fill: #6b7280" transform="translate(373.0248 142.632) scale(0.09 -0.09)">
     <defs>
      <path id="DejaVuSans-50" d="M 1259 4147 
L 1259 2394 
L 2053 2394 
Q 2494 2394 2734 2622 
Q 2975 2850 2975 3272 
Q 2975 3691 2734 3919 
Q 2494 4147 2053 4147 
L 1259 4147 
z
M 628 4666 
L 2053 4666 
Q 2838 4666 3239 4311 
Q 3641 3956 3641 3272 
Q 3641 2581 3239 2228 
Q 2838 1875 2053 1875 
L 1259 1875 
L 1259 0 
L 628 0 
L 628 4666 
z
" transform="scale(0.015625)"/>
      <path id="DejaVuSans-72" d="M 2631 2963 
Q 2534 3019 2420 3045 
Q 2306 3072 2169 3072 
Q 1681 3072 1420 2755 
Q 1159 2438 1159 1844 
L 1159 0 
L 581 0 
L 581 3500 
L 1159 3500 
L 1159 2956 
Q 1341 3275 1631 3429 
Q 1922 3584 2338 3584 
Q 2397 3584 2469 3576 
Q 2541 3569 2628 3553 
L 2631 2963 
z
" transform="scale(0.015625)"/>
      <path id="DejaVuSans-69" d="M 603 3500 
L 1178 3500 
L 1178 0 
L 603 0 
L 603 3500 
z
M 603 4863 
L 1178 4863 
L 1178 4134 
L 603 4134 
L 603 4863 
z
" transform="scale(0.015625)"/>
      <path id="DejaVuSans-6d" d="M 3328 2828 
Q 3544 3216 3844 3400 
Q 4144 3584 4550 3584 
Q 5097 3584 5394 3201 
Q 5691 2819 5691 2113 
L 5691 0 
L 5113 0 
L 5113 2094 
Q 5113 2597 4934 2840 
Q 4756 3084 4391 3084 
Q 3944 3084 3684 2787 
Q 3425 2491 3425 1978 
L 3425 0 
L 2847 0 
L 2847 2094 
Q 2847 2600 2669 2842 
Q 2491 3084 2119 3084 
Q 1678 3084 1418 2786 
Q 1159 2488 1159 1978 
L 1159 0 
L 581 0 
L 581 3500 
L 1159 3500 
L 1159 2956 
Q 1356 3278 1631 3431 
Q 1906 3584 2284 3584 
Q 2666 3584 2933 3390 
Q 3200 3197 3328 2828 
z
" transform="scale(0.015625)"/>
      <path id="DejaVuSans-61" d="M 2194 1759 
Q 1497 1759 1228 1600 
Q 959 1441 959 1056 
Q 959 750 1161 570 
Q 1363 391 1709 391 
Q 2188 391 2477 730 
Q 2766 1069 2766 1631 
L 2766 1759 
L 2194 1759 
z
M 3341 1997 
L 3341 0 
L 2766 0 
L 2766 531 
Q 2569 213 2275 61 
Q 1981 -91 1556 -91 
Q 1019 -91 701 211 
Q 384 513 384 1019 
Q 384 1609 779 1909 
Q 1175 2209 1959 2209 
L 2766 2209 
L 2766 2266 
Q 2766 2663 2505 2880 
Q 2244 3097 1772 3097 
Q 1472 3097 1187 3025 
Q 903 2953 641 2809 
L 641 3341 
Q 956 3463 1253 3523 
Q 1550 3584 1831 3584 
Q 2591 3584 2966 3190 
Q 3341 2797 3341 1997 
z
" transform="scale(0.015625)"/>
      <path id="DejaVuSans-79" d="M 2059 -325 
Q 1816 -950 1584 -1140 
Q 1353 -1331 966 -1331 
L 506 -1331 
L 506 -850 
L 844 -850 
Q 1081 -850 1212 -737 
Q 1344 -625 1503 -206 
L 1606 56 
L 191 3500 
L 800 3500 
L 1894 763 
L 2988 3500 
L 3597 3500 
L 2059 -325 
z
" transform="scale(0.015625)"/>
      <path id="DejaVuSans-20" transform="scale(0.015625)"/>
      <path id="DejaVuSans-65" d="M 3597 1894 
L 3597 1613 
L 953 1613 
Q 991 1019 1311 708 
Q 1631 397 2203 397 
Q 2534 397 2845 478 
Q 3156 559 3463 722 
L 3463 178 
Q 3153 47 2828 -22 
Q 2503 -91 2169 -91 
Q 1331 -91 842 396 
Q 353 884 353 1716 
Q 353 2575 817 3079 
Q 1281 3584 2069 3584 
Q 2775 3584 3186 3129 
Q 3597 2675 3597 1894 
z
M 3022 2063 
Q 3016 2534 2758 2815 
Q 2500 3097 2075 3097 
Q 1594 3097 1305 2825 
Q 1016 2553 972 2059 
L 3022 2063 
z
" transform="scale(0.015625)"/>
      <path id="DejaVuSans-74" d="M 1172 4494 
L 1172 3500 
L 2356 3500 
L 2356 3053 
L 1172 3053 
L 1172 1153 
Q 1172 725 1289 603 
Q 1406 481 1766 481 
L 2356 481 
L 2356 0 
L 1766 0 
Q 1100 0 847 248 
Q 594 497 594 1153 
L 594 3053 
L 172 3053 
L 172 3500 
L 594 3500 
L 594 4494 
L 1172 4494 
z
" transform="scale(0.015625)"/>
      <path id="DejaVuSans-63" d="M 3122 3366 
L 3122 2828 
Q 2878 2963 2633 3030 
Q 2388 3097 2138 3097 
Q 1578 3097 1268 2742 
Q 959 2388 959 1747 
Q 959 1106 1268 751 
Q 1578 397 2138 397 
Q 2388 397 2633 464 
Q 2878 531 3122 666 
L 3122 134 
Q 2881 22 2623 -34 
Q 2366 -91 2075 -91 
Q 1284 -91 818 406 
Q 353 903 353 1747 
Q 353 2603 823 3093 
Q 1294 3584 2113 3584 
Q 2378 3584 2631 3529 
Q 2884 3475 3122 3366 
z
" transform="scale(0.015625)"/>
      <path id="DejaVuSans-73" d="M 2834 3397 
L 2834 2853 
Q 2591 2978 2328 3040 
Q 2066 3103 1784 3103 
Q 1356 3103 1142 2972 
Q 928 2841 928 2578 
Q 928 2378 1081 2264 
Q 1234 2150 1697 2047 
L 1894 2003 
Q 2506 1872 2764 1633 
Q 3022 1394 3022 966 
Q 3022 478 2636 193 
Q 2250 -91 1575 -91 
Q 1294 -91 989 -36 
Q 684 19 347 128 
L 347 722 
Q 666 556 975 473 
Q 1284 391 1588 391 
Q 1994 391 2212 530 
Q 2431 669 2431 922 
Q 2431 1156 2273 1281 
Q 2116 1406 1581 1522 
L 1381 1569 
Q 847 1681 609 1914 
Q 372 2147 372 2553 
Q 372 3047 722 3315 
Q 1072 3584 1716 3584 
Q 2034 3584 2315 3537 
Q 2597 3491 2834 3397 
z
" transform="scale(0.015625)"/>
      <path id="DejaVuSans-3a" d="M 750 794 
L 1409 794 
L 1409 0 
L 750 0 
L 750 794 
z
M 750 3309 
L 1409 3309 
L 1409 2516 
L 750 2516 
L 750 3309 
z
" transform="scale(0.015625)"/>
      <path id="DejaVuSans-44" d="M 1259 4147 
L 1259 519 
L 2022 519 
Q 2988 519 3436 956 
Q 3884 1394 3884 2338 
Q 3884 3275 3436 3711 
Q 2988 4147 2022 4147 
L 1259 4147 
z
M 628 4666 
L 1925 4666 
Q 3281 4666 3915 4102 
Q 4550 3538 4550 2338 
Q 4550 1131 3912 565 
Q 3275 0 1925 0 
L 628 0 
L 628 4666 
z
" transform="scale(0.015625)"/>
      <path id="DejaVuSans-6f" d="M 1959 3097 
Q 1497 3097 1228 2736 
Q 959 2375 959 1747 
Q 959 1119 1226 758 
Q 1494 397 1959 397 
Q 2419 397 2687 759 
Q 2956 1122 2956 1747 
Q 2956 2369 2687 2733 
Q 2419 3097 1959 3097 
z
M 1959 3584 
Q 2709 3584 3137 3096 
Q 3566 2609 3566 1747 
Q 3566 888 3137 398 
Q 2709 -91 1959 -91 
Q 1206 -91 779 398 
Q 353 888 353 1747 
Q 353 2609 779 3096 
Q 1206 3584 1959 3584 
z
" transform="scale(0.015625)"/>
      <path id="DejaVuSans-6e" d="M 3513 2113 
L 3513 0 
L 2938 0 
L 2938 2094 
Q 2938 2591 2744 2837 
Q 2550 3084 2163 3084 
Q 1697 3084 1428 2787 
Q 1159 2491 1159 1978 
L 1159 0 
L 581 0 
L 581 3500 
L 1159 3500 
L 1159 2956 
Q 1366 3272 1645 3428 
Q 1925 3584 2291 3584 
Q 2894 3584 3203 3211 
Q 3513 2838 3513 2113 
z
" transform="scale(0.015625)"/>
      <path id="DejaVuSans-6c" d="M 603 4863 
L 1178 4863 
L 1178 0 
L 603 0 
L 603 4863 
z
" transform="scale(0.015625)"/>
      <path id="DejaVuSans-41" d="M 2188 4044 
L 1331 1722 
L 3047 1722 
L 2188 4044 
z
M 1831 4666 
L 2547 4666 
L 4325 0 
L 3669 0 
L 3244 1197 
L 1141 1197 
L 716 0 
L 50 0 
L 1831 4666 
z
" transform="scale(0.015625)"/>
      <path id="DejaVuSans-75" d="M 544 1381 
L 544 3500 
L 1119 3500 
L 1119 1403 
Q 1119 906 1312 657 
Q 1506 409 1894 409 
Q 2359 409 2629 706 
Q 2900 1003 2900 1516 
L 2900 3500 
L 3475 3500 
L 3475 0 
L 2900 0 
L 2900 538 
Q 2691 219 2414 64 
Q 2138 -91 1772 -91 
Q 1169 -91 856 284 
Q 544 659 544 1381 
z
M 1991 3584 
L 1991 3584 
z
" transform="scale(0.015625)"/>
      <path id="DejaVuSans-2c" d="M 750 794 
L 1409 794 
L 1409 256 
L 897 -744 
L 494 -744 
L 750 256 
L 750 794 
z
" transform="scale(0.015625)"/>
      <path id="DejaVuSans-42" d="M 1259 2228 
L 1259 519 
L 2272 519 
Q 2781 519 3026 730 
Q 3272 941 3272 1375 
Q 3272 1813 3026 2020 
Q 2781 2228 2272 2228 
L 1259 2228 
z
M 1259 4147 
L 1259 2741 
L 2194 2741 
Q 2656 2741 2882 2914 
Q 3109 3088 3109 3444 
Q 3109 3797 2882 3972 
Q 2656 4147 2194 4147 
L 1259 4147 
z
M 628 4666 
L 2241 4666 
Q 2963 4666 3353 4366 
Q 3744 4066 3744 3513 
Q 3744 3084 3544 2831 
Q 3344 2578 2956 2516 
Q 3422 2416 3680 2098 
Q 3938 1781 3938 1306 
Q 3938 681 3513 340 
Q 3088 0 2303 0 
L 628 0 
L 628 4666 
z
" transform="scale(0.015625)"/>
      <path id="DejaVuSans-46" d="M 628 4666 
L 3309 4666 
L 3309 4134 
L 1259 4134 
L 1259 2759 
L 3109 2759 
L 3109 2228 
L 1259 2228 
L 1259 0 
L 628 0 
L 628 4666 
z
" transform="scale(0.015625)"/>
      <path id="DejaVuSans-31" d="M 794 531 
L 1825 531 
L 1825 4091 
L 703 3866 
L 703 4441 
L 1819 4666 
L 2450 4666 
L 2450 531 
L 3481 531 
L 3481 0 
L 794 0 
L 794 531 
z
" transform="scale(0.015625)"/>
      <path id="DejaVuSans-55" d="M 556 4666 
L 1191 4666 
L 1191 1831 
Q 1191 1081 1462 751 
Q 1734 422 2344 422 
Q 2950 422 3222 751 
Q 3494 1081 3494 1831 
L 3494 4666 
L 4128 4666 
L 4128 1753 
Q 4128 841 3676 375 
Q 3225 -91 2344 -91 
Q 1459 -91 1007 375 
Q 556 841 556 1753 
L 556 4666 
z
" transform="scale(0.015625)"/>
      <path id="DejaVuSans-43" d="M 4122 4306 
L 4122 3641 
Q 3803 3938 3442 4084 
Q 3081 4231 2675 4231 
Q 1875 4231 1450 3742 
Q 1025 3253 1025 2328 
Q 1025 1406 1450 917 
Q 1875 428 2675 428 
Q 3081 428 3442 575 
Q 3803 722 4122 1019 
L 4122 359 
Q 3791 134 3420 21 
Q 3050 -91 2638 -91 
Q 1578 -91 968 557 
Q 359 1206 359 2328 
Q 359 3453 968 4101 
Q 1578 4750 2638 4750 
Q 3056 4750 3426 4639 
Q 3797 4528 4122 4306 
z
" transform="scale(0.015625)"/>
     </defs>
     <use xlink:href="#DejaVuSans-50"/>
     <use xlink:href="#DejaVuSans-72" transform="translate(58.552734 0)"/>
     <use xlink:href="#DejaVuSans-69" transform="translate(99.666016 0)"/>
     <use xlink:href="#DejaVuSans-6d" transform="translate(127.449219 0)"/>
     <use xlink:href="#DejaVuSans-61" transform="translate(224.861328 0)"/>
     <use xlink:href="#DejaVuSans-72" transform="translate(286.140625 0)"/>
     <use xlink:href="#DejaVuSans-79" transform="translate(327.253906 0)"/>
     <use xlink:href="#DejaVuSans-20" transform="translate(386.433594 0)"/>
     <use xlink:href="#DejaVuSans-6d" transform="translate(418.220703 0)"/>
     <use xlink:href="#DejaVuSans-65" transform="translate(515.632812 0)"/>
     <use xlink:href="#DejaVuSans-74" transform="translate(577.15625 0)"/>
     <use xlink:href="#DejaVuSans-72" transform="translate(616.365234 0)"/>
     <use xlink:href="#DejaVuSans-69" transform="translate(657.478516 0)"/>
     <use xlink:href="#DejaVuSans-63" transform="translate(685.261719 0)"/>
     <use xlink:href="#DejaVuSans-73" transform="translate(740.242188 0)"/>
     <use xlink:href="#DejaVuSans-3a" transform="translate(792.341797 0)"/>
     <use xlink:href="#DejaVuSans-20" transform="translate(826.033203 0)"/>
     <use xlink:href="#DejaVuSans-44" transform="translate(857.820312 0)"/>
     <use xlink:href="#DejaVuSans-69" transform="translate(934.822266 0)"/>
     <use xlink:href="#DejaVuSans-72" transform="translate(962.605469 0)"/>
     <use xlink:href="#DejaVuSans-65" transform="translate(1001.46875 0)"/>
     <use xlink:href="#DejaVuSans-63" transform="translate(1062.992188 0)"/>
     <use xlink:href="#DejaVuSans-74" transform="translate(1117.972656 0)"/>
     <use xlink:href="#DejaVuSans-69" transform="translate(1157.181641 0)"/>
     <use xlink:href="#DejaVuSans-6f" transform="translate(1184.964844 0)"/>
     <use xlink:href="#DejaVuSans-6e" transform="translate(1246.146484 0)"/>
     <use xlink:href="#DejaVuSans-61" transform="translate(1309.525391 0)"/>
     <use xlink:href="#DejaVuSans-6c" transform="translate(1370.804688 0)"/>
     <use xlink:href="#DejaVuSans-20" transform="translate(1398.587891 0)"/>
     <use xlink:href="#DejaVuSans-41" transform="translate(1430.375 0)"/>
     <use xlink:href="#DejaVuSans-63" transform="translate(1497.033203 0)"/>
     <use xlink:href="#DejaVuSans-63" transform="translate(1552.013672 0)"/>
     <use xlink:href="#DejaVuSans-75" transform="translate(1606.994141 0)"/>
     <use xlink:href="#DejaVuSans-72" transform="translate(1670.373047 0)"/>
     <use xlink:href="#DejaVuSans-61" transform="translate(1711.486328 0)"/>
     <use xlink:href="#DejaVuSans-63" transform="translate(1772.765625 0)"/>
     <use xlink:href="#DejaVuSans-79" transform="translate(1827.746094 0)"/>
     <use xlink:href="#DejaVuSans-2c" transform="translate(1886.925781 0)"/>
     <use xlink:href="#DejaVuSans-20" transform="translate(1918.712891 0)"/>
     <use xlink:href="#DejaVuSans-42" transform="translate(1950.5 0)"/>
     <use xlink:href="#DejaVuSans-69" transform="translate(2019.103516 0)"/>
     <use xlink:href="#DejaVuSans-6e" transform="translate(2046.886719 0)"/>
     <use xlink:href="#DejaVuSans-61" transform="translate(2110.265625 0)"/>
     <use xlink:href="#DejaVuSans-72" transform="translate(2171.544922 0)"/>
     <use xlink:href="#DejaVuSans-79" transform="translate(2212.658203 0)"/>
     <use xlink:href="#DejaVuSans-20" transform="translate(2271.837891 0)"/>
     <use xlink:href="#DejaVuSans-46" transform="translate(2303.625 0)"/>
     <use xlink:href="#DejaVuSans-31" transform="translate(2361.144531 0)"/>
     <use xlink:href="#DejaVuSans-2c" transform="translate(2424.767578 0)"/>
     <use xlink:href="#DejaVuSans-20" transform="translate(2456.554688 0)"/>
     <use xlink:href="#DejaVuSans-41" transform="translate(2488.341797 0)"/>
     <use xlink:href="#DejaVuSans-55" transform="translate(2556.75 0)"/>
     <use xlink:href="#DejaVuSans-43" transform="translate(2629.943359 0)"/>
    </g>
   </g>
  </g>
 </g>
 <defs>
  <clipPath id="p34aa54b4c0">
   <rect x="7.2" y="7.2" width="491.04" height="166.32"/>
  </clipPath>
 </defs>
</svg>
