<?xml version="1.0" encoding="utf-8" standalone="no"?>
<!DOCTYPE svg PUBLIC "-//W3C//DTD SVG 1.1//EN"
  "http://www.w3.org/Graphics/SVG/1.1/DTD/svg11.dtd">
<svg xmlns:xlink="http://www.w3.org/1999/xlink" width="556.381094pt" height="239.383437pt" viewBox="0 0 556.381094 239.383437" xmlns="http://www.w3.org/2000/svg" version="1.1">
 <metadata>
  <rdf:RDF xmlns:dc="http://purl.org/dc/elements/1.1/" xmlns:cc="http://creativecommons.org/ns#" xmlns:rdf="http://www.w3.org/1999/02/22-rdf-syntax-ns#">
   <cc:Work>
    <dc:type rdf:resource="http://purl.org/dc/dcmitype/StillImage"/>
    <dc:date>2026-06-02T18:54:53.106958</dc:date>
    <dc:format>image/svg+xml</dc:format>
    <dc:creator>
     <cc:Agent>
      <dc:title>Matplotlib v3.10.1, https://matplotlib.org/</dc:title>
     </cc:Agent>
    </dc:creator>
   </cc:Work>
  </rdf:RDF>
 </metadata>
 <defs>
  <style type="text/css">*{stroke-linejoin: round; stroke-linecap: butt}</style>
 </defs>
 <g id="figure_1">
  <g id="patch_1">
   <path d="M 0 239.383437 
L 556.381094 239.383437 
L 556.381094 0 
L 0 0 
z
" style="fill: #ffffff"/>
  </g>
  <g id="axes_1">
   <g id="patch_2">
    <path d="M 42.532031 206.31625 
L 549.181094 206.31625 
L 549.181094 21.285937 
L 42.532031 21.285937 
z
" style="fill: #ffffff"/>
   </g>
   <g id="matplotlib.axis_1">
    <g id="xtick_1">
     <g id="line2d_1">
      <path d="M 65.561534 206.31625 
L 65.561534 21.285937 
" clip-path="url(#p87cd8c10b8)" style="fill: none; stroke: #e5e7eb; stroke-width: 0.7; stroke-linecap: square"/>
     </g>
     <g id="line2d_2">
      <defs>
       <path id="mb247f2945f" d="M 0 0 
L 0 3.5 
" style="stroke: #000000; stroke-width: 0.8"/>
      </defs>
      <g>
       <use xlink:href="#mb247f2945f" x="65.561534" y="206.31625" style="stroke: #000000; stroke-width: 0.8"/>
      </g>
     </g>
     <g id="text_1">
      <!-- 1 -->
      <g transform="translate(63.561534 218.81625) scale(0.08 -0.08)">
       <defs>
        <path id="SimHei-31" d="M 1400 3600 
Q 1075 3275 575 2975 
L 575 3450 
Q 1200 3875 1600 4450 
L 1900 4450 
L 1900 150 
L 1400 150 
L 1400 3600 
z
" transform="scale(0.015625)"/>
       </defs>
       <use xlink:href="#SimHei-31"/>
      </g>
     </g>
    </g>
    <g id="xtick_2">
     <g id="line2d_3">
      <path d="M 116.738207 206.31625 
L 116.738207 21.285937 
" clip-path="url(#p87cd8c10b8)" style="fill: none; stroke: #e5e7eb; stroke-width: 0.7; stroke-linecap: square"/>
     </g>
     <g id="line2d_4">
      <g>
       <use xlink:href="#mb247f2945f" x="116.738207" y="206.31625" style="stroke: #000000; stroke-width: 0.8"/>
      </g>
     </g>
     <g id="text_2">
      <!-- 2 -->
      <g transform="translate(114.738207 218.81625) scale(0.08 -0.08)">
       <defs>
        <path id="SimHei-32" d="M 300 250 
Q 325 625 650 925 
Q 975 1225 1475 1862 
Q 1975 2500 2125 2850 
Q 2275 3200 2237 3450 
Q 2200 3700 2000 3862 
Q 1800 4025 1537 4000 
Q 1275 3975 1037 3800 
Q 800 3625 675 3275 
L 200 3350 
Q 400 3925 712 4187 
Q 1025 4450 1450 4475 
Q 1700 4500 1900 4462 
Q 2100 4425 2312 4287 
Q 2525 4150 2662 3875 
Q 2800 3600 2762 3212 
Q 2725 2825 2375 2287 
Q 2025 1750 1025 600 
L 2825 600 
L 2825 150 
L 300 150 
L 300 250 
z
" transform="scale(0.015625)"/>
       </defs>
       <use xlink:href="#SimHei-32"/>
      </g>
     </g>
    </g>
    <g id="xtick_3">
     <g id="line2d_5">
      <path d="M 167.91488 206.31625 
L 167.91488 21.285937 
" clip-path="url(#p87cd8c10b8)" style="fill: none; stroke: #e5e7eb; stroke-width: 0.7; stroke-linecap: square"/>
     </g>
     <g id="line2d_6">
      <g>
       <use xlink:href="#mb247f2945f" x="167.91488" y="206.31625" style="stroke: #000000; stroke-width: 0.8"/>
      </g>
     </g>
     <g id="text_3">
      <!-- 3 -->
      <g transform="translate(165.91488 218.81625) scale(0.08 -0.08)">
       <defs>
        <path id="SimHei-33" d="M 250 1225 
L 700 1300 
Q 800 975 1025 762 
Q 1250 550 1587 562 
Q 1925 575 2125 837 
Q 2325 1100 2300 1437 
Q 2275 1775 2037 1962 
Q 1800 2150 1275 2225 
L 1275 2550 
Q 1800 2600 2037 2825 
Q 2275 3050 2250 3412 
Q 2225 3775 1925 3937 
Q 1625 4100 1287 3975 
Q 950 3850 750 3275 
L 300 3350 
Q 450 3800 712 4100 
Q 975 4400 1425 4450 
Q 1875 4500 2212 4337 
Q 2550 4175 2687 3837 
Q 2825 3500 2725 3100 
Q 2625 2700 2150 2400 
Q 2500 2250 2687 1950 
Q 2875 1650 2812 1162 
Q 2750 675 2375 375 
Q 2000 75 1525 87 
Q 1050 100 700 387 
Q 350 675 250 1225 
z
" transform="scale(0.015625)"/>
       </defs>
       <use xlink:href="#SimHei-33"/>
      </g>
     </g>
    </g>
    <g id="xtick_4">
     <g id="line2d_7">
      <path d="M 219.091553 206.31625 
L 219.091553 21.285937 
" clip-path="url(#p87cd8c10b8)" style="fill: none; stroke: #e5e7eb; stroke-width: 0.7; stroke-linecap: square"/>
     </g>
     <g id="line2d_8">
      <g>
       <use xlink:href="#mb247f2945f" x="219.091553" y="206.31625" style="stroke: #000000; stroke-width: 0.8"/>
      </g>
     </g>
     <g id="text_4">
      <!-- 4 -->
      <g transform="translate(217.091553 218.81625) scale(0.08 -0.08)">
       <defs>
        <path id="SimHei-34" d="M 2000 1100 
L 75 1100 
L 75 1525 
L 2100 4450 
L 2475 4450 
L 2475 1525 
L 3075 1525 
L 3075 1100 
L 2475 1100 
L 2475 150 
L 2000 150 
L 2000 1100 
z
M 2000 1525 
L 2000 3500 
L 600 1525 
L 2000 1525 
z
" transform="scale(0.015625)"/>
       </defs>
       <use xlink:href="#SimHei-34"/>
      </g>
     </g>
    </g>
    <g id="xtick_5">
     <g id="line2d_9">
      <path d="M 270.268226 206.31625 
L 270.268226 21.285937 
" clip-path="url(#p87cd8c10b8)" style="fill: none; stroke: #e5e7eb; stroke-width: 0.7; stroke-linecap: square"/>
     </g>
     <g id="line2d_10">
      <g>
       <use xlink:href="#mb247f2945f" x="270.268226" y="206.31625" style="stroke: #000000; stroke-width: 0.8"/>
      </g>
     </g>
     <g id="text_5">
      <!-- 5 -->
      <g transform="translate(268.268226 218.81625) scale(0.08 -0.08)">
       <defs>
        <path id="SimHei-35" d="M 550 1325 
Q 725 650 1150 575 
Q 1575 500 1837 662 
Q 2100 825 2212 1087 
Q 2325 1350 2312 1675 
Q 2300 2000 2137 2225 
Q 1975 2450 1725 2525 
Q 1475 2600 1162 2525 
Q 850 2450 650 2175 
L 225 2225 
Q 275 2375 700 4375 
L 2675 4375 
L 2675 3925 
L 1075 3925 
Q 950 3250 825 2850 
Q 1200 3025 1525 3012 
Q 1850 3000 2150 2862 
Q 2450 2725 2587 2487 
Q 2725 2250 2787 2012 
Q 2850 1775 2837 1500 
Q 2825 1225 2725 937 
Q 2625 650 2425 462 
Q 2225 275 1937 162 
Q 1650 50 1275 75 
Q 900 100 562 350 
Q 225 600 100 1200 
L 550 1325 
z
" transform="scale(0.015625)"/>
       </defs>
       <use xlink:href="#SimHei-35"/>
      </g>
     </g>
    </g>
    <g id="xtick_6">
     <g id="line2d_11">
      <path d="M 321.444899 206.31625 
L 321.444899 21.285937 
" clip-path="url(#p87cd8c10b8)" style="fill: none; stroke: #e5e7eb; stroke-width: 0.7; stroke-linecap: square"/>
     </g>
     <g id="line2d_12">
      <g>
       <use xlink:href="#mb247f2945f" x="321.444899" y="206.31625" style="stroke: #000000; stroke-width: 0.8"/>
      </g>
     </g>
     <g id="text_6">
      <!-- 6 -->
      <g transform="translate(319.444899 218.81625) scale(0.08 -0.08)">
       <defs>
        <path id="SimHei-36" d="M 250 1612 
Q 275 1975 387 2225 
Q 500 2475 725 2850 
L 1750 4450 
L 2325 4450 
L 1275 2800 
Q 1950 2975 2350 2750 
Q 2750 2525 2887 2237 
Q 3025 1950 3037 1612 
Q 3050 1275 2937 950 
Q 2825 625 2537 362 
Q 2250 100 1737 75 
Q 1225 50 862 262 
Q 500 475 362 862 
Q 225 1250 250 1612 
z
M 1025 787 
Q 1250 550 1625 525 
Q 2000 500 2250 775 
Q 2500 1050 2500 1575 
Q 2500 2100 2187 2300 
Q 1875 2500 1487 2450 
Q 1100 2400 925 2075 
Q 750 1750 775 1387 
Q 800 1025 1025 787 
z
" transform="scale(0.015625)"/>
       </defs>
       <use xlink:href="#SimHei-36"/>
      </g>
     </g>
    </g>
    <g id="xtick_7">
     <g id="line2d_13">
      <path d="M 372.621572 206.31625 
L 372.621572 21.285937 
" clip-path="url(#p87cd8c10b8)" style="fill: none; stroke: #e5e7eb; stroke-width: 0.7; stroke-linecap: square"/>
     </g>
     <g id="line2d_14">
      <g>
       <use xlink:href="#mb247f2945f" x="372.621572" y="206.31625" style="stroke: #000000; stroke-width: 0.8"/>
      </g>
     </g>
     <g id="text_7">
      <!-- 7 -->
      <g transform="translate(370.621572 218.81625) scale(0.08 -0.08)">
       <defs>
        <path id="SimHei-37" d="M 850 150 
Q 1300 2050 2425 3925 
L 275 3925 
L 275 4375 
L 2950 4375 
L 2950 3950 
Q 1775 2050 1400 150 
L 850 150 
z
" transform="scale(0.015625)"/>
       </defs>
       <use xlink:href="#SimHei-37"/>
      </g>
     </g>
    </g>
    <g id="xtick_8">
     <g id="line2d_15">
      <path d="M 423.798245 206.31625 
L 423.798245 21.285937 
" clip-path="url(#p87cd8c10b8)" style="fill: none; stroke: #e5e7eb; stroke-width: 0.7; stroke-linecap: square"/>
     </g>
     <g id="line2d_16">
      <g>
       <use xlink:href="#mb247f2945f" x="423.798245" y="206.31625" style="stroke: #000000; stroke-width: 0.8"/>
      </g>
     </g>
     <g id="text_8">
      <!-- 8 -->
      <g transform="translate(421.798245 218.81625) scale(0.08 -0.08)">
       <defs>
        <path id="SimHei-38" d="M 175 1375 
Q 175 1675 325 1962 
Q 475 2250 825 2425 
Q 525 2600 425 2812 
Q 325 3025 312 3300 
Q 300 3575 387 3775 
Q 475 3975 650 4150 
Q 825 4325 1037 4387 
Q 1250 4450 1500 4450 
Q 1750 4450 1950 4400 
Q 2150 4350 2375 4187 
Q 2600 4025 2700 3725 
Q 2800 3425 2687 3025 
Q 2575 2625 2100 2400 
Q 2525 2275 2700 2012 
Q 2875 1750 2875 1375 
Q 2875 1000 2762 775 
Q 2650 550 2512 400 
Q 2375 250 2137 162 
Q 1900 75 1537 75 
Q 1175 75 912 162 
Q 650 250 475 425 
Q 300 600 237 837 
Q 175 1075 175 1375 
z
M 687 1400 
Q 675 1100 787 875 
Q 900 650 1200 587 
Q 1500 525 1825 600 
Q 2150 675 2275 950 
Q 2400 1225 2362 1500 
Q 2325 1775 2050 1962 
Q 1775 2150 1450 2125 
Q 1125 2100 912 1900 
Q 700 1700 687 1400 
z
M 775 3350 
Q 775 3100 950 2875 
Q 1125 2650 1500 2650 
Q 1875 2650 2062 2875 
Q 2250 3100 2237 3412 
Q 2225 3725 2012 3875 
Q 1800 4025 1437 4000 
Q 1075 3975 925 3787 
Q 775 3600 775 3350 
z
" transform="scale(0.015625)"/>
       </defs>
       <use xlink:href="#SimHei-38"/>
      </g>
     </g>
    </g>
    <g id="xtick_9">
     <g id="line2d_17">
      <path d="M 474.974918 206.31625 
L 474.974918 21.285937 
" clip-path="url(#p87cd8c10b8)" style="fill: none; stroke: #e5e7eb; stroke-width: 0.7; stroke-linecap: square"/>
     </g>
     <g id="line2d_18">
      <g>
       <use xlink:href="#mb247f2945f" x="474.974918" y="206.31625" style="stroke: #000000; stroke-width: 0.8"/>
      </g>
     </g>
     <g id="text_9">
      <!-- 9 -->
      <g transform="translate(472.974918 218.81625) scale(0.08 -0.08)">
       <defs>
        <path id="SimHei-39" d="M 800 75 
Q 1350 1000 1700 1750 
Q 1075 1650 662 1912 
Q 250 2175 162 2625 
Q 75 3075 175 3437 
Q 275 3800 487 4037 
Q 700 4275 1000 4375 
Q 1300 4475 1537 4475 
Q 1775 4475 2025 4375 
Q 2275 4275 2475 4075 
Q 2675 3875 2750 3662 
Q 2825 3450 2825 3112 
Q 2825 2775 2575 2250 
Q 2325 1725 1350 75 
L 800 75 
z
M 662 2875 
Q 700 2550 937 2337 
Q 1175 2125 1450 2150 
Q 1725 2175 1887 2300 
Q 2050 2425 2200 2725 
Q 2300 3100 2250 3362 
Q 2200 3625 1987 3800 
Q 1775 3975 1525 3975 
Q 1375 4000 1137 3900 
Q 900 3800 762 3500 
Q 625 3200 662 2875 
z
" transform="scale(0.015625)"/>
       </defs>
       <use xlink:href="#SimHei-39"/>
      </g>
     </g>
    </g>
    <g id="xtick_10">
     <g id="line2d_19">
      <path d="M 526.151591 206.31625 
L 526.151591 21.285937 
" clip-path="url(#p87cd8c10b8)" style="fill: none; stroke: #e5e7eb; stroke-width: 0.7; stroke-linecap: square"/>
     </g>
     <g id="line2d_20">
      <g>
       <use xlink:href="#mb247f2945f" x="526.151591" y="206.31625" style="stroke: #000000; stroke-width: 0.8"/>
      </g>
     </g>
     <g id="text_10">
      <!-- 10 -->
      <g transform="translate(522.151591 218.81625) scale(0.08 -0.08)">
       <defs>
        <path id="SimHei-30" d="M 225 2537 
Q 250 3200 412 3587 
Q 575 3975 875 4225 
Q 1175 4475 1612 4475 
Q 2050 4475 2375 4112 
Q 2700 3750 2800 3200 
Q 2900 2650 2862 1937 
Q 2825 1225 2612 775 
Q 2400 325 1975 150 
Q 1550 -25 1125 187 
Q 700 400 525 750 
Q 350 1100 275 1487 
Q 200 1875 225 2537 
z
M 750 2687 
Q 675 2000 800 1462 
Q 925 925 1212 700 
Q 1500 475 1800 612 
Q 2100 750 2237 1162 
Q 2375 1575 2375 2062 
Q 2375 2550 2337 2950 
Q 2300 3350 2112 3675 
Q 1925 4000 1612 4012 
Q 1300 4025 1062 3700 
Q 825 3375 750 2687 
z
" transform="scale(0.015625)"/>
       </defs>
       <use xlink:href="#SimHei-31"/>
       <use xlink:href="#SimHei-30" transform="translate(50 0)"/>
      </g>
     </g>
    </g>
    <g id="text_11">
     <!-- 预测分位组（由低到高） -->
     <g transform="translate(246.356562 231.058437) scale(0.09 -0.09)">
      <defs>
       <path id="SimHei-9884" d="M 5200 4800 
Q 5575 4800 5950 4825 
L 5950 4400 
Q 5575 4425 5200 4425 
L 4500 4425 
Q 4425 4050 4350 3600 
L 5725 3600 
Q 5700 3225 5700 2800 
L 5700 1725 
Q 5700 1300 5725 850 
L 5250 850 
L 5250 3225 
L 3550 3225 
L 3550 800 
L 3075 800 
Q 3100 1375 3100 1725 
L 3100 2775 
Q 3100 3175 3075 3600 
L 3900 3600 
Q 4000 4150 4000 4425 
L 3725 4425 
Q 3300 4425 2850 4400 
L 2850 4825 
Q 3325 4800 3725 4800 
L 5200 4800 
z
M 2600 1775 
Q 2350 1825 2150 1825 
Q 2250 2250 2300 2450 
L 1750 2450 
L 1750 125 
Q 1725 -300 1425 -400 
Q 1125 -500 750 -500 
Q 700 -225 575 25 
Q 1125 -25 1212 37 
Q 1300 100 1300 350 
L 1300 2450 
L 1025 2450 
Q 700 2450 350 2425 
L 350 2850 
Q 700 2825 1000 2825 
L 2850 2825 
Q 2725 2325 2600 1775 
z
M 4725 2875 
Q 4625 2575 4600 2100 
Q 4575 1625 4462 1037 
Q 4350 450 3962 62 
Q 3575 -325 2925 -675 
Q 2700 -500 2475 -350 
Q 3075 -125 3437 200 
Q 3800 525 3950 937 
Q 4100 1350 4137 1850 
Q 4175 2350 4175 2925 
L 4725 2875 
z
M 1625 2900 
Q 1275 3275 800 3650 
Q 925 3775 1075 3950 
Q 1250 3825 1425 3675 
Q 1750 4150 1950 4375 
L 1400 4375 
Q 900 4375 450 4350 
L 450 4775 
Q 900 4750 1375 4750 
L 2575 4750 
L 2575 4375 
Q 2200 4100 1725 3400 
L 1950 3200 
Q 1750 3025 1625 2900 
z
M 4775 725 
Q 5725 0 6075 -325 
Q 5850 -500 5725 -650 
Q 5400 -325 5137 -87 
Q 4875 150 4525 350 
Q 4650 525 4775 725 
z
" transform="scale(0.015625)"/>
       <path id="SimHei-6d4b" d="M 4025 4725 
Q 4000 4475 4000 4000 
L 4000 2225 
Q 4000 1775 4025 1350 
L 3550 1350 
L 3550 4325 
L 2350 4325 
L 2350 1325 
L 1900 1325 
Q 1925 1775 1925 2225 
L 1925 4000 
Q 1925 4200 1900 4725 
L 4025 4725 
z
M 5900 5075 
Q 5875 4800 5875 4375 
L 5875 0 
Q 5875 -325 5650 -425 
Q 5425 -525 4975 -600 
Q 4925 -325 4775 -50 
Q 5125 -50 5262 -25 
Q 5400 0 5400 250 
L 5400 4375 
Q 5400 4775 5375 5075 
L 5900 5075 
z
M 3275 3725 
Q 3225 3400 3200 2325 
Q 3175 1250 2837 550 
Q 2500 -150 2075 -600 
Q 1850 -400 1600 -325 
Q 2200 250 2475 962 
Q 2750 1675 2762 2475 
Q 2775 3275 2725 3800 
Q 3000 3750 3275 3725 
z
M 4950 4275 
Q 4925 4000 4925 3575 
L 4925 1825 
Q 4925 1300 4950 850 
L 4450 850 
Q 4475 1150 4475 1825 
L 4475 3575 
Q 4475 4000 4450 4275 
L 4950 4275 
z
M 1700 1675 
Q 1375 1075 1112 487 
Q 850 -100 725 -400 
Q 500 -200 200 -25 
Q 475 300 762 850 
Q 1050 1400 1250 2000 
Q 1475 1825 1700 1675 
z
M 3400 1050 
Q 3800 650 4300 -125 
Q 4100 -225 3875 -450 
Q 3475 275 3025 750 
Q 3225 875 3400 1050 
z
M 600 3525 
Q 1125 3125 1500 2775 
Q 1300 2575 1150 2375 
Q 825 2775 300 3150 
Q 450 3300 600 3525 
z
M 1350 4000 
Q 950 4375 475 4675 
Q 625 4850 775 5050 
Q 1300 4700 1675 4375 
Q 1500 4250 1350 4000 
z
" transform="scale(0.015625)"/>
       <path id="SimHei-5206" d="M 1000 -650 
Q 825 -375 575 -225 
Q 975 -75 1300 137 
Q 1625 350 1875 662 
Q 2125 975 2250 1350 
Q 2375 1725 2425 2275 
Q 1850 2275 1500 2250 
L 1500 2775 
Q 1900 2750 2525 2750 
L 5025 2750 
Q 4975 2375 4950 2100 
L 4750 250 
Q 4700 -200 4350 -350 
Q 4000 -500 3575 -525 
Q 3550 -275 3325 50 
Q 3850 25 4037 87 
Q 4225 150 4275 525 
L 4450 2275 
L 2950 2275 
Q 2875 1625 2737 1187 
Q 2600 750 2350 425 
Q 2100 100 1750 -175 
Q 1400 -450 1000 -650 
z
M 3950 5175 
Q 4125 4650 4662 3975 
Q 5200 3300 6175 2800 
Q 5975 2625 5775 2275 
Q 5325 2600 4987 2887 
Q 4650 3175 4425 3425 
Q 4200 3675 3925 4137 
Q 3650 4600 3475 5000 
Q 3750 5075 3950 5175 
z
M 2700 4825 
Q 2475 4425 2325 4125 
Q 2175 3825 2025 3587 
Q 1875 3350 1575 2950 
Q 1275 2550 850 2125 
Q 625 2350 400 2475 
Q 900 2925 1187 3300 
Q 1475 3675 1737 4112 
Q 2000 4550 2200 5075 
Q 2400 4925 2700 4825 
z
" transform="scale(0.015625)"/>
       <path id="SimHei-4f4d" d="M 2125 4925 
Q 1950 4750 1625 3750 
L 1625 575 
Q 1625 -225 1650 -650 
L 1100 -650 
Q 1150 -200 1150 550 
L 1150 2950 
Q 775 2275 550 1950 
Q 375 2275 200 2425 
Q 525 2775 912 3575 
Q 1300 4375 1500 5200 
Q 1825 5000 2125 4925 
z
M 5375 3025 
Q 5275 2875 5100 2250 
Q 4925 1625 4600 300 
L 5450 300 
Q 5925 300 6100 325 
L 6100 -175 
Q 5875 -150 5450 -150 
L 2900 -150 
Q 2275 -150 2050 -175 
L 2050 325 
Q 2275 300 2850 300 
L 4075 300 
Q 4400 1400 4700 3175 
Q 5100 3075 5375 3025 
z
M 5250 4025 
Q 5700 4025 5925 4050 
L 5925 3575 
Q 5700 3600 5225 3600 
L 3000 3600 
Q 2650 3600 2275 3575 
L 2275 4050 
Q 2675 4025 3000 4025 
L 5250 4025 
z
M 3050 3050 
Q 3500 1775 3750 725 
Q 3450 625 3250 550 
Q 3125 1125 2962 1675 
Q 2800 2225 2550 2875 
Q 2800 2925 3050 3050 
z
M 3875 5200 
Q 4175 4675 4400 4300 
Q 4200 4250 3875 4075 
Q 3700 4525 3400 4950 
Q 3650 5050 3875 5200 
z
" transform="scale(0.015625)"/>
       <path id="SimHei-7ec4" d="M 6125 -425 
Q 5750 -400 5225 -400 
L 3275 -400 
Q 2775 -400 2400 -425 
L 2400 50 
Q 2725 25 2950 25 
L 2950 3775 
Q 2950 4375 2900 4625 
L 5525 4625 
Q 5500 4400 5500 3775 
L 5500 25 
Q 5825 25 6125 50 
L 6125 -425 
z
M 1725 4825 
Q 1500 4550 1287 4137 
Q 1075 3725 725 3050 
Q 950 3050 1550 3075 
Q 1800 3550 1900 3975 
Q 2075 3825 2450 3675 
Q 2225 3350 1937 2875 
Q 1650 2400 1150 1625 
Q 1950 1725 2425 1775 
L 2425 1350 
Q 2100 1325 1575 1250 
Q 1050 1175 575 1050 
Q 550 1300 400 1575 
Q 675 1675 912 1975 
Q 1150 2275 1375 2725 
Q 1225 2725 950 2687 
Q 675 2650 425 2525 
Q 325 2825 225 3050 
Q 450 3300 712 3862 
Q 975 4425 1150 5075 
Q 1425 4925 1725 4825 
z
M 5025 25 
L 5025 1275 
L 3425 1275 
L 3425 25 
L 5025 25 
z
M 5025 3125 
L 5025 4225 
L 3425 4225 
L 3425 3125 
L 5025 3125 
z
M 5025 1700 
L 5025 2725 
L 3425 2725 
L 3425 1700 
L 5025 1700 
z
M 2375 175 
Q 1875 100 1375 -12 
Q 875 -125 450 -300 
Q 375 -75 250 250 
Q 925 325 1162 375 
Q 1400 425 2375 600 
L 2375 175 
z
" transform="scale(0.015625)"/>
       <path id="SimHei-ff08" d="M 5425 5100 
L 5700 4775 
Q 4275 3725 4325 2350 
Q 4350 1025 5675 50 
L 5400 -275 
Q 3875 825 3925 2500 
Q 3925 3875 5425 5100 
z
" transform="scale(0.015625)"/>
       <path id="SimHei-7531" d="M 2975 4500 
Q 2975 4800 2950 5150 
L 3450 5150 
Q 3425 4825 3425 4500 
L 3425 3800 
L 5650 3800 
Q 5625 3350 5625 2975 
L 5625 450 
Q 5625 50 5650 -550 
L 5150 -550 
L 5150 -150 
L 1200 -150 
L 1200 -575 
L 700 -575 
Q 725 0 725 375 
L 725 3025 
Q 725 3375 700 3800 
L 2975 3800 
L 2975 4500 
z
M 2975 250 
L 2975 1650 
L 1200 1650 
L 1200 250 
L 2975 250 
z
M 2975 2050 
L 2975 3400 
L 1200 3400 
L 1200 2050 
L 2975 2050 
z
M 5125 250 
L 5125 1650 
L 3425 1650 
L 3425 250 
L 5125 250 
z
M 5125 2050 
L 5125 3400 
L 3425 3400 
L 3425 2050 
L 5125 2050 
z
" transform="scale(0.015625)"/>
       <path id="SimHei-4f4e" d="M 2300 4550 
Q 2750 4525 3750 4637 
Q 4750 4750 5275 5000 
Q 5425 4725 5600 4475 
Q 5125 4400 4350 4300 
Q 4350 3825 4400 2850 
L 5000 2850 
Q 5425 2850 5850 2875 
L 5850 2425 
Q 5425 2450 5025 2450 
L 4450 2450 
Q 4575 1325 4862 762 
Q 5150 200 5325 75 
Q 5500 -50 5562 125 
Q 5625 300 5675 775 
Q 5925 575 6150 525 
Q 6000 -100 5850 -337 
Q 5700 -575 5350 -500 
Q 5000 -425 4587 262 
Q 4175 950 4000 2450 
L 2775 2450 
L 2775 500 
Q 3275 950 3575 1275 
Q 3675 975 3775 800 
Q 2775 -50 2500 -350 
Q 2325 -175 2175 25 
Q 2300 150 2325 500 
L 2325 3725 
Q 2325 4075 2300 4550 
z
M 2050 5075 
Q 1900 4900 1600 3950 
L 1600 425 
Q 1600 -75 1625 -625 
L 1100 -625 
Q 1125 -75 1125 450 
L 1125 3025 
Q 875 2500 625 2125 
Q 400 2350 225 2425 
Q 600 2900 962 3687 
Q 1325 4475 1500 5275 
Q 1575 5200 2050 5075 
z
M 3950 2850 
Q 3900 3775 3900 4225 
Q 3125 4175 2775 4150 
L 2775 2850 
L 3950 2850 
z
M 3850 -625 
Q 3450 -75 3250 100 
Q 3450 275 3575 425 
Q 3925 50 4225 -300 
Q 4025 -450 3850 -625 
z
" transform="scale(0.015625)"/>
       <path id="SimHei-5230" d="M 3675 150 
Q 2275 -50 1537 -175 
Q 800 -300 500 -400 
Q 425 -75 325 225 
Q 775 250 1062 275 
Q 1350 300 1750 350 
L 1750 1325 
L 1400 1325 
Q 900 1325 550 1275 
L 550 1750 
Q 975 1725 1325 1725 
L 1750 1725 
L 1750 2550 
Q 1250 2525 1037 2500 
Q 825 2475 575 2425 
Q 525 2750 425 3000 
Q 825 3100 1137 3500 
Q 1450 3900 1625 4400 
L 1250 4400 
Q 825 4400 450 4375 
L 450 4850 
Q 850 4825 1225 4825 
L 2825 4825 
Q 3275 4825 3625 4850 
L 3625 4375 
Q 3250 4400 2825 4400 
L 1800 4400 
L 2250 4100 
Q 2000 3900 1775 3600 
Q 1550 3300 1250 2950 
Q 2150 3000 2925 3050 
Q 2725 3375 2475 3700 
Q 2725 3825 2925 3975 
Q 3175 3625 3400 3300 
Q 3625 2975 3825 2700 
Q 3600 2525 3325 2375 
Q 3225 2550 3150 2675 
Q 2625 2600 2275 2575 
L 2275 1725 
L 2750 1725 
Q 3175 1725 3475 1750 
L 3475 1275 
Q 3150 1325 2775 1325 
L 2275 1325 
L 2275 400 
Q 2975 500 3750 625 
Q 3700 375 3675 150 
z
M 5875 5175 
Q 5825 4800 5825 4325 
L 5825 225 
Q 5825 -350 5612 -450 
Q 5400 -550 4700 -675 
Q 4625 -350 4475 -75 
Q 5000 -75 5162 -37 
Q 5325 0 5325 375 
L 5325 4325 
Q 5325 4875 5300 5175 
L 5875 5175 
z
M 4600 4375 
Q 4550 4050 4550 3475 
L 4550 1600 
Q 4550 1075 4575 725 
L 4050 725 
Q 4075 1075 4075 1600 
L 4075 3575 
Q 4075 4075 4050 4375 
L 4600 4375 
z
" transform="scale(0.015625)"/>
       <path id="SimHei-9ad8" d="M 5825 -25 
Q 5850 -400 5550 -500 
Q 5250 -600 4975 -625 
Q 4875 -325 4725 -100 
Q 4975 -100 5175 -87 
Q 5375 -75 5350 250 
L 5350 1825 
L 1100 1825 
L 1100 -575 
L 600 -575 
Q 625 -225 625 850 
Q 625 1950 600 2200 
L 5850 2200 
Q 5825 1850 5825 1425 
L 5825 -25 
z
M 4925 3800 
Q 4900 3475 4900 3175 
Q 4900 2900 4925 2600 
L 1400 2600 
Q 1425 2825 1425 3175 
Q 1425 3525 1400 3800 
L 4925 3800 
z
M 4500 1400 
Q 4475 1125 4475 800 
Q 4475 500 4500 200 
L 1950 200 
Q 2000 500 2000 800 
Q 2000 1125 1950 1400 
L 4500 1400 
z
M 425 4600 
Q 750 4575 1125 4575 
L 2925 4575 
Q 2850 4875 2750 5100 
Q 3050 5125 3350 5200 
Q 3400 4950 3525 4575 
L 5250 4575 
Q 5600 4575 5975 4600 
L 5975 4150 
Q 5600 4175 5050 4175 
L 1150 4175 
Q 750 4175 425 4150 
L 425 4600 
z
M 4450 2975 
L 4450 3425 
L 1900 3425 
L 1900 2975 
L 4450 2975 
z
M 4025 550 
L 4025 1050 
L 2400 1050 
L 2400 550 
L 4025 550 
z
" transform="scale(0.015625)"/>
       <path id="SimHei-ff09" d="M 1000 5100 
Q 2500 3875 2500 2500 
Q 2550 825 1025 -275 
L 750 50 
Q 2075 1025 2100 2350 
Q 2150 3725 725 4775 
L 1000 5100 
z
" transform="scale(0.015625)"/>
      </defs>
      <use xlink:href="#SimHei-9884"/>
      <use xlink:href="#SimHei-6d4b" transform="translate(100 0)"/>
      <use xlink:href="#SimHei-5206" transform="translate(200 0)"/>
      <use xlink:href="#SimHei-4f4d" transform="translate(300 0)"/>
      <use xlink:href="#SimHei-7ec4" transform="translate(400 0)"/>
      <use xlink:href="#SimHei-ff08" transform="translate(500 0)"/>
      <use xlink:href="#SimHei-7531" transform="translate(600 0)"/>
      <use xlink:href="#SimHei-4f4e" transform="translate(700 0)"/>
      <use xlink:href="#SimHei-5230" transform="translate(800 0)"/>
      <use xlink:href="#SimHei-9ad8" transform="translate(900 0)"/>
      <use xlink:href="#SimHei-ff09" transform="translate(1000 0)"/>
     </g>
    </g>
   </g>
   <g id="matplotlib.axis_2">
    <g id="ytick_1">
     <g id="line2d_21">
      <path d="M 42.532031 193.980896 
L 549.181094 193.980896 
" clip-path="url(#p87cd8c10b8)" style="fill: none; stroke: #e5e7eb; stroke-width: 0.7; stroke-linecap: square"/>
     </g>
     <g id="line2d_22">
      <defs>
       <path id="m07dc5f46bd" d="M 0 0 
L -3.5 0 
" style="stroke: #000000; stroke-width: 0.8"/>
      </defs>
      <g>
       <use xlink:href="#m07dc5f46bd" x="42.532031" y="193.980896" style="stroke: #000000; stroke-width: 0.8"/>
      </g>
     </g>
     <g id="text_12">
      <!-- 0.46 -->
      <g transform="translate(19.532031 196.730896) scale(0.08 -0.08)">
       <defs>
        <path id="SimHei-2e" d="M 1075 125 
L 500 125 
L 500 675 
L 1075 675 
L 1075 125 
z
" transform="scale(0.015625)"/>
       </defs>
       <use xlink:href="#SimHei-30"/>
       <use xlink:href="#SimHei-2e" transform="translate(50 0)"/>
       <use xlink:href="#SimHei-34" transform="translate(100 0)"/>
       <use xlink:href="#SimHei-36" transform="translate(150 0)"/>
      </g>
     </g>
    </g>
    <g id="ytick_2">
     <g id="line2d_23">
      <path d="M 42.532031 169.310187 
L 549.181094 169.310187 
" clip-path="url(#p87cd8c10b8)" style="fill: none; stroke: #e5e7eb; stroke-width: 0.7; stroke-linecap: square"/>
     </g>
     <g id="line2d_24">
      <g>
       <use xlink:href="#m07dc5f46bd" x="42.532031" y="169.310187" style="stroke: #000000; stroke-width: 0.8"/>
      </g>
     </g>
     <g id="text_13">
      <!-- 0.48 -->
      <g transform="translate(19.532031 172.060187) scale(0.08 -0.08)">
       <use xlink:href="#SimHei-30"/>
       <use xlink:href="#SimHei-2e" transform="translate(50 0)"/>
       <use xlink:href="#SimHei-34" transform="translate(100 0)"/>
       <use xlink:href="#SimHei-38" transform="translate(150 0)"/>
      </g>
     </g>
    </g>
    <g id="ytick_3">
     <g id="line2d_25">
      <path d="M 42.532031 144.639479 
L 549.181094 144.639479 
" clip-path="url(#p87cd8c10b8)" style="fill: none; stroke: #e5e7eb; stroke-width: 0.7; stroke-linecap: square"/>
     </g>
     <g id="line2d_26">
      <g>
       <use xlink:href="#m07dc5f46bd" x="42.532031" y="144.639479" style="stroke: #000000; stroke-width: 0.8"/>
      </g>
     </g>
     <g id="text_14">
      <!-- 0.50 -->
      <g transform="translate(19.532031 147.389479) scale(0.08 -0.08)">
       <use xlink:href="#SimHei-30"/>
       <use xlink:href="#SimHei-2e" transform="translate(50 0)"/>
       <use xlink:href="#SimHei-35" transform="translate(100 0)"/>
       <use xlink:href="#SimHei-30" transform="translate(150 0)"/>
      </g>
     </g>
    </g>
    <g id="ytick_4">
     <g id="line2d_27">
      <path d="M 42.532031 119.968771 
L 549.181094 119.968771 
" clip-path="url(#p87cd8c10b8)" style="fill: none; stroke: #e5e7eb; stroke-width: 0.7; stroke-linecap: square"/>
     </g>
     <g id="line2d_28">
      <g>
       <use xlink:href="#m07dc5f46bd" x="42.532031" y="119.968771" style="stroke: #000000; stroke-width: 0.8"/>
      </g>
     </g>
     <g id="text_15">
      <!-- 0.52 -->
      <g transform="translate(19.532031 122.718771) scale(0.08 -0.08)">
       <use xlink:href="#SimHei-30"/>
       <use xlink:href="#SimHei-2e" transform="translate(50 0)"/>
       <use xlink:href="#SimHei-35" transform="translate(100 0)"/>
       <use xlink:href="#SimHei-32" transform="translate(150 0)"/>
      </g>
     </g>
    </g>
    <g id="ytick_5">
     <g id="line2d_29">
      <path d="M 42.532031 95.298062 
L 549.181094 95.298062 
" clip-path="url(#p87cd8c10b8)" style="fill: none; stroke: #e5e7eb; stroke-width: 0.7; stroke-linecap: square"/>
     </g>
     <g id="line2d_30">
      <g>
       <use xlink:href="#m07dc5f46bd" x="42.532031" y="95.298062" style="stroke: #000000; stroke-width: 0.8"/>
      </g>
     </g>
     <g id="text_16">
      <!-- 0.54 -->
      <g transform="translate(19.532031 98.048062) scale(0.08 -0.08)">
       <use xlink:href="#SimHei-30"/>
       <use xlink:href="#SimHei-2e" transform="translate(50 0)"/>
       <use xlink:href="#SimHei-35" transform="translate(100 0)"/>
       <use xlink:href="#SimHei-34" transform="translate(150 0)"/>
      </g>
     </g>
    </g>
    <g id="ytick_6">
     <g id="line2d_31">
      <path d="M 42.532031 70.627354 
L 549.181094 70.627354 
" clip-path="url(#p87cd8c10b8)" style="fill: none; stroke: #e5e7eb; stroke-width: 0.7; stroke-linecap: square"/>
     </g>
     <g id="line2d_32">
      <g>
       <use xlink:href="#m07dc5f46bd" x="42.532031" y="70.627354" style="stroke: #000000; stroke-width: 0.8"/>
      </g>
     </g>
     <g id="text_17">
      <!-- 0.56 -->
      <g transform="translate(19.532031 73.377354) scale(0.08 -0.08)">
       <use xlink:href="#SimHei-30"/>
       <use xlink:href="#SimHei-2e" transform="translate(50 0)"/>
       <use xlink:href="#SimHei-35" transform="translate(100 0)"/>
       <use xlink:href="#SimHei-36" transform="translate(150 0)"/>
      </g>
     </g>
    </g>
    <g id="ytick_7">
     <g id="line2d_33">
      <path d="M 42.532031 45.956646 
L 549.181094 45.956646 
" clip-path="url(#p87cd8c10b8)" style="fill: none; stroke: #e5e7eb; stroke-width: 0.7; stroke-linecap: square"/>
     </g>
     <g id="line2d_34">
      <g>
       <use xlink:href="#m07dc5f46bd" x="42.532031" y="45.956646" style="stroke: #000000; stroke-width: 0.8"/>
      </g>
     </g>
     <g id="text_18">
      <!-- 0.58 -->
      <g transform="translate(19.532031 48.706646) scale(0.08 -0.08)">
       <use xlink:href="#SimHei-30"/>
       <use xlink:href="#SimHei-2e" transform="translate(50 0)"/>
       <use xlink:href="#SimHei-35" transform="translate(100 0)"/>
       <use xlink:href="#SimHei-38" transform="translate(150 0)"/>
      </g>
     </g>
    </g>
    <g id="ytick_8">
     <g id="line2d_35">
      <path d="M 42.532031 21.285937 
L 549.181094 21.285937 
" clip-path="url(#p87cd8c10b8)" style="fill: none; stroke: #e5e7eb; stroke-width: 0.7; stroke-linecap: square"/>
     </g>
     <g id="line2d_36">
      <g>
       <use xlink:href="#m07dc5f46bd" x="42.532031" y="21.285937" style="stroke: #000000; stroke-width: 0.8"/>
      </g>
     </g>
     <g id="text_19">
      <!-- 0.60 -->
      <g transform="translate(19.532031 24.035937) scale(0.08 -0.08)">
       <use xlink:href="#SimHei-30"/>
       <use xlink:href="#SimHei-2e" transform="translate(50 0)"/>
       <use xlink:href="#SimHei-36" transform="translate(100 0)"/>
       <use xlink:href="#SimHei-30" transform="translate(150 0)"/>
      </g>
     </g>
    </g>
    <g id="text_20">
     <!-- 真实上涨比例 -->
     <g transform="translate(14.407031 140.801094) rotate(-90) scale(0.09 -0.09)">
      <defs>
       <path id="SimHei-771f" d="M 3550 5100 
Q 3450 4925 3400 4625 
L 4850 4625 
Q 5175 4625 5725 4650 
L 5725 4250 
Q 5200 4275 4850 4275 
L 3350 4275 
L 3300 3850 
L 5050 3850 
Q 5025 3550 5025 3150 
L 5025 1075 
L 5400 1075 
Q 5800 1075 6075 1100 
L 6075 625 
Q 5575 650 4900 650 
L 1450 650 
Q 775 650 350 625 
L 350 1100 
Q 725 1075 1100 1075 
L 1425 1075 
L 1425 3075 
Q 1425 3450 1400 3850 
L 2825 3850 
L 2850 4275 
L 1400 4275 
Q 1050 4275 625 4250 
L 625 4650 
Q 1175 4625 1375 4625 
L 2925 4625 
Q 2950 4875 2950 5125 
Q 3300 5100 3550 5100 
z
M 4075 525 
Q 4500 425 4925 250 
Q 5350 75 5825 -150 
Q 5550 -425 5450 -575 
Q 5025 -300 4550 -100 
Q 4075 100 3800 175 
Q 3925 350 4075 525 
z
M 4525 3150 
L 4525 3475 
L 1925 3475 
L 1925 3150 
L 4525 3150 
z
M 4525 1075 
L 4525 1400 
L 1925 1400 
L 1925 1075 
L 4525 1075 
z
M 2775 200 
Q 2375 -25 1875 -225 
Q 1375 -425 950 -575 
Q 775 -400 600 -250 
Q 1225 -50 1625 137 
Q 2025 325 2350 525 
Q 2550 350 2775 200 
z
M 4525 1775 
L 4525 2075 
L 1925 2075 
L 1925 1775 
L 4525 1775 
z
M 4525 2475 
L 4525 2775 
L 1925 2775 
L 1925 2475 
L 4525 2475 
z
" transform="scale(0.015625)"/>
       <path id="SimHei-5b9e" d="M 4125 3500 
Q 4050 3200 4000 2675 
Q 3950 2150 3850 1550 
L 5025 1550 
Q 5475 1550 5975 1575 
L 5975 1100 
Q 5450 1125 5000 1125 
L 3725 1125 
Q 3500 625 3050 250 
Q 2600 -125 2000 -337 
Q 1400 -550 925 -675 
Q 825 -375 500 -200 
Q 1225 -125 2050 212 
Q 2875 550 3200 1125 
L 1425 1125 
Q 975 1125 425 1100 
L 425 1575 
Q 1000 1550 1425 1550 
L 3375 1550 
Q 3450 1975 3487 2462 
Q 3525 2950 3500 3650 
Q 3800 3550 4125 3500 
z
M 3250 5250 
Q 3450 4850 3600 4375 
L 5775 4375 
Q 5750 4100 5750 3825 
Q 5750 3575 5775 3275 
L 5200 3275 
L 5200 3975 
L 1225 3975 
L 1225 3225 
L 675 3225 
Q 700 3525 700 3800 
Q 700 4100 675 4375 
L 2975 4375 
Q 2900 4675 2700 5075 
Q 2900 5150 3250 5250 
z
M 4000 825 
Q 4550 525 5050 262 
Q 5550 0 5925 -225 
Q 5750 -425 5550 -650 
Q 5100 -325 4575 -37 
Q 4050 250 3675 400 
Q 3875 650 4000 825 
z
M 1175 2750 
Q 1600 2550 2350 2050 
Q 2250 1900 2050 1650 
Q 1350 2175 925 2350 
Q 1075 2500 1175 2750 
z
M 3150 2825 
Q 2975 2625 2850 2425 
Q 2050 3000 1675 3125 
Q 1800 3300 1950 3525 
L 3150 2825 
z
" transform="scale(0.015625)"/>
       <path id="SimHei-4e0a" d="M 3250 5075 
Q 3225 4650 3225 4275 
L 3225 3225 
L 4650 3225 
Q 5150 3225 5600 3250 
L 5600 2700 
Q 5100 2725 4600 2725 
L 3225 2725 
L 3225 200 
L 5200 200 
Q 5575 200 6075 225 
L 6075 -300 
Q 5600 -275 5200 -275 
L 1250 -275 
Q 850 -275 350 -300 
L 350 225 
Q 825 200 1250 200 
L 2700 200 
L 2700 4250 
Q 2700 4625 2675 5075 
L 3250 5075 
z
" transform="scale(0.015625)"/>
       <path id="SimHei-6da8" d="M 3750 4350 
Q 3750 4700 3725 5075 
L 4225 5075 
Q 4200 4700 4200 4350 
L 4200 2600 
L 5975 2600 
L 5975 2175 
Q 5500 2200 5025 2200 
Q 5175 1325 5512 700 
Q 5850 75 6175 -125 
Q 5875 -300 5750 -475 
Q 5375 -125 5137 337 
Q 4900 800 4775 1300 
Q 4650 1800 4575 2200 
L 4200 2200 
L 4200 275 
Q 4475 500 4725 775 
Q 4800 550 4925 300 
Q 4800 200 4500 -62 
Q 4200 -325 3875 -600 
Q 3775 -425 3575 -175 
Q 3775 -25 3750 350 
L 3750 2200 
Q 3575 2200 3225 2175 
L 3225 2625 
Q 3575 2600 3750 2600 
L 3750 4350 
z
M 1900 0 
Q 2225 0 2437 25 
Q 2650 50 2650 275 
L 2650 1675 
L 1775 1675 
Q 1875 2675 1850 3475 
L 2750 3475 
L 2750 4475 
L 2575 4475 
Q 2125 4475 1775 4450 
L 1775 4900 
Q 2175 4875 2550 4875 
L 3225 4875 
Q 3200 4425 3200 3975 
Q 3200 3525 3225 3075 
L 2325 3075 
L 2275 2075 
L 3125 2075 
Q 3100 1700 3100 1325 
L 3100 100 
Q 3100 -250 2912 -375 
Q 2725 -500 2125 -550 
Q 2100 -250 1900 0 
z
M 1475 1550 
Q 1300 1075 1125 525 
L 775 -575 
Q 550 -400 275 -275 
Q 500 75 712 662 
Q 925 1250 1075 1825 
Q 1250 1650 1475 1550 
z
M 5675 4650 
Q 5525 4375 5337 3950 
Q 5150 3525 4825 2875 
Q 4575 3025 4425 3075 
Q 4625 3425 4875 4000 
Q 5125 4575 5200 4875 
Q 5425 4750 5675 4650 
z
M 500 3550 
Q 1100 3200 1425 2975 
Q 1225 2675 1150 2500 
Q 750 2800 225 3125 
Q 375 3350 500 3550 
z
M 1300 4100 
Q 900 4475 425 4775 
Q 575 4950 725 5150 
Q 1200 4800 1600 4500 
Q 1425 4325 1300 4100 
z
" transform="scale(0.015625)"/>
       <path id="SimHei-6bd4" d="M 3775 5100 
Q 3750 4575 3750 4100 
L 3750 3050 
Q 4925 3600 5475 4175 
Q 5675 3900 5900 3675 
Q 5600 3500 5037 3187 
Q 4475 2875 3750 2550 
L 3750 450 
Q 3750 100 4050 100 
L 5000 100 
Q 5175 100 5262 250 
Q 5350 400 5450 900 
Q 5650 775 6025 675 
Q 5850 0 5650 -175 
Q 5450 -350 5225 -350 
L 3900 -350 
Q 3250 -350 3250 275 
L 3250 4000 
Q 3250 4550 3225 5100 
L 3775 5100 
z
M 1275 4975 
Q 1250 4575 1250 4000 
L 1250 3150 
L 1850 3150 
Q 2325 3150 2875 3175 
L 2875 2650 
Q 2325 2675 1850 2675 
L 1250 2675 
L 1250 475 
Q 1650 650 1962 812 
Q 2275 975 2850 1275 
Q 2900 950 2950 750 
Q 2375 475 1762 175 
Q 1150 -125 925 -325 
Q 750 -100 575 200 
Q 700 300 750 600 
L 750 3950 
Q 750 4550 725 4975 
L 1275 4975 
z
" transform="scale(0.015625)"/>
       <path id="SimHei-4f8b" d="M 3450 4725 
Q 3825 4725 4100 4750 
L 4100 4300 
Q 3825 4325 3500 4325 
L 3150 4325 
Q 3125 4025 3025 3350 
L 4050 3350 
Q 4000 2050 3612 1050 
Q 3225 50 2300 -600 
Q 2200 -400 1900 -150 
Q 2750 250 3200 1325 
Q 2975 1525 2550 1800 
Q 2700 2000 2825 2175 
Q 3200 1875 3350 1775 
Q 3500 2250 3575 2950 
L 2925 2950 
Q 2800 2425 2225 1575 
Q 2025 1775 1775 1925 
Q 2125 2275 2375 2837 
Q 2625 3400 2675 4325 
Q 2300 4325 2150 4300 
L 2150 4750 
Q 2400 4725 2800 4725 
L 3450 4725 
z
M 2050 4975 
Q 1875 4775 1550 3850 
L 1550 475 
Q 1550 -25 1575 -600 
L 1075 -600 
Q 1100 -75 1100 425 
L 1100 3000 
Q 950 2700 650 2250 
Q 550 2375 200 2625 
Q 525 2925 937 3762 
Q 1350 4600 1450 5200 
Q 1650 5075 2050 4975 
z
M 5950 5075 
Q 5900 4775 5900 4300 
L 5900 250 
Q 5900 -275 5700 -400 
Q 5500 -525 4850 -575 
Q 4825 -300 4650 50 
Q 5175 0 5300 25 
Q 5425 50 5450 300 
L 5450 4275 
Q 5450 4750 5400 5075 
L 5950 5075 
z
M 4925 4225 
Q 4875 3875 4875 3250 
L 4875 1800 
Q 4875 1200 4900 925 
L 4375 925 
Q 4425 1200 4425 1775 
L 4425 3275 
Q 4400 3850 4375 4225 
L 4925 4225 
z
" transform="scale(0.015625)"/>
      </defs>
      <use xlink:href="#SimHei-771f"/>
      <use xlink:href="#SimHei-5b9e" transform="translate(100 0)"/>
      <use xlink:href="#SimHei-4e0a" transform="translate(200 0)"/>
      <use xlink:href="#SimHei-6da8" transform="translate(300 0)"/>
      <use xlink:href="#SimHei-6bd4" transform="translate(400 0)"/>
      <use xlink:href="#SimHei-4f8b" transform="translate(500 0)"/>
     </g>
    </g>
   </g>
   <g id="line2d_37">
    <path d="M 65.561534 164.512111 
L 116.738207 138.050693 
L 167.91488 110.907757 
L 219.091553 112.268485 
L 270.268226 117.891991 
L 321.444899 109.761881 
L 372.621572 104.891909 
L 423.798245 107.470129 
L 474.974918 102.528539 
L 526.151591 78.003502 
" clip-path="url(#p87cd8c10b8)" style="fill: none; stroke: #6b7280; stroke-width: 1.8; stroke-linecap: square"/>
    <defs>
     <path id="maaff63b15e" d="M 0 3 
C 0.795609 3 1.55874 2.683901 2.12132 2.12132 
C 2.683901 1.55874 3 0.795609 3 0 
C 3 -0.795609 2.683901 -1.55874 2.12132 -2.12132 
C 1.55874 -2.683901 0.795609 -3 0 -3 
C -0.795609 -3 -1.55874 -2.683901 -2.12132 -2.12132 
C -2.683901 -1.55874 -3 -0.795609 -3 0 
C -3 0.795609 -2.683901 1.55874 -2.12132 2.12132 
C -1.55874 2.683901 -0.795609 3 0 3 
z
" style="stroke: #6b7280"/>
    </defs>
    <g clip-path="url(#p87cd8c10b8)">
     <use xlink:href="#maaff63b15e" x="65.561534" y="164.512111" style="fill: #6b7280; stroke: #6b7280"/>
     <use xlink:href="#maaff63b15e" x="116.738207" y="138.050693" style="fill: #6b7280; stroke: #6b7280"/>
     <use xlink:href="#maaff63b15e" x="167.91488" y="110.907757" style="fill: #6b7280; stroke: #6b7280"/>
     <use xlink:href="#maaff63b15e" x="219.091553" y="112.268485" style="fill: #6b7280; stroke: #6b7280"/>
     <use xlink:href="#maaff63b15e" x="270.268226" y="117.891991" style="fill: #6b7280; stroke: #6b7280"/>
     <use xlink:href="#maaff63b15e" x="321.444899" y="109.761881" style="fill: #6b7280; stroke: #6b7280"/>
     <use xlink:href="#maaff63b15e" x="372.621572" y="104.891909" style="fill: #6b7280; stroke: #6b7280"/>
     <use xlink:href="#maaff63b15e" x="423.798245" y="107.470129" style="fill: #6b7280; stroke: #6b7280"/>
     <use xlink:href="#maaff63b15e" x="474.974918" y="102.528539" style="fill: #6b7280; stroke: #6b7280"/>
     <use xlink:href="#maaff63b15e" x="526.151591" y="78.003502" style="fill: #6b7280; stroke: #6b7280"/>
    </g>
   </g>
   <g id="line2d_38">
    <path d="M 65.561534 133.933323 
L 116.738207 113.342743 
L 167.91488 116.995223 
L 219.091553 111.265843 
L 270.268226 122.117163 
L 321.444899 122.223282 
L 372.621572 118.141099 
L 423.798245 120.361233 
L 474.974918 97.801801 
L 526.151591 90.106114 
" clip-path="url(#p87cd8c10b8)" style="fill: none; stroke: #7b4fa3; stroke-width: 1.8; stroke-linecap: square"/>
    <defs>
     <path id="m21624f8985" d="M 0 3 
C 0.795609 3 1.55874 2.683901 2.12132 2.12132 
C 2.683901 1.55874 3 0.795609 3 0 
C 3 -0.795609 2.683901 -1.55874 2.12132 -2.12132 
C 1.55874 -2.683901 0.795609 -3 0 -3 
C -0.795609 -3 -1.55874 -2.683901 -2.12132 -2.12132 
C -2.683901 -1.55874 -3 -0.795609 -3 0 
C -3 0.795609 -2.683901 1.55874 -2.12132 2.12132 
C -1.55874 2.683901 -0.795609 3 0 3 
z
" style="stroke: #7b4fa3"/>
    </defs>
    <g clip-path="url(#p87cd8c10b8)">
     <use xlink:href="#m21624f8985" x="65.561534" y="133.933323" style="fill: #7b4fa3; stroke: #7b4fa3"/>
     <use xlink:href="#m21624f8985" x="116.738207" y="113.342743" style="fill: #7b4fa3; stroke: #7b4fa3"/>
     <use xlink:href="#m21624f8985" x="167.91488" y="116.995223" style="fill: #7b4fa3; stroke: #7b4fa3"/>
     <use xlink:href="#m21624f8985" x="219.091553" y="111.265843" style="fill: #7b4fa3; stroke: #7b4fa3"/>
     <use xlink:href="#m21624f8985" x="270.268226" y="122.117163" style="fill: #7b4fa3; stroke: #7b4fa3"/>
     <use xlink:href="#m21624f8985" x="321.444899" y="122.223282" style="fill: #7b4fa3; stroke: #7b4fa3"/>
     <use xlink:href="#m21624f8985" x="372.621572" y="118.141099" style="fill: #7b4fa3; stroke: #7b4fa3"/>
     <use xlink:href="#m21624f8985" x="423.798245" y="120.361233" style="fill: #7b4fa3; stroke: #7b4fa3"/>
     <use xlink:href="#m21624f8985" x="474.974918" y="97.801801" style="fill: #7b4fa3; stroke: #7b4fa3"/>
     <use xlink:href="#m21624f8985" x="526.151591" y="90.106114" style="fill: #7b4fa3; stroke: #7b4fa3"/>
    </g>
   </g>
   <g id="line2d_39">
    <path d="M 65.561534 128.490728 
L 116.738207 116.27905 
L 167.91488 116.708754 
L 219.091553 116.708754 
L 270.268226 116.602956 
L 321.444899 113.70083 
L 372.621572 110.478054 
L 423.798245 120.361233 
L 474.974918 120.289616 
L 526.151591 86.668686 
" clip-path="url(#p87cd8c10b8)" style="fill: none; stroke: #d55e00; stroke-width: 1.8; stroke-linecap: square"/>
    <defs>
     <path id="me9c315fab2" d="M 0 3 
C 0.795609 3 1.55874 2.683901 2.12132 2.12132 
C 2.683901 1.55874 3 0.795609 3 0 
C 3 -0.795609 2.683901 -1.55874 2.12132 -2.12132 
C 1.55874 -2.683901 0.795609 -3 0 -3 
C -0.795609 -3 -1.55874 -2.683901 -2.12132 -2.12132 
C -2.683901 -1.55874 -3 -0.795609 -3 0 
C -3 0.795609 -2.683901 1.55874 -2.12132 2.12132 
C -1.55874 2.683901 -0.795609 3 0 3 
z
" style="stroke: #d55e00"/>
    </defs>
    <g clip-path="url(#p87cd8c10b8)">
     <use xlink:href="#me9c315fab2" x="65.561534" y="128.490728" style="fill: #d55e00; stroke: #d55e00"/>
     <use xlink:href="#me9c315fab2" x="116.738207" y="116.27905" style="fill: #d55e00; stroke: #d55e00"/>
     <use xlink:href="#me9c315fab2" x="167.91488" y="116.708754" style="fill: #d55e00; stroke: #d55e00"/>
     <use xlink:href="#me9c315fab2" x="219.091553" y="116.708754" style="fill: #d55e00; stroke: #d55e00"/>
     <use xlink:href="#me9c315fab2" x="270.268226" y="116.602956" style="fill: #d55e00; stroke: #d55e00"/>
     <use xlink:href="#me9c315fab2" x="321.444899" y="113.70083" style="fill: #d55e00; stroke: #d55e00"/>
     <use xlink:href="#me9c315fab2" x="372.621572" y="110.478054" style="fill: #d55e00; stroke: #d55e00"/>
     <use xlink:href="#me9c315fab2" x="423.798245" y="120.361233" style="fill: #d55e00; stroke: #d55e00"/>
     <use xlink:href="#me9c315fab2" x="474.974918" y="120.289616" style="fill: #d55e00; stroke: #d55e00"/>
     <use xlink:href="#me9c315fab2" x="526.151591" y="86.668686" style="fill: #d55e00; stroke: #d55e00"/>
    </g>
   </g>
   <g id="line2d_40">
    <path d="M 65.561534 124.408782 
L 116.738207 112.411719 
L 167.91488 108.616005 
L 219.091553 109.976733 
L 270.268226 118.894575 
L 321.444899 121.292258 
L 372.621572 120.289616 
L 423.798245 123.29754 
L 474.974918 120.504468 
L 526.151591 86.597072 
" clip-path="url(#p87cd8c10b8)" style="fill: none; stroke: #e69f00; stroke-width: 1.8; stroke-linecap: square"/>
    <defs>
     <path id="m1396bbdb53" d="M 0 3 
C 0.795609 3 1.55874 2.683901 2.12132 2.12132 
C 2.683901 1.55874 3 0.795609 3 0 
C 3 -0.795609 2.683901 -1.55874 2.12132 -2.12132 
C 1.55874 -2.683901 0.795609 -3 0 -3 
C -0.795609 -3 -1.55874 -2.683901 -2.12132 -2.12132 
C -2.683901 -1.55874 -3 -0.795609 -3 0 
C -3 0.795609 -2.683901 1.55874 -2.12132 2.12132 
C -1.55874 2.683901 -0.795609 3 0 3 
z
" style="stroke: #e69f00"/>
    </defs>
    <g clip-path="url(#p87cd8c10b8)">
     <use xlink:href="#m1396bbdb53" x="65.561534" y="124.408782" style="fill: #e69f00; stroke: #e69f00"/>
     <use xlink:href="#m1396bbdb53" x="116.738207" y="112.411719" style="fill: #e69f00; stroke: #e69f00"/>
     <use xlink:href="#m1396bbdb53" x="167.91488" y="108.616005" style="fill: #e69f00; stroke: #e69f00"/>
     <use xlink:href="#m1396bbdb53" x="219.091553" y="109.976733" style="fill: #e69f00; stroke: #e69f00"/>
     <use xlink:href="#m1396bbdb53" x="270.268226" y="118.894575" style="fill: #e69f00; stroke: #e69f00"/>
     <use xlink:href="#m1396bbdb53" x="321.444899" y="121.292258" style="fill: #e69f00; stroke: #e69f00"/>
     <use xlink:href="#m1396bbdb53" x="372.621572" y="120.289616" style="fill: #e69f00; stroke: #e69f00"/>
     <use xlink:href="#m1396bbdb53" x="423.798245" y="123.29754" style="fill: #e69f00; stroke: #e69f00"/>
     <use xlink:href="#m1396bbdb53" x="474.974918" y="120.504468" style="fill: #e69f00; stroke: #e69f00"/>
     <use xlink:href="#m1396bbdb53" x="526.151591" y="86.597072" style="fill: #e69f00; stroke: #e69f00"/>
    </g>
   </g>
   <g id="line2d_41">
    <path d="M 65.561534 123.262973 
L 116.738207 120.576085 
L 167.91488 120.647702 
L 219.091553 115.491261 
L 270.268226 120.040384 
L 321.444899 118.499185 
L 372.621572 122.867837 
L 423.798245 113.199509 
L 474.974918 108.186302 
L 526.151591 83.51771 
" clip-path="url(#p87cd8c10b8)" style="fill: none; stroke: #3b6fb6; stroke-width: 1.8; stroke-linecap: square"/>
    <defs>
     <path id="m1ca9a6d96e" d="M 0 3 
C 0.795609 3 1.55874 2.683901 2.12132 2.12132 
C 2.683901 1.55874 3 0.795609 3 0 
C 3 -0.795609 2.683901 -1.55874 2.12132 -2.12132 
C 1.55874 -2.683901 0.795609 -3 0 -3 
C -0.795609 -3 -1.55874 -2.683901 -2.12132 -2.12132 
C -2.683901 -1.55874 -3 -0.795609 -3 0 
C -3 0.795609 -2.683901 1.55874 -2.12132 2.12132 
C -1.55874 2.683901 -0.795609 3 0 3 
z
" style="stroke: #3b6fb6"/>
    </defs>
    <g clip-path="url(#p87cd8c10b8)">
     <use xlink:href="#m1ca9a6d96e" x="65.561534" y="123.262973" style="fill: #3b6fb6; stroke: #3b6fb6"/>
     <use xlink:href="#m1ca9a6d96e" x="116.738207" y="120.576085" style="fill: #3b6fb6; stroke: #3b6fb6"/>
     <use xlink:href="#m1ca9a6d96e" x="167.91488" y="120.647702" style="fill: #3b6fb6; stroke: #3b6fb6"/>
     <use xlink:href="#m1ca9a6d96e" x="219.091553" y="115.491261" style="fill: #3b6fb6; stroke: #3b6fb6"/>
     <use xlink:href="#m1ca9a6d96e" x="270.268226" y="120.040384" style="fill: #3b6fb6; stroke: #3b6fb6"/>
     <use xlink:href="#m1ca9a6d96e" x="321.444899" y="118.499185" style="fill: #3b6fb6; stroke: #3b6fb6"/>
     <use xlink:href="#m1ca9a6d96e" x="372.621572" y="122.867837" style="fill: #3b6fb6; stroke: #3b6fb6"/>
     <use xlink:href="#m1ca9a6d96e" x="423.798245" y="113.199509" style="fill: #3b6fb6; stroke: #3b6fb6"/>
     <use xlink:href="#m1ca9a6d96e" x="474.974918" y="108.186302" style="fill: #3b6fb6; stroke: #3b6fb6"/>
     <use xlink:href="#m1ca9a6d96e" x="526.151591" y="83.51771" style="fill: #3b6fb6; stroke: #3b6fb6"/>
    </g>
   </g>
   <g id="line2d_42">
    <path d="M 65.561534 142.884959 
L 116.738207 121.149023 
L 167.91488 118.499185 
L 219.091553 113.557595 
L 270.268226 116.961021 
L 321.444899 110.04835 
L 372.621572 105.966167 
L 423.798245 122.223282 
L 474.974918 111.982016 
L 526.151591 83.016418 
" clip-path="url(#p87cd8c10b8)" style="fill: none; stroke: #009e73; stroke-width: 1.8; stroke-linecap: square"/>
    <defs>
     <path id="m8f2ed04266" d="M 0 3 
C 0.795609 3 1.55874 2.683901 2.12132 2.12132 
C 2.683901 1.55874 3 0.795609 3 0 
C 3 -0.795609 2.683901 -1.55874 2.12132 -2.12132 
C 1.55874 -2.683901 0.795609 -3 0 -3 
C -0.795609 -3 -1.55874 -2.683901 -2.12132 -2.12132 
C -2.683901 -1.55874 -3 -0.795609 -3 0 
C -3 0.795609 -2.683901 1.55874 -2.12132 2.12132 
C -1.55874 2.683901 -0.795609 3 0 3 
z
" style="stroke: #009e73"/>
    </defs>
    <g clip-path="url(#p87cd8c10b8)">
     <use xlink:href="#m8f2ed04266" x="65.561534" y="142.884959" style="fill: #009e73; stroke: #009e73"/>
     <use xlink:href="#m8f2ed04266" x="116.738207" y="121.149023" style="fill: #009e73; stroke: #009e73"/>
     <use xlink:href="#m8f2ed04266" x="167.91488" y="118.499185" style="fill: #009e73; stroke: #009e73"/>
     <use xlink:href="#m8f2ed04266" x="219.091553" y="113.557595" style="fill: #009e73; stroke: #009e73"/>
     <use xlink:href="#m8f2ed04266" x="270.268226" y="116.961021" style="fill: #009e73; stroke: #009e73"/>
     <use xlink:href="#m8f2ed04266" x="321.444899" y="110.04835" style="fill: #009e73; stroke: #009e73"/>
     <use xlink:href="#m8f2ed04266" x="372.621572" y="105.966167" style="fill: #009e73; stroke: #009e73"/>
     <use xlink:href="#m8f2ed04266" x="423.798245" y="122.223282" style="fill: #009e73; stroke: #009e73"/>
     <use xlink:href="#m8f2ed04266" x="474.974918" y="111.982016" style="fill: #009e73; stroke: #009e73"/>
     <use xlink:href="#m8f2ed04266" x="526.151591" y="83.016418" style="fill: #009e73; stroke: #009e73"/>
    </g>
   </g>
   <g id="line2d_43">
    <path d="M 42.532031 144.639479 
L 549.181094 144.639479 
" clip-path="url(#p87cd8c10b8)" style="fill: none; stroke-dasharray: 3.33,1.44; stroke-dashoffset: 0; stroke: #111827; stroke-width: 0.9"/>
   </g>
   <g id="patch_3">
    <path d="M 42.532031 206.31625 
L 42.532031 21.285937 
" style="fill: none; stroke: #000000; stroke-width: 0.8; stroke-linejoin: miter; stroke-linecap: square"/>
   </g>
   <g id="patch_4">
    <path d="M 42.532031 206.31625 
L 549.181094 206.31625 
" style="fill: none; stroke: #000000; stroke-width: 0.8; stroke-linejoin: miter; stroke-linecap: square"/>
   </g>
   <g id="text_21">
    <!-- 不同预测分位组中的方向信号 -->
    <g transform="translate(230.856562 15.285937) scale(0.1 -0.1)">
     <defs>
      <path id="SimHei-4e0d" d="M 5975 4450 
Q 5525 4475 5200 4475 
L 3725 4475 
Q 3550 4125 3300 3700 
L 3300 575 
Q 3300 75 3325 -550 
L 2775 -550 
Q 2800 50 2800 575 
L 2800 3025 
Q 2025 1950 700 1050 
Q 500 1350 325 1475 
Q 825 1700 1650 2437 
Q 2475 3175 3175 4475 
L 1525 4475 
Q 1050 4475 525 4450 
L 525 4950 
Q 1275 4925 1675 4925 
L 5175 4925 
Q 5500 4925 5975 4950 
L 5975 4450 
z
M 5450 1125 
Q 4975 1725 3750 2975 
Q 3950 3150 4075 3325 
Q 4675 2775 5100 2362 
Q 5525 1950 5900 1550 
Q 5650 1350 5450 1125 
z
" transform="scale(0.015625)"/>
      <path id="SimHei-540c" d="M 5825 4925 
Q 5775 4550 5775 3975 
L 5775 -50 
Q 5775 -400 5525 -487 
Q 5275 -575 4725 -625 
Q 4725 -400 4525 -50 
Q 4925 -50 5100 -12 
Q 5275 25 5275 200 
L 5275 4450 
L 1150 4450 
L 1150 -600 
L 575 -600 
Q 600 -250 625 200 
L 625 3975 
Q 625 4575 600 4925 
L 5825 4925 
z
M 4375 2550 
Q 4325 2275 4325 1700 
Q 4325 1150 4375 725 
L 2025 725 
Q 2050 1175 2050 1750 
Q 2050 2325 2025 2550 
L 4375 2550 
z
M 4100 3750 
Q 4600 3750 4825 3775 
L 4825 3275 
Q 4575 3300 4075 3300 
L 2450 3300 
Q 1850 3300 1600 3275 
L 1600 3775 
Q 1875 3750 2475 3750 
L 4100 3750 
z
M 3875 1150 
L 3875 2150 
L 2525 2150 
L 2525 1150 
L 3875 1150 
z
" transform="scale(0.015625)"/>
      <path id="SimHei-4e2d" d="M 3475 5200 
Q 3450 4500 3450 3875 
L 5625 3875 
Q 5600 3375 5600 2500 
Q 5600 1650 5625 1225 
L 5075 1225 
L 5075 1600 
L 3450 1600 
L 3450 525 
Q 3450 225 3475 -600 
L 2875 -600 
Q 2925 -150 2925 450 
L 2925 1600 
L 1300 1600 
L 1300 1225 
L 750 1225 
Q 775 1600 775 2500 
Q 775 3425 750 3875 
L 2925 3875 
Q 2925 4550 2900 5200 
L 3475 5200 
z
M 5075 2000 
L 5075 3475 
L 3450 3475 
L 3450 2000 
L 5075 2000 
z
M 2925 2000 
L 2925 3475 
L 1300 3475 
L 1300 2000 
L 2925 2000 
z
" transform="scale(0.015625)"/>
      <path id="SimHei-7684" d="M 2100 4975 
Q 1975 4750 1750 3950 
L 2875 3950 
Q 2850 3525 2850 2875 
L 2850 675 
Q 2850 300 2875 -400 
L 2375 -400 
L 2375 100 
L 1100 100 
L 1100 -450 
L 600 -450 
Q 625 350 625 550 
L 625 2850 
Q 625 3525 600 3950 
L 1325 3950 
Q 1450 4525 1525 5150 
Q 1875 5025 2100 4975 
z
M 5825 3075 
Q 5800 1550 5700 175 
Q 5650 -275 5225 -425 
Q 4800 -575 4275 -625 
Q 4250 -350 4050 -50 
Q 4550 -75 4837 -25 
Q 5125 25 5200 200 
Q 5275 375 5312 1225 
Q 5350 2075 5375 3600 
L 3925 3600 
Q 3725 3125 3350 2475 
Q 3175 2650 2925 2750 
Q 3150 3050 3350 3475 
Q 3550 3900 3700 4400 
Q 3850 4900 3875 5175 
Q 4225 5025 4475 4950 
Q 4350 4750 4262 4512 
Q 4175 4275 4075 4050 
L 5850 4050 
Q 5825 3525 5825 3075 
z
M 2375 525 
L 2375 1850 
L 1100 1850 
L 1100 525 
L 2375 525 
z
M 2375 2275 
L 2375 3525 
L 1100 3525 
L 1100 2275 
L 2375 2275 
z
M 4350 2050 
Q 4500 1750 4700 1275 
Q 4525 1200 4225 1025 
Q 4050 1500 3900 1837 
Q 3750 2175 3600 2400 
Q 3775 2500 4050 2650 
L 4350 2050 
z
" transform="scale(0.015625)"/>
      <path id="SimHei-65b9" d="M 425 3975 
Q 825 3950 1300 3950 
L 5025 3950 
Q 5625 3950 6000 3975 
L 6000 3475 
Q 5675 3500 5100 3500 
L 2525 3500 
Q 2525 3225 2500 2500 
L 5300 2500 
Q 5250 2175 5200 1550 
L 5050 175 
Q 5000 -275 4625 -412 
Q 4250 -550 3525 -625 
Q 3500 -300 3325 -50 
Q 3900 -75 4200 0 
Q 4500 75 4575 425 
L 4725 2050 
L 2475 2050 
Q 2375 1350 2162 875 
Q 1950 400 1575 0 
Q 1200 -400 825 -700 
Q 725 -550 375 -350 
Q 700 -175 1062 200 
Q 1425 575 1662 1050 
Q 1900 1525 1962 2100 
Q 2025 2675 2025 3500 
L 1325 3500 
Q 775 3500 425 3475 
L 425 3975 
z
M 3075 4075 
Q 2850 4575 2575 5000 
Q 2800 5125 3025 5275 
Q 3300 4850 3575 4350 
Q 3325 4250 3075 4075 
z
" transform="scale(0.015625)"/>
      <path id="SimHei-5411" d="M 2025 4150 
Q 2125 4400 2187 4637 
Q 2250 4875 2300 5175 
Q 2750 5025 2925 5000 
Q 2650 4400 2550 4150 
L 5850 4150 
Q 5825 3700 5825 3275 
L 5825 225 
Q 5825 -325 5487 -412 
Q 5150 -500 4700 -525 
Q 4625 -175 4450 50 
Q 5075 25 5212 50 
Q 5350 75 5325 325 
L 5325 3700 
L 1250 3700 
L 1250 -500 
L 725 -500 
Q 725 150 750 550 
L 750 3250 
Q 725 3700 725 4150 
L 2025 4150 
z
M 4450 2825 
Q 4425 2500 4425 2175 
L 4425 1600 
Q 4425 1275 4450 900 
L 2025 900 
Q 2050 1250 2050 1600 
L 2050 2225 
Q 2050 2525 2025 2825 
L 4450 2825 
z
M 3900 1300 
L 3900 2425 
L 2550 2425 
L 2550 1300 
L 3900 1300 
z
" transform="scale(0.015625)"/>
      <path id="SimHei-4fe1" d="M 5650 1575 
Q 5625 1275 5625 575 
Q 5625 -100 5650 -450 
L 5175 -450 
L 5175 -25 
L 3025 -25 
L 3025 -550 
L 2525 -550 
Q 2550 -175 2550 500 
Q 2550 1200 2525 1575 
L 5650 1575 
z
M 2125 4975 
Q 1975 4825 1650 3975 
L 1650 550 
Q 1650 -200 1675 -625 
L 1125 -625 
Q 1200 -175 1200 575 
L 1200 3100 
Q 900 2500 625 2100 
Q 475 2350 250 2500 
Q 525 2800 925 3562 
Q 1325 4325 1525 5175 
Q 1800 5075 2125 4975 
z
M 5175 375 
L 5175 1225 
L 3025 1225 
L 3025 375 
L 5175 375 
z
M 6075 3900 
Q 5575 3925 4100 3925 
Q 2625 3925 2100 3900 
L 2100 4325 
L 6075 4325 
L 6075 3900 
z
M 5700 3000 
Q 5275 3025 4150 3025 
Q 3025 3025 2475 3000 
L 2475 3425 
Q 2950 3400 4100 3400 
Q 5275 3400 5700 3425 
L 5700 3000 
z
M 5700 2125 
Q 5350 2150 4175 2150 
Q 3025 2150 2475 2125 
L 2475 2550 
Q 3000 2525 4175 2525 
Q 5375 2525 5700 2550 
L 5700 2125 
z
M 4025 5200 
Q 4100 5050 4175 4875 
Q 4250 4700 4325 4500 
Q 4100 4425 3875 4375 
Q 3700 4900 3575 5025 
Q 3825 5125 4025 5200 
z
" transform="scale(0.015625)"/>
      <path id="SimHei-53f7" d="M 5025 4925 
Q 5000 4550 5000 4075 
Q 5000 3600 5025 3175 
L 1400 3175 
Q 1425 3525 1425 4000 
Q 1425 4500 1400 4925 
L 5025 4925 
z
M 5175 2625 
Q 5650 2625 6025 2650 
L 6025 2200 
Q 5650 2225 5175 2225 
L 2450 2225 
Q 2350 1875 2225 1450 
L 5175 1450 
Q 5100 1050 5062 775 
Q 5025 500 4950 112 
Q 4875 -275 4650 -412 
Q 4425 -550 3225 -625 
Q 3125 -350 2975 -50 
Q 3875 -75 4112 -50 
Q 4350 -25 4425 212 
Q 4500 450 4575 1025 
L 1600 1025 
Q 1825 1625 1950 2225 
L 1350 2225 
Q 825 2225 375 2200 
L 375 2650 
Q 825 2625 1350 2625 
L 5175 2625 
z
M 4525 3575 
L 4525 4525 
L 1900 4525 
L 1900 3575 
L 4525 3575 
z
" transform="scale(0.015625)"/>
     </defs>
     <use xlink:href="#SimHei-4e0d"/>
     <use xlink:href="#SimHei-540c" transform="translate(100 0)"/>
     <use xlink:href="#SimHei-9884" transform="translate(200 0)"/>
     <use xlink:href="#SimHei-6d4b" transform="translate(300 0)"/>
     <use xlink:href="#SimHei-5206" transform="translate(400 0)"/>
     <use xlink:href="#SimHei-4f4d" transform="translate(500 0)"/>
     <use xlink:href="#SimHei-7ec4" transform="translate(600 0)"/>
     <use xlink:href="#SimHei-4e2d" transform="translate(700 0)"/>
     <use xlink:href="#SimHei-7684" transform="translate(800 0)"/>
     <use xlink:href="#SimHei-65b9" transform="translate(900 0)"/>
     <use xlink:href="#SimHei-5411" transform="translate(1000 0)"/>
     <use xlink:href="#SimHei-4fe1" transform="translate(1100 0)"/>
     <use xlink:href="#SimHei-53f7" transform="translate(1200 0)"/>
    </g>
   </g>
   <g id="legend_1">
    <g id="line2d_44">
     <path d="M 49.732031 31.967187 
L 57.732031 31.967187 
L 65.732031 31.967187 
" style="fill: none; stroke: #6b7280; stroke-width: 1.8; stroke-linecap: square"/>
     <g>
      <use xlink:href="#maaff63b15e" x="57.732031" y="31.967187" style="fill: #6b7280; stroke: #6b7280"/>
     </g>
    </g>
    <g id="text_22">
     <!-- LSTM 目标域训练 -->
     <g transform="translate(72.132031 34.767187) scale(0.08 -0.08)">
      <defs>
       <path id="SimHei-4c" d="M 2900 125 
L 300 125 
L 300 4400 
L 875 4400 
L 875 600 
L 2900 600 
L 2900 125 
z
" transform="scale(0.015625)"/>
       <path id="SimHei-53" d="M 2900 1325 
Q 2900 750 2537 412 
Q 2175 75 1550 75 
Q 925 75 575 425 
Q 225 775 225 1300 
L 225 1475 
L 800 1475 
L 800 1325 
Q 800 950 1025 750 
Q 1250 550 1550 550 
Q 1950 550 2137 762 
Q 2325 975 2325 1275 
Q 2325 1525 2100 1737 
Q 1875 1950 1450 2125 
Q 850 2350 587 2625 
Q 325 2900 325 3275 
Q 325 3800 687 4125 
Q 1050 4450 1550 4450 
Q 2200 4450 2487 4062 
Q 2775 3675 2775 3225 
L 2200 3225 
Q 2225 3500 2050 3725 
Q 1875 3950 1550 3950 
Q 1250 3950 1075 3787 
Q 900 3625 900 3350 
Q 900 3125 1037 2962 
Q 1175 2800 1750 2575 
Q 2300 2350 2600 2037 
Q 2900 1725 2900 1325 
z
" transform="scale(0.015625)"/>
       <path id="SimHei-54" d="M 2850 3925 
L 1850 3925 
L 1850 125 
L 1275 125 
L 1275 3925 
L 275 3925 
L 275 4400 
L 2850 4400 
L 2850 3925 
z
" transform="scale(0.015625)"/>
       <path id="SimHei-4d" d="M 2925 125 
L 2425 125 
L 2425 3175 
L 2375 3175 
L 1775 125 
L 1375 125 
L 775 3175 
L 725 3175 
L 725 125 
L 225 125 
L 225 4400 
L 1000 4400 
L 1550 1575 
L 1600 1575 
L 2150 4400 
L 2925 4400 
L 2925 125 
z
" transform="scale(0.015625)"/>
       <path id="SimHei-20" transform="scale(0.015625)"/>
       <path id="SimHei-76ee" d="M 5375 4900 
Q 5350 4175 5350 3525 
L 5350 600 
Q 5350 225 5375 -550 
L 4825 -550 
L 4825 -100 
L 1575 -100 
L 1575 -525 
L 1050 -525 
Q 1075 150 1075 550 
L 1075 3525 
Q 1075 4350 1050 4900 
L 5375 4900 
z
M 4825 300 
L 4825 1475 
L 1575 1475 
L 1575 300 
L 4825 300 
z
M 4825 1875 
L 4825 3000 
L 1575 3000 
L 1575 1875 
L 4825 1875 
z
M 4825 3400 
L 4825 4500 
L 1575 4500 
L 1575 3400 
L 4825 3400 
z
" transform="scale(0.015625)"/>
       <path id="SimHei-6807" d="M 1275 4400 
Q 1275 4800 1250 5175 
L 1750 5175 
Q 1725 4825 1725 4400 
L 1725 3800 
Q 2125 3800 2575 3825 
L 2575 3350 
Q 2125 3375 1725 3375 
L 1725 2525 
Q 1900 2650 2075 2800 
Q 2400 2275 2650 1775 
Q 2375 1650 2175 1500 
Q 2025 2000 1725 2425 
L 1725 475 
Q 1725 -50 1750 -575 
L 1250 -575 
Q 1275 -25 1275 475 
L 1275 2100 
Q 1025 1400 500 750 
Q 350 950 125 1125 
Q 550 1550 812 2187 
Q 1075 2825 1150 3375 
Q 675 3375 325 3325 
L 325 3825 
Q 800 3800 1275 3800 
L 1275 4400 
z
M 5175 3125 
Q 5675 3125 6050 3150 
L 6050 2675 
Q 5675 2700 5275 2700 
L 4500 2700 
L 4500 175 
Q 4500 -225 4275 -350 
Q 4050 -475 3475 -550 
Q 3425 -250 3275 25 
Q 3775 25 3900 62 
Q 4025 100 4025 350 
L 4025 2700 
L 3400 2700 
Q 2775 2700 2500 2650 
L 2500 3150 
Q 2825 3125 3400 3125 
L 5175 3125 
z
M 4900 4775 
Q 5425 4775 5750 4800 
L 5750 4300 
Q 5275 4350 4750 4350 
L 3525 4350 
Q 3125 4350 2750 4300 
L 2750 4800 
Q 3100 4775 3525 4775 
L 4900 4775 
z
M 5275 2025 
Q 5825 1175 6200 500 
Q 5925 375 5650 200 
Q 5375 925 4825 1725 
Q 5075 1850 5275 2025 
z
M 3600 1775 
Q 3500 1625 3225 975 
Q 2950 325 2800 50 
Q 2575 175 2300 275 
Q 2625 775 2787 1187 
Q 2950 1600 3050 2000 
Q 3325 1875 3600 1775 
z
" transform="scale(0.015625)"/>
       <path id="SimHei-57df" d="M 4550 5100 
Q 4475 4775 4500 4150 
L 5025 4150 
Q 5450 4150 5950 4175 
L 5950 3700 
Q 5475 3725 5025 3725 
L 4525 3725 
Q 4550 3050 4600 2462 
Q 4650 1875 4775 1275 
Q 4975 1850 5050 2275 
Q 5125 2700 5175 3200 
Q 5425 3075 5750 3000 
Q 5675 2875 5537 2337 
Q 5400 1800 5287 1450 
Q 5175 1100 5025 700 
Q 5125 450 5312 237 
Q 5500 25 5587 212 
Q 5675 400 5750 700 
Q 5900 525 6200 400 
Q 6000 -100 5800 -337 
Q 5600 -575 5250 -325 
Q 4900 -75 4725 300 
Q 4575 75 4362 -175 
Q 4150 -425 3875 -650 
Q 3750 -525 3400 -325 
Q 3750 -150 4037 162 
Q 4325 475 4475 775 
Q 4350 1175 4287 1512 
Q 4225 1850 4162 2450 
Q 4100 3050 4075 3725 
L 3150 3725 
Q 2525 3725 1975 3700 
L 1975 4175 
Q 2525 4150 3150 4150 
L 4050 4150 
Q 4025 4600 3950 5175 
Q 4250 5125 4550 5100 
z
M 975 4250 
Q 975 4800 950 5100 
L 1450 5100 
Q 1425 4750 1425 4250 
L 1425 3325 
Q 1625 3325 2000 3350 
L 2000 2900 
Q 1625 2925 1425 2925 
L 1425 1000 
Q 1550 1075 2000 1275 
Q 1975 1075 2000 775 
Q 1675 625 1200 425 
Q 725 225 500 50 
Q 375 325 250 575 
Q 475 625 662 687 
Q 850 750 975 825 
L 975 2925 
Q 625 2925 300 2900 
L 300 3350 
Q 600 3325 975 3325 
L 975 4250 
z
M 3800 1750 
Q 3800 1425 3825 1150 
L 2225 1150 
Q 2250 1375 2250 1575 
L 2250 2525 
Q 2250 2825 2225 3075 
L 3825 3075 
Q 3800 2875 3800 2675 
L 3800 1750 
z
M 1900 225 
Q 2300 300 2850 462 
Q 3400 625 3825 800 
Q 3800 600 3800 350 
Q 3500 250 3012 75 
Q 2525 -100 2125 -275 
Q 2025 -25 1900 225 
z
M 3350 1525 
L 3350 2700 
L 2725 2700 
L 2725 1525 
L 3350 1525 
z
M 5300 4325 
Q 5150 4625 4900 4925 
Q 5050 5050 5250 5150 
Q 5450 4900 5700 4575 
Q 5475 4475 5300 4325 
z
" transform="scale(0.015625)"/>
       <path id="SimHei-8bad" d="M 1650 3300 
Q 1625 2725 1625 2225 
L 1625 675 
Q 1950 1125 2050 1275 
Q 2175 1125 2350 900 
Q 2025 500 1800 212 
Q 1575 -75 1325 -425 
Q 1150 -200 950 -50 
Q 1150 225 1150 625 
L 1150 2875 
L 975 2875 
Q 600 2875 300 2850 
L 300 3325 
Q 600 3300 975 3300 
L 1650 3300 
z
M 3425 4600 
Q 3375 4350 3387 3362 
Q 3400 2375 3337 1887 
Q 3275 1400 3087 837 
Q 2900 275 2450 -375 
Q 2225 -200 1975 -125 
Q 2550 500 2762 1362 
Q 2975 2225 2950 3337 
Q 2925 4450 2900 4675 
Q 3150 4625 3425 4600 
z
M 5875 4700 
Q 5850 4500 5850 3975 
L 5850 625 
Q 5850 125 5875 -400 
L 5400 -400 
Q 5425 125 5425 600 
L 5425 3975 
Q 5425 4500 5400 4700 
L 5875 4700 
z
M 4600 175 
L 4125 175 
Q 4150 725 4150 1150 
L 4150 3600 
Q 4150 4050 4125 4350 
L 4600 4350 
L 4600 175 
z
M 1000 5150 
Q 1650 4600 2100 4100 
Q 1875 3925 1750 3750 
Q 1050 4550 700 4800 
Q 850 4950 1000 5150 
z
" transform="scale(0.015625)"/>
       <path id="SimHei-7ec3" d="M 3300 3825 
Q 2950 3825 2400 3800 
L 2400 4250 
Q 2950 4225 3325 4225 
L 3625 4225 
Q 3875 4950 3900 5175 
Q 4200 5025 4450 4925 
Q 4350 4825 4262 4612 
Q 4175 4400 4100 4225 
L 5025 4225 
Q 5425 4225 5900 4250 
L 5900 3800 
Q 5550 3825 5025 3825 
L 3975 3825 
Q 3850 3525 3700 3150 
L 4675 3150 
Q 4650 2875 4650 2475 
L 4650 1975 
L 4975 1975 
Q 5350 1975 5800 2000 
L 5800 1550 
Q 5350 1575 4975 1575 
L 4650 1575 
L 4650 125 
Q 4650 -300 4462 -425 
Q 4275 -550 3650 -625 
Q 3625 -375 3450 -100 
Q 4075 -125 4137 -25 
Q 4200 75 4200 325 
L 4200 1575 
L 3425 1575 
Q 3250 1575 3100 1562 
Q 2950 1550 2750 1475 
Q 2650 1725 2550 1950 
Q 2800 2025 3125 2775 
Q 2950 2775 2450 2750 
L 2450 3175 
Q 3025 3150 3250 3150 
Q 3400 3525 3500 3825 
L 3300 3825 
z
M 1650 2950 
Q 1875 3300 2100 3900 
Q 2325 3725 2575 3600 
Q 2325 3275 2025 2750 
Q 1725 2225 1075 1350 
Q 1300 1400 2400 1575 
Q 2350 1300 2375 1150 
Q 1825 1100 650 825 
Q 525 1075 400 1275 
Q 625 1400 887 1737 
Q 1150 2075 1450 2575 
Q 1300 2600 1012 2562 
Q 725 2525 450 2450 
Q 350 2675 250 2925 
Q 500 3075 812 3725 
Q 1125 4375 1325 5000 
Q 1600 4825 1850 4750 
Q 1600 4375 1387 3962 
Q 1175 3550 800 2925 
Q 1375 2925 1650 2950 
z
M 2425 700 
Q 2400 425 2425 250 
Q 2000 150 1462 -25 
Q 925 -200 475 -425 
Q 400 -150 300 125 
Q 950 275 1187 337 
Q 1425 400 2425 700 
z
M 3725 875 
Q 3650 800 3287 400 
Q 2925 0 2475 -475 
Q 2300 -250 2150 -125 
Q 2425 100 2750 462 
Q 3075 825 3325 1225 
Q 3475 1050 3725 875 
z
M 5275 1225 
Q 5925 375 6200 -100 
Q 5950 -200 5750 -375 
Q 5475 175 4900 950 
Q 5075 1050 5275 1225 
z
M 4200 1975 
L 4200 2775 
L 3575 2775 
Q 3325 2250 3175 1975 
L 4200 1975 
z
" transform="scale(0.015625)"/>
      </defs>
      <use xlink:href="#SimHei-4c"/>
      <use xlink:href="#SimHei-53" transform="translate(50 0)"/>
      <use xlink:href="#SimHei-54" transform="translate(100 0)"/>
      <use xlink:href="#SimHei-4d" transform="translate(150 0)"/>
      <use xlink:href="#SimHei-20" transform="translate(200 0)"/>
      <use xlink:href="#SimHei-76ee" transform="translate(250 0)"/>
      <use xlink:href="#SimHei-6807" transform="translate(350 0)"/>
      <use xlink:href="#SimHei-57df" transform="translate(450 0)"/>
      <use xlink:href="#SimHei-8bad" transform="translate(550 0)"/>
      <use xlink:href="#SimHei-7ec3" transform="translate(650 0)"/>
     </g>
    </g>
    <g id="line2d_45">
     <path d="M 49.732031 42.567187 
L 57.732031 42.567187 
L 65.732031 42.567187 
" style="fill: none; stroke: #7b4fa3; stroke-width: 1.8; stroke-linecap: square"/>
     <g>
      <use xlink:href="#m21624f8985" x="57.732031" y="42.567187" style="fill: #7b4fa3; stroke: #7b4fa3"/>
     </g>
    </g>
    <g id="text_23">
     <!-- P-sLSTM-DA BCE -->
     <g transform="translate(72.132031 45.367187) scale(0.08 -0.08)">
      <defs>
       <path id="SimHei-50" d="M 2950 3100 
Q 2950 2500 2600 2150 
Q 2250 1800 1625 1800 
L 900 1800 
L 900 125 
L 325 125 
L 325 4400 
L 1625 4400 
Q 2250 4400 2600 4050 
Q 2950 3700 2950 3100 
z
M 2375 3100 
Q 2375 3575 2150 3750 
Q 1925 3925 1475 3925 
L 900 3925 
L 900 2275 
L 1475 2275 
Q 1925 2275 2150 2450 
Q 2375 2625 2375 3100 
z
" transform="scale(0.015625)"/>
       <path id="SimHei-2d" d="M 2975 2125 
L 125 2125 
L 125 2525 
L 2975 2525 
L 2975 2125 
z
" transform="scale(0.015625)"/>
       <path id="SimHei-73" d="M 2750 900 
Q 2750 500 2437 287 
Q 2125 75 1650 75 
Q 1050 75 725 312 
Q 400 550 400 1000 
L 900 1000 
Q 900 700 1112 600 
Q 1325 500 1625 500 
Q 1925 500 2075 612 
Q 2225 725 2225 900 
Q 2225 1025 2100 1150 
Q 1975 1275 1475 1350 
Q 900 1425 687 1637 
Q 475 1850 475 2200 
Q 475 2500 762 2737 
Q 1050 2975 1600 2975 
Q 2100 2975 2387 2750 
Q 2675 2525 2675 2150 
L 2175 2150 
Q 2175 2375 2012 2462 
Q 1850 2550 1600 2550 
Q 1275 2550 1137 2437 
Q 1000 2325 1000 2175 
Q 1000 2000 1125 1900 
Q 1250 1800 1650 1750 
Q 2300 1650 2525 1437 
Q 2750 1225 2750 900 
z
" transform="scale(0.015625)"/>
       <path id="SimHei-44" d="M 2925 2250 
Q 2925 1100 2437 612 
Q 1950 125 1125 125 
L 275 125 
L 275 4400 
L 1125 4400 
Q 2050 4400 2487 3900 
Q 2925 3400 2925 2250 
z
M 2325 2250 
Q 2325 3175 2025 3550 
Q 1725 3925 1125 3925 
L 850 3925 
L 850 600 
L 1125 600 
Q 1725 600 2025 962 
Q 2325 1325 2325 2250 
z
" transform="scale(0.015625)"/>
       <path id="SimHei-41" d="M 3075 125 
L 2475 125 
L 2125 1450 
L 1025 1450 
L 675 125 
L 75 125 
L 1325 4450 
L 1825 4450 
L 3075 125 
z
M 2000 1925 
L 1600 3450 
L 1550 3450 
L 1150 1925 
L 2000 1925 
z
" transform="scale(0.015625)"/>
       <path id="SimHei-42" d="M 2950 1400 
Q 2950 675 2550 400 
Q 2150 125 1525 125 
L 275 125 
L 275 4400 
L 1575 4400 
Q 2200 4400 2512 4075 
Q 2825 3750 2825 3300 
Q 2825 2850 2612 2637 
Q 2400 2425 2175 2350 
Q 2475 2275 2712 2037 
Q 2950 1800 2950 1400 
z
M 2250 3300 
Q 2250 3625 2062 3775 
Q 1875 3925 1600 3925 
L 850 3925 
L 850 2600 
L 1575 2600 
Q 1850 2600 2050 2762 
Q 2250 2925 2250 3300 
z
M 2350 1400 
Q 2350 1800 2087 1962 
Q 1825 2125 1500 2125 
L 850 2125 
L 850 600 
L 1425 600 
Q 1875 600 2112 775 
Q 2350 950 2350 1400 
z
" transform="scale(0.015625)"/>
       <path id="SimHei-43" d="M 2975 1825 
Q 2950 875 2575 475 
Q 2200 75 1675 75 
Q 1075 75 650 562 
Q 225 1050 225 2125 
Q 225 3300 637 3875 
Q 1050 4450 1700 4450 
Q 2250 4450 2612 4037 
Q 2975 3625 2950 2875 
L 2400 2875 
Q 2400 3425 2225 3700 
Q 2050 3975 1700 3975 
Q 1300 3975 1062 3562 
Q 825 3150 825 2175 
Q 825 1275 1062 912 
Q 1300 550 1675 550 
Q 1950 550 2175 812 
Q 2400 1075 2400 1825 
L 2975 1825 
z
" transform="scale(0.015625)"/>
       <path id="SimHei-45" d="M 2900 125 
L 350 125 
L 350 4400 
L 2775 4400 
L 2775 3925 
L 925 3925 
L 925 2600 
L 2625 2600 
L 2625 2125 
L 925 2125 
L 925 600 
L 2900 600 
L 2900 125 
z
" transform="scale(0.015625)"/>
      </defs>
      <use xlink:href="#SimHei-50"/>
      <use xlink:href="#SimHei-2d" transform="translate(50 0)"/>
      <use xlink:href="#SimHei-73" transform="translate(100 0)"/>
      <use xlink:href="#SimHei-4c" transform="translate(150 0)"/>
      <use xlink:href="#SimHei-53" transform="translate(200 0)"/>
      <use xlink:href="#SimHei-54" transform="translate(250 0)"/>
      <use xlink:href="#SimHei-4d" transform="translate(300 0)"/>
      <use xlink:href="#SimHei-2d" transform="translate(350 0)"/>
      <use xlink:href="#SimHei-44" transform="translate(400 0)"/>
      <use xlink:href="#SimHei-41" transform="translate(450 0)"/>
      <use xlink:href="#SimHei-20" transform="translate(500 0)"/>
      <use xlink:href="#SimHei-42" transform="translate(550 0)"/>
      <use xlink:href="#SimHei-43" transform="translate(600 0)"/>
      <use xlink:href="#SimHei-45" transform="translate(650 0)"/>
     </g>
    </g>
    <g id="line2d_46">
     <path d="M 49.732031 53.167187 
L 57.732031 53.167187 
L 65.732031 53.167187 
" style="fill: none; stroke: #d55e00; stroke-width: 1.8; stroke-linecap: square"/>
     <g>
      <use xlink:href="#me9c315fab2" x="57.732031" y="53.167187" style="fill: #d55e00; stroke: #d55e00"/>
     </g>
    </g>
    <g id="text_24">
     <!-- P-sLSTM-DA Focal -->
     <g transform="translate(72.132031 55.967187) scale(0.08 -0.08)">
      <defs>
       <path id="SimHei-46" d="M 2925 3925 
L 875 3925 
L 875 2525 
L 2425 2525 
L 2425 2050 
L 875 2050 
L 875 125 
L 300 125 
L 300 4400 
L 2925 4400 
L 2925 3925 
z
" transform="scale(0.015625)"/>
       <path id="SimHei-6f" d="M 2925 1525 
Q 2925 875 2525 475 
Q 2125 75 1575 75 
Q 1025 75 625 475 
Q 225 875 225 1525 
Q 225 2175 625 2575 
Q 1025 2975 1575 2975 
Q 2125 2975 2525 2575 
Q 2925 2175 2925 1525 
z
M 2375 1525 
Q 2375 2025 2125 2275 
Q 1875 2525 1575 2525 
Q 1275 2525 1025 2275 
Q 775 2025 775 1525 
Q 775 1025 1025 775 
Q 1275 525 1575 525 
Q 1875 525 2125 775 
Q 2375 1025 2375 1525 
z
" transform="scale(0.015625)"/>
       <path id="SimHei-63" d="M 2850 1250 
Q 2850 725 2487 400 
Q 2125 75 1575 75 
Q 1025 75 625 462 
Q 225 850 225 1525 
Q 225 2200 625 2587 
Q 1025 2975 1575 2975 
Q 2125 2975 2450 2687 
Q 2775 2400 2775 2000 
L 2225 2000 
Q 2200 2300 2012 2412 
Q 1825 2525 1575 2525 
Q 1275 2525 1025 2287 
Q 775 2050 775 1525 
Q 775 1000 1025 762 
Q 1275 525 1575 525 
Q 1900 525 2100 700 
Q 2300 875 2300 1250 
L 2850 1250 
z
" transform="scale(0.015625)"/>
       <path id="SimHei-61" d="M 2875 125 
L 2275 125 
Q 2225 175 2200 262 
Q 2175 350 2175 475 
Q 2000 275 1750 175 
Q 1500 75 1225 75 
Q 825 75 550 275 
Q 275 475 275 850 
Q 275 1225 525 1450 
Q 775 1675 1300 1750 
Q 1650 1800 1912 1875 
Q 2175 1950 2175 2075 
Q 2175 2225 2062 2375 
Q 1950 2525 1575 2525 
Q 1275 2525 1137 2412 
Q 1000 2300 950 2100 
L 400 2100 
Q 450 2500 762 2737 
Q 1075 2975 1575 2975 
Q 2125 2975 2400 2725 
Q 2675 2475 2675 2025 
L 2675 650 
Q 2675 500 2725 375 
Q 2775 250 2875 125 
z
M 2175 1050 
L 2175 1550 
Q 2025 1500 1887 1462 
Q 1750 1425 1425 1375 
Q 1050 1325 937 1200 
Q 825 1075 825 900 
Q 825 750 937 637 
Q 1050 525 1275 525 
Q 1500 525 1762 650 
Q 2025 775 2175 1050 
z
" transform="scale(0.015625)"/>
       <path id="SimHei-6c" d="M 1825 125 
L 1325 125 
L 1325 4400 
L 1825 4400 
L 1825 125 
z
" transform="scale(0.015625)"/>
      </defs>
      <use xlink:href="#SimHei-50"/>
      <use xlink:href="#SimHei-2d" transform="translate(50 0)"/>
      <use xlink:href="#SimHei-73" transform="translate(100 0)"/>
      <use xlink:href="#SimHei-4c" transform="translate(150 0)"/>
      <use xlink:href="#SimHei-53" transform="translate(200 0)"/>
      <use xlink:href="#SimHei-54" transform="translate(250 0)"/>
      <use xlink:href="#SimHei-4d" transform="translate(300 0)"/>
      <use xlink:href="#SimHei-2d" transform="translate(350 0)"/>
      <use xlink:href="#SimHei-44" transform="translate(400 0)"/>
      <use xlink:href="#SimHei-41" transform="translate(450 0)"/>
      <use xlink:href="#SimHei-20" transform="translate(500 0)"/>
      <use xlink:href="#SimHei-46" transform="translate(550 0)"/>
      <use xlink:href="#SimHei-6f" transform="translate(600 0)"/>
      <use xlink:href="#SimHei-63" transform="translate(650 0)"/>
      <use xlink:href="#SimHei-61" transform="translate(700 0)"/>
      <use xlink:href="#SimHei-6c" transform="translate(750 0)"/>
     </g>
    </g>
    <g id="line2d_47">
     <path d="M 49.732031 64.635937 
L 57.732031 64.635937 
L 65.732031 64.635937 
" style="fill: none; stroke: #e69f00; stroke-width: 1.8; stroke-linecap: square"/>
     <g>
      <use xlink:href="#m1396bbdb53" x="57.732031" y="64.635937" style="fill: #e69f00; stroke: #e69f00"/>
     </g>
    </g>
    <g id="text_25">
     <!-- P-sLSTM 方向头 -->
     <g transform="translate(72.132031 67.435937) scale(0.08 -0.08)">
      <defs>
       <path id="SimHei-5934" d="M 4175 5100 
Q 4000 4750 4000 4100 
Q 4000 3475 3875 2150 
L 5025 2150 
Q 5500 2150 6100 2175 
L 6100 1650 
Q 5500 1675 5075 1675 
L 3775 1675 
Q 3500 975 3075 575 
Q 2650 175 2162 -112 
Q 1675 -400 950 -700 
Q 825 -450 500 -250 
Q 1125 -175 2050 375 
Q 2975 925 3250 1675 
L 1425 1675 
Q 925 1675 375 1650 
L 375 2175 
Q 925 2150 1275 2150 
L 3400 2150 
Q 3450 2575 3487 3250 
Q 3525 3925 3525 5200 
Q 3800 5150 4175 5100 
z
M 4050 1150 
Q 4500 900 4975 575 
Q 5450 250 6000 -125 
Q 5825 -250 5650 -550 
Q 5200 -225 4750 112 
Q 4300 450 3750 750 
Q 3875 900 4050 1150 
z
M 975 3650 
Q 1850 3175 2325 2850 
Q 2100 2650 1950 2400 
Q 1725 2650 650 3250 
Q 850 3450 975 3650 
z
M 1650 4900 
Q 2375 4475 3000 4050 
Q 2800 3900 2650 3625 
Q 2150 4050 1350 4525 
Q 1525 4700 1650 4900 
z
" transform="scale(0.015625)"/>
      </defs>
      <use xlink:href="#SimHei-50"/>
      <use xlink:href="#SimHei-2d" transform="translate(50 0)"/>
      <use xlink:href="#SimHei-73" transform="translate(100 0)"/>
      <use xlink:href="#SimHei-4c" transform="translate(150 0)"/>
      <use xlink:href="#SimHei-53" transform="translate(200 0)"/>
      <use xlink:href="#SimHei-54" transform="translate(250 0)"/>
      <use xlink:href="#SimHei-4d" transform="translate(300 0)"/>
      <use xlink:href="#SimHei-20" transform="translate(350 0)"/>
      <use xlink:href="#SimHei-65b9" transform="translate(400 0)"/>
      <use xlink:href="#SimHei-5411" transform="translate(500 0)"/>
      <use xlink:href="#SimHei-5934" transform="translate(600 0)"/>
     </g>
    </g>
    <g id="line2d_48">
     <path d="M 49.732031 75.917187 
L 57.732031 75.917187 
L 65.732031 75.917187 
" style="fill: none; stroke: #3b6fb6; stroke-width: 1.8; stroke-linecap: square"/>
     <g>
      <use xlink:href="#m1ca9a6d96e" x="57.732031" y="75.917187" style="fill: #3b6fb6; stroke: #3b6fb6"/>
     </g>
    </g>
    <g id="text_26">
     <!-- P-sLSTM 目标域训练 -->
     <g transform="translate(72.132031 78.717187) scale(0.08 -0.08)">
      <use xlink:href="#SimHei-50"/>
      <use xlink:href="#SimHei-2d" transform="translate(50 0)"/>
      <use xlink:href="#SimHei-73" transform="translate(100 0)"/>
      <use xlink:href="#SimHei-4c" transform="translate(150 0)"/>
      <use xlink:href="#SimHei-53" transform="translate(200 0)"/>
      <use xlink:href="#SimHei-54" transform="translate(250 0)"/>
      <use xlink:href="#SimHei-4d" transform="translate(300 0)"/>
      <use xlink:href="#SimHei-20" transform="translate(350 0)"/>
      <use xlink:href="#SimHei-76ee" transform="translate(400 0)"/>
      <use xlink:href="#SimHei-6807" transform="translate(500 0)"/>
      <use xlink:href="#SimHei-57df" transform="translate(600 0)"/>
      <use xlink:href="#SimHei-8bad" transform="translate(700 0)"/>
      <use xlink:href="#SimHei-7ec3" transform="translate(800 0)"/>
     </g>
    </g>
    <g id="line2d_49">
     <path d="M 49.732031 87.260937 
L 57.732031 87.260937 
L 65.732031 87.260937 
" style="fill: none; stroke: #009e73; stroke-width: 1.8; stroke-linecap: square"/>
     <g>
      <use xlink:href="#m8f2ed04266" x="57.732031" y="87.260937" style="fill: #009e73; stroke: #009e73"/>
     </g>
    </g>
    <g id="text_27">
     <!-- Weather→P-sLSTM 迁移 -->
     <g transform="translate(72.132031 90.060937) scale(0.08 -0.08)">
      <defs>
       <path id="SimHei-57" d="M 3075 4400 
L 2525 75 
L 2025 75 
L 1575 3275 
L 1525 3275 
L 1075 75 
L 575 75 
L 25 4400 
L 575 4400 
L 850 1675 
L 900 1675 
L 1275 4400 
L 1825 4400 
L 2200 1675 
L 2250 1675 
L 2525 4400 
L 3075 4400 
z
" transform="scale(0.015625)"/>
       <path id="SimHei-65" d="M 2850 1075 
Q 2800 625 2450 350 
Q 2100 75 1625 75 
Q 1025 75 637 462 
Q 250 850 250 1525 
Q 250 2200 637 2587 
Q 1025 2975 1625 2975 
Q 2150 2975 2487 2637 
Q 2825 2300 2825 1525 
L 800 1525 
Q 800 975 1037 750 
Q 1275 525 1625 525 
Q 1900 525 2075 662 
Q 2250 800 2300 1075 
L 2850 1075 
z
M 2250 1925 
Q 2200 2275 2025 2412 
Q 1850 2550 1575 2550 
Q 1325 2550 1125 2412 
Q 925 2275 825 1925 
L 2250 1925 
z
" transform="scale(0.015625)"/>
       <path id="SimHei-74" d="M 2750 200 
Q 2625 150 2462 112 
Q 2300 75 2025 75 
Q 1575 75 1300 325 
Q 1025 575 1025 1025 
L 1025 2525 
L 175 2525 
L 175 2925 
L 1025 2925 
L 1025 3900 
L 1525 3900 
L 1525 2925 
L 2550 2925 
L 2550 2525 
L 1525 2525 
L 1525 1000 
Q 1525 800 1625 662 
Q 1725 525 2000 525 
Q 2275 525 2450 575 
Q 2625 625 2750 700 
L 2750 200 
z
" transform="scale(0.015625)"/>
       <path id="SimHei-68" d="M 2800 125 
L 2300 125 
L 2300 1925 
Q 2300 2225 2150 2400 
Q 2000 2575 1750 2575 
Q 1425 2575 1137 2237 
Q 850 1900 850 1400 
L 850 125 
L 350 125 
L 350 4400 
L 850 4400 
L 850 2400 
Q 1050 2675 1287 2825 
Q 1525 2975 1900 2975 
Q 2350 2975 2575 2725 
Q 2800 2475 2800 2100 
L 2800 125 
z
" transform="scale(0.015625)"/>
       <path id="SimHei-72" d="M 2500 2425 
Q 2025 2500 1700 2287 
Q 1375 2075 1150 1550 
L 1150 125 
L 650 125 
L 650 2925 
L 1150 2925 
L 1150 2200 
Q 1375 2600 1712 2787 
Q 2050 2975 2500 2975 
L 2500 2425 
z
" transform="scale(0.015625)"/>
       <path id="SimHei-2192" d="M 3900 4275 
L 5475 2300 
L 3900 400 
L 3900 1900 
L 400 1900 
L 400 2725 
L 3900 2725 
L 3900 4275 
z
" transform="scale(0.015625)"/>
       <path id="SimHei-8fc1" d="M 2175 4600 
Q 2600 4625 3650 4787 
Q 4700 4950 5325 5225 
Q 5400 5000 5700 4700 
Q 5425 4650 4275 4425 
L 4275 3025 
Q 5475 3025 6000 3050 
L 6000 2575 
Q 5475 2600 4275 2600 
Q 4275 850 4300 250 
L 3750 250 
Q 3775 850 3775 2600 
Q 2675 2600 2075 2575 
L 2075 3050 
Q 2625 3025 3775 3025 
L 3775 4350 
Q 3125 4275 2450 4150 
Q 2300 4425 2175 4600 
z
M 225 -50 
Q 675 375 1050 625 
L 1050 2550 
Q 650 2550 225 2525 
L 225 3000 
Q 725 2975 1100 2975 
L 1575 2975 
Q 1550 2575 1550 2250 
L 1550 800 
Q 1775 425 2412 200 
Q 3050 -25 4337 -37 
Q 5625 -50 6175 50 
Q 5925 -350 5950 -575 
Q 4850 -575 4062 -525 
Q 3275 -475 2625 -312 
Q 1975 -150 1662 112 
Q 1350 375 1125 125 
Q 900 -125 675 -450 
Q 425 -175 225 -50 
z
M 1275 3625 
Q 1100 4025 625 4675 
Q 850 4775 1100 5000 
Q 1525 4325 1750 3925 
Q 1475 3775 1275 3625 
z
" transform="scale(0.015625)"/>
       <path id="SimHei-79fb" d="M 4475 5050 
Q 4300 4875 4075 4500 
L 5850 4500 
Q 5475 3625 5212 3312 
Q 4950 3000 4450 2650 
Q 4675 2575 4925 2500 
Q 4775 2300 4650 2075 
L 6100 2075 
Q 5900 1325 5550 825 
Q 5200 325 4787 37 
Q 4375 -250 3900 -387 
Q 3425 -525 2950 -650 
Q 2850 -425 2600 -125 
Q 3275 -50 3712 37 
Q 4150 125 4525 400 
Q 4375 625 4000 1000 
Q 4125 1100 4325 1250 
Q 4525 1075 4900 675 
Q 5075 900 5250 1162 
Q 5425 1425 5500 1700 
L 4375 1700 
Q 4175 1500 3950 1287 
Q 3725 1075 3350 800 
Q 3150 1025 2950 1150 
Q 3600 1525 3875 1837 
Q 4150 2150 4325 2550 
Q 4025 2350 3750 2225 
Q 3475 2100 3050 1950 
Q 2950 2200 2675 2475 
Q 3150 2525 3475 2637 
Q 3800 2750 4225 3000 
Q 3875 3300 3675 3475 
Q 3775 3600 4000 3775 
Q 4325 3500 4575 3250 
Q 4775 3425 4925 3625 
Q 5075 3825 5175 4125 
L 3850 4125 
Q 3525 3600 3250 3275 
Q 3025 3425 2800 3550 
Q 3250 4000 3475 4387 
Q 3700 4775 3850 5225 
Q 4225 5100 4475 5050 
z
M 2850 4650 
Q 2650 4650 2400 4600 
Q 2150 4550 2000 4525 
L 2000 3425 
Q 2375 3425 2825 3450 
L 2825 3050 
Q 2375 3075 2000 3075 
L 2000 2175 
Q 2100 2300 2325 2525 
Q 2550 2225 2687 2062 
Q 2825 1900 3000 1675 
Q 2775 1550 2625 1375 
Q 2475 1600 2337 1737 
Q 2200 1875 2000 2100 
L 2000 525 
Q 2000 150 2025 -475 
L 1525 -475 
Q 1550 150 1550 525 
L 1550 2075 
Q 1400 1700 1237 1412 
Q 1075 1125 750 650 
Q 525 900 275 1050 
Q 450 1200 637 1425 
Q 825 1650 987 1937 
Q 1150 2225 1275 2525 
Q 1400 2825 1475 3075 
Q 1075 3075 350 3050 
L 350 3450 
Q 1075 3425 1550 3425 
L 1550 4425 
Q 925 4325 625 4250 
Q 525 4525 425 4725 
Q 825 4775 1025 4787 
Q 1225 4800 1475 4850 
L 2000 4975 
Q 2275 5050 2575 5150 
Q 2675 4900 2850 4650 
z
" transform="scale(0.015625)"/>
      </defs>
      <use xlink:href="#SimHei-57"/>
      <use xlink:href="#SimHei-65" transform="translate(50 0)"/>
      <use xlink:href="#SimHei-61" transform="translate(100 0)"/>
      <use xlink:href="#SimHei-74" transform="translate(150 0)"/>
      <use xlink:href="#SimHei-68" transform="translate(200 0)"/>
      <use xlink:href="#SimHei-65" transform="translate(250 0)"/>
      <use xlink:href="#SimHei-72" transform="translate(300 0)"/>
      <use xlink:href="#SimHei-2192" transform="translate(350 0)"/>
      <use xlink:href="#SimHei-50" transform="translate(450 0)"/>
      <use xlink:href="#SimHei-2d" transform="translate(500 0)"/>
      <use xlink:href="#SimHei-73" transform="translate(550 0)"/>
      <use xlink:href="#SimHei-4c" transform="translate(600 0)"/>
      <use xlink:href="#SimHei-53" transform="translate(650 0)"/>
      <use xlink:href="#SimHei-54" transform="translate(700 0)"/>
      <use xlink:href="#SimHei-4d" transform="translate(750 0)"/>
      <use xlink:href="#SimHei-20" transform="translate(800 0)"/>
      <use xlink:href="#SimHei-8fc1" transform="translate(850 0)"/>
      <use xlink:href="#SimHei-79fb" transform="translate(950 0)"/>
     </g>
    </g>
   </g>
  </g>
 </g>
 <defs>
  <clipPath id="p87cd8c10b8">
   <rect x="42.532031" y="21.285937" width="506.649062" height="185.030312"/>
  </clipPath>
 </defs>
</svg>
