<?xml version="1.0" encoding="utf-8" standalone="no"?>
<!DOCTYPE svg PUBLIC "-//W3C//DTD SVG 1.1//EN"
  "http://www.w3.org/Graphics/SVG/1.1/DTD/svg11.dtd">
<svg xmlns:xlink="http://www.w3.org/1999/xlink" width="542.2248pt" height="180.72pt" viewBox="0 0 542.2248 180.72" xmlns="http://www.w3.org/2000/svg" version="1.1">
 <metadata>
  <rdf:RDF xmlns:dc="http://purl.org/dc/elements/1.1/" xmlns:cc="http://creativecommons.org/ns#" xmlns:rdf="http://www.w3.org/1999/02/22-rdf-syntax-ns#">
   <cc:Work>
    <dc:type rdf:resource="http://purl.org/dc/dcmitype/StillImage"/>
    <dc:date>2026-06-02T18:54:38.648303</dc:date>
    <dc:format>image/svg+xml</dc:format>
    <dc:creator>
     <cc:Agent>
      <dc:title>Matplotlib v3.10.1, https://matplotlib.org/</dc:title>
     </cc:Agent>
    </dc:creator>
   </cc:Work>
  </rdf:RDF>
 </metadata>
 <defs>
  <style type="text/css">*{stroke-linejoin: round; stroke-linecap: butt}</style>
 </defs>
 <g id="figure_1">
  <g id="patch_1">
   <path d="M 0 180.72 
L 542.2248 180.72 
L 542.2248 0 
L 0 0 
z
" style="fill: #ffffff"/>
  </g>
  <g id="axes_1">
   <g id="patch_2">
    <path d="M 19.476 92.736 
L 107.8632 92.736 
L 107.8632 54.72 
L 19.476 54.72 
z
" clip-path="url(#pd9b1e3a23e)" style="fill: #3b6fb6; fill-opacity: 0.12549; stroke: #3b6fb6; stroke-width: 1.2; stroke-linejoin: miter"/>
   </g>
   <g id="patch_3">
    <path d="M 137.3256 92.736 
L 225.7128 92.736 
L 225.7128 54.72 
L 137.3256 54.72 
z
" clip-path="url(#pd9b1e3a23e)" style="fill: #009e73; fill-opacity: 0.12549; stroke: #009e73; stroke-width: 1.2; stroke-linejoin: miter"/>
   </g>
   <g id="patch_4">
    <path d="M 255.1752 92.736 
L 343.5624 92.736 
L 343.5624 54.72 
L 255.1752 54.72 
z
" clip-path="url(#pd9b1e3a23e)" style="fill: #7b4fa3; fill-opacity: 0.12549; stroke: #7b4fa3; stroke-width: 1.2; stroke-linejoin: miter"/>
   </g>
   <g id="patch_5">
    <path d="M 373.0248 92.736 
L 476.1432 92.736 
L 476.1432 54.72 
L 373.0248 54.72 
z
" clip-path="url(#pd9b1e3a23e)" style="fill: #e69f00; fill-opacity: 0.12549; stroke: #e69f00; stroke-width: 1.2; stroke-linejoin: miter"/>
   </g>
   <g id="patch_6">
    <path d="M 255.1752 156.888 
L 343.5624 156.888 
L 343.5624 126 
L 255.1752 126 
z
" clip-path="url(#pd9b1e3a23e)" style="fill: #6b7280; fill-opacity: 0.12549; stroke: #6b7280; stroke-width: 1.2; stroke-linejoin: miter"/>
   </g>
   <g id="text_1">
    <!-- S&amp;P500 面板 -->
    <g transform="translate(38.9196 71.899875) scale(0.09 -0.09)">
     <defs>
      <path id="SimHei-53" d="M 2900 1325 
Q 2900 750 2537 412 
Q 2175 75 1550 75 
Q 925 75 575 425 
Q 225 775 225 1300 
L 225 1475 
L 800 1475 
L 800 1325 
Q 800 950 1025 750 
Q 1250 550 1550 550 
Q 1950 550 2137 762 
Q 2325 975 2325 1275 
Q 2325 1525 2100 1737 
Q 1875 1950 1450 2125 
Q 850 2350 587 2625 
Q 325 2900 325 3275 
Q 325 3800 687 4125 
Q 1050 4450 1550 4450 
Q 2200 4450 2487 4062 
Q 2775 3675 2775 3225 
L 2200 3225 
Q 2225 3500 2050 3725 
Q 1875 3950 1550 3950 
Q 1250 3950 1075 3787 
Q 900 3625 900 3350 
Q 900 3125 1037 2962 
Q 1175 2800 1750 2575 
Q 2300 2350 2600 2037 
Q 2900 1725 2900 1325 
z
" transform="scale(0.015625)"/>
      <path id="SimHei-26" d="M 3050 625 
L 2825 125 
Q 2675 225 2562 300 
Q 2450 375 2325 500 
Q 2125 300 1900 187 
Q 1675 75 1375 75 
Q 875 75 512 375 
Q 150 675 150 1300 
Q 150 1700 362 1962 
Q 575 2225 875 2450 
Q 750 2725 675 3000 
Q 600 3275 600 3500 
Q 600 3950 862 4200 
Q 1125 4450 1500 4450 
Q 1825 4450 2050 4237 
Q 2275 4025 2275 3625 
Q 2275 3150 2012 2862 
Q 1750 2575 1425 2375 
Q 1600 2075 1787 1812 
Q 1975 1550 2225 1275 
Q 2300 1450 2325 1612 
Q 2350 1775 2350 2025 
L 2850 2025 
Q 2850 1700 2787 1437 
Q 2725 1175 2600 950 
Q 2675 875 2812 775 
Q 2950 675 3050 625 
z
M 1800 3625 
Q 1800 3800 1712 3900 
Q 1625 4000 1475 4000 
Q 1325 4000 1200 3875 
Q 1075 3750 1075 3525 
Q 1075 3350 1112 3162 
Q 1150 2975 1250 2750 
Q 1450 2850 1625 3062 
Q 1800 3275 1800 3625 
z
M 1975 825 
Q 1650 1175 1425 1475 
Q 1200 1775 1050 2075 
Q 850 1925 762 1737 
Q 675 1550 675 1275 
Q 675 900 900 712 
Q 1125 525 1425 525 
Q 1600 525 1725 600 
Q 1850 675 1975 825 
z
" transform="scale(0.015625)"/>
      <path id="SimHei-50" d="M 2950 3100 
Q 2950 2500 2600 2150 
Q 2250 1800 1625 1800 
L 900 1800 
L 900 125 
L 325 125 
L 325 4400 
L 1625 4400 
Q 2250 4400 2600 4050 
Q 2950 3700 2950 3100 
z
M 2375 3100 
Q 2375 3575 2150 3750 
Q 1925 3925 1475 3925 
L 900 3925 
L 900 2275 
L 1475 2275 
Q 1925 2275 2150 2450 
Q 2375 2625 2375 3100 
z
" transform="scale(0.015625)"/>
      <path id="SimHei-35" d="M 550 1325 
Q 725 650 1150 575 
Q 1575 500 1837 662 
Q 2100 825 2212 1087 
Q 2325 1350 2312 1675 
Q 2300 2000 2137 2225 
Q 1975 2450 1725 2525 
Q 1475 2600 1162 2525 
Q 850 2450 650 2175 
L 225 2225 
Q 275 2375 700 4375 
L 2675 4375 
L 2675 3925 
L 1075 3925 
Q 950 3250 825 2850 
Q 1200 3025 1525 3012 
Q 1850 3000 2150 2862 
Q 2450 2725 2587 2487 
Q 2725 2250 2787 2012 
Q 2850 1775 2837 1500 
Q 2825 1225 2725 937 
Q 2625 650 2425 462 
Q 2225 275 1937 162 
Q 1650 50 1275 75 
Q 900 100 562 350 
Q 225 600 100 1200 
L 550 1325 
z
" transform="scale(0.015625)"/>
      <path id="SimHei-30" d="M 225 2537 
Q 250 3200 412 3587 
Q 575 3975 875 4225 
Q 1175 4475 1612 4475 
Q 2050 4475 2375 4112 
Q 2700 3750 2800 3200 
Q 2900 2650 2862 1937 
Q 2825 1225 2612 775 
Q 2400 325 1975 150 
Q 1550 -25 1125 187 
Q 700 400 525 750 
Q 350 1100 275 1487 
Q 200 1875 225 2537 
z
M 750 2687 
Q 675 2000 800 1462 
Q 925 925 1212 700 
Q 1500 475 1800 612 
Q 2100 750 2237 1162 
Q 2375 1575 2375 2062 
Q 2375 2550 2337 2950 
Q 2300 3350 2112 3675 
Q 1925 4000 1612 4012 
Q 1300 4025 1062 3700 
Q 825 3375 750 2687 
z
" transform="scale(0.015625)"/>
      <path id="SimHei-20" transform="scale(0.015625)"/>
      <path id="SimHei-9762" d="M 5275 4850 
Q 5650 4850 5950 4875 
L 5950 4400 
Q 5600 4425 5275 4425 
L 3275 4425 
Q 3175 4200 2950 3575 
L 5525 3575 
Q 5500 3100 5500 2600 
L 5500 450 
Q 5500 -100 5525 -525 
L 5025 -525 
L 5025 -175 
L 1350 -175 
L 1350 -525 
L 850 -525 
Q 875 -200 875 425 
L 875 2650 
Q 875 3125 850 3575 
L 2475 3575 
Q 2700 4150 2750 4425 
L 1175 4425 
Q 800 4425 425 4400 
L 425 4875 
Q 825 4850 1175 4850 
L 5275 4850 
z
M 2200 225 
L 2200 3175 
L 1350 3175 
L 1350 225 
L 2200 225 
z
M 5025 225 
L 5025 3175 
L 4175 3175 
L 4175 225 
L 5025 225 
z
M 3750 225 
L 3750 1050 
L 2625 1050 
L 2625 225 
L 3750 225 
z
M 3750 2475 
L 3750 3175 
L 2625 3175 
L 2625 2475 
L 3750 2475 
z
M 3750 1425 
L 3750 2100 
L 2625 2100 
L 2625 1425 
L 3750 1425 
z
" transform="scale(0.015625)"/>
      <path id="SimHei-677f" d="M 3350 3025 
Q 3325 2125 3250 1550 
Q 3175 1000 3012 537 
Q 2850 75 2400 -550 
Q 2225 -350 1925 -250 
Q 2450 325 2625 850 
Q 2800 1375 2850 1925 
Q 2900 2525 2900 3350 
Q 2900 4175 2850 4600 
Q 3600 4625 4362 4737 
Q 5125 4850 5550 5050 
Q 5700 4700 5875 4525 
Q 5150 4425 4512 4350 
Q 3875 4275 3350 4250 
L 3350 3425 
L 5700 3425 
Q 5575 2725 5387 2037 
Q 5200 1350 4825 750 
Q 5400 125 6125 -200 
Q 5950 -300 5750 -625 
Q 5125 -200 4550 375 
Q 4425 225 4112 -62 
Q 3800 -350 3275 -700 
Q 3150 -500 2850 -325 
Q 3375 -75 3712 187 
Q 4050 450 4275 750 
Q 4025 1200 3850 1625 
Q 3675 2050 3475 3025 
L 3350 3025 
z
M 2150 2675 
Q 2250 2475 2600 1850 
Q 2400 1725 2175 1550 
Q 2100 1775 1750 2400 
L 1750 425 
Q 1750 -75 1775 -625 
L 1275 -625 
Q 1275 -50 1300 425 
L 1300 2200 
Q 1025 1525 550 825 
Q 425 1050 225 1250 
Q 475 1500 800 2137 
Q 1125 2775 1225 3375 
Q 775 3375 425 3350 
L 425 3800 
Q 800 3775 1300 3775 
L 1300 4425 
Q 1300 4775 1275 5100 
L 1775 5100 
Q 1750 4775 1750 4400 
L 1750 3775 
Q 2150 3775 2550 3800 
L 2550 3350 
Q 2125 3375 1750 3375 
L 1750 2450 
Q 1900 2525 2150 2675 
z
M 3900 3025 
Q 4000 2500 4200 1937 
Q 4400 1375 4550 1125 
Q 4950 1850 5125 3025 
L 3900 3025 
z
" transform="scale(0.015625)"/>
     </defs>
     <use xlink:href="#SimHei-53"/>
     <use xlink:href="#SimHei-26" transform="translate(50 0)"/>
     <use xlink:href="#SimHei-50" transform="translate(100 0)"/>
     <use xlink:href="#SimHei-35" transform="translate(150 0)"/>
     <use xlink:href="#SimHei-30" transform="translate(200 0)"/>
     <use xlink:href="#SimHei-30" transform="translate(250 0)"/>
     <use xlink:href="#SimHei-20" transform="translate(300 0)"/>
     <use xlink:href="#SimHei-9762" transform="translate(350 0)"/>
     <use xlink:href="#SimHei-677f" transform="translate(450 0)"/>
    </g>
    <!-- 503 只股票 -->
    <g transform="translate(41.1696 81.462375) scale(0.09 -0.09)">
     <defs>
      <path id="SimHei-33" d="M 250 1225 
L 700 1300 
Q 800 975 1025 762 
Q 1250 550 1587 562 
Q 1925 575 2125 837 
Q 2325 1100 2300 1437 
Q 2275 1775 2037 1962 
Q 1800 2150 1275 2225 
L 1275 2550 
Q 1800 2600 2037 2825 
Q 2275 3050 2250 3412 
Q 2225 3775 1925 3937 
Q 1625 4100 1287 3975 
Q 950 3850 750 3275 
L 300 3350 
Q 450 3800 712 4100 
Q 975 4400 1425 4450 
Q 1875 4500 2212 4337 
Q 2550 4175 2687 3837 
Q 2825 3500 2725 3100 
Q 2625 2700 2150 2400 
Q 2500 2250 2687 1950 
Q 2875 1650 2812 1162 
Q 2750 675 2375 375 
Q 2000 75 1525 87 
Q 1050 100 700 387 
Q 350 675 250 1225 
z
" transform="scale(0.015625)"/>
      <path id="SimHei-53ea" d="M 5150 4800 
Q 5125 4375 5125 3400 
Q 5125 2450 5150 1875 
L 1225 1875 
Q 1250 2325 1250 3300 
Q 1250 4275 1225 4800 
L 5150 4800 
z
M 4600 2325 
L 4600 4375 
L 1775 4375 
L 1775 2325 
L 4600 2325 
z
M 4175 1575 
Q 5400 300 5925 -200 
Q 5850 -250 5425 -600 
Q 4975 0 3750 1225 
Q 3975 1375 4175 1575 
z
M 2575 1200 
Q 2250 850 1775 337 
Q 1300 -175 800 -675 
Q 625 -500 375 -275 
Q 825 50 1300 562 
Q 1775 1075 2125 1600 
Q 2425 1375 2575 1200 
z
" transform="scale(0.015625)"/>
      <path id="SimHei-80a1" d="M 1575 50 
Q 1925 25 2100 50 
Q 2275 75 2275 450 
L 2275 1625 
L 1325 1625 
Q 1250 900 1125 437 
Q 1000 -25 750 -525 
Q 550 -325 225 -250 
Q 550 150 687 762 
Q 825 1375 837 2150 
Q 850 2925 850 3725 
Q 850 4525 825 4900 
L 2750 4900 
Q 2725 4400 2725 3900 
L 2725 225 
Q 2725 -250 2512 -350 
Q 2300 -450 1750 -550 
Q 1700 -225 1575 50 
z
M 5225 -275 
Q 4950 -150 4450 275 
Q 4200 25 3875 -212 
Q 3550 -450 3100 -700 
Q 2925 -375 2725 -225 
Q 3250 -50 3550 137 
Q 3850 325 4100 600 
Q 3825 950 3625 1375 
Q 3425 1750 3325 2150 
Q 3225 2150 3125 2150 
L 3125 2600 
Q 3550 2575 3950 2575 
L 5725 2575 
Q 5650 2200 5375 1600 
Q 5100 1000 4775 600 
Q 5025 425 5387 237 
Q 5750 50 6200 -50 
Q 5950 -250 5850 -600 
L 5225 -275 
z
M 5325 3750 
Q 5300 3425 5600 3425 
L 6150 3450 
Q 6050 3225 6025 3000 
L 5400 3000 
Q 4825 3000 4825 3450 
L 4825 4500 
L 4000 4500 
Q 4000 3900 3862 3512 
Q 3725 3125 3275 2750 
Q 3150 2950 2900 3125 
Q 3425 3450 3475 3950 
Q 3525 4450 3500 4900 
L 5350 4900 
Q 5325 4675 5325 4375 
L 5325 3750 
z
M 2275 2050 
L 2275 3075 
L 1350 3075 
L 1350 2050 
L 2275 2050 
z
M 2275 3475 
L 2275 4500 
L 1350 4500 
L 1350 3475 
L 2275 3475 
z
M 3800 2175 
Q 3900 1750 4050 1475 
Q 4225 1175 4450 925 
Q 4925 1550 5050 2175 
L 3950 2175 
L 3800 2175 
z
" transform="scale(0.015625)"/>
      <path id="SimHei-7968" d="M 825 2800 
Q 850 3175 850 3500 
Q 850 3850 825 4225 
L 2275 4225 
L 2275 4700 
L 1375 4700 
Q 775 4700 475 4675 
L 475 5100 
Q 850 5075 1425 5075 
L 4900 5075 
Q 5350 5075 5925 5100 
L 5925 4675 
Q 5350 4700 4900 4700 
L 4025 4700 
L 4025 4225 
L 5550 4225 
Q 5525 3850 5525 3500 
Q 5525 3175 5550 2800 
L 825 2800 
z
M 300 1500 
Q 575 1475 925 1475 
L 5325 1475 
Q 5675 1475 6150 1500 
L 6150 1075 
Q 5675 1100 5325 1100 
L 3475 1100 
L 3475 -50 
Q 3475 -375 3212 -500 
Q 2950 -625 2550 -675 
Q 2500 -375 2325 -100 
Q 2700 -125 2837 -100 
Q 2975 -75 2975 100 
L 2975 1100 
L 925 1100 
Q 575 1100 300 1075 
L 300 1500 
z
M 4600 2325 
Q 5025 2325 5450 2350 
L 5450 1925 
Q 5000 1950 4625 1950 
L 1725 1950 
Q 1325 1950 925 1925 
L 925 2350 
Q 1325 2325 1750 2325 
L 4600 2325 
z
M 4550 775 
Q 5575 250 5975 25 
Q 5750 -175 5625 -425 
Q 5200 -100 4250 350 
Q 4450 525 4550 775 
z
M 400 -25 
Q 650 75 1012 262 
Q 1375 450 1725 850 
Q 1900 650 2175 450 
Q 2000 375 1650 125 
Q 1300 -125 800 -425 
Q 675 -200 400 -25 
z
M 5050 3200 
L 5050 3800 
L 4025 3800 
L 4025 3200 
L 5050 3200 
z
M 2275 3200 
L 2275 3800 
L 1325 3800 
L 1325 3200 
L 2275 3200 
z
M 3550 3200 
L 3550 3800 
L 2725 3800 
L 2725 3200 
L 3550 3200 
z
M 3550 4225 
L 3550 4700 
L 2725 4700 
L 2725 4225 
L 3550 4225 
z
" transform="scale(0.015625)"/>
     </defs>
     <use xlink:href="#SimHei-35"/>
     <use xlink:href="#SimHei-30" transform="translate(50 0)"/>
     <use xlink:href="#SimHei-33" transform="translate(100 0)"/>
     <use xlink:href="#SimHei-20" transform="translate(150 0)"/>
     <use xlink:href="#SimHei-53ea" transform="translate(200 0)"/>
     <use xlink:href="#SimHei-80a1" transform="translate(300 0)"/>
     <use xlink:href="#SimHei-7968" transform="translate(400 0)"/>
    </g>
   </g>
   <g id="text_2">
    <!-- 33个特征 -->
    <g transform="translate(163.5192 71.938547) scale(0.09 -0.09)">
     <defs>
      <path id="SimHei-4e2a" d="M 3425 4825 
Q 4475 3275 6150 2775 
Q 5900 2475 5775 2200 
Q 4150 2900 3150 4425 
Q 2225 2950 675 2125 
Q 550 2350 250 2600 
Q 1450 3100 2112 3875 
Q 2775 4650 3000 5275 
Q 3300 5150 3600 5050 
Q 3500 4925 3425 4825 
z
M 2925 2350 
Q 2925 2750 2875 3375 
L 3450 3375 
Q 3425 2950 3425 2325 
L 3425 550 
Q 3425 -25 3450 -625 
L 2900 -625 
Q 2925 0 2925 525 
L 2925 2350 
z
" transform="scale(0.015625)"/>
      <path id="SimHei-7279" d="M 4050 3150 
L 4050 4050 
L 3675 4050 
Q 3275 4050 2975 4025 
L 2975 4475 
Q 3250 4450 3675 4450 
L 4050 4450 
Q 4050 4950 4000 5200 
L 4525 5200 
Q 4500 4950 4500 4450 
L 5075 4450 
Q 5450 4450 5800 4475 
L 5800 4025 
Q 5550 4050 5075 4050 
L 4500 4050 
L 4500 3150 
L 5450 3150 
Q 5825 3150 6150 3175 
L 6150 2725 
Q 5850 2750 5500 2750 
L 5275 2750 
L 5275 2000 
Q 5825 2000 6100 2025 
L 6100 1550 
Q 5800 1575 5275 1575 
L 5275 -75 
Q 5250 -375 5050 -487 
Q 4850 -600 4275 -675 
Q 4225 -375 4075 -100 
Q 4525 -125 4675 -100 
Q 4825 -75 4825 150 
L 4825 1575 
L 3600 1575 
Q 3175 1575 2850 1550 
L 2850 2025 
Q 3125 2000 3600 2000 
L 4825 2000 
L 4825 2750 
L 3575 2750 
Q 3125 2750 2775 2725 
L 2775 3175 
Q 3125 3150 3550 3150 
L 4050 3150 
z
M 1150 4275 
Q 1050 4125 950 3600 
L 1500 3600 
L 1500 4425 
Q 1500 4800 1475 5200 
L 2000 5200 
Q 1950 4825 1950 4425 
L 1950 3600 
Q 2300 3600 2600 3625 
L 2600 3175 
Q 2325 3200 1950 3200 
L 1950 2075 
Q 2275 2200 2575 2325 
Q 2600 2125 2650 1900 
Q 2375 1800 1950 1625 
L 1950 225 
Q 1950 -175 1975 -650 
L 1475 -650 
Q 1500 -200 1500 225 
L 1500 1450 
Q 850 1200 550 1025 
Q 450 1275 275 1550 
Q 600 1575 1500 1925 
L 1500 3200 
L 850 3200 
Q 750 2775 675 2450 
Q 425 2550 225 2600 
Q 350 2950 462 3487 
Q 575 4025 600 4400 
Q 900 4325 1150 4275 
z
M 3600 1200 
Q 3800 750 3975 325 
Q 3750 275 3500 150 
Q 3325 675 3125 1025 
Q 3375 1100 3600 1200 
z
" transform="scale(0.015625)"/>
      <path id="SimHei-5f81" d="M 5050 4650 
Q 5575 4650 5975 4675 
L 5975 4175 
Q 5575 4200 5050 4200 
L 4450 4200 
L 4450 2625 
L 5000 2625 
Q 5475 2625 5875 2650 
L 5875 2175 
Q 5475 2200 5000 2200 
L 4450 2200 
L 4450 200 
L 5100 200 
Q 5575 200 6125 225 
L 6125 -250 
Q 5575 -225 5100 -225 
L 2875 -225 
Q 2275 -225 1875 -250 
L 1875 225 
Q 2225 200 2650 200 
L 2650 2100 
Q 2650 2475 2625 2925 
L 3175 2925 
Q 3150 2500 3150 2100 
L 3150 200 
L 3925 200 
L 3925 4200 
L 3425 4200 
Q 2850 4200 2425 4175 
L 2425 4675 
Q 2850 4650 3425 4650 
L 5050 4650 
z
M 2250 3450 
Q 2100 3225 1625 2575 
L 1625 450 
Q 1625 -100 1650 -700 
L 1100 -700 
Q 1125 -100 1125 450 
L 1125 2000 
Q 825 1600 550 1300 
Q 425 1550 225 1725 
Q 675 2150 1062 2650 
Q 1450 3150 1725 3775 
Q 1950 3625 2250 3450 
z
M 250 3675 
Q 675 3975 1025 4412 
Q 1375 4850 1550 5275 
Q 1825 5125 2125 4975 
Q 1900 4725 1487 4212 
Q 1075 3700 675 3275 
Q 475 3475 250 3675 
z
" transform="scale(0.015625)"/>
     </defs>
     <use xlink:href="#SimHei-33"/>
     <use xlink:href="#SimHei-33" transform="translate(50 0)"/>
     <use xlink:href="#SimHei-4e2a" transform="translate(100 0)"/>
     <use xlink:href="#SimHei-7279" transform="translate(200 0)"/>
     <use xlink:href="#SimHei-5f81" transform="translate(300 0)"/>
    </g>
    <!-- 每日 -->
    <g transform="translate(172.5192 81.669797) scale(0.09 -0.09)">
     <defs>
      <path id="SimHei-6bcf" d="M 5225 3650 
Q 5175 3150 5150 2675 
L 5125 2200 
Q 5525 2200 6000 2225 
L 6000 1775 
Q 5625 1800 5100 1800 
L 5050 650 
Q 5325 650 5700 675 
L 5700 225 
Q 5400 250 5025 250 
Q 5000 -275 4775 -425 
Q 4550 -575 4000 -650 
Q 3950 -400 3775 -125 
Q 4375 -125 4475 -50 
Q 4575 25 4575 250 
L 1400 250 
L 1500 1100 
L 1550 1800 
L 1275 1800 
Q 825 1800 550 1775 
L 550 2225 
Q 975 2200 1275 2200 
L 1575 2200 
L 1625 2825 
L 1675 3650 
L 5225 3650 
z
M 2350 5000 
Q 2175 4825 2050 4600 
L 4875 4600 
Q 5275 4600 5775 4625 
L 5775 4175 
Q 5275 4200 4875 4200 
L 1825 4200 
L 1375 3625 
Q 1125 3325 775 2975 
Q 600 3175 350 3300 
Q 725 3575 1150 4112 
Q 1575 4650 1825 5250 
Q 2125 5075 2350 5000 
z
M 1975 1800 
L 1875 650 
L 4625 650 
L 4675 1800 
L 2950 1800 
Q 3575 1275 3825 1125 
Q 3625 925 3475 725 
Q 3100 1100 2650 1475 
Q 2775 1675 2875 1800 
L 1975 1800 
z
M 2975 3250 
Q 3125 3150 3287 3012 
Q 3450 2875 3800 2550 
Q 3650 2350 3525 2200 
L 4700 2200 
L 4750 3250 
L 2975 3250 
z
M 2075 3250 
L 2000 2200 
L 3425 2200 
Q 3150 2500 3012 2625 
Q 2875 2750 2700 2900 
Q 2800 3050 2925 3250 
L 2075 3250 
z
" transform="scale(0.015625)"/>
      <path id="SimHei-65e5" d="M 5375 5000 
Q 5350 3775 5350 2275 
Q 5350 775 5375 -450 
L 4800 -450 
L 4800 175 
L 1800 175 
L 1800 -575 
L 1250 -575 
Q 1275 575 1275 2125 
Q 1275 3675 1250 5000 
L 5375 5000 
z
M 4800 600 
L 4800 2375 
L 1800 2375 
L 1800 600 
L 4800 600 
z
M 4800 2800 
L 4800 4550 
L 1800 4550 
L 1800 2800 
L 4800 2800 
z
" transform="scale(0.015625)"/>
     </defs>
     <use xlink:href="#SimHei-6bcf"/>
     <use xlink:href="#SimHei-65e5" transform="translate(100 0)"/>
    </g>
   </g>
   <g id="text_3">
    <!-- P-sLSTM -->
    <g transform="translate(283.6188 71.351438) scale(0.09 -0.09)">
     <defs>
      <path id="SimHei-2d" d="M 2975 2125 
L 125 2125 
L 125 2525 
L 2975 2525 
L 2975 2125 
z
" transform="scale(0.015625)"/>
      <path id="SimHei-73" d="M 2750 900 
Q 2750 500 2437 287 
Q 2125 75 1650 75 
Q 1050 75 725 312 
Q 400 550 400 1000 
L 900 1000 
Q 900 700 1112 600 
Q 1325 500 1625 500 
Q 1925 500 2075 612 
Q 2225 725 2225 900 
Q 2225 1025 2100 1150 
Q 1975 1275 1475 1350 
Q 900 1425 687 1637 
Q 475 1850 475 2200 
Q 475 2500 762 2737 
Q 1050 2975 1600 2975 
Q 2100 2975 2387 2750 
Q 2675 2525 2675 2150 
L 2175 2150 
Q 2175 2375 2012 2462 
Q 1850 2550 1600 2550 
Q 1275 2550 1137 2437 
Q 1000 2325 1000 2175 
Q 1000 2000 1125 1900 
Q 1250 1800 1650 1750 
Q 2300 1650 2525 1437 
Q 2750 1225 2750 900 
z
" transform="scale(0.015625)"/>
      <path id="SimHei-4c" d="M 2900 125 
L 300 125 
L 300 4400 
L 875 4400 
L 875 600 
L 2900 600 
L 2900 125 
z
" transform="scale(0.015625)"/>
      <path id="SimHei-54" d="M 2850 3925 
L 1850 3925 
L 1850 125 
L 1275 125 
L 1275 3925 
L 275 3925 
L 275 4400 
L 2850 4400 
L 2850 3925 
z
" transform="scale(0.015625)"/>
      <path id="SimHei-4d" d="M 2925 125 
L 2425 125 
L 2425 3175 
L 2375 3175 
L 1775 125 
L 1375 125 
L 775 3175 
L 725 3175 
L 725 125 
L 225 125 
L 225 4400 
L 1000 4400 
L 1550 1575 
L 1600 1575 
L 2150 4400 
L 2925 4400 
L 2925 125 
z
" transform="scale(0.015625)"/>
     </defs>
     <use xlink:href="#SimHei-50"/>
     <use xlink:href="#SimHei-2d" transform="translate(50 0)"/>
     <use xlink:href="#SimHei-73" transform="translate(100 0)"/>
     <use xlink:href="#SimHei-4c" transform="translate(150 0)"/>
     <use xlink:href="#SimHei-53" transform="translate(200 0)"/>
     <use xlink:href="#SimHei-54" transform="translate(250 0)"/>
     <use xlink:href="#SimHei-4d" transform="translate(300 0)"/>
    </g>
    <!-- 编码器 -->
    <g transform="translate(285.8688 81.167063) scale(0.09 -0.09)">
     <defs>
      <path id="SimHei-7f16" d="M 4275 5250 
Q 4375 4850 4475 4500 
L 5775 4500 
Q 5750 4200 5750 3825 
Q 5750 3450 5775 3175 
L 3100 3175 
Q 3075 2800 3050 2550 
L 6000 2550 
Q 5975 2150 5975 1700 
L 5975 -25 
Q 5975 -400 5812 -500 
Q 5650 -600 5275 -700 
Q 5200 -400 5050 -150 
Q 5400 -150 5475 -112 
Q 5550 -75 5550 150 
L 5550 1000 
L 5050 1000 
Q 5050 450 5075 -50 
L 4625 -50 
Q 4650 450 4650 1000 
L 4150 1000 
Q 4150 225 4175 -75 
L 3725 -75 
Q 3750 225 3750 1000 
L 3250 1000 
L 3250 -650 
L 2775 -650 
Q 2825 -175 2825 275 
L 2825 1625 
Q 2625 1075 2350 600 
Q 2175 925 2025 1100 
Q 2250 1400 2375 1700 
Q 2500 2000 2575 2525 
Q 2650 3050 2650 3575 
Q 2650 4100 2625 4500 
L 3925 4500 
Q 3875 4775 3750 5100 
Q 4075 5175 4275 5250 
z
M 1825 4875 
Q 1675 4725 1387 4150 
Q 1100 3575 875 3150 
L 1575 3175 
Q 1725 3475 1875 3850 
Q 2100 3675 2375 3500 
Q 2150 3275 1862 2812 
Q 1575 2350 1075 1675 
Q 1600 1725 2075 1800 
L 2025 1350 
Q 1725 1325 1350 1275 
Q 975 1225 550 1050 
Q 500 1325 400 1575 
Q 600 1600 825 1925 
Q 1050 2250 1400 2800 
Q 1175 2800 950 2775 
Q 725 2750 450 2650 
Q 375 2950 275 3175 
Q 525 3225 800 3862 
Q 1075 4500 1225 5125 
Q 1525 4950 1825 4875 
z
M 5325 3525 
L 5325 4150 
L 3100 4150 
L 3100 3525 
L 5325 3525 
z
M 2100 800 
Q 2075 525 2100 300 
Q 1575 175 1212 50 
Q 850 -75 400 -300 
L 200 300 
Q 500 325 1037 462 
Q 1575 600 2100 800 
z
M 4650 1350 
L 4650 2200 
L 4150 2200 
L 4150 1350 
L 4650 1350 
z
M 5550 1350 
L 5550 2200 
L 5050 2200 
L 5050 1350 
L 5550 1350 
z
M 3750 1350 
L 3750 2200 
L 3250 2200 
L 3250 1350 
L 3750 1350 
z
" transform="scale(0.015625)"/>
      <path id="SimHei-7801" d="M 1975 4750 
Q 2325 4750 2725 4775 
L 2725 4350 
Q 2300 4375 2100 4375 
L 1725 4375 
Q 1625 3775 1400 3050 
L 2600 3050 
Q 2575 2625 2575 2300 
L 2575 1100 
Q 2575 775 2600 150 
L 2150 150 
L 2150 600 
L 1400 600 
L 1400 -125 
L 925 -125 
Q 950 500 950 875 
L 950 2050 
Q 775 1725 550 1325 
Q 400 1525 200 1675 
Q 650 2275 925 3062 
Q 1200 3850 1250 4375 
Q 800 4375 350 4350 
L 350 4775 
Q 800 4750 1125 4750 
L 1975 4750 
z
M 4725 2425 
L 4975 4500 
L 3825 4500 
Q 3400 4500 2950 4475 
L 2950 4925 
Q 3400 4875 3825 4875 
L 5500 4875 
Q 5375 4200 5175 2425 
L 5975 2425 
Q 5925 2150 5887 1500 
Q 5850 850 5750 300 
Q 5650 -250 5412 -412 
Q 5175 -575 4475 -625 
Q 4450 -350 4275 -75 
Q 4925 -100 5100 -25 
Q 5275 50 5350 712 
Q 5425 1375 5450 2025 
L 3125 2025 
Q 3200 2575 3262 3112 
Q 3325 3650 3350 4150 
L 3900 4050 
Q 3800 3800 3737 3362 
Q 3675 2925 3625 2425 
L 4725 2425 
z
M 2150 1000 
L 2150 2650 
L 1400 2650 
L 1400 1000 
L 2150 1000 
z
M 4325 1325 
Q 4625 1325 5275 1350 
L 5275 900 
Q 4600 925 4150 925 
L 3500 925 
Q 3225 925 2825 900 
L 2825 1350 
Q 3100 1325 3500 1325 
L 4325 1325 
z
" transform="scale(0.015625)"/>
      <path id="SimHei-5668" d="M 275 1925 
Q 775 1925 1212 2000 
Q 1650 2075 1987 2200 
Q 2325 2325 2625 2625 
L 1525 2625 
Q 1250 2625 550 2600 
L 550 3025 
Q 1250 3000 1525 3000 
L 2750 3000 
Q 2825 3225 2800 3550 
Q 3125 3500 3475 3450 
Q 3325 3300 3300 3000 
L 4425 3000 
Q 4250 3175 4075 3300 
L 4425 3550 
Q 4625 3400 4800 3200 
Q 4650 3125 4500 3000 
L 4875 3000 
Q 5425 3000 5875 3025 
L 5875 2600 
Q 5450 2625 4875 2625 
L 3625 2625 
Q 4100 2225 4837 2112 
Q 5575 2000 6100 2050 
Q 5900 1800 5850 1500 
Q 5225 1550 4787 1637 
Q 4350 1725 3987 1900 
Q 3625 2075 3150 2575 
Q 2700 2000 1975 1762 
Q 1250 1525 525 1425 
Q 450 1725 275 1925 
z
M 5025 -575 
L 5025 -100 
L 3825 -100 
L 3825 -550 
L 3400 -550 
Q 3425 0 3425 475 
Q 3425 975 3400 1425 
L 5475 1425 
Q 5450 1125 5450 400 
Q 5450 -300 5475 -575 
L 5025 -575 
z
M 2400 -550 
L 2400 -100 
L 1325 -100 
L 1325 -575 
L 875 -575 
Q 900 -150 900 475 
Q 900 1100 875 1425 
L 2825 1425 
Q 2800 1025 2800 425 
Q 2800 -150 2825 -550 
L 2400 -550 
z
M 5475 5025 
Q 5450 4700 5450 4350 
Q 5450 4000 5475 3625 
L 3375 3625 
Q 3400 4000 3400 4350 
Q 3400 4725 3375 5025 
L 5475 5025 
z
M 2825 5025 
Q 2800 4700 2800 4325 
Q 2800 3975 2825 3625 
L 875 3625 
Q 900 3975 900 4325 
Q 900 4700 875 5025 
L 2825 5025 
z
M 5025 250 
L 5025 1050 
L 3825 1050 
L 3825 250 
L 5025 250 
z
M 2400 250 
L 2400 1050 
L 1325 1050 
L 1325 250 
L 2400 250 
z
M 5025 3975 
L 5025 4675 
L 3825 4675 
L 3825 3975 
L 5025 3975 
z
M 2400 3975 
L 2400 4675 
L 1325 4675 
L 1325 3975 
L 2400 3975 
z
" transform="scale(0.015625)"/>
     </defs>
     <use xlink:href="#SimHei-7f16"/>
     <use xlink:href="#SimHei-7801" transform="translate(100 0)"/>
     <use xlink:href="#SimHei-5668" transform="translate(200 0)"/>
    </g>
   </g>
   <g id="text_4">
    <!-- 未来一日收益 -->
    <g transform="translate(397.584 71.804953) scale(0.09 -0.09)">
     <defs>
      <path id="SimHei-672a" d="M 2875 4150 
Q 2875 4900 2850 5225 
L 3400 5225 
Q 3375 4925 3375 4150 
L 4475 4150 
Q 4950 4150 5375 4175 
L 5375 3725 
Q 4950 3750 4475 3750 
L 3375 3750 
L 3375 2750 
L 4850 2750 
Q 5400 2750 5875 2775 
L 5875 2325 
Q 5400 2350 4875 2350 
L 3675 2350 
Q 4125 1675 4662 1187 
Q 5200 700 6175 425 
Q 5850 275 5725 -100 
Q 5050 150 4462 650 
Q 3875 1150 3375 2050 
L 3375 300 
Q 3375 -175 3400 -575 
L 2825 -575 
Q 2875 -175 2875 300 
L 2875 2125 
Q 2275 1150 1700 650 
Q 1125 150 675 -150 
Q 575 75 225 300 
Q 650 450 1312 1000 
Q 1975 1550 2475 2350 
L 1225 2350 
Q 675 2350 375 2325 
L 375 2775 
Q 750 2750 1275 2750 
L 2875 2750 
L 2875 3750 
L 1825 3750 
Q 1225 3750 850 3725 
L 850 4175 
Q 1225 4150 1775 4150 
L 2875 4150 
z
" transform="scale(0.015625)"/>
      <path id="SimHei-6765" d="M 3450 5125 
Q 3425 4875 3425 4600 
L 3425 4300 
L 4925 4300 
Q 5225 4300 5575 4325 
L 5575 3825 
Q 5225 3875 4925 3875 
L 3425 3875 
L 3425 2425 
L 5150 2425 
Q 5525 2425 5975 2450 
L 5975 1975 
Q 5550 2000 5150 2000 
L 3850 2000 
Q 4025 1750 4275 1525 
Q 4525 1300 4812 1087 
Q 5100 875 5450 725 
Q 5800 575 6125 500 
Q 5875 275 5800 150 
Q 5725 25 5700 -75 
Q 5175 150 4837 387 
Q 4500 625 4212 900 
Q 3925 1175 3725 1425 
Q 3525 1675 3425 1900 
L 3425 475 
Q 3425 75 3450 -475 
L 2875 -475 
Q 2925 75 2925 475 
L 2925 1950 
Q 2400 1125 1825 612 
Q 1250 100 775 -175 
Q 625 50 325 275 
Q 1225 675 1775 1237 
Q 2325 1800 2425 2000 
L 1125 2000 
Q 825 2000 425 1950 
L 425 2450 
Q 825 2425 1125 2425 
L 2925 2425 
L 2925 3875 
L 1500 3875 
Q 1075 3875 775 3825 
L 775 4325 
Q 1075 4300 1475 4300 
L 2925 4300 
L 2925 4625 
Q 2875 4900 2875 5125 
L 3450 5125 
z
M 4950 3500 
Q 4700 3075 4350 2500 
Q 4125 2600 3925 2675 
Q 4325 3400 4525 3725 
Q 4750 3650 4950 3500 
z
M 1750 3700 
Q 2150 3250 2400 2750 
Q 2175 2650 1975 2525 
Q 1750 2975 1400 3425 
Q 1575 3550 1750 3700 
z
" transform="scale(0.015625)"/>
      <path id="SimHei-4e00" d="M 4875 2675 
Q 5525 2675 6050 2700 
L 6050 2050 
Q 5525 2075 4900 2075 
L 1600 2075 
Q 950 2075 350 2050 
L 350 2700 
Q 950 2675 1600 2675 
L 4875 2675 
z
" transform="scale(0.015625)"/>
      <path id="SimHei-6536" d="M 4250 5050 
Q 4125 4850 3750 4050 
L 5150 4050 
Q 5675 4050 6125 4075 
L 6125 3600 
Q 5675 3625 5300 3625 
Q 5225 2625 5025 1975 
Q 4825 1325 4575 900 
Q 4900 500 5287 275 
Q 5675 50 6200 -75 
Q 5900 -275 5800 -550 
Q 5300 -350 4950 -100 
Q 4600 150 4275 525 
Q 3800 0 2775 -625 
Q 2650 -425 2300 -225 
Q 3275 150 3950 925 
Q 3775 1325 3612 1787 
Q 3450 2250 3250 3000 
Q 2975 2450 2825 2275 
Q 2650 2400 2425 2525 
Q 2775 3025 3137 3837 
Q 3500 4650 3625 5250 
Q 3925 5125 4250 5050 
z
M 975 4275 
Q 925 3950 925 3450 
L 925 1575 
L 1775 1725 
L 1775 4425 
Q 1775 4775 1750 5150 
L 2250 5150 
Q 2225 4850 2225 4450 
L 2225 300 
Q 2225 -50 2250 -550 
L 1750 -550 
Q 1775 -25 1775 350 
L 1775 1350 
Q 625 1050 500 925 
Q 375 1125 225 1350 
Q 450 1475 450 1800 
L 450 3575 
Q 450 3925 425 4275 
L 975 4275 
z
M 3725 3150 
Q 3800 2700 3962 2212 
Q 4125 1725 4300 1375 
Q 4725 2150 4825 3625 
L 3575 3625 
Q 3400 3275 3300 3100 
L 3725 3150 
z
" transform="scale(0.015625)"/>
      <path id="SimHei-76ca" d="M 2825 2925 
Q 2425 2775 2012 2487 
Q 1600 2200 1225 1975 
L 5275 1975 
Q 5250 1575 5250 1000 
L 5250 -50 
Q 5800 -50 6175 -25 
L 6175 -525 
Q 5725 -500 5250 -500 
L 1325 -500 
Q 700 -500 250 -525 
L 250 -25 
Q 600 -50 1175 -50 
L 1175 1050 
Q 1175 1575 1150 1925 
Q 1000 1800 800 1700 
Q 650 1950 425 2125 
Q 800 2275 1312 2600 
Q 1825 2925 2325 3400 
Q 2550 3150 2825 2925 
z
M 4725 5050 
Q 4575 4900 4462 4637 
Q 4350 4375 4175 4075 
L 4625 4075 
Q 5350 4075 5900 4100 
L 5900 3625 
Q 5350 3650 4625 3650 
L 1975 3650 
Q 1350 3650 550 3625 
L 550 4100 
Q 1175 4075 1975 4075 
L 3675 4075 
Q 3775 4300 3887 4625 
Q 4000 4950 4125 5250 
L 4725 5050 
z
M 3600 -50 
L 3600 1575 
L 2800 1575 
L 2800 -50 
L 3600 -50 
z
M 4800 -50 
L 4800 1575 
L 4025 1575 
L 4025 -50 
L 4800 -50 
z
M 2375 -50 
L 2375 1575 
L 1625 1575 
L 1625 -50 
L 2375 -50 
z
M 3900 3350 
Q 4375 3150 4900 2925 
Q 5425 2700 5900 2500 
Q 5700 2300 5550 2000 
Q 5025 2300 4512 2537 
Q 4000 2775 3625 2900 
Q 3750 3075 3900 3350 
z
M 2150 5250 
Q 2375 4925 2650 4350 
Q 2425 4275 2150 4125 
Q 1950 4650 1675 5025 
Q 1875 5100 2150 5250 
z
" transform="scale(0.015625)"/>
     </defs>
     <use xlink:href="#SimHei-672a"/>
     <use xlink:href="#SimHei-6765" transform="translate(100 0)"/>
     <use xlink:href="#SimHei-4e00" transform="translate(200 0)"/>
     <use xlink:href="#SimHei-65e5" transform="translate(300 0)"/>
     <use xlink:href="#SimHei-6536" transform="translate(400 0)"/>
     <use xlink:href="#SimHei-76ca" transform="translate(500 0)"/>
    </g>
    <!-- 方向预测 -->
    <g transform="translate(406.584 81.662766) scale(0.09 -0.09)">
     <defs>
      <path id="SimHei-65b9" d="M 425 3975 
Q 825 3950 1300 3950 
L 5025 3950 
Q 5625 3950 6000 3975 
L 6000 3475 
Q 5675 3500 5100 3500 
L 2525 3500 
Q 2525 3225 2500 2500 
L 5300 2500 
Q 5250 2175 5200 1550 
L 5050 175 
Q 5000 -275 4625 -412 
Q 4250 -550 3525 -625 
Q 3500 -300 3325 -50 
Q 3900 -75 4200 0 
Q 4500 75 4575 425 
L 4725 2050 
L 2475 2050 
Q 2375 1350 2162 875 
Q 1950 400 1575 0 
Q 1200 -400 825 -700 
Q 725 -550 375 -350 
Q 700 -175 1062 200 
Q 1425 575 1662 1050 
Q 1900 1525 1962 2100 
Q 2025 2675 2025 3500 
L 1325 3500 
Q 775 3500 425 3475 
L 425 3975 
z
M 3075 4075 
Q 2850 4575 2575 5000 
Q 2800 5125 3025 5275 
Q 3300 4850 3575 4350 
Q 3325 4250 3075 4075 
z
" transform="scale(0.015625)"/>
      <path id="SimHei-5411" d="M 2025 4150 
Q 2125 4400 2187 4637 
Q 2250 4875 2300 5175 
Q 2750 5025 2925 5000 
Q 2650 4400 2550 4150 
L 5850 4150 
Q 5825 3700 5825 3275 
L 5825 225 
Q 5825 -325 5487 -412 
Q 5150 -500 4700 -525 
Q 4625 -175 4450 50 
Q 5075 25 5212 50 
Q 5350 75 5325 325 
L 5325 3700 
L 1250 3700 
L 1250 -500 
L 725 -500 
Q 725 150 750 550 
L 750 3250 
Q 725 3700 725 4150 
L 2025 4150 
z
M 4450 2825 
Q 4425 2500 4425 2175 
L 4425 1600 
Q 4425 1275 4450 900 
L 2025 900 
Q 2050 1250 2050 1600 
L 2050 2225 
Q 2050 2525 2025 2825 
L 4450 2825 
z
M 3900 1300 
L 3900 2425 
L 2550 2425 
L 2550 1300 
L 3900 1300 
z
" transform="scale(0.015625)"/>
      <path id="SimHei-9884" d="M 5200 4800 
Q 5575 4800 5950 4825 
L 5950 4400 
Q 5575 4425 5200 4425 
L 4500 4425 
Q 4425 4050 4350 3600 
L 5725 3600 
Q 5700 3225 5700 2800 
L 5700 1725 
Q 5700 1300 5725 850 
L 5250 850 
L 5250 3225 
L 3550 3225 
L 3550 800 
L 3075 800 
Q 3100 1375 3100 1725 
L 3100 2775 
Q 3100 3175 3075 3600 
L 3900 3600 
Q 4000 4150 4000 4425 
L 3725 4425 
Q 3300 4425 2850 4400 
L 2850 4825 
Q 3325 4800 3725 4800 
L 5200 4800 
z
M 2600 1775 
Q 2350 1825 2150 1825 
Q 2250 2250 2300 2450 
L 1750 2450 
L 1750 125 
Q 1725 -300 1425 -400 
Q 1125 -500 750 -500 
Q 700 -225 575 25 
Q 1125 -25 1212 37 
Q 1300 100 1300 350 
L 1300 2450 
L 1025 2450 
Q 700 2450 350 2425 
L 350 2850 
Q 700 2825 1000 2825 
L 2850 2825 
Q 2725 2325 2600 1775 
z
M 4725 2875 
Q 4625 2575 4600 2100 
Q 4575 1625 4462 1037 
Q 4350 450 3962 62 
Q 3575 -325 2925 -675 
Q 2700 -500 2475 -350 
Q 3075 -125 3437 200 
Q 3800 525 3950 937 
Q 4100 1350 4137 1850 
Q 4175 2350 4175 2925 
L 4725 2875 
z
M 1625 2900 
Q 1275 3275 800 3650 
Q 925 3775 1075 3950 
Q 1250 3825 1425 3675 
Q 1750 4150 1950 4375 
L 1400 4375 
Q 900 4375 450 4350 
L 450 4775 
Q 900 4750 1375 4750 
L 2575 4750 
L 2575 4375 
Q 2200 4100 1725 3400 
L 1950 3200 
Q 1750 3025 1625 2900 
z
M 4775 725 
Q 5725 0 6075 -325 
Q 5850 -500 5725 -650 
Q 5400 -325 5137 -87 
Q 4875 150 4525 350 
Q 4650 525 4775 725 
z
" transform="scale(0.015625)"/>
      <path id="SimHei-6d4b" d="M 4025 4725 
Q 4000 4475 4000 4000 
L 4000 2225 
Q 4000 1775 4025 1350 
L 3550 1350 
L 3550 4325 
L 2350 4325 
L 2350 1325 
L 1900 1325 
Q 1925 1775 1925 2225 
L 1925 4000 
Q 1925 4200 1900 4725 
L 4025 4725 
z
M 5900 5075 
Q 5875 4800 5875 4375 
L 5875 0 
Q 5875 -325 5650 -425 
Q 5425 -525 4975 -600 
Q 4925 -325 4775 -50 
Q 5125 -50 5262 -25 
Q 5400 0 5400 250 
L 5400 4375 
Q 5400 4775 5375 5075 
L 5900 5075 
z
M 3275 3725 
Q 3225 3400 3200 2325 
Q 3175 1250 2837 550 
Q 2500 -150 2075 -600 
Q 1850 -400 1600 -325 
Q 2200 250 2475 962 
Q 2750 1675 2762 2475 
Q 2775 3275 2725 3800 
Q 3000 3750 3275 3725 
z
M 4950 4275 
Q 4925 4000 4925 3575 
L 4925 1825 
Q 4925 1300 4950 850 
L 4450 850 
Q 4475 1150 4475 1825 
L 4475 3575 
Q 4475 4000 4450 4275 
L 4950 4275 
z
M 1700 1675 
Q 1375 1075 1112 487 
Q 850 -100 725 -400 
Q 500 -200 200 -25 
Q 475 300 762 850 
Q 1050 1400 1250 2000 
Q 1475 1825 1700 1675 
z
M 3400 1050 
Q 3800 650 4300 -125 
Q 4100 -225 3875 -450 
Q 3475 275 3025 750 
Q 3225 875 3400 1050 
z
M 600 3525 
Q 1125 3125 1500 2775 
Q 1300 2575 1150 2375 
Q 825 2775 300 3150 
Q 450 3300 600 3525 
z
M 1350 4000 
Q 950 4375 475 4675 
Q 625 4850 775 5050 
Q 1300 4700 1675 4375 
Q 1500 4250 1350 4000 
z
" transform="scale(0.015625)"/>
     </defs>
     <use xlink:href="#SimHei-65b9"/>
     <use xlink:href="#SimHei-5411" transform="translate(100 0)"/>
     <use xlink:href="#SimHei-9884" transform="translate(200 0)"/>
     <use xlink:href="#SimHei-6d4b" transform="translate(300 0)"/>
    </g>
   </g>
   <g id="text_5">
    <!-- 可选： -->
    <g transform="translate(285.8688 139.503375) scale(0.09 -0.09)">
     <defs>
      <path id="SimHei-53ef" d="M 3600 3500 
Q 3575 3175 3575 2775 
L 3575 1550 
Q 3575 1125 3600 825 
L 3075 825 
L 3075 1275 
L 1650 1275 
L 1650 600 
L 1150 600 
Q 1175 775 1175 1175 
L 1175 2775 
Q 1175 3175 1150 3500 
L 3600 3500 
z
M 5200 4675 
Q 5600 4675 6050 4700 
L 6050 4225 
Q 5650 4250 5225 4250 
L 5075 4250 
L 5075 125 
Q 5075 -325 4812 -462 
Q 4550 -600 3750 -675 
Q 3700 -350 3550 -75 
Q 4075 -100 4300 -50 
Q 4525 0 4525 225 
L 4525 4250 
L 1525 4250 
Q 875 4250 350 4225 
L 350 4700 
Q 875 4675 1500 4675 
L 5200 4675 
z
M 3075 1700 
L 3075 3075 
L 1650 3075 
L 1650 1700 
L 3075 1700 
z
" transform="scale(0.015625)"/>
      <path id="SimHei-9009" d="M 3200 4850 
Q 3025 4575 2900 4225 
L 3725 4225 
Q 3725 4725 3700 5175 
L 4275 5175 
Q 4225 4825 4225 4225 
Q 5100 4250 5475 4250 
L 5475 3825 
Q 5050 3850 4225 3850 
L 4225 2975 
L 5075 2975 
Q 5450 2975 5825 3000 
L 5825 2550 
Q 5450 2575 4675 2575 
L 4675 1200 
Q 4675 950 4950 950 
L 5250 950 
Q 5425 1050 5450 1525 
Q 5700 1375 5975 1325 
Q 5825 475 5450 475 
L 4775 475 
Q 4200 475 4200 1000 
L 4200 2575 
L 3700 2575 
Q 3700 1825 3425 1300 
Q 3150 775 2675 325 
Q 2500 500 2175 600 
Q 2800 1050 3012 1487 
Q 3225 1925 3225 2575 
Q 2475 2575 2100 2550 
L 2100 3025 
Q 2500 2975 2800 2975 
L 3725 2975 
L 3725 3850 
L 2775 3850 
Q 2650 3550 2575 3275 
Q 2300 3375 2075 3450 
Q 2450 4100 2625 5000 
Q 2875 4925 3200 4850 
z
M 1675 2875 
Q 1650 2350 1650 1925 
L 1650 575 
Q 2300 50 3725 0 
Q 5150 -50 6125 125 
Q 6000 0 5875 -450 
Q 4325 -475 3637 -425 
Q 2950 -375 2475 -237 
Q 2000 -100 1725 75 
Q 1450 250 1250 37 
Q 1050 -175 800 -500 
Q 625 -300 350 -175 
Q 625 125 1175 525 
L 1175 2475 
Q 800 2475 375 2450 
L 375 2900 
Q 850 2875 1675 2875 
z
M 1300 4850 
Q 1625 4100 1750 3725 
Q 1525 3650 1300 3550 
Q 1200 3850 800 4675 
Q 1025 4750 1300 4850 
z
" transform="scale(0.015625)"/>
      <path id="SimHei-ff1a" d="M 1200 2425 
L 2025 2425 
L 2025 1600 
L 1200 1600 
L 1200 2425 
z
M 1200 825 
L 2025 825 
L 2025 0 
L 1200 0 
L 1200 825 
z
" transform="scale(0.015625)"/>
     </defs>
     <use xlink:href="#SimHei-53ef"/>
     <use xlink:href="#SimHei-9009" transform="translate(100 0)"/>
     <use xlink:href="#SimHei-ff1a" transform="translate(200 0)"/>
    </g>
    <!-- Weather/ETT/Electricity 预训练 -->
    <g transform="translate(231.8688 149.361188) scale(0.09 -0.09)">
     <defs>
      <path id="SimHei-57" d="M 3075 4400 
L 2525 75 
L 2025 75 
L 1575 3275 
L 1525 3275 
L 1075 75 
L 575 75 
L 25 4400 
L 575 4400 
L 850 1675 
L 900 1675 
L 1275 4400 
L 1825 4400 
L 2200 1675 
L 2250 1675 
L 2525 4400 
L 3075 4400 
z
" transform="scale(0.015625)"/>
      <path id="SimHei-65" d="M 2850 1075 
Q 2800 625 2450 350 
Q 2100 75 1625 75 
Q 1025 75 637 462 
Q 250 850 250 1525 
Q 250 2200 637 2587 
Q 1025 2975 1625 2975 
Q 2150 2975 2487 2637 
Q 2825 2300 2825 1525 
L 800 1525 
Q 800 975 1037 750 
Q 1275 525 1625 525 
Q 1900 525 2075 662 
Q 2250 800 2300 1075 
L 2850 1075 
z
M 2250 1925 
Q 2200 2275 2025 2412 
Q 1850 2550 1575 2550 
Q 1325 2550 1125 2412 
Q 925 2275 825 1925 
L 2250 1925 
z
" transform="scale(0.015625)"/>
      <path id="SimHei-61" d="M 2875 125 
L 2275 125 
Q 2225 175 2200 262 
Q 2175 350 2175 475 
Q 2000 275 1750 175 
Q 1500 75 1225 75 
Q 825 75 550 275 
Q 275 475 275 850 
Q 275 1225 525 1450 
Q 775 1675 1300 1750 
Q 1650 1800 1912 1875 
Q 2175 1950 2175 2075 
Q 2175 2225 2062 2375 
Q 1950 2525 1575 2525 
Q 1275 2525 1137 2412 
Q 1000 2300 950 2100 
L 400 2100 
Q 450 2500 762 2737 
Q 1075 2975 1575 2975 
Q 2125 2975 2400 2725 
Q 2675 2475 2675 2025 
L 2675 650 
Q 2675 500 2725 375 
Q 2775 250 2875 125 
z
M 2175 1050 
L 2175 1550 
Q 2025 1500 1887 1462 
Q 1750 1425 1425 1375 
Q 1050 1325 937 1200 
Q 825 1075 825 900 
Q 825 750 937 637 
Q 1050 525 1275 525 
Q 1500 525 1762 650 
Q 2025 775 2175 1050 
z
" transform="scale(0.015625)"/>
      <path id="SimHei-74" d="M 2750 200 
Q 2625 150 2462 112 
Q 2300 75 2025 75 
Q 1575 75 1300 325 
Q 1025 575 1025 1025 
L 1025 2525 
L 175 2525 
L 175 2925 
L 1025 2925 
L 1025 3900 
L 1525 3900 
L 1525 2925 
L 2550 2925 
L 2550 2525 
L 1525 2525 
L 1525 1000 
Q 1525 800 1625 662 
Q 1725 525 2000 525 
Q 2275 525 2450 575 
Q 2625 625 2750 700 
L 2750 200 
z
" transform="scale(0.015625)"/>
      <path id="SimHei-68" d="M 2800 125 
L 2300 125 
L 2300 1925 
Q 2300 2225 2150 2400 
Q 2000 2575 1750 2575 
Q 1425 2575 1137 2237 
Q 850 1900 850 1400 
L 850 125 
L 350 125 
L 350 4400 
L 850 4400 
L 850 2400 
Q 1050 2675 1287 2825 
Q 1525 2975 1900 2975 
Q 2350 2975 2575 2725 
Q 2800 2475 2800 2100 
L 2800 125 
z
" transform="scale(0.015625)"/>
      <path id="SimHei-72" d="M 2500 2425 
Q 2025 2500 1700 2287 
Q 1375 2075 1150 1550 
L 1150 125 
L 650 125 
L 650 2925 
L 1150 2925 
L 1150 2200 
Q 1375 2600 1712 2787 
Q 2050 2975 2500 2975 
L 2500 2425 
z
" transform="scale(0.015625)"/>
      <path id="SimHei-2f" d="M 3000 4550 
L 350 -175 
L 100 -25 
L 2750 4700 
L 3000 4550 
z
" transform="scale(0.015625)"/>
      <path id="SimHei-45" d="M 2900 125 
L 350 125 
L 350 4400 
L 2775 4400 
L 2775 3925 
L 925 3925 
L 925 2600 
L 2625 2600 
L 2625 2125 
L 925 2125 
L 925 600 
L 2900 600 
L 2900 125 
z
" transform="scale(0.015625)"/>
      <path id="SimHei-6c" d="M 1825 125 
L 1325 125 
L 1325 4400 
L 1825 4400 
L 1825 125 
z
" transform="scale(0.015625)"/>
      <path id="SimHei-63" d="M 2850 1250 
Q 2850 725 2487 400 
Q 2125 75 1575 75 
Q 1025 75 625 462 
Q 225 850 225 1525 
Q 225 2200 625 2587 
Q 1025 2975 1575 2975 
Q 2125 2975 2450 2687 
Q 2775 2400 2775 2000 
L 2225 2000 
Q 2200 2300 2012 2412 
Q 1825 2525 1575 2525 
Q 1275 2525 1025 2287 
Q 775 2050 775 1525 
Q 775 1000 1025 762 
Q 1275 525 1575 525 
Q 1900 525 2100 700 
Q 2300 875 2300 1250 
L 2850 1250 
z
" transform="scale(0.015625)"/>
      <path id="SimHei-69" d="M 1800 3725 
L 1300 3725 
L 1300 4375 
L 1800 4375 
L 1800 3725 
z
M 1800 125 
L 1300 125 
L 1300 2925 
L 1800 2925 
L 1800 125 
z
" transform="scale(0.015625)"/>
      <path id="SimHei-79" d="M 2900 2925 
L 1750 -100 
Q 1650 -450 1450 -625 
Q 1250 -800 950 -800 
Q 825 -800 712 -787 
Q 600 -775 500 -725 
L 500 -225 
Q 600 -275 700 -300 
Q 800 -325 875 -325 
Q 1075 -325 1150 -262 
Q 1225 -200 1300 25 
L 200 2925 
L 750 2925 
L 1550 725 
L 1575 725 
L 2350 2925 
L 2900 2925 
z
" transform="scale(0.015625)"/>
      <path id="SimHei-8bad" d="M 1650 3300 
Q 1625 2725 1625 2225 
L 1625 675 
Q 1950 1125 2050 1275 
Q 2175 1125 2350 900 
Q 2025 500 1800 212 
Q 1575 -75 1325 -425 
Q 1150 -200 950 -50 
Q 1150 225 1150 625 
L 1150 2875 
L 975 2875 
Q 600 2875 300 2850 
L 300 3325 
Q 600 3300 975 3300 
L 1650 3300 
z
M 3425 4600 
Q 3375 4350 3387 3362 
Q 3400 2375 3337 1887 
Q 3275 1400 3087 837 
Q 2900 275 2450 -375 
Q 2225 -200 1975 -125 
Q 2550 500 2762 1362 
Q 2975 2225 2950 3337 
Q 2925 4450 2900 4675 
Q 3150 4625 3425 4600 
z
M 5875 4700 
Q 5850 4500 5850 3975 
L 5850 625 
Q 5850 125 5875 -400 
L 5400 -400 
Q 5425 125 5425 600 
L 5425 3975 
Q 5425 4500 5400 4700 
L 5875 4700 
z
M 4600 175 
L 4125 175 
Q 4150 725 4150 1150 
L 4150 3600 
Q 4150 4050 4125 4350 
L 4600 4350 
L 4600 175 
z
M 1000 5150 
Q 1650 4600 2100 4100 
Q 1875 3925 1750 3750 
Q 1050 4550 700 4800 
Q 850 4950 1000 5150 
z
" transform="scale(0.015625)"/>
      <path id="SimHei-7ec3" d="M 3300 3825 
Q 2950 3825 2400 3800 
L 2400 4250 
Q 2950 4225 3325 4225 
L 3625 4225 
Q 3875 4950 3900 5175 
Q 4200 5025 4450 4925 
Q 4350 4825 4262 4612 
Q 4175 4400 4100 4225 
L 5025 4225 
Q 5425 4225 5900 4250 
L 5900 3800 
Q 5550 3825 5025 3825 
L 3975 3825 
Q 3850 3525 3700 3150 
L 4675 3150 
Q 4650 2875 4650 2475 
L 4650 1975 
L 4975 1975 
Q 5350 1975 5800 2000 
L 5800 1550 
Q 5350 1575 4975 1575 
L 4650 1575 
L 4650 125 
Q 4650 -300 4462 -425 
Q 4275 -550 3650 -625 
Q 3625 -375 3450 -100 
Q 4075 -125 4137 -25 
Q 4200 75 4200 325 
L 4200 1575 
L 3425 1575 
Q 3250 1575 3100 1562 
Q 2950 1550 2750 1475 
Q 2650 1725 2550 1950 
Q 2800 2025 3125 2775 
Q 2950 2775 2450 2750 
L 2450 3175 
Q 3025 3150 3250 3150 
Q 3400 3525 3500 3825 
L 3300 3825 
z
M 1650 2950 
Q 1875 3300 2100 3900 
Q 2325 3725 2575 3600 
Q 2325 3275 2025 2750 
Q 1725 2225 1075 1350 
Q 1300 1400 2400 1575 
Q 2350 1300 2375 1150 
Q 1825 1100 650 825 
Q 525 1075 400 1275 
Q 625 1400 887 1737 
Q 1150 2075 1450 2575 
Q 1300 2600 1012 2562 
Q 725 2525 450 2450 
Q 350 2675 250 2925 
Q 500 3075 812 3725 
Q 1125 4375 1325 5000 
Q 1600 4825 1850 4750 
Q 1600 4375 1387 3962 
Q 1175 3550 800 2925 
Q 1375 2925 1650 2950 
z
M 2425 700 
Q 2400 425 2425 250 
Q 2000 150 1462 -25 
Q 925 -200 475 -425 
Q 400 -150 300 125 
Q 950 275 1187 337 
Q 1425 400 2425 700 
z
M 3725 875 
Q 3650 800 3287 400 
Q 2925 0 2475 -475 
Q 2300 -250 2150 -125 
Q 2425 100 2750 462 
Q 3075 825 3325 1225 
Q 3475 1050 3725 875 
z
M 5275 1225 
Q 5925 375 6200 -100 
Q 5950 -200 5750 -375 
Q 5475 175 4900 950 
Q 5075 1050 5275 1225 
z
M 4200 1975 
L 4200 2775 
L 3575 2775 
Q 3325 2250 3175 1975 
L 4200 1975 
z
" transform="scale(0.015625)"/>
     </defs>
     <use xlink:href="#SimHei-57"/>
     <use xlink:href="#SimHei-65" transform="translate(50 0)"/>
     <use xlink:href="#SimHei-61" transform="translate(100 0)"/>
     <use xlink:href="#SimHei-74" transform="translate(150 0)"/>
     <use xlink:href="#SimHei-68" transform="translate(200 0)"/>
     <use xlink:href="#SimHei-65" transform="translate(250 0)"/>
     <use xlink:href="#SimHei-72" transform="translate(300 0)"/>
     <use xlink:href="#SimHei-2f" transform="translate(350 0)"/>
     <use xlink:href="#SimHei-45" transform="translate(400 0)"/>
     <use xlink:href="#SimHei-54" transform="translate(450 0)"/>
     <use xlink:href="#SimHei-54" transform="translate(500 0)"/>
     <use xlink:href="#SimHei-2f" transform="translate(550 0)"/>
     <use xlink:href="#SimHei-45" transform="translate(600 0)"/>
     <use xlink:href="#SimHei-6c" transform="translate(650 0)"/>
     <use xlink:href="#SimHei-65" transform="translate(700 0)"/>
     <use xlink:href="#SimHei-63" transform="translate(750 0)"/>
     <use xlink:href="#SimHei-74" transform="translate(800 0)"/>
     <use xlink:href="#SimHei-72" transform="translate(850 0)"/>
     <use xlink:href="#SimHei-69" transform="translate(900 0)"/>
     <use xlink:href="#SimHei-63" transform="translate(950 0)"/>
     <use xlink:href="#SimHei-69" transform="translate(1000 0)"/>
     <use xlink:href="#SimHei-74" transform="translate(1050 0)"/>
     <use xlink:href="#SimHei-79" transform="translate(1100 0)"/>
     <use xlink:href="#SimHei-20" transform="translate(1150 0)"/>
     <use xlink:href="#SimHei-9884" transform="translate(1200 0)"/>
     <use xlink:href="#SimHei-8bad" transform="translate(1300 0)"/>
     <use xlink:href="#SimHei-7ec3" transform="translate(1400 0)"/>
    </g>
   </g>
   <g id="patch_7">
    <path d="M 112.317446 73.728 
Q 122.593191 73.728 131.191884 73.728 
" style="fill: none; stroke: #374151; stroke-width: 1.5; stroke-linecap: round"/>
    <path d="M 126.391884 71.328 
L 131.191884 73.728 
L 126.391884 76.128 
" style="fill: none; stroke: #374151; stroke-width: 1.5; stroke-linecap: round"/>
   </g>
   <g id="patch_8">
    <path d="M 230.167046 73.728 
Q 240.442791 73.728 249.041484 73.728 
" style="fill: none; stroke: #374151; stroke-width: 1.5; stroke-linecap: round"/>
    <path d="M 244.241484 71.328 
L 249.041484 73.728 
L 244.241484 76.128 
" style="fill: none; stroke: #374151; stroke-width: 1.5; stroke-linecap: round"/>
   </g>
   <g id="patch_9">
    <path d="M 348.016646 73.728 
Q 358.292391 73.728 366.891084 73.728 
" style="fill: none; stroke: #374151; stroke-width: 1.5; stroke-linecap: round"/>
    <path d="M 362.091084 71.328 
L 366.891084 73.728 
L 362.091084 76.128 
" style="fill: none; stroke: #374151; stroke-width: 1.5; stroke-linecap: round"/>
   </g>
   <g id="patch_10">
    <path d="M 299.3688 121.62273 
Q 299.3688 109.368961 299.3688 98.792242 
" style="fill: none; stroke: #374151; stroke-width: 1.5; stroke-linecap: round"/>
    <path d="M 296.9688 103.592242 
L 299.3688 98.792242 
L 301.7688 103.592242 
" style="fill: none; stroke: #374151; stroke-width: 1.5; stroke-linecap: round"/>
   </g>
   <g id="text_6">
    <!-- 大规模数据下的股票方向预测实验设置 -->
    <g transform="translate(17.0208 19.08) scale(0.11 -0.11)">
     <defs>
      <path id="SimHei-5927" d="M 2900 3400 
Q 2925 4275 2912 4575 
Q 2900 4875 2875 5150 
Q 3175 5100 3550 5075 
Q 3475 4825 3437 4350 
Q 3400 3875 3400 3400 
L 4675 3400 
Q 5350 3400 5925 3450 
L 5925 2900 
Q 5425 2925 4900 2925 
L 3425 2925 
Q 3525 2500 3775 2062 
Q 4025 1625 4287 1287 
Q 4550 950 5012 575 
Q 5475 200 6025 -50 
Q 5825 -200 5625 -550 
Q 5175 -300 4737 75 
Q 4300 450 3862 1062 
Q 3425 1675 3200 2200 
Q 3000 1650 2775 1287 
Q 2550 925 2287 625 
Q 2025 325 1612 25 
Q 1200 -275 675 -575 
Q 475 -275 225 -50 
Q 750 125 1262 450 
Q 1775 775 2100 1187 
Q 2425 1600 2625 2050 
Q 2825 2500 2875 2925 
L 1500 2925 
Q 900 2925 550 2900 
L 550 3450 
Q 900 3425 1500 3400 
L 2900 3400 
z
" transform="scale(0.015625)"/>
      <path id="SimHei-89c4" d="M 1875 1725 
Q 2475 1275 3000 825 
Q 2800 600 2625 375 
Q 2275 850 1750 1250 
Q 1575 850 1312 387 
Q 1050 -75 700 -525 
Q 500 -275 200 -150 
Q 525 75 787 450 
Q 1050 825 1237 1287 
Q 1425 1750 1450 2250 
L 1225 2250 
Q 850 2250 400 2225 
L 400 2675 
Q 850 2650 1250 2650 
L 1475 2650 
L 1475 3725 
Q 975 3725 650 3700 
L 650 4150 
Q 1000 4125 1475 4125 
Q 1475 4975 1450 5300 
Q 1725 5275 2050 5225 
Q 1950 5075 1937 4737 
Q 1925 4400 1925 4125 
Q 2475 4125 2700 4150 
L 2700 3700 
Q 2400 3725 1925 3725 
L 1925 2650 
Q 2600 2650 2825 2675 
L 2825 2225 
Q 2600 2250 1900 2250 
Q 1900 2050 1875 1725 
z
M 4675 3700 
Q 4600 3400 4550 2775 
Q 4500 2150 4425 1675 
L 4850 1675 
Q 4825 1425 4825 1000 
L 4825 300 
Q 4825 -25 4987 -75 
Q 5150 -125 5325 -112 
Q 5500 -100 5562 25 
Q 5625 150 5700 675 
Q 5900 500 6200 400 
Q 6000 -275 5862 -412 
Q 5725 -550 5400 -550 
L 4925 -550 
Q 4375 -550 4375 25 
L 4375 1550 
Q 4275 1175 4112 875 
Q 3950 575 3562 200 
Q 3175 -175 2375 -625 
Q 2225 -400 1950 -225 
Q 2725 100 3187 525 
Q 3650 950 3837 1375 
Q 4025 1800 4075 2462 
Q 4125 3125 4125 3800 
Q 4450 3725 4675 3700 
z
M 5700 4875 
Q 5675 4475 5675 3275 
Q 5675 2075 5700 1575 
L 5225 1575 
L 5225 4450 
L 3450 4450 
L 3450 1550 
L 3000 1550 
Q 3025 2125 3025 3275 
Q 3025 4425 3000 4875 
L 5700 4875 
z
" transform="scale(0.015625)"/>
      <path id="SimHei-6a21" d="M 5700 3675 
Q 5675 3400 5675 2725 
Q 5675 2050 5700 1725 
L 4375 1725 
Q 4350 1450 4325 1200 
L 5225 1200 
Q 5750 1200 6025 1225 
L 6025 825 
Q 5725 850 5225 850 
L 4700 850 
Q 5075 375 5437 137 
Q 5800 -100 6200 -200 
Q 5975 -375 5850 -625 
Q 5275 -400 4862 25 
Q 4450 450 4300 775 
L 4225 775 
Q 4000 275 3537 -62 
Q 3075 -400 2475 -625 
Q 2350 -375 2125 -200 
Q 2775 -75 3200 200 
Q 3625 475 3775 850 
L 3325 850 
Q 2800 850 2400 825 
L 2400 1225 
Q 2800 1200 3350 1200 
L 3875 1200 
Q 3925 1475 3925 1725 
L 2750 1725 
Q 2775 2075 2775 2700 
Q 2775 3350 2750 3675 
L 5700 3675 
z
M 2175 1650 
Q 2025 1975 1675 2525 
L 1675 300 
Q 1675 -300 1700 -550 
L 1175 -550 
Q 1200 -275 1200 250 
L 1200 2225 
Q 1125 2000 962 1712 
Q 800 1425 600 1050 
Q 450 1275 200 1425 
Q 600 1825 850 2425 
Q 1100 3025 1175 3425 
L 950 3425 
Q 700 3425 400 3400 
L 400 3825 
Q 675 3800 825 3800 
L 1200 3800 
L 1200 4350 
Q 1200 4775 1175 5150 
L 1700 5150 
Q 1675 4825 1675 4425 
L 1675 3800 
Q 2075 3800 2375 3825 
L 2375 3400 
Q 2050 3425 1675 3425 
L 1675 2575 
Q 1850 2675 2000 2775 
Q 2150 2525 2287 2325 
Q 2425 2125 2550 1925 
Q 2325 1775 2175 1650 
z
M 3375 4300 
L 3175 4300 
Q 2700 4300 2425 4275 
L 2425 4675 
Q 2700 4650 3150 4650 
L 3375 4650 
Q 3375 5000 3350 5225 
L 3825 5225 
Q 3800 5000 3800 4650 
L 4550 4650 
Q 4550 4975 4525 5200 
L 5025 5200 
Q 5000 4925 5000 4650 
L 5375 4650 
Q 5650 4650 5950 4675 
L 5950 4275 
Q 5650 4300 5375 4300 
L 5000 4300 
L 5000 3850 
L 4550 3850 
L 4550 4300 
L 3800 4300 
L 3800 3875 
L 3375 3875 
L 3375 4300 
z
M 5275 2075 
L 5275 2525 
L 3200 2525 
L 3200 2075 
L 5275 2075 
z
M 5275 2875 
L 5275 3325 
L 3200 3325 
L 3200 2875 
L 5275 2875 
z
" transform="scale(0.015625)"/>
      <path id="SimHei-6570" d="M 4525 4925 
Q 4475 4800 4400 4587 
Q 4325 4375 4175 3825 
L 5325 3825 
Q 5575 3825 5925 3850 
L 5925 3400 
Q 5650 3425 5500 3425 
Q 5500 3025 5362 2162 
Q 5225 1300 4875 675 
Q 5125 375 5437 137 
Q 5750 -100 6025 -200 
Q 5725 -425 5625 -625 
Q 5325 -450 5075 -225 
Q 4825 0 4575 325 
Q 4300 25 3987 -187 
Q 3675 -400 3200 -650 
Q 3075 -425 2850 -300 
Q 3225 -150 3650 125 
Q 4075 400 4300 675 
Q 4125 1025 3962 1425 
Q 3800 1825 3675 2475 
Q 3600 2275 3425 1950 
Q 3250 2050 3000 2150 
Q 3400 2850 3650 3675 
Q 3900 4500 3975 5100 
Q 4275 4975 4525 4925 
z
M 2100 2250 
Q 2000 2150 1875 1925 
L 3250 1925 
Q 3100 1300 2725 675 
Q 3125 525 3350 400 
Q 3225 225 3125 25 
Q 2900 175 2450 325 
Q 1950 -225 725 -650 
Q 600 -375 400 -275 
Q 1575 0 2000 475 
Q 1300 650 850 775 
Q 1000 1000 1250 1525 
Q 1000 1525 425 1500 
L 425 1950 
Q 900 1925 1400 1925 
Q 1500 2150 1550 2425 
Q 1825 2325 2100 2250 
z
M 1775 3950 
Q 1775 4550 1750 5100 
L 2250 5100 
Q 2225 4575 2225 3950 
Q 3075 3950 3425 3975 
L 3425 3525 
Q 3075 3550 2225 3550 
Q 2225 2825 2250 2425 
L 1750 2425 
Q 1775 2775 1775 3300 
Q 1650 3100 1300 2787 
Q 950 2475 650 2300 
Q 525 2525 275 2625 
Q 500 2700 875 2975 
Q 1250 3250 1450 3550 
Q 950 3550 500 3525 
L 500 3975 
Q 925 3950 1775 3950 
z
M 3975 3175 
Q 4200 1700 4600 1125 
Q 4850 1700 4937 2287 
Q 5025 2875 5050 3425 
L 4075 3425 
L 3975 3175 
z
M 1450 1000 
Q 1750 925 2275 800 
Q 2475 1050 2650 1525 
L 1725 1525 
Q 1600 1275 1450 1000 
z
M 3325 4825 
Q 3200 4625 3125 4450 
Q 3050 4275 2925 4025 
Q 2725 4125 2525 4175 
Q 2725 4500 2900 5000 
Q 3150 4875 3325 4825 
z
M 2575 3375 
Q 2900 3050 3200 2725 
Q 3050 2600 2875 2425 
Q 2525 2850 2300 3100 
Q 2450 3225 2575 3375 
z
M 925 5000 
Q 1275 4650 1500 4300 
L 1125 4075 
Q 950 4425 600 4725 
Q 825 4875 925 5000 
z
" transform="scale(0.015625)"/>
      <path id="SimHei-636e" d="M 5750 4775 
Q 5725 4550 5725 4225 
L 5725 3900 
Q 5725 3450 5750 3250 
L 3100 3250 
L 3100 2500 
L 4250 2500 
Q 4250 2725 4225 3175 
L 4700 3175 
Q 4675 2775 4675 2500 
L 5350 2500 
Q 5800 2500 6100 2525 
L 6100 2075 
Q 5800 2100 5375 2100 
L 4675 2100 
L 4675 1425 
L 5775 1425 
Q 5750 950 5750 800 
L 5750 175 
Q 5750 -225 5775 -575 
L 5325 -575 
L 5325 -225 
L 3675 -225 
L 3675 -600 
L 3225 -600 
Q 3250 -325 3250 100 
L 3250 825 
Q 3250 1075 3225 1425 
L 4250 1425 
L 4250 2100 
L 3075 2100 
Q 3050 1375 2887 737 
Q 2725 100 2425 -475 
Q 2200 -325 1950 -250 
Q 2250 150 2387 600 
Q 2525 1050 2600 1562 
Q 2675 2075 2675 2625 
L 2675 3575 
Q 2675 3975 2650 4775 
L 5750 4775 
z
M 1275 4425 
Q 1275 4775 1250 5075 
L 1750 5075 
Q 1725 4800 1725 4425 
L 1725 3775 
Q 1975 3775 2500 3800 
L 2500 3375 
Q 1975 3400 1725 3400 
L 1725 2450 
Q 2050 2625 2400 2850 
Q 2425 2650 2525 2475 
Q 2050 2200 1725 2000 
L 1725 175 
Q 1725 -300 1487 -400 
Q 1250 -500 775 -575 
Q 725 -325 600 -50 
Q 1025 -50 1150 -12 
Q 1275 25 1275 325 
L 1275 1800 
Q 900 1600 525 1325 
Q 450 1525 275 1800 
Q 775 1975 1275 2250 
L 1275 3400 
Q 800 3400 350 3375 
L 350 3800 
Q 800 3775 1275 3775 
L 1275 4425 
z
M 5300 3625 
L 5300 4400 
L 3100 4400 
L 3100 3625 
L 5300 3625 
z
M 5325 150 
L 5325 1075 
L 3675 1075 
L 3675 150 
L 5325 150 
z
" transform="scale(0.015625)"/>
      <path id="SimHei-4e0b" d="M 5000 4700 
Q 5475 4700 5975 4725 
L 5975 4200 
Q 5425 4225 5000 4225 
L 3275 4225 
L 3275 375 
Q 3275 50 3300 -450 
L 2725 -450 
Q 2750 0 2750 375 
L 2750 4225 
L 1375 4225 
Q 875 4225 400 4200 
L 400 4725 
Q 875 4700 1375 4700 
L 5000 4700 
z
M 5650 1400 
Q 5400 1225 5200 1000 
Q 4800 1525 3650 2575 
L 4025 2950 
Q 4700 2400 5650 1400 
z
" transform="scale(0.015625)"/>
      <path id="SimHei-7684" d="M 2100 4975 
Q 1975 4750 1750 3950 
L 2875 3950 
Q 2850 3525 2850 2875 
L 2850 675 
Q 2850 300 2875 -400 
L 2375 -400 
L 2375 100 
L 1100 100 
L 1100 -450 
L 600 -450 
Q 625 350 625 550 
L 625 2850 
Q 625 3525 600 3950 
L 1325 3950 
Q 1450 4525 1525 5150 
Q 1875 5025 2100 4975 
z
M 5825 3075 
Q 5800 1550 5700 175 
Q 5650 -275 5225 -425 
Q 4800 -575 4275 -625 
Q 4250 -350 4050 -50 
Q 4550 -75 4837 -25 
Q 5125 25 5200 200 
Q 5275 375 5312 1225 
Q 5350 2075 5375 3600 
L 3925 3600 
Q 3725 3125 3350 2475 
Q 3175 2650 2925 2750 
Q 3150 3050 3350 3475 
Q 3550 3900 3700 4400 
Q 3850 4900 3875 5175 
Q 4225 5025 4475 4950 
Q 4350 4750 4262 4512 
Q 4175 4275 4075 4050 
L 5850 4050 
Q 5825 3525 5825 3075 
z
M 2375 525 
L 2375 1850 
L 1100 1850 
L 1100 525 
L 2375 525 
z
M 2375 2275 
L 2375 3525 
L 1100 3525 
L 1100 2275 
L 2375 2275 
z
M 4350 2050 
Q 4500 1750 4700 1275 
Q 4525 1200 4225 1025 
Q 4050 1500 3900 1837 
Q 3750 2175 3600 2400 
Q 3775 2500 4050 2650 
L 4350 2050 
z
" transform="scale(0.015625)"/>
      <path id="SimHei-5b9e" d="M 4125 3500 
Q 4050 3200 4000 2675 
Q 3950 2150 3850 1550 
L 5025 1550 
Q 5475 1550 5975 1575 
L 5975 1100 
Q 5450 1125 5000 1125 
L 3725 1125 
Q 3500 625 3050 250 
Q 2600 -125 2000 -337 
Q 1400 -550 925 -675 
Q 825 -375 500 -200 
Q 1225 -125 2050 212 
Q 2875 550 3200 1125 
L 1425 1125 
Q 975 1125 425 1100 
L 425 1575 
Q 1000 1550 1425 1550 
L 3375 1550 
Q 3450 1975 3487 2462 
Q 3525 2950 3500 3650 
Q 3800 3550 4125 3500 
z
M 3250 5250 
Q 3450 4850 3600 4375 
L 5775 4375 
Q 5750 4100 5750 3825 
Q 5750 3575 5775 3275 
L 5200 3275 
L 5200 3975 
L 1225 3975 
L 1225 3225 
L 675 3225 
Q 700 3525 700 3800 
Q 700 4100 675 4375 
L 2975 4375 
Q 2900 4675 2700 5075 
Q 2900 5150 3250 5250 
z
M 4000 825 
Q 4550 525 5050 262 
Q 5550 0 5925 -225 
Q 5750 -425 5550 -650 
Q 5100 -325 4575 -37 
Q 4050 250 3675 400 
Q 3875 650 4000 825 
z
M 1175 2750 
Q 1600 2550 2350 2050 
Q 2250 1900 2050 1650 
Q 1350 2175 925 2350 
Q 1075 2500 1175 2750 
z
M 3150 2825 
Q 2975 2625 2850 2425 
Q 2050 3000 1675 3125 
Q 1800 3300 1950 3525 
L 3150 2825 
z
" transform="scale(0.015625)"/>
      <path id="SimHei-9a8c" d="M 2300 4725 
Q 2250 4500 2225 4075 
L 2050 2125 
L 2525 2125 
Q 2500 1925 2475 1450 
L 2375 75 
Q 2375 -450 2075 -525 
Q 1775 -600 1250 -675 
Q 1175 -325 1050 -100 
Q 1575 -100 1737 -87 
Q 1900 -75 1950 150 
L 2025 1700 
L 550 1700 
Q 575 2175 587 2737 
Q 600 3300 600 3800 
L 1100 3800 
Q 1050 3525 1025 3087 
Q 1000 2650 1000 2125 
L 1625 2125 
L 1800 4325 
L 1125 4325 
Q 725 4325 350 4300 
L 350 4750 
Q 725 4725 1125 4725 
L 2300 4725 
z
M 4325 4875 
Q 4725 4125 5150 3775 
Q 5575 3425 6150 3225 
Q 5925 3025 5800 2725 
Q 5450 2925 5125 3200 
L 5125 2775 
Q 4800 2800 4200 2800 
Q 3600 2800 3225 2775 
L 3225 3175 
Q 3075 2975 2800 2650 
Q 2575 2875 2325 3000 
Q 2725 3275 2937 3550 
Q 3150 3825 3312 4125 
Q 3475 4425 3587 4675 
Q 3700 4925 3775 5225 
Q 4100 5150 4450 5075 
L 4325 4875 
z
M 5600 2150 
Q 5475 2000 5400 1737 
Q 5325 1475 5162 912 
Q 5000 350 4900 25 
L 5250 25 
Q 5425 25 5800 50 
L 5800 -400 
Q 5475 -375 5250 -375 
L 3325 -375 
Q 2875 -375 2675 -400 
L 2675 50 
Q 2975 25 3350 25 
L 4475 25 
Q 4675 575 4800 1150 
L 5050 2300 
Q 5250 2225 5600 2150 
z
M 5100 3225 
Q 4800 3450 4550 3775 
Q 4300 4100 4050 4600 
Q 3850 4200 3687 3912 
Q 3525 3625 3250 3225 
L 5100 3225 
z
M 3250 2175 
Q 3350 1825 3462 1375 
Q 3575 925 3675 550 
Q 3450 525 3250 425 
Q 3175 900 3087 1225 
Q 3000 1550 2850 2050 
Q 3050 2125 3250 2175 
z
M 1775 1125 
Q 1750 950 1725 700 
Q 1350 625 1112 575 
Q 875 525 375 375 
Q 300 650 200 925 
Q 550 950 925 1000 
Q 1300 1050 1775 1125 
z
M 4300 1650 
Q 4350 1325 4425 825 
L 4025 725 
Q 3925 1275 3875 1562 
Q 3825 1850 3750 2225 
Q 3975 2275 4200 2300 
L 4300 1650 
z
" transform="scale(0.015625)"/>
      <path id="SimHei-8bbe" d="M 2275 2525 
Q 2675 2500 3175 2500 
L 5425 2500 
Q 5275 2050 5012 1512 
Q 4750 975 4300 450 
Q 5100 -75 6150 -100 
Q 5950 -325 5850 -625 
Q 4775 -400 3925 150 
Q 3600 -50 3150 -287 
Q 2700 -525 2175 -675 
Q 2075 -475 1800 -300 
Q 2350 -200 2837 25 
Q 3325 250 3575 475 
Q 3025 1050 2675 2100 
L 2275 2100 
L 2275 2525 
z
M 4825 2775 
Q 4400 2775 4375 3125 
L 4375 4525 
L 3275 4525 
Q 3275 3825 3112 3425 
Q 2950 3025 2425 2600 
Q 2325 2775 2025 2900 
Q 2650 3325 2737 3875 
Q 2825 4425 2800 4925 
L 4900 4925 
Q 4875 4625 4875 4175 
L 4875 3500 
Q 4875 3300 5012 3262 
Q 5150 3225 5400 3237 
Q 5650 3250 5975 3275 
Q 5925 3025 5975 2775 
L 4825 2775 
z
M 1650 3225 
Q 1625 2775 1625 2225 
L 1625 700 
Q 1950 1000 2175 1300 
Q 2250 1050 2425 775 
Q 2100 475 1825 200 
Q 1550 -75 1325 -400 
Q 1150 -125 950 25 
Q 1150 225 1150 600 
L 1150 2800 
Q 625 2800 275 2775 
L 275 3250 
Q 600 3225 950 3225 
L 1650 3225 
z
M 3950 800 
Q 4450 1300 4725 2100 
L 3175 2100 
Q 3350 1325 3950 800 
z
M 1025 5175 
Q 1425 4850 2000 4150 
Q 1800 4025 1600 3825 
Q 1175 4400 700 4850 
Q 850 4950 1025 5175 
z
" transform="scale(0.015625)"/>
      <path id="SimHei-7f6e" d="M 3600 3650 
Q 3525 3475 3475 3325 
L 4750 3325 
Q 5100 3325 5675 3350 
L 5675 2925 
Q 5125 2950 4750 2950 
L 3400 2950 
L 3350 2600 
L 5000 2600 
Q 4975 1975 4975 1550 
L 4975 -50 
Q 5575 -50 6025 -25 
L 6025 -400 
Q 5475 -375 5000 -375 
L 1400 -375 
Q 900 -375 400 -400 
L 400 -25 
Q 925 -50 1450 -50 
L 1450 1550 
Q 1450 1975 1425 2600 
L 2875 2600 
L 2925 2950 
L 1600 2950 
Q 1150 2950 650 2925 
L 650 3350 
Q 1150 3325 1600 3325 
L 2975 3325 
Q 3000 3525 3000 3700 
Q 3250 3650 3600 3650 
z
M 5575 4950 
Q 5550 4600 5550 4300 
Q 5550 4000 5575 3775 
L 900 3775 
Q 925 4075 925 4325 
Q 925 4600 900 4950 
L 5575 4950 
z
M 4575 1900 
L 4575 2250 
L 1850 2250 
L 1850 1900 
L 4575 1900 
z
M 4575 1250 
L 4575 1575 
L 1850 1575 
L 1850 1250 
L 4575 1250 
z
M 4575 -50 
L 4575 275 
L 1850 275 
L 1850 -50 
L 4575 -50 
z
M 4575 625 
L 4575 875 
L 1850 875 
L 1850 625 
L 4575 625 
z
M 3700 4100 
L 3700 4625 
L 2700 4625 
L 2700 4100 
L 3700 4100 
z
M 5075 4100 
L 5075 4625 
L 4100 4625 
L 4100 4100 
L 5075 4100 
z
M 2350 4100 
L 2350 4625 
L 1400 4625 
L 1400 4100 
L 2350 4100 
z
" transform="scale(0.015625)"/>
     </defs>
     <use xlink:href="#SimHei-5927"/>
     <use xlink:href="#SimHei-89c4" transform="translate(100 0)"/>
     <use xlink:href="#SimHei-6a21" transform="translate(200 0)"/>
     <use xlink:href="#SimHei-6570" transform="translate(300 0)"/>
     <use xlink:href="#SimHei-636e" transform="translate(400 0)"/>
     <use xlink:href="#SimHei-4e0b" transform="translate(500 0)"/>
     <use xlink:href="#SimHei-7684" transform="translate(600 0)"/>
     <use xlink:href="#SimHei-80a1" transform="translate(700 0)"/>
     <use xlink:href="#SimHei-7968" transform="translate(800 0)"/>
     <use xlink:href="#SimHei-65b9" transform="translate(900 0)"/>
     <use xlink:href="#SimHei-5411" transform="translate(1000 0)"/>
     <use xlink:href="#SimHei-9884" transform="translate(1100 0)"/>
     <use xlink:href="#SimHei-6d4b" transform="translate(1200 0)"/>
     <use xlink:href="#SimHei-5b9e" transform="translate(1300 0)"/>
     <use xlink:href="#SimHei-9a8c" transform="translate(1400 0)"/>
     <use xlink:href="#SimHei-8bbe" transform="translate(1500 0)"/>
     <use xlink:href="#SimHei-7f6e" transform="translate(1600 0)"/>
    </g>
   </g>
   <g id="text_7">
    <!-- 主要指标：方向准确率、二分类 F1、AUC -->
    <g style="fill: #6b7280" transform="translate(373.0248 142.632) scale(0.09 -0.09)">
     <defs>
      <path id="SimHei-4e3b" d="M 4750 3850 
Q 5150 3850 5750 3875 
L 5750 3400 
Q 5150 3425 4750 3425 
L 3425 3425 
L 3425 2175 
L 4425 2175 
Q 4825 2175 5375 2200 
L 5375 1725 
Q 4825 1750 4425 1750 
L 3425 1750 
L 3425 150 
L 5000 150 
Q 5450 150 6050 175 
L 6050 -300 
Q 5450 -275 5000 -275 
L 350 -275 
L 350 200 
Q 950 150 1425 150 
L 2900 150 
L 2900 1750 
L 1925 1750 
Q 1525 1750 975 1725 
L 975 2200 
Q 1575 2175 1925 2175 
L 2900 2175 
L 2900 3425 
L 1650 3425 
Q 1125 3425 625 3400 
L 625 3875 
Q 1175 3850 1675 3850 
L 4750 3850 
z
M 3175 3900 
Q 2875 4350 2400 4875 
Q 2650 5050 2800 5200 
Q 3325 4600 3625 4175 
Q 3475 4100 3175 3900 
z
" transform="scale(0.015625)"/>
      <path id="SimHei-8981" d="M 5100 5000 
Q 5475 5000 5950 5025 
L 5950 4600 
Q 5475 4625 5100 4625 
L 4100 4625 
L 4100 3975 
L 5500 3975 
Q 5475 3550 5475 3175 
Q 5475 2800 5500 2400 
L 2850 2400 
Q 3125 2225 3275 2125 
Q 3050 1975 2950 1850 
L 5300 1850 
Q 5700 1850 6150 1900 
L 6150 1425 
Q 5700 1450 5275 1450 
L 4550 1450 
Q 4300 1025 3875 525 
Q 5000 225 6000 -125 
Q 5750 -300 5600 -550 
Q 4650 -125 3500 200 
Q 3150 -50 2612 -250 
Q 2075 -450 1587 -525 
Q 1100 -600 700 -650 
Q 625 -325 375 -125 
Q 850 -150 1375 -100 
Q 1900 -50 2325 87 
Q 2750 225 3000 375 
Q 2175 575 1375 725 
Q 1750 1100 2075 1450 
L 1025 1450 
Q 600 1450 200 1425 
L 200 1875 
Q 700 1850 1025 1850 
L 2350 1850 
Q 2600 2150 2750 2400 
L 900 2400 
Q 925 2800 925 3175 
Q 925 3550 900 3975 
L 2275 3975 
L 2275 4625 
L 1300 4625 
Q 875 4625 400 4600 
L 400 5025 
Q 875 5000 1275 5000 
L 5100 5000 
z
M 2225 975 
Q 2625 900 3400 675 
Q 3700 975 4025 1450 
L 2675 1450 
Q 2450 1225 2225 975 
z
M 3650 2775 
L 3650 3575 
L 2750 3575 
L 2750 2775 
L 3650 2775 
z
M 5000 2775 
L 5000 3575 
L 4100 3575 
L 4100 2775 
L 5000 2775 
z
M 2275 2775 
L 2275 3575 
L 1400 3575 
L 1400 2775 
L 2275 2775 
z
M 3650 3975 
L 3650 4625 
L 2750 4625 
L 2750 3975 
L 3650 3975 
z
" transform="scale(0.015625)"/>
      <path id="SimHei-6307" d="M 5625 2225 
Q 5600 1925 5600 1350 
L 5600 300 
Q 5600 -225 5625 -525 
L 5125 -525 
L 5125 -125 
L 3300 -125 
L 3300 -625 
L 2800 -625 
Q 2825 -300 2825 300 
L 2825 1350 
Q 2825 1925 2800 2225 
L 5625 2225 
z
M 500 25 
Q 1075 -25 1175 37 
Q 1275 100 1275 275 
L 1275 1675 
Q 1050 1600 925 1537 
Q 800 1475 475 1275 
Q 400 1525 225 1800 
Q 625 1900 825 1975 
Q 1025 2050 1275 2125 
L 1275 3300 
L 1100 3300 
Q 775 3300 450 3275 
L 450 3725 
Q 750 3700 1100 3700 
L 1275 3700 
L 1275 4450 
Q 1275 4800 1250 5125 
L 1775 5125 
Q 1750 4850 1750 4450 
L 1750 3700 
Q 2075 3700 2425 3725 
L 2425 3275 
Q 2050 3300 1750 3300 
L 1750 2325 
Q 1850 2350 2025 2425 
L 2375 2575 
Q 2350 2300 2375 2100 
Q 2225 2050 2062 1987 
Q 1900 1925 1750 1850 
L 1750 100 
Q 1725 -200 1575 -337 
Q 1425 -475 675 -525 
Q 625 -250 500 25 
z
M 3325 5025 
Q 3300 4675 3300 4125 
Q 4125 4275 4512 4412 
Q 4900 4550 5225 4725 
Q 5325 4475 5575 4250 
Q 5450 4225 5237 4175 
Q 5025 4125 4725 4050 
Q 4425 3975 4037 3887 
Q 3650 3800 3300 3725 
L 3300 3175 
Q 3275 2925 3700 2925 
L 4925 2925 
Q 5300 2925 5387 3087 
Q 5475 3250 5550 3600 
Q 5750 3400 6050 3300 
Q 5825 2725 5700 2637 
Q 5575 2550 5275 2525 
L 3350 2525 
Q 3050 2525 2937 2687 
Q 2825 2850 2825 2975 
L 2825 4125 
Q 2825 4775 2800 5025 
L 3325 5025 
z
M 5125 275 
L 5125 875 
L 3300 875 
L 3300 275 
L 5125 275 
z
M 5125 1250 
L 5125 1825 
L 3300 1825 
L 3300 1250 
L 5125 1250 
z
" transform="scale(0.015625)"/>
      <path id="SimHei-6807" d="M 1275 4400 
Q 1275 4800 1250 5175 
L 1750 5175 
Q 1725 4825 1725 4400 
L 1725 3800 
Q 2125 3800 2575 3825 
L 2575 3350 
Q 2125 3375 1725 3375 
L 1725 2525 
Q 1900 2650 2075 2800 
Q 2400 2275 2650 1775 
Q 2375 1650 2175 1500 
Q 2025 2000 1725 2425 
L 1725 475 
Q 1725 -50 1750 -575 
L 1250 -575 
Q 1275 -25 1275 475 
L 1275 2100 
Q 1025 1400 500 750 
Q 350 950 125 1125 
Q 550 1550 812 2187 
Q 1075 2825 1150 3375 
Q 675 3375 325 3325 
L 325 3825 
Q 800 3800 1275 3800 
L 1275 4400 
z
M 5175 3125 
Q 5675 3125 6050 3150 
L 6050 2675 
Q 5675 2700 5275 2700 
L 4500 2700 
L 4500 175 
Q 4500 -225 4275 -350 
Q 4050 -475 3475 -550 
Q 3425 -250 3275 25 
Q 3775 25 3900 62 
Q 4025 100 4025 350 
L 4025 2700 
L 3400 2700 
Q 2775 2700 2500 2650 
L 2500 3150 
Q 2825 3125 3400 3125 
L 5175 3125 
z
M 4900 4775 
Q 5425 4775 5750 4800 
L 5750 4300 
Q 5275 4350 4750 4350 
L 3525 4350 
Q 3125 4350 2750 4300 
L 2750 4800 
Q 3100 4775 3525 4775 
L 4900 4775 
z
M 5275 2025 
Q 5825 1175 6200 500 
Q 5925 375 5650 200 
Q 5375 925 4825 1725 
Q 5075 1850 5275 2025 
z
M 3600 1775 
Q 3500 1625 3225 975 
Q 2950 325 2800 50 
Q 2575 175 2300 275 
Q 2625 775 2787 1187 
Q 2950 1600 3050 2000 
Q 3325 1875 3600 1775 
z
" transform="scale(0.015625)"/>
      <path id="SimHei-51c6" d="M 1600 2775 
Q 1900 3050 2275 3787 
Q 2650 4525 2800 5175 
Q 3075 5050 3400 4950 
Q 3250 4775 3000 4100 
L 4825 4100 
Q 5400 4100 5875 4125 
L 5875 3675 
Q 5375 3700 4825 3700 
L 4525 3700 
L 4525 2850 
Q 5250 2850 5700 2875 
L 5700 2425 
Q 5250 2450 4525 2450 
L 4525 1600 
Q 5275 1600 5700 1625 
L 5700 1200 
Q 5275 1225 4525 1225 
L 4525 375 
Q 5575 375 6050 400 
L 6050 -100 
Q 5575 -75 4975 -75 
L 2950 -75 
L 2950 -600 
L 2425 -600 
Q 2450 -150 2450 675 
L 2450 3050 
Q 2300 2775 2075 2400 
Q 1875 2650 1600 2775 
z
M 1675 2050 
Q 1425 1425 1200 850 
Q 975 275 775 -125 
Q 550 50 275 200 
Q 550 650 775 1112 
Q 1000 1575 1225 2300 
Q 1400 2125 1675 2050 
z
M 4025 1600 
L 4025 2450 
L 2950 2450 
L 2950 1600 
L 4025 1600 
z
M 4025 2850 
L 4025 3700 
L 2950 3700 
L 2950 2850 
L 4025 2850 
z
M 4025 375 
L 4025 1225 
L 2950 1225 
L 2950 375 
L 4025 375 
z
M 725 4775 
Q 850 4625 1162 4312 
Q 1475 4000 1750 3700 
Q 1525 3475 1375 3300 
Q 1100 3700 350 4450 
Q 550 4600 725 4775 
z
M 4150 5225 
Q 4600 4800 4800 4500 
Q 4625 4400 4400 4200 
Q 4225 4500 3775 4925 
Q 3925 5000 4150 5225 
z
" transform="scale(0.015625)"/>
      <path id="SimHei-786e" d="M 4975 -200 
Q 5250 -175 5362 -125 
Q 5475 -75 5475 125 
L 5475 975 
L 4625 975 
L 4625 -400 
L 4200 -400 
L 4200 975 
L 3500 975 
Q 3475 625 3325 237 
Q 3175 -150 2800 -600 
Q 2625 -350 2325 -325 
Q 2650 -50 2812 262 
Q 2975 575 3025 1000 
Q 3075 1425 3087 2187 
Q 3100 2950 3075 3425 
L 4250 3425 
Q 4475 3825 4650 4225 
L 3625 4225 
Q 3325 3875 2850 3250 
Q 2650 3425 2425 3500 
Q 2875 3975 3175 4425 
Q 3475 4875 3625 5300 
Q 3900 5175 4200 5100 
Q 4075 5025 3825 4575 
L 5350 4575 
Q 4900 3775 4750 3425 
L 5950 3425 
Q 5925 2975 5925 2450 
L 5925 -50 
Q 5950 -350 5775 -462 
Q 5600 -575 5175 -675 
Q 5150 -425 4975 -200 
z
M 200 1975 
Q 550 2300 850 2837 
Q 1150 3375 1300 4225 
Q 825 4225 525 4200 
L 525 4650 
Q 875 4625 1200 4625 
L 1900 4625 
Q 2325 4625 2625 4650 
L 2625 4200 
Q 2325 4225 1800 4225 
Q 1650 3525 1400 2925 
L 2525 2925 
Q 2500 2500 2500 2125 
L 2500 1075 
Q 2500 650 2525 125 
L 2075 125 
L 2075 600 
L 1350 600 
L 1350 -300 
L 900 -300 
Q 925 225 925 600 
L 925 2100 
Q 800 1900 625 1625 
Q 475 1825 200 1975 
z
M 2075 975 
L 2075 2575 
L 1350 2575 
L 1350 975 
L 2075 975 
z
M 5475 2350 
L 5475 3075 
L 4625 3075 
L 4625 2350 
L 5475 2350 
z
M 5475 1325 
L 5475 2000 
L 4625 2000 
L 4625 1325 
L 5475 1325 
z
M 4200 2350 
L 4200 3075 
L 3500 3075 
L 3500 2350 
L 4200 2350 
z
M 4200 1325 
L 4200 2000 
L 3500 2000 
L 3500 1325 
L 4200 1325 
z
" transform="scale(0.015625)"/>
      <path id="SimHei-7387" d="M 3325 5150 
Q 3425 4900 3550 4525 
L 4800 4525 
Q 5250 4525 5800 4550 
L 5800 4125 
Q 5250 4175 4775 4175 
L 2800 4175 
Q 2975 4050 3300 3900 
Q 3075 3750 2875 3537 
Q 2675 3325 2475 3125 
L 3275 3125 
Q 3575 3425 3775 3775 
Q 4000 3600 4275 3425 
Q 3950 3250 3600 2875 
Q 3250 2500 2625 2000 
L 3850 2100 
Q 3725 2250 3600 2425 
Q 3750 2475 4000 2650 
Q 4250 2350 4700 1700 
Q 4475 1625 4225 1450 
Q 4175 1600 4025 1775 
Q 3700 1750 3425 1750 
L 3425 1050 
L 5150 1050 
Q 5675 1050 6100 1075 
L 6100 650 
Q 5700 675 5125 675 
L 3425 675 
L 3425 175 
Q 3425 -300 3450 -625 
L 2900 -625 
Q 2925 -300 2925 175 
L 2925 675 
L 1325 675 
Q 825 675 325 650 
L 325 1075 
Q 825 1050 1350 1050 
L 2925 1050 
L 2925 1700 
Q 2700 1675 2475 1637 
Q 2250 1600 2025 1525 
Q 1950 1775 1850 2000 
Q 2075 2025 2325 2200 
Q 2575 2375 2975 2800 
Q 2300 2725 2025 2625 
Q 1975 2875 1850 3175 
Q 2075 3175 2325 3487 
Q 2575 3800 2750 4175 
L 1700 4175 
Q 1150 4175 650 4125 
L 650 4550 
Q 1150 4525 1550 4525 
L 2975 4525 
Q 2900 4825 2800 5025 
Q 3025 5075 3325 5150 
z
M 1625 2575 
Q 1725 2400 1825 2200 
Q 1575 2050 1325 1862 
Q 1075 1675 800 1425 
Q 625 1675 475 1875 
Q 800 2025 1100 2212 
Q 1400 2400 1625 2575 
z
M 4850 2650 
Q 5125 2475 5337 2337 
Q 5550 2200 5875 1950 
Q 5675 1800 5500 1600 
Q 5300 1775 5062 1975 
Q 4825 2175 4575 2325 
Q 4725 2475 4850 2650 
z
M 5725 3525 
Q 5550 3450 5300 3262 
Q 5050 3075 4800 2825 
Q 4625 3050 4475 3175 
Q 4700 3325 4875 3487 
Q 5050 3650 5300 3925 
Q 5525 3700 5725 3525 
z
M 1050 3850 
Q 1425 3600 1775 3275 
Q 1575 3100 1425 2925 
Q 1075 3300 675 3525 
Q 875 3700 1050 3850 
z
" transform="scale(0.015625)"/>
      <path id="SimHei-3001" d="M 1725 -275 
Q 1325 700 925 1450 
L 1325 1650 
Q 1825 950 2325 25 
L 1725 -275 
z
" transform="scale(0.015625)"/>
      <path id="SimHei-4e8c" d="M 5050 625 
Q 5650 625 6025 675 
L 6025 50 
Q 5625 75 5050 75 
L 1425 75 
Q 775 75 350 50 
L 350 650 
Q 800 625 1400 625 
L 5050 625 
z
M 4350 4150 
Q 4900 4175 5350 4200 
L 5350 3575 
Q 4900 3600 4375 3600 
L 2050 3600 
Q 1450 3600 1000 3575 
L 1000 4175 
Q 1450 4150 2025 4150 
L 4350 4150 
z
" transform="scale(0.015625)"/>
      <path id="SimHei-5206" d="M 1000 -650 
Q 825 -375 575 -225 
Q 975 -75 1300 137 
Q 1625 350 1875 662 
Q 2125 975 2250 1350 
Q 2375 1725 2425 2275 
Q 1850 2275 1500 2250 
L 1500 2775 
Q 1900 2750 2525 2750 
L 5025 2750 
Q 4975 2375 4950 2100 
L 4750 250 
Q 4700 -200 4350 -350 
Q 4000 -500 3575 -525 
Q 3550 -275 3325 50 
Q 3850 25 4037 87 
Q 4225 150 4275 525 
L 4450 2275 
L 2950 2275 
Q 2875 1625 2737 1187 
Q 2600 750 2350 425 
Q 2100 100 1750 -175 
Q 1400 -450 1000 -650 
z
M 3950 5175 
Q 4125 4650 4662 3975 
Q 5200 3300 6175 2800 
Q 5975 2625 5775 2275 
Q 5325 2600 4987 2887 
Q 4650 3175 4425 3425 
Q 4200 3675 3925 4137 
Q 3650 4600 3475 5000 
Q 3750 5075 3950 5175 
z
M 2700 4825 
Q 2475 4425 2325 4125 
Q 2175 3825 2025 3587 
Q 1875 3350 1575 2950 
Q 1275 2550 850 2125 
Q 625 2350 400 2475 
Q 900 2925 1187 3300 
Q 1475 3675 1737 4112 
Q 2000 4550 2200 5075 
Q 2400 4925 2700 4825 
z
" transform="scale(0.015625)"/>
      <path id="SimHei-7c7b" d="M 2125 3875 
Q 1750 4375 1325 4725 
Q 1525 4875 1675 5050 
L 2525 4225 
Q 2400 4125 2200 3875 
L 3025 3875 
L 3025 4550 
Q 3025 4900 3000 5125 
L 3525 5125 
Q 3500 4850 3500 4550 
L 3500 3875 
L 4325 3875 
Q 4125 4050 4000 4150 
Q 4450 4575 4800 5175 
Q 5000 5000 5275 4825 
Q 5100 4675 4912 4475 
Q 4725 4275 4400 3875 
L 5025 3875 
Q 5425 3875 5900 3900 
L 5900 3450 
Q 5425 3475 5025 3475 
L 3500 3475 
L 3500 3050 
Q 3500 2650 3525 2175 
L 3175 2175 
Q 3475 2075 3675 2000 
Q 3575 1875 3525 1575 
L 5025 1575 
Q 5525 1575 6025 1600 
L 6025 1150 
Q 5550 1175 5050 1175 
L 3675 1175 
Q 4050 600 4712 275 
Q 5375 -50 6050 -175 
Q 5850 -350 5725 -675 
Q 4975 -450 4350 -37 
Q 3725 375 3300 950 
Q 3050 350 2425 -50 
Q 1800 -450 775 -700 
Q 650 -425 475 -225 
Q 1375 -100 2012 225 
Q 2650 550 2900 1175 
L 1625 1175 
Q 1025 1175 525 1150 
L 525 1600 
Q 950 1575 1600 1575 
L 3025 1575 
Q 3075 1825 3100 2175 
L 3000 2175 
Q 3025 2675 3025 3050 
L 3025 3325 
Q 2725 2900 2237 2550 
Q 1750 2200 925 1825 
Q 850 2025 625 2275 
Q 1175 2400 1725 2737 
Q 2275 3075 2600 3475 
L 1550 3475 
Q 1050 3475 600 3425 
L 600 3900 
Q 1075 3875 1550 3875 
L 2125 3875 
z
M 4100 3450 
Q 4850 3000 5800 2350 
Q 5575 2125 5425 1925 
Q 4700 2550 3825 3075 
Q 3975 3250 4100 3450 
z
" transform="scale(0.015625)"/>
      <path id="SimHei-46" d="M 2925 3925 
L 875 3925 
L 875 2525 
L 2425 2525 
L 2425 2050 
L 875 2050 
L 875 125 
L 300 125 
L 300 4400 
L 2925 4400 
L 2925 3925 
z
" transform="scale(0.015625)"/>
      <path id="SimHei-31" d="M 1400 3600 
Q 1075 3275 575 2975 
L 575 3450 
Q 1200 3875 1600 4450 
L 1900 4450 
L 1900 150 
L 1400 150 
L 1400 3600 
z
" transform="scale(0.015625)"/>
      <path id="SimHei-41" d="M 3075 125 
L 2475 125 
L 2125 1450 
L 1025 1450 
L 675 125 
L 75 125 
L 1325 4450 
L 1825 4450 
L 3075 125 
z
M 2000 1925 
L 1600 3450 
L 1550 3450 
L 1150 1925 
L 2000 1925 
z
" transform="scale(0.015625)"/>
      <path id="SimHei-55" d="M 2875 1375 
Q 2875 775 2562 425 
Q 2250 75 1575 75 
Q 900 75 587 425 
Q 275 775 275 1375 
L 275 4400 
L 850 4400 
L 850 1375 
Q 850 950 1050 750 
Q 1250 550 1575 550 
Q 1900 550 2100 750 
Q 2300 950 2300 1375 
L 2300 4400 
L 2875 4400 
L 2875 1375 
z
" transform="scale(0.015625)"/>
      <path id="SimHei-43" d="M 2975 1825 
Q 2950 875 2575 475 
Q 2200 75 1675 75 
Q 1075 75 650 562 
Q 225 1050 225 2125 
Q 225 3300 637 3875 
Q 1050 4450 1700 4450 
Q 2250 4450 2612 4037 
Q 2975 3625 2950 2875 
L 2400 2875 
Q 2400 3425 2225 3700 
Q 2050 3975 1700 3975 
Q 1300 3975 1062 3562 
Q 825 3150 825 2175 
Q 825 1275 1062 912 
Q 1300 550 1675 550 
Q 1950 550 2175 812 
Q 2400 1075 2400 1825 
L 2975 1825 
z
" transform="scale(0.015625)"/>
     </defs>
     <use xlink:href="#SimHei-4e3b"/>
     <use xlink:href="#SimHei-8981" transform="translate(100 0)"/>
     <use xlink:href="#SimHei-6307" transform="translate(200 0)"/>
     <use xlink:href="#SimHei-6807" transform="translate(300 0)"/>
     <use xlink:href="#SimHei-ff1a" transform="translate(400 0)"/>
     <use xlink:href="#SimHei-65b9" transform="translate(500 0)"/>
     <use xlink:href="#SimHei-5411" transform="translate(600 0)"/>
     <use xlink:href="#SimHei-51c6" transform="translate(700 0)"/>
     <use xlink:href="#SimHei-786e" transform="translate(800 0)"/>
     <use xlink:href="#SimHei-7387" transform="translate(900 0)"/>
     <use xlink:href="#SimHei-3001" transform="translate(1000 0)"/>
     <use xlink:href="#SimHei-4e8c" transform="translate(1100 0)"/>
     <use xlink:href="#SimHei-5206" transform="translate(1200 0)"/>
     <use xlink:href="#SimHei-7c7b" transform="translate(1300 0)"/>
     <use xlink:href="#SimHei-20" transform="translate(1400 0)"/>
     <use xlink:href="#SimHei-46" transform="translate(1450 0)"/>
     <use xlink:href="#SimHei-31" transform="translate(1500 0)"/>
     <use xlink:href="#SimHei-3001" transform="translate(1550 0)"/>
     <use xlink:href="#SimHei-41" transform="translate(1650 0)"/>
     <use xlink:href="#SimHei-55" transform="translate(1700 0)"/>
     <use xlink:href="#SimHei-43" transform="translate(1750 0)"/>
    </g>
   </g>
  </g>
 </g>
 <defs>
  <clipPath id="pd9b1e3a23e">
   <rect x="7.2" y="7.2" width="491.04" height="166.32"/>
  </clipPath>
 </defs>
</svg>
